<?xml version="1.0" encoding="UTF-8"?>
<svg version="1.1" xmlns="http://www.w3.org/2000/svg" width="1000" height="1000">
<path d="M0 0 C1.52685294 0.00883741 3.05371054 0.01689647 4.58057117 0.02428532 C8.96705103 0.04931291 13.35326756 0.09003978 17.73959017 0.13439798 C20.84988399 0.16530841 23.96019437 0.19315551 27.07052231 0.22040939 C42.89631029 0.36057484 58.72170778 0.53224603 74.54707791 0.71268481 C79.54475738 0.76965417 84.54244557 0.82579827 89.54014015 0.88142586 C90.26213654 0.88946322 90.98413294 0.89750058 91.72800801 0.9057815 C93.19667093 0.92212821 94.66533387 0.93847347 96.13399682 0.9548173 C109.79530917 1.10694081 123.4565926 1.26154125 137.11786715 1.41701753 C148.71397255 1.54892902 160.31010122 1.67860187 171.90625 1.80664062 C185.51150289 1.95686326 199.11673727 2.10863172 212.72194797 2.262631 C214.1880177 2.27922118 215.65408746 2.29580922 217.12015724 2.3123951 C217.84066023 2.32054671 218.56116322 2.32869833 219.30349964 2.33709697 C224.25972948 2.39307017 229.21597019 2.44799927 234.17221642 2.50250053 C248.42001976 2.65962793 262.66758505 2.82774181 276.91491514 3.02390701 C284.084075 3.12130252 291.25308742 3.19853217 298.42264169 3.26003426 C302.93534199 3.30234817 307.44774704 3.36037076 311.96021616 3.42233098 C314.03256535 3.44754887 316.10500558 3.466332 318.17747629 3.47783172 C339.68956727 3.60378213 357.33475955 8.5104036 375.69995117 20.16381836 C376.57006836 20.71295898 377.44018555 21.26209961 378.33666992 21.82788086 C401.16493653 37.31970902 414.92594923 60.9052622 428.08276367 84.51147461 C430.89184693 89.54722046 433.91123165 94.42542449 436.96557617 99.31616211 C439.20378198 102.99105407 441.23961698 106.75816721 443.27026367 110.55053711 C444.68278375 113.13243856 446.17135907 115.64916555 447.69995117 118.16381836 C449.72318451 121.49237476 451.64638264 124.85352343 453.49682617 128.28100586 C456.59261099 133.98205964 459.75630186 139.64209718 462.94995117 145.28881836 C463.51206299 146.28292725 464.0741748 147.27703613 464.65332031 148.30126953 C470.60569248 158.80123717 476.69740177 169.21484144 482.94995117 179.53881836 C484.89659955 182.76515759 486.72891328 186.03209116 488.51245117 189.35131836 C490.94838024 193.87153318 493.53955502 198.27399906 496.19995117 202.66381836 C499.38042965 207.91180588 502.4049456 213.21142505 505.30541992 218.62084961 C506.70764491 221.17784811 508.18586474 223.67163992 509.69995117 226.16381836 C511.7353407 229.51405901 513.66006937 232.89660078 515.51245117 236.35131836 C517.94838051 240.8715337 520.53956743 245.27399205 523.19995117 249.66381836 C526.31410303 254.80265099 529.26814451 259.99111259 532.10620117 265.28881836 C534.05286399 268.80044541 536.11956812 272.2302639 538.19995117 275.66381836 C541.27300191 280.74254562 544.2290497 285.85567161 547.03979492 291.08569336 C549.2310917 295.14861539 551.46214222 299.1888642 553.69995117 303.22631836 C554.13670166 304.01482178 554.57345215 304.8033252 555.0234375 305.61572266 C557.21610762 309.55706686 559.44981678 313.45356036 561.82495117 317.28881836 C576.74346049 341.83081678 588.0381572 368.75129294 583.44995117 397.85131836 C583.31355225 398.71998535 583.17715332 399.58865234 583.03662109 400.48364258 C578.89262154 425.79488437 567.07519017 447.27068278 554.12963867 469.05444336 C551.98294219 472.67081417 549.89572408 476.315948 547.82495117 479.97631836 C544.0755075 486.56808224 540.17952833 493.06653929 536.26733398 499.56274414 C531.75940771 507.05089481 527.31935854 514.57717272 522.90014648 522.11791992 C521.71860283 524.13202404 520.53409336 526.14434894 519.34838867 528.15600586 C514.44327925 536.47900518 509.56502281 544.81734928 504.69995117 553.16381836 C484.21467857 588.30188509 484.21467857 588.30188509 474.51245117 603.91381836 C471.56019066 608.68644504 468.84171389 613.53694498 466.19604492 618.48413086 C464.63167973 621.2861009 462.94360739 623.97011751 461.19995117 626.66381836 C458.35209457 631.06618184 455.81780488 635.55909428 453.34448242 640.17944336 C451.4823903 643.55863191 449.51052614 646.86414525 447.51245117 650.16381836 C444.0675993 655.85407336 440.70562432 661.5863037 437.38745117 667.35131836 C433.44022206 674.19569899 429.44280058 681.00789838 425.38745117 687.78881836 C424.90816162 688.59343506 424.42887207 689.39805176 423.93505859 690.22705078 C421.13460937 694.89317392 418.19861033 699.43651959 415.15771484 703.94897461 C413.28468526 706.79474992 411.55273793 709.71257506 409.81982422 712.64501953 C404.79431404 721.12597854 399.35032972 729.02616344 393.02026367 736.58520508 C392.10043182 737.68498924 391.19518497 738.79706729 390.30151367 739.91821289 C386.75231847 744.27070927 382.97611826 747.53195192 378.32495117 750.66381836 C377.63087158 751.13303711 376.93679199 751.60225586 376.22167969 752.08569336 C350.77087452 768.7909215 322.15743145 767.30711754 292.83096683 767.37908602 C289.0984597 767.38928512 285.36597459 767.4049589 281.63348389 767.4198761 C274.34100678 767.44814237 267.04852226 767.47135538 259.75602181 767.49265386 C253.81281017 767.51009233 247.86960685 767.5293332 241.92640495 767.54981613 C241.07581173 767.55274473 240.2252185 767.55567332 239.34884972 767.55869066 C237.61989092 767.56464884 235.89093213 767.57061005 234.16197335 767.57657425 C217.98511241 767.63214931 201.80823747 767.68184331 185.63135176 767.72957925 C171.82924786 767.77045754 158.02717067 767.81674128 144.22509766 767.86694336 C128.12682148 767.92549699 112.02853901 767.98028978 95.93023151 768.02954423 C94.20294279 768.03484105 92.47565409 768.04014365 90.7483654 768.04545212 C89.89896181 768.04806195 89.04955822 768.05067179 88.17441513 768.05336071 C82.2650217 768.07177482 76.35564104 768.09279292 70.44626045 768.11491776 C63.20500202 768.14197018 55.9637433 768.16490548 48.72245676 768.18300273 C45.04617038 768.19228898 41.36991137 768.2031464 37.69364738 768.21910667 C28.36193402 768.25857285 19.03147066 768.2447904 9.69995117 768.16381836 C8.96322736 768.15815493 8.22650354 768.1524915 7.46745476 768.14665645 C2.79652538 768.10840271 -1.87315992 768.04488936 -6.54334158 767.9526339 C-8.02280338 767.92582218 -9.50238902 767.90496934 -10.98202764 767.89098294 C-31.27815711 767.68141981 -49.56768025 761.85245861 -66.30004883 750.16381836 C-66.99485352 749.68170898 -67.6896582 749.19959961 -68.40551758 748.70288086 C-82.94191882 738.19953306 -93.58654829 725.68226847 -102.30004883 710.16381836 C-102.81196777 709.25647949 -103.32388672 708.34914063 -103.85131836 707.41430664 C-106.81053719 702.16413545 -109.75377321 696.90524317 -112.68676758 691.64038086 C-116.05615521 685.59368628 -119.45294794 679.56291217 -122.86254883 673.53881836 C-123.39678467 672.59482178 -123.93102051 671.6508252 -124.48144531 670.67822266 C-125.55565142 668.7803016 -126.62995107 666.88243348 -127.7043457 664.98461914 C-129.28520693 662.19005509 -130.86339026 659.39399677 -132.44067383 656.59741211 C-138.00271658 646.73875582 -143.59138842 636.89603253 -149.21600342 627.07293701 C-155.26707699 616.50479865 -161.26707023 605.9098828 -167.20410156 595.27709961 C-171.72619982 587.17898133 -176.28362929 579.10135359 -180.86328125 571.03564453 C-183.40809462 566.54565057 -185.91843693 562.0409006 -188.37817383 557.50366211 C-190.83941854 552.97484382 -193.40580168 548.52504123 -196.05004883 544.10131836 C-199.92322544 537.56720866 -203.66565916 530.97212734 -207.3359375 524.32226562 C-210.80582079 518.0388545 -214.32632177 511.78511332 -217.86254883 505.53881836 C-218.42047119 504.55316895 -218.97839355 503.56751953 -219.55322266 502.55200195 C-220.640842 500.63059987 -221.72848762 498.70921266 -222.81616211 496.7878418 C-224.81686686 493.24990585 -226.80953614 489.70749556 -228.80004883 486.16381836 C-231.82440679 480.7815101 -234.85702756 475.40392236 -237.89501953 470.02929688 C-239.0007976 468.07302067 -240.10610159 466.11647642 -241.2109375 464.15966797 C-244.04265138 459.14641852 -246.88333965 454.13863103 -249.74145508 449.14038086 C-267.15844357 418.63999696 -279.12076217 389.1803994 -269.87329102 353.22094727 C-264.69817427 334.64959561 -255.25765994 318.59339818 -244.78833008 302.52709961 C-243.28527478 300.14035826 -241.93912427 297.71508094 -240.61254883 295.22631836 C-237.34136113 289.11663975 -233.76209573 283.20669964 -230.18286133 277.2746582 C-226.2900178 270.82117281 -222.43965893 264.3439879 -218.61254883 257.85131836 C-214.68572069 251.19268363 -210.7405607 244.54639749 -206.75244141 237.92431641 C-203.40401489 232.35574578 -200.1018099 226.76015192 -196.80004883 221.16381836 C-193.15428111 214.98440931 -189.50143771 208.81009015 -185.80004883 202.66381836 C-179.9032938 192.86816819 -174.10953812 183.01136801 -168.30004883 173.16381836 C-166.05067449 169.3509487 -163.80079645 165.53837755 -161.55004883 161.72631836 C-161.00525879 160.80351074 -160.46046875 159.88070312 -159.89916992 158.92993164 C-156.84692677 153.76495378 -153.77397965 148.61339215 -150.67504883 143.47631836 C-146.83105613 137.10231486 -143.10566891 130.66248496 -139.38769531 124.21435547 C-136.19207491 118.68083059 -132.93854147 113.18630318 -129.63720703 107.71533203 C-126.88731537 103.15490731 -124.18027526 98.57069977 -121.48754883 93.97631836 C-117.29818271 86.83182837 -113.04678451 79.72602894 -108.77490234 72.63061523 C-105.88710207 67.82832586 -103.02994659 63.01005902 -100.20605469 58.16992188 C-94.01560891 47.56935864 -87.77170294 38.13130507 -79.30004883 29.16381836 C-78.61168945 28.3994043 -77.92333008 27.63499023 -77.21411133 26.84741211 C-63.64948793 12.34990569 -43.90542281 3.29954564 -24.32661438 1.06077576 C-23.58357475 0.97555395 -22.84053511 0.89033213 -22.07497913 0.80252784 C-14.71315134 0.0151532 -7.39905187 -0.08076089 0 0 Z M-55.30004883 30.16381836 C-56.68643555 31.06100586 -56.68643555 31.06100586 -58.10083008 31.97631836 C-73.05847098 42.20376513 -80.83797772 57.4702692 -89.45874023 72.89135742 C-91.64580618 76.77831473 -93.91597773 80.60622779 -96.23754883 84.41381836 C-99.29327979 89.47726466 -102.30771226 94.56279205 -105.30004883 99.66381836 C-110.40545885 108.36503253 -115.579598 117.02411064 -120.80786133 125.65209961 C-124.14799683 131.17763805 -127.38546233 136.75931467 -130.61254883 142.35131836 C-134.33840907 148.80696076 -138.11122675 155.229345 -141.9621582 161.61108398 C-144.71228831 166.17191922 -147.41958235 170.75652738 -150.11254883 175.35131836 C-153.80332708 181.64552316 -157.53899191 187.91136831 -161.30004883 194.16381836 C-164.99848194 200.31222129 -168.67238652 206.47338816 -172.30004883 212.66381836 C-176.43094559 219.7129938 -180.62765092 226.72112641 -184.83911133 233.72241211 C-188.02213636 239.01929222 -191.17561099 244.33219152 -194.30004883 249.66381836 C-197.86662836 255.74924552 -201.47657264 261.80710587 -205.11254883 267.85131836 C-210.00198914 275.97929105 -214.83927078 284.13695298 -219.65698242 292.30761719 C-222.31917456 296.82008479 -224.98886871 301.32715723 -227.6965332 305.8125 C-228.75159695 307.5621144 -229.79977193 309.31570884 -230.84692383 311.07006836 C-232.20211838 313.34030881 -233.56821637 315.60281148 -234.9465332 317.85913086 C-251.40835967 344.83872969 -260.76242805 371.53758646 -253.60400391 403.24707031 C-251.17929964 412.72703205 -247.22485208 420.55650171 -242.36254883 428.97631836 C-241.65090215 430.23271033 -240.94061072 431.48987093 -240.23168945 432.74780273 C-238.87208753 435.15599352 -237.50494206 437.55958744 -236.12988281 439.95898438 C-234.59529544 442.64671332 -233.08353985 445.34428723 -231.58911133 448.05444336 C-229.34130265 452.11759116 -226.98756956 456.11159228 -224.61254883 460.10131836 C-220.72401835 466.67407663 -216.96276883 473.30679747 -213.27099609 479.99169922 C-209.73013976 486.40102771 -206.14903213 492.78695161 -202.55004883 499.16381836 C-202.01919678 500.10692871 -201.48834473 501.05003906 -200.94140625 502.02172852 C-199.90753928 503.85178446 -198.85328836 505.67048819 -197.77807617 507.4765625 C-196.30004883 510.16381836 -196.30004883 510.16381836 -195.24780273 513.03662109 C-193.93666366 516.18901165 -192.92471562 517.95799337 -190.30004883 520.16381836 C-183.95636828 521.67181262 -177.66021889 521.36280532 -171.17504883 521.22631836 C-169.11890511 521.22031863 -167.06273972 521.21979282 -165.0065918 521.22412109 C-160.25189224 521.2297096 -155.49800677 521.20981917 -150.7434082 521.17944336 C-141.03697499 521.13009426 -131.33340346 521.2744158 -121.62817383 521.41381836 C-119.79090426 521.43968913 -117.95363415 521.46552204 -116.11636353 521.49131775 C-113.33056665 521.53057779 -110.54477178 521.56996219 -107.7589817 521.60970211 C-97.94212271 521.74918192 -88.12511155 521.87178104 -78.30786133 521.98022461 C-77.46605694 521.98954073 -76.62425255 521.99885685 -75.75693893 522.00845528 C-58.60453123 522.19360861 -41.45325019 522.21206286 -24.30004883 522.16381836 C-24.72157227 521.57213867 -25.1430957 520.98045898 -25.57739258 520.37084961 C-26.12524414 519.5806543 -26.6730957 518.79045898 -27.23754883 517.97631836 C-27.78282227 517.19901367 -28.3280957 516.42170898 -28.88989258 515.62084961 C-30.37772662 513.02847395 -31.07481381 511.14083775 -31.30004883 508.16381836 C-29.23754883 505.35131836 -29.23754883 505.35131836 -26.30004883 503.16381836 C-20.69044516 502.38961532 -16.59517439 504.48827913 -11.64770508 506.81225586 C-10.82934677 507.18484528 -10.01098846 507.55743469 -9.16783142 507.9413147 C-6.56108093 509.12992719 -3.96155745 510.33338327 -1.36254883 511.53881836 C1.23382375 512.73488114 3.83162704 513.92760593 6.43202209 515.11489868 C8.04627959 515.8527639 9.65811859 516.59595136 11.26707458 517.3453064 C15.69088152 519.37661901 19.98209191 520.95615256 24.69995117 522.16381836 C24.16337891 521.45201416 24.16337891 521.45201416 23.6159668 520.72583008 C20.90337957 517.11928219 18.20704445 513.50222759 15.54370117 509.85913086 C6.11001758 496.95654021 -3.46475686 484.15404208 -13.67504883 471.85131836 C-23.34797068 460.14961889 -32.35121551 447.86095077 -41.39770508 435.67163086 C-42.68520195 433.97435572 -44.00697248 432.30263243 -45.35864258 430.65600586 C-51.7295112 422.88790448 -51.7295112 422.88790448 -51.30004883 418.16381836 C-48.83993059 414.59267898 -46.56809833 412.91007788 -42.36254883 412.10131836 C-37.96548775 411.81149324 -35.63852181 413.2805917 -32.30004883 416.16381836 C-31.69547852 416.9462793 -31.0909082 417.72874023 -30.46801758 418.53491211 C-28.15594305 421.33856285 -25.72698283 423.37254239 -22.86254883 425.60131836 C-16.88721463 430.38316649 -16.88721463 430.38316649 -14.61254883 433.28881836 C-11.59636152 437.03867286 -8.1609683 440.283044 -4.30004883 443.16381836 C-3.64004883 443.16381836 -2.98004883 443.16381836 -2.30004883 443.16381836 C-2.06930664 443.73229492 -1.83856445 444.30077148 -1.60083008 444.88647461 C0.03116322 447.74368811 2.02674184 449.45101208 4.51245117 451.60131836 C8.03354172 454.68857826 11.38860427 457.85247146 14.69995117 461.16381836 C15.86134007 462.14923924 17.02842393 463.12797238 18.19995117 464.10131836 C20.47852332 466.02217918 22.21044653 467.77903072 24.13745117 470.10131836 C26.76024819 473.23588065 29.5478214 475.72700073 32.64916992 478.36694336 C34.6521924 480.12197258 36.52319277 481.95050587 38.38745117 483.85131836 C41.00989259 486.52133241 43.76030904 488.84304826 46.69995117 491.16381836 C48.36661784 492.83048503 50.03328451 494.49715169 51.69995117 496.16381836 C53.02197167 497.17872702 54.35341314 498.18167117 55.69995117 499.16381836 C53.99622628 492.25195885 51.8242388 485.69213524 49.20141602 479.07763672 C47.52344307 474.76480624 46.00801168 470.39927177 44.49291992 466.02709961 C40.80149242 455.4289144 37.04101773 444.85620026 33.26245117 434.28881836 C32.76930923 432.90885178 32.76930923 432.90885178 32.26620483 431.50100708 C26.9750525 416.6962041 21.64577941 401.90621526 16.2253418 387.14819336 C14.8445648 383.3885412 13.46742182 379.62757084 12.09188843 375.86599731 C11.54413913 374.37043355 10.99503192 372.87536633 10.44448853 371.38082886 C9.67344877 369.28756015 8.90695864 367.19267495 8.14135742 365.09741211 C7.47148804 363.27294556 7.47148804 363.27294556 6.78808594 361.41162109 C4.91547079 355.82234594 4.41673345 351.01698459 4.69995117 345.16381836 C6.69995117 342.16381836 6.69995117 342.16381836 10.51245117 341.35131836 C14.15162997 341.0678316 16.66466547 340.90903469 19.69995117 343.16381836 C20.42124744 345.1903174 21.11944759 347.22760914 21.70776367 349.29663086 C23.34328975 354.02291489 25.86022976 358.27339021 28.27416992 362.63647461 C31.94771427 369.3743045 35.28664016 376.29172688 38.69995117 383.16381836 C41.13690323 388.06146806 43.57650479 392.95779716 46.01733398 397.85351562 C46.71955631 399.26298541 47.42105981 400.67281357 48.12182617 402.08300781 C52.10908556 410.10494968 56.16555212 418.08039001 60.36791992 425.99194336 C64.52570021 433.83212467 68.52361912 441.74626006 72.47729492 449.69116211 C73.35336395 451.45155571 73.35336395 451.45155571 74.24713135 453.24751282 C76.66418654 458.10801649 79.07729104 462.97047395 81.48730469 467.83447266 C82.69634718 470.27416875 83.90752918 472.71278081 85.12098694 475.15028381 C86.25074954 477.42009471 87.37723658 479.69153977 88.49998474 481.96482849 C89.00804153 482.98432083 89.51609833 484.00381317 90.03955078 485.05419922 C90.482379 485.94731308 90.92520721 486.84042694 91.38145447 487.76060486 C92.65174865 490.07596001 94.06043574 492.09783797 95.69995117 494.16381836 C95.8826355 493.32921082 96.06531982 492.49460327 96.25354004 491.63470459 C98.01641939 483.58134644 99.77986585 475.52811269 101.54387665 467.47500229 C102.44970594 463.3395992 103.35535113 459.20415602 104.26049805 455.06860352 C108.03578683 437.82038735 111.81834693 420.57374966 115.63624573 403.33490753 C115.98869943 401.74263393 116.3406257 400.15024348 116.69200134 398.55773163 C117.17681182 396.3612988 117.66367555 394.16533131 118.15112305 391.96948242 C118.42694214 390.72362366 118.70276123 389.47776489 118.98693848 388.19415283 C120.34082727 382.44006752 120.34082727 382.44006752 122.32495117 380.91381836 C125.77994353 379.82276814 128.21829185 380.2775778 131.69995117 381.16381836 C134.25859346 383.57590434 134.6801779 384.96932604 135.0390625 388.49935913 C135.00462036 390.44354233 135.00462036 390.44354233 134.96948242 392.42700195 C134.95810745 393.13270514 134.94673248 393.83840832 134.93501282 394.56549644 C134.76793016 402.05502316 134.11658931 409.49997997 133.38745117 416.95288086 C133.25220508 418.39530781 133.11769965 419.83780438 132.98388672 421.28036499 C132.6350869 425.02346411 132.2780467 428.76572456 131.9185791 432.5078125 C131.34147341 438.52891636 130.77656674 444.55117115 130.21304321 450.57355881 C130.01650098 452.65989143 129.81592455 454.74580554 129.61474609 456.83169556 C129.43455933 458.73560562 129.43455933 458.73560562 129.25073242 460.67797852 C129.14414307 461.78887848 129.03755371 462.89977844 128.92773438 464.04434204 C128.70483087 467.09699116 128.65935965 470.10430403 128.69995117 473.16381836 C131.04811718 470.81565235 131.78058339 468.8620111 133.02807617 465.78491211 C133.49052734 464.65384033 133.95297852 463.52276855 134.42944336 462.35742188 C134.67609741 461.74794708 134.92275146 461.13847229 135.17687988 460.51052856 C136.51723886 457.20032022 137.87524391 453.89734808 139.23120117 450.59350586 C139.51541931 449.89989456 139.79963745 449.20628326 140.09246826 448.49165344 C143.14934692 441.04334245 146.29541463 433.63367145 149.44995117 426.22631836 C150.62877329 423.45567064 151.80706752 420.68479875 152.98510742 417.91381836 C153.28405411 417.2107254 153.58300079 416.50763245 153.89100647 415.78323364 C157.57776617 407.10656729 161.23206298 398.41623547 164.88745117 389.72631836 C166.23890583 386.51403339 167.59046628 383.30179296 168.94213867 380.08959961 C169.26616165 379.31957108 169.59018463 378.54954254 169.92402649 377.75617981 C172.33479077 372.02839362 174.75098732 366.30293738 177.17285156 360.57983398 C178.05083015 358.50481551 178.92766237 356.42931153 179.80322266 354.35327148 C181.86212291 349.47653472 183.93633431 344.6074767 186.04789734 339.75326538 C186.84208076 337.92560552 187.63176389 336.09599226 188.42138672 334.26635742 C189.41885804 331.95628968 190.42389256 329.64946876 191.4375 327.34643555 C191.87989014 326.31808594 192.32228027 325.28973633 192.77807617 324.23022461 C193.17414063 323.32216064 193.57020508 322.41409668 193.97827148 321.47851562 C194.98461369 319.04402203 194.98461369 319.04402203 193.69995117 316.16381836 C191.07454351 314.51553075 191.07454351 314.51553075 187.7590332 312.98095703 C187.13947754 312.67804245 186.51992188 312.37512787 185.8815918 312.06303406 C184.53429306 311.40560605 183.18478331 310.75269455 181.83337784 310.10375023 C179.69326717 309.07481741 177.56034199 308.03223818 175.42892456 306.98542786 C169.36742469 304.01126595 163.29465557 301.06057347 157.21508789 298.12353516 C153.49752508 296.32638472 149.78897543 294.5116609 146.08529282 292.68609047 C144.67329822 291.99466835 143.25790131 291.31014908 141.83911514 290.63277245 C139.85080996 289.68319042 137.87467173 288.71172372 135.8996582 287.73486328 C134.77238312 287.188759 133.64510803 286.64265472 132.4836731 286.08000183 C129.13038142 283.77175328 128.06350692 281.97256207 126.69995117 278.16381836 C126.30231134 271.76922289 128.25119064 265.2208273 129.93041992 259.09350586 C130.15680649 258.24088669 130.38319305 257.38826752 130.61643982 256.5098114 C131.10810913 254.65976442 131.60303565 252.81058059 132.10089111 250.96218872 C133.48671687 245.81155604 134.84417009 240.65343264 136.20385742 235.49584961 C136.4915802 234.40632492 136.77930298 233.31680023 137.07574463 232.19425964 C140.2694293 220.06585662 143.30164891 207.89810145 146.32495117 195.72631836 C150.35898782 179.49380584 154.42606462 163.27075264 158.55541992 147.06225586 C158.97134386 145.42848979 159.38723748 143.794716 159.80310059 142.16093445 C161.6424832 134.93605911 163.48361446 127.71164981 165.33248806 120.48919678 C166.09641792 117.50192914 166.85737292 114.51390918 167.61760902 111.52569962 C167.97266252 110.1329395 168.32902143 108.74051141 168.68678856 107.34844589 C169.17998333 105.42896188 169.66822079 103.5082062 170.15625 101.58740234 C170.43157059 100.51054672 170.70689117 99.4336911 170.99055481 98.32420349 C171.74761011 94.95149613 172.25371725 91.59034479 172.69995117 88.16381836 C131.24116711 87.57840715 89.77951468 87.04992864 48.31640625 86.93164062 C44.83602902 86.92133827 41.35580029 86.90396073 37.87548828 86.88037109 C33.77382203 86.85302888 29.67237631 86.8406612 25.57062149 86.83974457 C24.0773654 86.83709678 22.58410761 86.82946101 21.09090805 86.81620026 C2.1676678 86.6572115 -13.34710327 92.42954504 -27.40942383 105.21850586 C-34.81674315 112.84008649 -39.73779744 122.83078251 -45.02807617 131.9699707 C-46.97903898 135.33491347 -48.95152598 138.68707288 -50.92504883 142.03881836 C-51.32328857 142.71589844 -51.72152832 143.39297852 -52.13183594 144.09057617 C-60.79740473 158.81525374 -69.4945453 173.52233815 -78.30004883 188.16381836 C-88.38092681 204.93540729 -98.37003893 221.75585696 -108.11254883 238.72631836 C-113.6139086 248.30709744 -119.26904121 257.77336765 -125.07543945 267.17163086 C-127.04980625 270.38351942 -128.9889137 273.61628379 -130.92504883 276.85131836 C-131.28832275 277.45790283 -131.65159668 278.0644873 -132.02587891 278.68945312 C-133.11788953 280.51387114 -134.20909654 282.33876733 -135.30004883 284.16381836 C-136.81989782 286.70607547 -138.34056536 289.24783847 -139.86254883 291.78881836 C-140.23726318 292.4144165 -140.61197754 293.04001465 -140.99804688 293.68457031 C-143.38112819 297.65499011 -145.79910203 301.60204883 -148.23754883 305.53881836 C-151.67122658 311.09907365 -155.00090963 316.71459952 -158.29443359 322.35888672 C-160.64475331 326.37896975 -163.03015838 330.37340574 -165.46411133 334.34350586 C-165.99810547 335.21869873 -166.53209961 336.0938916 -167.08227539 336.99560547 C-168.11184315 338.67993667 -169.14726227 340.36071126 -170.18969727 342.03710938 C-181.90479917 361.25707483 -185.014311 383.58915186 -179.75634766 405.42138672 C-177.94464562 412.13898545 -175.01006547 417.75657409 -171.48754883 423.72631836 C-170.31747652 425.75059488 -169.14823526 427.77535195 -167.97973633 429.80053711 C-167.37484375 430.84258301 -166.76995117 431.88462891 -166.14672852 432.95825195 C-163.07743297 438.28610104 -160.10123768 443.66548938 -157.11254883 449.03881836 C-152.09480742 458.02189612 -146.96518084 466.92626592 -141.71459961 475.7746582 C-138.70730288 480.85394813 -135.72137749 485.9457185 -132.73754883 491.03881836 C-132.11686523 492.09270752 -131.49618164 493.14659668 -130.85668945 494.23242188 C-130.27983398 495.21782959 -129.70297852 496.2032373 -129.10864258 497.21850586 C-128.59100342 498.10006348 -128.07336426 498.98162109 -127.54003906 499.88989258 C-126.30004883 502.16381836 -126.30004883 502.16381836 -125.30004883 505.16381836 C-141.99854756 506.02183438 -141.99854756 506.02183438 -147.13208008 501.57788086 C-150.28004842 497.52700686 -152.38104464 492.95672079 -154.3918457 488.25952148 C-155.56156357 485.56036607 -156.97132573 483.03181054 -158.42504883 480.47631836 C-159.10954102 479.20208008 -159.10954102 479.20208008 -159.80786133 477.90209961 C-162.1899995 473.53068898 -164.68740783 469.22572943 -167.17504883 464.91381836 C-169.3843047 461.04896051 -171.50098723 457.1348472 -173.62719727 453.22387695 C-175.41065727 449.9614882 -177.21572878 446.71184338 -179.02661133 443.46459961 C-179.98567383 441.74466797 -179.98567383 441.74466797 -180.96411133 439.98999023 C-181.94834552 438.22579223 -182.93311282 436.46189941 -183.91918945 434.69873047 C-186.06351563 430.8631569 -188.18605254 427.01617298 -190.30004883 423.16381836 C-190.69933594 422.46434082 -191.09862305 421.76486328 -191.51000977 421.04418945 C-197.26613613 410.47818775 -198.97013158 399.14620656 -198.8215332 387.25976562 C-198.80008582 385.22981957 -198.82146822 383.20342405 -198.84692383 381.17358398 C-198.88716951 362.52140076 -192.23398174 345.78173388 -182.30004883 330.16381836 C-181.35789579 328.60411962 -180.42050934 327.0415331 -179.48754883 325.47631836 C-177.73060614 322.54502234 -175.96979384 319.61615953 -174.20239258 316.69116211 C-170.47500613 310.51312432 -166.79200012 304.31820253 -163.23754883 298.03881836 C-160.0201895 292.37013764 -156.64987334 286.81544185 -153.21411133 281.27709961 C-150.87075977 277.46556656 -148.62181967 273.60492526 -146.37817383 269.73413086 C-141.41014027 261.17696685 -136.34010732 252.67865944 -131.30004883 244.16381836 C-130.96521484 243.5981012 -130.63038086 243.03238403 -130.28540039 242.44952393 C-128.1603847 238.85933576 -126.03482507 235.26947029 -123.90866089 231.67996216 C-122.89128742 229.96233753 -121.87410769 228.24459817 -120.85693359 226.52685547 C-117.9637564 221.64432128 -115.06498516 216.76559086 -112.13989258 211.90209961 C-109.90461081 208.1834955 -107.70499894 204.44581151 -105.52124023 200.69677734 C-102.02151371 194.69154889 -98.46469771 188.79728782 -94.52661133 183.06616211 C-92.89880536 180.54150763 -91.64695321 177.89059737 -90.35473633 175.18334961 C-89.1888439 172.95088151 -87.84902833 170.92826255 -86.42504883 168.85131836 C-82.98849685 163.82666281 -80.16358205 158.52882888 -77.30004883 153.16381836 C-73.10854006 145.61910259 -68.4934052 138.32909839 -63.95581055 130.98950195 C-57.20832215 120.11835226 -57.20832215 120.11835226 -50.92504883 108.97631836 C-47.14028127 101.93364008 -43.28889719 96.8315566 -37.06958008 91.74194336 C-35.07076835 90.09264935 -35.07076835 90.09264935 -33.30004883 87.16381836 C-32.31004883 86.83381836 -31.32004883 86.50381836 -30.30004883 86.16381836 C-30.30004883 85.50381836 -30.30004883 84.84381836 -30.30004883 84.16381836 C-29.62973633 83.9150293 -28.95942383 83.66624023 -28.26879883 83.40991211 C-25.36243304 82.19000331 -22.61373825 80.77285533 -19.83178711 79.29492188 C-4.7459394 71.36044033 10.05036544 69.97796335 26.88745117 70.07397461 C28.15572754 70.07776627 29.42400391 70.08155792 30.73071289 70.08546448 C42.91070339 70.13556268 55.08892118 70.30919673 67.26738358 70.50091362 C93.89501698 70.9198842 120.52294301 71.21274004 147.15307617 71.41772461 C147.82162439 71.42289683 148.49017262 71.42806905 149.17897987 71.43339801 C162.05865704 71.53302566 174.93835283 71.62999604 187.81811523 71.71798706 C201.85838325 71.81401755 215.89842767 71.92066937 229.93837738 72.0561285 C236.6835108 72.12068872 243.42852195 72.17713631 250.17382812 72.21899414 C256.58008147 72.25887939 262.98604634 72.31314968 269.39204383 72.38311243 C272.77202649 72.41958242 276.15153461 72.44777764 279.53171539 72.46324158 C296.40919194 72.5455263 312.70443945 72.64219666 327.94995117 80.85131836 C328.60705078 81.19453125 329.26415039 81.53774414 329.94116211 81.89135742 C343.15963855 89.00504406 355.61937466 99.40839539 363.69995117 112.16381836 C364.47779699 113.33058708 365.2578744 114.49587016 366.03979492 115.65991211 C372.59529996 125.56107277 378.50992343 135.74404689 384.29760742 146.10913086 C387.77013329 152.31951277 391.35074126 158.4637183 394.94995117 164.60131836 C399.17590328 171.81523607 403.35591169 179.04843933 407.43261719 186.34765625 C413.13381998 196.54079624 418.9568251 206.67679107 425.01245117 216.66381836 C426.94122065 219.8473839 428.75086182 223.07227296 430.51245117 226.35131836 C433.27427761 231.47628238 436.23677831 236.4594825 439.27734375 241.42236328 C441.46812082 245.02209904 443.536784 248.66901259 445.54370117 252.37475586 C448.81452186 258.41398925 452.24864247 264.35140132 455.69995117 270.28881836 C460.92725213 279.30726278 466.07053704 288.36635999 471.13745117 297.47631836 C475.21516509 304.8040244 479.33215626 312.06127064 483.85620117 319.12475586 C486.06391851 322.76374757 488.08803596 326.48507045 490.11206055 330.22875977 C491.1369744 332.12321154 492.16902614 334.01382712 493.2097168 335.8996582 C507.52066503 361.84411318 514.68491199 384.49443636 506.37573242 413.95678711 C502.26548048 427.25791435 496.60289645 439.53476312 488.76245117 451.02319336 C486.14888846 455.00293659 484.14300837 459.16524178 482.08276367 463.44897461 C480.42934428 466.6950946 478.45915548 469.58901579 476.38745117 472.57788086 C474.22284706 475.89493623 472.30885509 479.32675901 470.38745117 482.78881836 C467.42959669 488.11332943 464.41353108 493.38863505 461.26245117 498.60131836 C458.15058445 503.75159929 455.0618824 508.9137731 452.01245117 514.10131836 C451.60792725 514.7892749 451.20340332 515.47723145 450.78662109 516.18603516 C448.25893479 520.49155164 445.74423465 524.8044921 443.23510742 529.12084961 C437.74750555 538.55770029 432.25781333 547.97619885 426.48510742 557.24194336 C424.16160918 561.0449558 421.9649995 564.91589213 419.76879883 568.79296875 C414.56309331 577.96063962 409.07566915 586.95968657 403.51245117 595.91381836 C400.63571607 600.57085122 397.96428666 605.29176762 395.37573242 610.11303711 C389.51034946 620.79104198 383.11873926 631.18432098 376.74072266 641.5612793 C374.18602925 645.71926304 371.66678045 649.89459507 369.18701172 654.09765625 C355.78727132 676.73453932 341.94311863 694.32517778 316.07104492 702.36694336 C308.32705981 704.19750299 300.54580217 704.31559026 292.62071228 704.32876587 C291.53712498 704.33440941 290.45353768 704.34005296 289.33711439 704.34586751 C285.72230593 704.36350215 282.10751079 704.37426264 278.49267578 704.38500977 C275.89305448 704.39623391 273.29343493 704.40786652 270.69381714 704.4198761 C264.36966956 704.44826353 258.04551327 704.47142052 251.72133803 704.49265386 C246.56592781 704.51004706 241.41052752 704.5292858 236.25512886 704.54981613 C235.51901523 704.55274473 234.7829016 704.55567332 234.02448149 704.55869066 C232.52840569 704.56464859 231.0323299 704.5706098 229.53625412 704.57657425 C215.50840604 704.63226581 201.48054148 704.68191903 187.45266414 704.72957925 C175.48469631 704.77039218 163.51675979 704.81666388 151.54882812 704.86694336 C137.60410495 704.92552702 123.65937452 704.9803247 109.71461493 705.02954423 C108.21725529 705.03484115 106.71989568 705.04014375 105.22253609 705.04545212 C104.11795411 705.04936687 104.11795411 705.04936687 102.99105735 705.05336071 C97.86933796 705.07176979 92.74763354 705.0928189 87.62592888 705.11491776 C34.8019356 705.33989379 34.8019356 705.33989379 17.63046372 704.96079135 C15.77931075 704.92172469 13.92785037 704.89809068 12.07642269 704.87552834 C1.30742513 704.54890129 -8.73566816 701.44176139 -18.30004883 696.53881836 C-18.96302979 696.20325928 -19.62601074 695.8677002 -20.30908203 695.52197266 C-29.31523477 690.78897717 -37.27769238 684.51908652 -44.30004883 677.16381836 C-44.9174292 676.52895508 -45.53480957 675.8940918 -46.17089844 675.23999023 C-51.4203837 669.6362069 -55.04742986 663.78233326 -58.55004883 656.97631836 C-59.55271451 655.06482621 -60.55785811 653.15463147 -61.56567383 651.24584961 C-62.26865601 649.91263672 -62.26865601 649.91263672 -62.98583984 648.55249023 C-64.5899779 645.63685087 -66.43579113 642.91846779 -68.30004883 640.16381836 C-69.35372468 638.13890585 -70.37554424 636.09705193 -71.36254883 634.03881836 C-73.32119654 629.94447874 -73.32119654 629.94447874 -75.80004883 626.16381836 C-77.66053546 623.68316951 -78.89726678 621.08314645 -80.23754883 618.28881836 C-82.34191323 614.00253312 -84.6114245 610.11273534 -87.30004883 606.16381836 C-88.14807259 604.65112732 -88.9790135 603.12882596 -89.80004883 601.60131836 C-92.87871603 595.88379355 -96.07895405 590.23971996 -99.30004883 584.60131836 C-99.79827148 583.72725342 -100.29649414 582.85318848 -100.80981445 581.95263672 C-103.80496606 576.71651895 -106.86592217 571.52732441 -110.00317383 566.375 C-111.19725897 564.33907584 -112.27283659 562.28779808 -113.30004883 560.16381836 C-115.18397493 556.27870935 -117.37690192 552.62397058 -119.63989258 548.94897461 C-121.95024956 545.07301101 -124.10868266 541.10827746 -126.30004883 537.16381836 C-144.12004883 537.16381836 -161.94004883 537.16381836 -180.30004883 537.16381836 C-174.56676297 548.68508578 -174.56676297 548.68508578 -168.30004883 559.85131836 C-163.65161113 567.76133967 -159.17241516 575.75742001 -154.73754883 583.78881836 C-150.19674328 592.00675793 -145.59051695 600.17145261 -140.78930664 608.23999023 C-137.50571617 613.77168206 -134.37035537 619.37763798 -131.26196289 625.00927734 C-127.79288663 631.29142728 -124.27303954 637.54382406 -120.73754883 643.78881836 C-120.17962646 644.77446777 -119.6217041 645.76011719 -119.046875 646.77563477 C-117.95925566 648.69703685 -116.87161004 650.61842406 -115.78393555 652.53979492 C-113.7832307 656.07773103 -111.790605 659.62016546 -109.80004883 663.16381836 C-107.29684279 667.61750676 -104.79039519 672.06935461 -102.28051758 676.51928711 C-101.47614258 677.94543335 -101.47614258 677.94543335 -100.65551758 679.40039062 C-99.54231266 681.36984435 -98.42641928 683.33778084 -97.30786133 685.30419922 C-94.57301461 690.11437264 -91.87248198 694.93596726 -89.25708008 699.81225586 C-76.93694654 722.55508844 -59.1162457 739.69819966 -34.21801758 748.21850586 C-22.53355203 751.43441381 -10.33448742 751.3129294 1.69702148 751.29321289 C3.06066654 751.29454788 4.42431124 751.29630337 5.78795528 751.29843712 C9.50108018 751.30292095 13.21417774 751.3011063 16.92730308 751.2980175 C20.12695685 751.29613013 23.32660484 751.29786072 26.52625841 751.29958034 C36.1625185 751.3047145 45.79875902 751.30013631 55.43501663 751.29279327 C60.951052 751.2886107 66.46708732 751.28630111 71.98312378 751.28411865 C129.29869806 751.25917178 186.61395715 751.10792845 243.92885983 750.8300854 C250.79146868 750.79717438 257.65408702 750.76891149 264.51672363 750.74249268 C272.90233061 750.7100032 281.2878665 750.67021908 289.67339391 750.62122893 C293.95703662 750.59631151 298.2406379 750.57426459 302.52433205 750.56044006 C306.46089353 750.54757676 310.39729805 750.52550329 314.33377218 750.4964273 C315.75063499 750.48747891 317.16752258 750.48169908 318.5844121 750.47960687 C342.73759139 750.43746193 361.14668995 744.42659529 378.57495117 727.44116211 C387.72092681 718.114381 394.02602884 706.48875507 400.62182617 695.32006836 C403.59189725 690.30830928 406.69081468 685.38663349 409.82495117 680.47631836 C414.8976435 672.50740399 419.73868612 664.42487672 424.48217773 656.2565918 C426.54138306 652.71779709 428.62181457 649.19151689 430.69995117 645.66381836 C431.53729731 644.24070396 432.37453707 642.81752698 433.21166992 641.39428711 C433.83114502 640.34120361 433.83114502 640.34120361 434.46313477 639.2668457 C435.6739723 637.20799166 436.88430126 635.14883952 438.09448242 633.08959961 C443.34141531 624.1629995 448.60366975 615.24555664 453.87402344 606.33276367 C456.82713497 601.33753738 459.7744584 596.33902162 462.7121582 591.3347168 C468.99732056 580.62886628 475.33448008 569.95825761 481.88745117 559.41381836 C484.83971168 554.64119168 487.55818845 549.79069174 490.20385742 544.84350586 C492.23572261 541.20418596 494.49276508 537.7315307 496.79370117 534.25756836 C499.04008624 530.61179587 501.05268998 526.86419981 503.08959961 523.09838867 C505.64897648 518.43439383 508.35779551 513.86214802 511.07495117 509.28881836 C511.64221924 508.33064209 512.2094873 507.37246582 512.79394531 506.38525391 C516.46246137 500.20315402 520.20974311 494.07758928 524.00463867 487.97241211 C526.20298919 484.33044432 528.19820836 480.59390655 530.20385742 476.84350586 C531.76822262 474.04153582 533.45629495 471.35751921 535.19995117 468.66381836 C538.04642884 464.26358651 540.58397608 459.7771678 543.04370117 455.15209961 C544.58762312 452.36648572 546.23409328 449.66582407 547.92016602 446.96459961 C563.20387431 422.30386776 572.46759819 393.03988029 565.85620117 364.02319336 C559.87791672 342.68159702 546.27634811 323.03138465 535.17651367 304.11303711 C531.9533515 298.61266014 528.78701841 293.08157512 525.63745117 287.53881836 C520.93273049 279.26352959 516.12120605 271.05574548 511.23876953 262.8840332 C508.06799427 257.55777797 505.05056884 252.16912433 502.10180664 246.71704102 C500.22890802 243.30589964 498.2324875 239.98141841 496.19995117 236.66381836 C493.08330581 231.52654792 490.13168005 226.33637892 487.29370117 221.03881836 C484.98049302 216.86597227 482.4954421 212.80147245 480.02294922 208.72167969 C477.24428022 204.11875663 474.63542308 199.44567644 472.09448242 194.70678711 C470.25493108 191.35231114 468.26703077 188.09679352 466.28027344 184.828125 C464.75890229 182.26320559 463.31972335 179.67061436 461.90307617 177.04663086 C458.80729136 171.34557708 455.64360048 165.68553953 452.44995117 160.03881836 C451.88783936 159.04470947 451.32572754 158.05060059 450.74658203 157.02636719 C444.79420986 146.52639955 438.70250057 136.11279528 432.44995117 125.78881836 C430.5033028 122.56247913 428.67098907 119.29554556 426.88745117 115.97631836 C424.45152183 111.45610302 421.86033491 107.05364467 419.19995117 102.66381836 C416.60231781 98.3773212 414.06762284 94.08347214 411.69995117 89.66381836 C401.85127687 71.35783371 390.42906453 52.01229919 373.69995117 39.16381836 C372.96647461 38.59405273 372.23299805 38.02428711 371.47729492 37.43725586 C353.6524217 24.27873156 335.41545337 20.13034413 313.65214539 19.92967224 C312.60732351 19.91656716 311.56250163 19.90346208 310.48601848 19.88995987 C307.01789495 19.84751621 303.54973592 19.81119213 300.08154297 19.77490234 C297.57743923 19.74555553 295.07333977 19.71584178 292.56924438 19.68579102 C286.47640845 19.61371483 280.38353908 19.54568557 274.29063495 19.47965746 C269.29539585 19.42543859 264.30017859 19.36950253 259.30497169 19.3123951 C258.230092 19.30010921 258.230092 19.30010921 257.13349757 19.28757511 C255.67600971 19.27090926 254.21852189 19.25423978 252.76103411 19.23756672 C239.08181755 19.0812838 225.40254624 18.93031731 211.72325031 18.78116686 C200.17384946 18.65511782 188.62450726 18.52456195 177.07519531 18.390625 C138.49664532 17.94378715 99.91799469 17.53573164 61.33833981 17.19629955 C57.82400196 17.16492581 54.30967841 17.1322918 50.79535675 17.09915924 C39.06339226 16.98923215 27.33169927 16.89799835 15.59931374 16.84880257 C12.32596501 16.83454335 9.05289201 16.81141963 5.77966881 16.77950859 C-15.75912754 16.57698203 -37.12876708 16.75168183 -55.30004883 30.16381836 Z M189.69995117 88.16381836 C189.49681808 88.98301254 189.49681808 88.98301254 189.2895813 89.8187561 C182.26002134 118.15511076 175.1363988 146.46445563 167.84262085 174.73388672 C164.45237925 187.87478832 161.07375116 201.01868688 157.69995117 214.16381836 C157.51867928 214.86992752 157.33740738 215.57603668 157.1506424 216.30354309 C154.90289892 225.06095999 152.6668911 233.82121633 150.45068359 242.58666992 C149.82968201 245.03706495 149.20538057 247.48662627 148.57763672 249.93530273 C147.72014953 253.28272503 146.87447492 256.63290838 146.03198242 259.98413086 C145.65067924 261.45694016 145.65067924 261.45694016 145.26167297 262.95950317 C145.03868027 263.85724457 144.81568756 264.75498596 144.5859375 265.67993164 C144.29098137 266.84215744 144.29098137 266.84215744 143.99006653 268.02786255 C143.66686522 270.40741154 143.86154702 271.92076707 144.69995117 274.16381836 C146.63785992 275.6479551 146.63785992 275.6479551 149.10229492 276.77709961 C149.99239258 277.21989258 150.88249023 277.66268555 151.79956055 278.11889648 C152.73606445 278.5668457 153.67256836 279.01479492 154.63745117 279.47631836 C155.57008789 279.94360352 156.50272461 280.41088867 157.46362305 280.89233398 C161.02532163 282.66061526 161.02532163 282.66061526 164.69995117 284.16381836 C167.53055125 282.74851832 167.77469587 281.04124982 168.97729492 278.14038086 C169.40848633 277.11944336 169.83967773 276.09850586 170.28393555 275.04663086 C171.18293627 272.88280228 172.08137804 270.71874137 172.97924805 268.55444336 C173.41172852 267.53092773 173.84420898 266.50741211 174.28979492 265.45288086 C174.68030029 264.51138184 175.07080566 263.56988281 175.47314453 262.59985352 C177.05008503 259.46856748 178.57150451 257.72804169 181.69995117 256.16381836 C189.21720181 255.47932833 196.27074364 256.84263541 203.57495117 258.47631836 C205.15179687 258.81699341 205.15179687 258.81699341 206.76049805 259.16455078 C213.77427567 260.69351517 220.76817771 262.29406367 227.69995117 264.16381836 C228.1872168 263.28725586 228.67448242 262.41069336 229.17651367 261.50756836 C234.5418639 251.89524247 240.056121 242.37465933 245.61450195 232.87280273 C248.6685341 227.65051498 251.71021776 222.42317736 254.69995117 217.16381836 C258.92443465 209.7345543 263.24618021 202.36250029 267.55834961 194.98388672 C271.34731008 188.49603154 275.09518991 181.9877368 278.80932617 175.45678711 C280.90933406 171.79912874 283.05217006 168.1685336 285.19995117 164.53881836 C289.78029715 156.79285935 294.24464807 148.98204153 298.69995117 141.16381836 C304.27495441 131.38168424 309.90490231 121.63598813 315.64477539 111.94946289 C318.3523672 107.36748082 321.02323161 102.76387614 323.69995117 98.16381836 C320.81272542 95.81250458 318.13253972 94.3727276 314.63745117 93.10131836 C313.78022461 92.7803418 312.92299805 92.45936523 312.03979492 92.12866211 C301.71210959 89.14510857 291.53393468 88.82864518 280.87182617 88.74975586 C279.23544434 88.73095778 277.59907131 88.71137871 275.96270752 88.69107056 C271.66096597 88.63998444 267.35919113 88.60034012 263.05731201 88.56292725 C259.63532888 88.53128598 256.21346422 88.49155401 252.79157257 88.45135117 C231.7607073 88.20459359 210.73216748 88.10730975 189.69995117 88.16381836 Z M337.69995117 108.16381836 C332.67279281 114.78398978 328.6659647 122.19891336 324.49746704 129.37734985 C322.60953843 132.62839894 320.71275462 135.87427898 318.81713867 139.12084961 C318.45040543 139.74950424 318.08367218 140.37815887 317.70582581 141.02586365 C315.17403192 145.36283549 312.61353025 149.68062576 310.01245117 153.97631836 C305.63855886 161.22400118 301.38511103 168.54042838 297.12841797 175.85742188 C293.22560525 182.56204001 289.28668133 189.24389105 285.32495117 195.91381836 C279.94221253 204.98665232 274.69477281 214.1337883 269.47363281 223.30007935 C264.3525324 232.29008794 259.17402798 241.24186498 253.8972168 250.14135742 C251.6142687 253.99778932 249.34590026 257.862813 247.07495117 261.72631836 C246.22865134 263.1651524 245.38230257 264.60395766 244.53588867 266.04272461 C243.62709961 267.58766602 243.62709961 267.58766602 242.69995117 269.16381836 C245.74962569 271.1969347 248.78284721 272.70376474 252.09057617 274.28100586 C253.37052595 274.89428322 254.65047381 275.5075646 255.93041992 276.12084961 C257.93544662 277.07811656 259.94089178 278.03450025 261.9465332 278.99047852 C263.89143159 279.91847426 265.8347865 280.84964714 267.77807617 281.78100586 C268.93726563 282.33385254 270.09645508 282.88669922 271.29077148 283.45629883 C274.8475461 285.23774266 278.26441752 287.16057739 281.69995117 289.16381836 C285.16340754 283.86616468 288.54532044 278.57050754 291.51245117 272.97631836 C294.31784809 267.73562965 297.42463112 262.73230566 300.59887695 257.71118164 C304.6497998 251.28832698 308.54574161 244.7775601 312.43530273 238.25610352 C315.08343648 233.82620077 317.77051945 229.43487731 320.57495117 225.10131836 C323.34155496 220.81776032 325.76630438 216.40728611 328.17260742 211.91381836 C331.32466286 206.23850626 334.95056599 200.85282965 338.48901367 195.41381836 C341.39547331 190.90688535 344.16759808 186.3926687 346.69995117 181.66381836 C350.29158815 174.95688883 354.42655471 168.63250575 358.59448242 162.27319336 C359.20678711 161.32959961 359.8190918 160.38600586 360.44995117 159.41381836 C361.00166992 158.57334961 361.55338867 157.73288086 362.12182617 156.86694336 C364.03346511 153.5925519 365.62975648 150.82459502 366.69995117 147.16381836 C365.5776022 144.31236033 364.59280662 142.43251023 362.88745117 139.97631836 C362.46383301 139.3255835 362.04021484 138.67484863 361.60375977 138.00439453 C360.73432206 136.67521116 359.85375945 135.35323746 358.9621582 134.03881836 C357.83581028 132.36563615 356.76205068 130.65732712 355.69604492 128.94506836 C350.85239261 121.25994152 345.13930908 114.5465914 338.69995117 108.16381836 C338.36995117 108.16381836 338.03995117 108.16381836 337.69995117 108.16381836 Z M374.69995117 165.16381836 C374.28487305 165.90760742 373.86979492 166.65139648 373.44213867 167.41772461 C367.87805771 177.27708982 362.00438271 186.93592549 356.09838867 196.59350586 C353.3310299 201.12010321 350.59934046 205.66635844 347.88745117 210.22631836 C345.03088015 215.02522604 342.0613645 219.73496283 339.01245117 224.41381836 C335.87483845 229.23063246 333.03883729 234.13372717 330.34448242 239.21069336 C328.33530155 242.81862862 326.15583838 246.29880022 323.94995117 249.78881836 C320.2576339 255.64518291 316.62104066 261.530054 313.07495117 267.47631836 C312.63699219 268.19964355 312.1990332 268.92296875 311.74780273 269.66821289 C309.33136305 273.63938539 309.33136305 273.63938539 308.69995117 278.16381836 C307.21495117 278.65881836 307.21495117 278.65881836 305.69995117 279.16381836 C304.15280778 281.24207304 304.15280778 281.24207304 302.76245117 283.78881836 C302.24553711 284.68987305 301.72862305 285.59092773 301.19604492 286.51928711 C300.70233398 287.39198242 300.20862305 288.26467773 299.69995117 289.16381836 C299.27842773 289.86120117 298.8569043 290.55858398 298.42260742 291.27709961 C296.20423201 294.9515155 296.20423201 294.9515155 295.69995117 299.16381836 C297.8828331 301.26133638 297.8828331 301.26133638 300.69995117 303.35131836 C310.71907796 311.32546291 320.86103052 320.59002463 323.16870117 333.85913086 C322.44973234 338.92786112 319.84670459 342.72077348 317.19995117 347.03881836 C316.67530273 347.91795898 316.1506543 348.79709961 315.61010742 349.70288086 C314.3182388 351.86382474 313.01475144 354.0167775 311.69995117 356.16381836 C312.68995117 357.15381836 313.67995117 358.14381836 314.69995117 359.16381836 C315.35350586 358.60114258 315.35350586 358.60114258 316.02026367 358.02709961 C316.61581055 357.5153418 317.21135742 357.00358398 317.82495117 356.47631836 C318.46561523 355.92459961 319.1062793 355.37288086 319.76635742 354.80444336 C321.40554628 353.41361645 323.08045026 352.06505378 324.76245117 350.72631836 C327.58882297 348.26075998 329.88828807 345.71101631 332.28198242 342.84350586 C336.57610924 337.75679917 341.67632633 333.50550709 346.68823242 329.15209961 C347.6840332 328.16790039 347.6840332 328.16790039 348.69995117 327.16381836 C348.69995117 326.50381836 348.69995117 325.84381836 348.69995117 325.16381836 C349.58360352 324.75389648 349.58360352 324.75389648 350.48510742 324.33569336 C356.3843618 321.21439474 360.4969529 316.22897012 364.69995117 311.16381836 C366.6795206 309.47293614 368.67940313 307.80551364 370.69995117 306.16381836 C372.37950939 304.51014374 374.04402531 302.84115705 375.69995117 301.16381836 C376.75128376 300.11098482 377.80340287 299.05893623 378.85620117 298.00756836 C379.40405273 297.4597168 379.9519043 296.91186523 380.51635742 296.34741211 C385.54370117 291.32006836 385.54370117 291.32006836 387.16992188 289.69628906 C388.54384268 288.32017594 389.90954526 286.93586928 391.27416992 285.55053711 C394.61395831 282.26452953 398.15203059 279.22369098 401.68823242 276.15209961 C402.35209961 275.4959668 403.0159668 274.83983398 403.69995117 274.16381836 C403.69995117 273.50381836 403.69995117 272.84381836 403.69995117 272.16381836 C404.28905273 271.89053711 404.8781543 271.61725586 405.48510742 271.33569336 C411.3843618 268.21439474 415.4969529 263.22897012 419.69995117 258.16381836 C421.64056033 256.40340862 423.64271122 254.79047321 425.69995117 253.16381836 C425.05182912 250.05880031 423.98719043 247.58416346 422.46948242 244.80444336 C422.00372803 243.94882812 421.53797363 243.09321289 421.05810547 242.21166992 C420.54803955 241.28837891 420.03797363 240.36508789 419.51245117 239.41381836 C418.9785376 238.44154297 418.44462402 237.46926758 417.89453125 236.4675293 C412.86539076 227.36281236 407.63271774 218.38133226 402.36401367 209.41381836 C397.84221357 201.71672063 393.39082486 193.979462 388.93701172 186.24291992 C387.77705961 184.22893361 386.61493123 182.21619886 385.45043945 180.20483398 C384.21254681 178.05431923 382.98826081 175.89594513 381.77368164 173.73217773 C380.83806396 172.08185547 380.83806396 172.08185547 379.88354492 170.39819336 C379.0394104 168.89337402 379.0394104 168.89337402 378.17822266 167.3581543 C377.69039307 166.63402344 377.20256348 165.90989258 376.69995117 165.16381836 C376.03995117 165.16381836 375.37995117 165.16381836 374.69995117 165.16381836 Z M433.69995117 267.16381836 C432.63508262 268.05683492 431.57320076 268.95341306 430.51245117 269.85131836 C429.92077148 270.35018555 429.3290918 270.84905273 428.71948242 271.36303711 C426.27943156 273.53878846 423.99633912 275.83681191 421.69995117 278.16381836 C419.7020544 280.1867438 417.70149113 282.20699823 415.69995117 284.22631836 C414.93811523 285.00072266 414.93811523 285.00072266 414.16088867 285.79077148 C411.15660434 288.81431405 408.06895199 291.54027398 404.69995117 294.16381836 C401.94563356 296.77688891 399.45245017 299.46408465 397.07495117 302.41381836 C393.61434383 306.53958139 389.44979953 309.68212237 385.25073242 313.02319336 C382.27570574 315.51984669 380.10051458 318.1278117 377.69995117 321.16381836 C376.05355153 322.52209807 374.3869931 323.85636087 372.69995117 325.16381836 C371.91620117 325.94756836 371.13245117 326.73131836 370.32495117 327.53881836 C368.3487982 329.51497133 366.40683434 331.26675667 364.26245117 333.03881836 C361.19302348 335.62885604 358.64745634 338.43762759 356.08276367 341.51928711 C351.81067363 346.59993657 346.70886077 350.83491149 341.71166992 355.17553711 C341.04780273 355.83166992 340.38393555 356.48780273 339.69995117 357.16381836 C339.69995117 357.82381836 339.69995117 358.48381836 339.69995117 359.16381836 C338.86463867 359.47319336 338.86463867 359.47319336 338.01245117 359.78881836 C334.86814545 361.48461832 334.86814545 361.48461832 330.69995117 367.16381836 C341.91995117 372.77381836 353.13995117 378.38381836 364.69995117 384.16381836 C369.73084525 380.3906478 373.49637676 377.47948809 377.69995117 373.16381836 C380.42511192 370.87718922 383.20039307 368.66346583 385.98120117 366.44506836 C388.71610736 364.15026202 391.19361717 361.70357015 393.69995117 359.16381836 C395.69995117 357.49715169 397.69995117 355.83048503 399.69995117 354.16381836 C400.52495117 353.33881836 401.34995117 352.51381836 402.19995117 351.66381836 C404.89482506 348.96894447 407.77320246 346.60277562 410.69995117 344.16381836 C411.52495117 343.33881836 412.34995117 342.51381836 413.19995117 341.66381836 C415.89482506 338.96894447 418.77320246 336.60277562 421.69995117 334.16381836 C422.50432617 333.35944336 423.30870117 332.55506836 424.13745117 331.72631836 C426.10968009 329.75408944 428.07499305 327.95832943 430.19995117 326.16381836 C432.30113768 324.38867803 434.24996677 322.61380276 436.19995117 320.66381836 C438.14993557 318.71383396 440.09876466 316.93895868 442.19995117 315.16381836 C445.18912256 312.6340218 447.96532619 309.97040716 450.69995117 307.16381836 C452.36538919 305.49592395 454.03189966 303.82909903 455.69995117 302.16381836 C453.49268778 298.37152791 451.28394129 294.58010322 449.07495117 290.78881836 C448.14875977 289.1974707 448.14875977 289.1974707 447.20385742 287.57397461 C445.37404861 284.43440791 443.53721357 281.29902739 441.69995117 278.16381836 C441.12921875 277.17865234 440.55848633 276.19348633 439.97045898 275.1784668 C439.44033203 274.27386719 438.91020508 273.36926758 438.36401367 272.43725586 C437.89688965 271.63465332 437.42976562 270.83205078 436.94848633 270.00512695 C435.82243557 268.02118323 435.82243557 268.02118323 433.69995117 267.16381836 Z M189.69995117 272.16381836 C188.32994916 275.09418713 186.98176565 278.0340875 185.63745117 280.97631836 C185.24750977 281.80969727 184.85756836 282.64307617 184.45581055 283.50170898 C184.09165039 284.30415039 183.72749023 285.1065918 183.35229492 285.93334961 C183.01190186 286.67174072 182.67150879 287.41013184 182.32080078 288.17089844 C181.43317732 290.33696773 181.43317732 290.33696773 182.69995117 293.16381836 C184.61524468 294.50076821 184.61524468 294.50076821 187.05197144 295.6572876 C188.46110809 296.37243027 188.46110809 296.37243027 189.89871216 297.10202026 C190.93768646 297.61644684 191.97666077 298.13087341 193.04711914 298.66088867 C194.13484619 299.209133 195.22257324 299.75737732 196.34326172 300.32223511 C199.33136102 301.82541894 202.32370392 303.31942639 205.31860876 304.80896091 C208.44856386 306.36761933 211.57363661 307.93601251 214.69949341 309.50286865 C219.95013588 312.13274117 225.20494467 314.75414054 230.4621582 317.37084961 C236.54451069 320.39841978 242.61952381 323.4403332 248.69092453 326.48979878 C253.899169 329.10525731 259.11126202 331.7129176 264.32666504 334.31407237 C267.44366646 335.86867078 270.55924455 337.42595806 273.6713829 338.99027252 C277.13992102 340.73308818 280.616462 342.45952081 284.09399414 344.18432617 C285.12891998 344.70684967 286.16384583 345.22937317 287.23013306 345.76773071 C288.17519714 346.2332132 289.12026123 346.69869568 290.09396362 347.17828369 C290.91582594 347.58827229 291.73768826 347.99826088 292.58445549 348.42067337 C294.84268104 349.45667389 294.84268104 349.45667389 297.69995117 348.16381836 C299.24919798 346.10203878 300.60883298 344.10271484 301.94995117 341.91381836 C302.32635742 341.34018555 302.70276367 340.76655273 303.09057617 340.17553711 C304.78601949 337.43914146 305.73244947 335.67151398 305.52416992 332.41772461 C304.54084536 329.72872806 303.36464275 327.49438657 301.69995117 325.16381836 C301.03995117 325.16381836 300.37995117 325.16381836 299.69995117 325.16381836 C299.45374023 324.58760742 299.2075293 324.01139648 298.95385742 323.41772461 C284.65636815 297.71787628 237.75076511 283.8927089 211.54370117 276.41772461 C204.3592619 274.47775163 197.05524147 273.24996226 189.69995117 272.16381836 Z M457.69995117 321.16381836 C457.10182617 321.94756836 456.50370117 322.73131836 455.88745117 323.53881836 C453.4229007 326.49627892 450.75243162 328.44832417 447.64916992 330.69116211 C445.08989234 332.62472453 442.93589654 334.86903232 440.69995117 337.16381836 C438.69995117 338.83048503 436.69995117 340.49715169 434.69995117 342.16381836 C433.87495117 342.98881836 433.04995117 343.81381836 432.19995117 344.66381836 C429.69995117 347.16381836 429.69995117 347.16381836 426.63745117 349.66381836 C423.70160798 351.98643666 423.70160798 351.98643666 421.82495117 354.60131836 C419.39113015 357.53622018 416.72345783 359.46926456 413.64916992 361.69116211 C411.08989234 363.62472453 408.93589654 365.86903232 406.69995117 368.16381836 C404.69995117 369.83048503 402.69995117 371.49715169 400.69995117 373.16381836 C399.87495117 373.98881836 399.04995117 374.81381836 398.19995117 375.66381836 C395.50507728 378.35869225 392.62669988 380.7248611 389.69995117 383.16381836 C388.49338867 384.37038086 388.49338867 384.37038086 387.26245117 385.60131836 C385.29093098 387.57283855 383.33797925 389.3280942 381.19995117 391.10131836 C378.84664709 393.08034968 376.82432666 395.0880766 374.88745117 397.47631836 C372.30071313 400.65431081 371.69437042 401.04990461 367.6829071 401.50942993 C362.38632645 401.04983168 358.64180265 399.06815853 353.97265625 396.6340332 C353.02220932 396.15289566 352.07176239 395.67175812 351.09251404 395.17604065 C349.03616184 394.13290557 346.98305993 393.08334356 344.93290138 392.02808762 C341.69087923 390.36003927 338.44023277 388.7100601 335.18669128 387.06460571 C327.11273285 382.97686743 319.05359123 378.86026233 310.9956665 374.74102783 C304.17789023 371.25664493 297.35397042 367.7849404 290.52072716 364.33098221 C287.31227386 362.70262936 284.11383431 361.05565969 280.91523743 359.40805054 C278.95700142 358.41600606 276.99830141 357.42487677 275.0390625 356.43481445 C274.14806854 355.96943771 273.25707458 355.50406097 272.33908081 355.02458191 C271.51911118 354.61503769 270.69914154 354.20549347 269.85432434 353.78353882 C269.14441754 353.42035238 268.43451075 353.05716595 267.70309162 352.68297386 C265.65711822 351.95204213 265.65711822 351.95204213 263.55651379 352.93343544 C261.13470928 354.538416 259.70292241 356.4119617 257.94995117 358.72631836 C255.34395432 362.09199695 252.69799355 365.33574572 249.82495117 368.47631836 C246.24926512 372.44775995 242.99646603 376.61130897 239.76733398 380.86743164 C236.2906874 385.4349715 232.70359106 389.90381453 229.07495117 394.35131836 C228.2474939 395.36693848 228.2474939 395.36693848 227.40332031 396.40307617 C225.39161928 398.87040989 223.37872707 401.33673017 221.35913086 403.79760742 C220.21911092 405.18754436 219.08430548 406.58175375 217.94995117 407.97631836 C217.33635742 408.72526367 216.72276367 409.47420898 216.09057617 410.24584961 C214.51543825 412.21592904 214.51543825 412.21592904 213.69995117 415.16381836 C212.70995117 415.49381836 211.71995117 415.82381836 210.69995117 416.16381836 C209.32164927 417.58419111 209.32164927 417.58419111 208.05541992 419.38256836 C207.55059082 420.05892334 207.04576172 420.73527832 206.52563477 421.43212891 C205.98503418 422.16858643 205.44443359 422.90504395 204.88745117 423.66381836 C200.25710682 429.8513799 195.51954356 435.9116609 190.57495117 441.85131836 C186.25919875 447.03842929 182.02059358 452.26752333 177.88745117 457.60131836 C174.77115365 461.61738005 171.58152087 465.48119362 168.13745117 469.22631836 C164.66574702 473.00453333 161.45379432 476.91448197 158.32495117 480.97631836 C157.90785889 481.51587158 157.4907666 482.0554248 157.06103516 482.61132812 C154.72049474 485.68510739 152.62054199 488.81207762 150.69995117 492.16381836 C154.919593 490.69239344 158.19560766 488.56679573 161.82495117 485.97631836 C165.9530498 483.05843253 170.10328525 480.226325 174.38745117 477.53881836 C178.66048586 474.85203252 182.79675087 472.02244441 186.91479492 469.10522461 C190.87853183 466.34228317 194.90874008 463.68248358 198.93652344 461.01416016 C204.34931219 457.41957479 209.6810094 453.7180415 214.99291992 449.97631836 C220.81864609 446.07568785 220.81864609 446.07568785 223.57495117 446.35131836 C224.27620117 446.61944336 224.97745117 446.88756836 225.69995117 447.16381836 C226.73120117 447.55569336 227.76245117 447.94756836 228.82495117 448.35131836 C231.69995117 450.16381836 231.69995117 450.16381836 233.32495117 452.97631836 C233.83526434 457.31398026 232.33715807 458.79405399 229.69995117 462.16381836 C229.36995117 462.90631836 229.03995117 463.64881836 228.69995117 464.41381836 C227.69995117 466.16381836 227.69995117 466.16381836 225.94604492 466.97241211 C223.006401 468.53170149 221.07998277 470.59451007 218.76245117 472.97631836 C217.92842773 473.82838867 217.0944043 474.68045898 216.23510742 475.55834961 C215.39850586 476.4181543 214.5619043 477.27795898 213.69995117 478.16381836 C212.03450417 479.83170379 210.36801429 481.49854932 208.69995117 483.16381836 C207.52432617 484.37038086 207.52432617 484.37038086 206.32495117 485.60131836 C204.32706211 487.55163863 202.32664941 489.36395037 200.19995117 491.16381836 C196.19920913 494.55838736 192.57753961 498.08370952 189.26245117 502.16381836 C187.32103485 504.43669601 185.67835334 506.08539879 183.38745117 507.91381836 C182.50057617 508.65631836 181.61370117 509.39881836 180.69995117 510.16381836 C180.69995117 510.82381836 180.69995117 511.48381836 180.69995117 512.16381836 C180.14436523 512.39198242 179.5887793 512.62014648 179.01635742 512.85522461 C176.04750405 514.53240147 174.01379599 516.6604574 171.63745117 519.10131836 C170.35161133 520.41422852 170.35161133 520.41422852 169.03979492 521.75366211 C168.26764648 522.54901367 167.49549805 523.34436523 166.69995117 524.16381836 C165.80469727 525.03200195 165.80469727 525.03200195 164.89135742 525.91772461 C163.58477312 526.99694885 163.58477312 526.99694885 163.69995117 528.16381836 C170.76756574 527.53767896 177.44641342 526.18661707 184.33496094 524.51171875 C185.46459259 524.24168533 186.59422424 523.97165192 187.75808716 523.69343567 C191.47044482 522.80464186 195.18089037 521.9081254 198.89135742 521.01147461 C201.4823876 520.38946174 204.07351595 519.76787305 206.66477966 519.14683533 C212.77943754 517.68036228 218.89272841 516.20827141 225.00555128 514.73417038 C231.93649777 513.06309919 238.86904715 511.39872588 245.80169594 509.7347337 C256.6002741 507.14254835 267.39802047 504.54690689 278.19433594 501.9453125 C279.24547073 501.69225342 280.29660553 501.43919434 281.3795929 501.1784668 C282.36203979 500.94156631 283.34448669 500.70466583 284.35670471 500.46058655 C285.27229723 500.23996614 286.18788975 500.01934574 287.13122749 499.79203987 C289.49781131 499.21325482 291.85683378 498.61012015 294.21592712 498.00169373 C299.06394694 496.83579007 302.9275818 496.88914705 307.69995117 498.16381836 C307.94949123 499.59792204 308.17387759 501.03641908 308.38745117 502.47631836 C308.57887695 503.67708008 308.57887695 503.67708008 308.77416992 504.90209961 C308.69995117 507.16381836 308.69995117 507.16381836 307.34448242 508.70678711 C306.80178711 509.18760742 306.2590918 509.66842773 305.69995117 510.16381836 C305.47057861 510.79118896 305.24120605 511.41855957 305.00488281 512.06494141 C303.04269723 515.22095814 300.58983178 515.82120293 297.17651367 517.20288086 C296.5005011 517.48099106 295.82448853 517.75910126 295.12799072 518.04563904 C292.8653198 518.97287777 290.59532711 519.88062682 288.32495117 520.78881836 C286.71521912 521.44436302 285.10601759 522.10121175 283.49731445 522.75927734 C280.04627358 524.16847236 276.59213904 525.56968701 273.13549805 526.96508789 C267.65486721 529.17891381 262.18428029 531.41681253 256.71557617 533.65991211 C249.28039653 536.70858922 241.84293802 539.75158536 234.40307617 542.78881836 C224.70290832 546.74993593 215.0118037 550.7327643 205.32495117 554.72631836 C192.79171677 559.89284719 180.25089403 565.04043132 167.69995117 570.16381836 C167.69995117 570.49381836 167.69995117 570.82381836 167.69995117 571.16381836 C212.56253659 578.44587113 257.21962176 585.43790401 302.76245117 585.47631836 C303.57136055 585.47700066 304.38026993 585.47768295 305.21369171 585.47838593 C314.54069268 585.476783 323.86526955 585.3793743 333.19114494 585.24279594 C340.84810339 585.13646274 348.50341381 585.15050529 356.16088867 585.17944336 C358.65690089 585.18819302 361.15291326 585.19690218 363.64892578 585.20556641 C365.406064 585.21177505 365.406064 585.21177505 367.19869995 585.21810913 C375.36582058 585.23760626 383.53292018 585.20063996 391.69995117 585.16381836 C392.61139893 583.53355713 392.61139893 583.53355713 393.54125977 581.87036133 C394.3519035 580.42387257 395.16261683 578.97742282 395.97338867 577.53100586 C396.37227295 576.81710693 396.77115723 576.10320801 397.18212891 575.36767578 C399.47448691 571.28170569 401.83281356 567.25769585 404.32495117 563.28881836 C408.26961576 556.95864515 411.98649289 550.50690095 415.69995117 544.03881836 C422.95102699 531.41502329 430.35254988 518.88722634 437.79516602 506.37524414 C439.6327088 503.27718752 441.45964787 500.17318436 443.28198242 497.06616211 C452.6165686 481.16086164 452.6165686 481.16086164 457.63745117 473.47631836 C460.73829857 468.72920288 463.5321259 463.92039722 466.18823242 458.91381836 C467.84169801 455.90596364 469.62823613 453.01024458 471.44995117 450.10131836 C479.15589432 437.64756764 486.62434844 425.32902298 490.69995117 411.16381836 C491.01706055 410.07198242 491.33416992 408.98014648 491.66088867 407.85522461 C498.95490442 378.91337315 487.53647555 356.07705335 473.00463867 331.73022461 C472.44615234 330.79581543 471.88766602 329.86140625 471.31225586 328.89868164 C469.03102446 325.02915496 466.85061304 321.10710928 464.69995117 317.16381836 C461.50217997 317.16381836 460.04437217 319.0984951 457.69995117 321.16381836 Z M210.69995117 325.16381836 C202.11336227 342.60388907 194.22146987 360.23832554 186.69995117 378.16381836 C186.17276935 379.41697894 185.6454241 380.67007078 185.11791992 381.9230957 C181.57746484 390.33457059 178.05267367 398.75255414 174.53253174 407.17254639 C172.28329007 412.55202807 170.03201793 417.93065774 167.77908325 423.30859375 C166.960116 425.26454159 166.14237356 427.22099835 165.32470703 429.17749023 C162.87231143 435.03827543 160.39702459 440.88707432 157.84838867 446.70678711 C157.41880859 447.6908252 156.98922852 448.67486328 156.54663086 449.6887207 C155.7547948 451.4955121 154.95636466 453.29943363 154.15014648 455.09985352 C153.27522244 457.09667593 152.47837741 459.12743813 151.69995117 461.16381836 C152.02995117 461.82381836 152.35995117 462.48381836 152.69995117 463.16381836 C153.41280273 462.31819336 154.1256543 461.47256836 154.86010742 460.60131836 C155.8273915 459.45534671 156.79485174 458.30952375 157.76245117 457.16381836 C158.52344116 456.26252197 158.52344116 456.26252197 159.29980469 455.34301758 C161.87935813 452.2938942 164.47649391 449.26750186 167.13745117 446.28881836 C174.50465892 437.91938903 181.26678042 429.00327331 188.13745117 420.22631836 C203.07769105 401.15297563 203.07769105 401.15297563 210.32495117 393.03881836 C214.83530936 387.96604387 218.94610792 382.56587226 223.10961914 377.20874023 C224.80430158 375.02963982 226.5038233 372.85437073 228.20385742 370.67944336 C231.71482767 366.18369455 235.21227187 361.67765602 238.69995117 357.16381836 C239.44148438 356.20523926 239.44148438 356.20523926 240.19799805 355.22729492 C241.4962673 353.54391495 242.78727411 351.85530758 244.07495117 350.16381836 C244.78393555 349.23569336 245.49291992 348.30756836 246.22338867 347.35131836 C247.88644212 345.32740265 247.88644212 345.32740265 247.69995117 343.16381836 C242.59257586 340.5978087 237.48391508 338.03438371 232.37402344 335.47338867 C230.63440574 334.60105911 228.89514704 333.72801327 227.15625 332.85424805 C224.66263443 331.60140331 222.16775634 330.35110591 219.67260742 329.10131836 C218.89031265 328.70759033 218.10801788 328.3138623 217.30201721 327.90820312 C214.13994817 326.0166388 214.13994817 326.0166388 210.69995117 325.16381836 Z M61.69995117 465.16381836 C62.69995117 467.16381836 62.69995117 467.16381836 62.69995117 467.16381836 Z M62.69995117 467.16381836 C63.34284524 470.79322107 64.31054792 474.11668948 65.57348633 477.57739258 C65.95703278 478.63554169 66.34057922 479.6936908 66.73574829 480.78390503 C67.14932587 481.9173233 67.56290344 483.05074158 67.98901367 484.21850586 C68.85692628 486.63100554 69.72409081 489.04377445 70.59057617 491.45678711 C71.95635691 495.25393281 73.32715739 499.0491078 74.71264648 502.83911133 C76.05075982 506.50126032 77.36383943 510.17215886 78.67651367 513.84350586 C79.09413971 514.97287567 79.51176575 516.10224548 79.94204712 517.26583862 C81.97670277 523.00696888 83.46716174 527.22196662 81.69995117 533.16381836 C80.13745117 535.16381836 80.13745117 535.16381836 77.69995117 536.16381836 C73.02915643 536.48594213 70.89141537 536.03684318 67.09838867 533.25756836 C63.66466522 530.21887504 60.50032554 527.16922222 57.64135742 523.57788086 C55.84961858 521.34992391 54.07461201 519.61516448 51.88745117 517.78881836 C49.14349679 515.44778665 46.53804998 513.05154683 44.01245117 510.47631836 C41.39000976 507.80630431 38.6395933 505.48458846 35.69995117 503.16381836 C34.01178184 501.51893542 32.34641802 499.85044294 30.69995117 498.16381836 C29.59709198 497.05834576 28.49291457 495.95418677 27.38745117 494.85131836 C26.50057617 493.96444336 25.61370117 493.07756836 24.69995117 492.16381836 C24.03995117 492.49381836 23.37995117 492.82381836 22.69995117 493.16381836 C23.1872168 493.74905273 23.67448242 494.33428711 24.17651367 494.93725586 C34.05439187 506.89846837 43.59895472 519.14601531 52.73510742 531.68334961 C55.51494963 535.19269316 58.51541379 538.25982931 62.07495117 540.97631836 C63.95348244 543.50511044 63.93066919 544.2400445 63.69995117 547.28881836 C63.01620869 550.86021114 63.01620869 550.86021114 61.13745117 552.66381836 C55.94499454 553.72893767 52.28654875 554.14278282 47.76245117 551.35131836 C46.24651367 550.26850586 46.24651367 550.26850586 44.69995117 549.16381836 C41.74649063 548.00092368 38.74480701 547.05697607 35.69995117 546.16381836 C40.01234606 550.68117498 44.72969968 554.38718339 49.70385742 558.14624023 C55.69879044 562.75524787 55.69879044 562.75524787 57.69995117 566.16381836 C57.61999783 569.36195196 57.0080025 570.78794263 54.97955322 573.26300049 C52.25809804 575.53225211 50.78783411 575.78259456 47.28881836 576.0769043 C46.20799988 576.17670593 45.1271814 576.27650757 44.01361084 576.3793335 C42.8530719 576.46805725 41.69253296 576.55678101 40.49682617 576.64819336 C39.30389954 576.75351379 38.1109729 576.85883423 36.88189697 576.96734619 C33.07248133 577.29975735 29.26151066 577.60706943 25.44995117 577.91381836 C22.86647615 578.13482455 20.28314004 578.357461 17.69995117 578.58178711 C11.36810793 579.12805605 5.03480652 579.65373513 -1.30004883 580.16381836 C-1.30004883 580.49381836 -1.30004883 580.82381836 -1.30004883 581.16381836 C11.38738013 581.33603995 24.07487927 581.50247161 36.76245117 581.66381836 C38.16300373 581.68163424 38.16300373 581.68163424 39.59185028 581.69981003 C68.96278202 582.07163465 98.32631039 582.31851668 127.69995117 582.16381836 C126.71188477 581.26663086 126.71188477 581.26663086 125.70385742 580.35131836 C123.69995117 578.16381836 123.69995117 578.16381836 123.63745117 575.16381836 C125.03630568 571.2141115 126.06270278 570.30337624 129.69995117 568.16381836 C132.38481643 567.20664715 135.10155287 566.3734236 137.82104492 565.51928711 C142.55763828 563.93709786 147.07747528 561.87734525 151.63745117 559.85131836 C162.44526785 555.06574006 173.36583321 550.58943454 184.32495117 546.16381836 C185.14889374 545.83094818 185.9728363 545.498078 186.82174683 545.15512085 C193.44372399 542.4811545 200.06814317 539.81332614 206.69995117 537.16381836 C203.13306559 535.92677376 200.72318206 536.41031183 197.09960938 537.31958008 C195.97355789 537.59671844 194.84750641 537.87385681 193.68733215 538.15939331 C192.47075424 538.46765045 191.25417633 538.77590759 190.00073242 539.09350586 C188.0687433 539.56716236 186.13674945 540.04080033 184.20450878 540.51342964 C179.45605369 541.67811114 174.71260084 542.86288438 169.97021484 544.05200195 C137.00890693 552.30005033 137.00890693 552.30005033 126.69995117 551.16381836 C124.77539062 549.80395508 124.77539062 549.80395508 123.69995117 548.16381836 C123.69995117 544.74173393 124.51817588 543.37313536 126.76245117 540.78881836 C129.74729863 538.12150786 132.75573017 535.48379976 135.77807617 532.85913086 C139.01776454 530.00135698 141.98983025 527.08010342 144.63745117 523.66381836 C146.35262224 521.58482312 147.87148256 520.13617268 149.94995117 518.47631836 C150.85745117 517.71319336 151.76495117 516.95006836 152.69995117 516.16381836 C152.69995117 515.50381836 152.69995117 514.84381836 152.69995117 514.16381836 C153.27745117 513.93694336 153.85495117 513.71006836 154.44995117 513.47631836 C157.26631728 511.83343813 158.78072231 509.76848609 160.69995117 507.16381836 C156.32599462 508.68770153 152.68616341 511.00789448 148.88745117 513.60131836 C148.24235596 514.03581299 147.59726074 514.47030762 146.93261719 514.91796875 C143.39456086 517.30774215 139.87886986 519.72881057 136.37182617 522.16381836 C135.66388916 522.65438721 134.95595215 523.14495605 134.2265625 523.65039062 C132.86681709 524.5947598 131.50973078 525.54297306 130.15576172 526.49560547 C119.50622115 533.90821195 119.50622115 533.90821195 113.69995117 533.16381836 C112.04995117 532.50381836 110.39995117 531.84381836 108.69995117 531.16381836 C108.20495117 523.73881836 108.20495117 523.73881836 107.69995117 516.16381836 C106.37995117 517.81381836 105.05995117 519.46381836 103.69995117 521.16381836 C100.93212516 523.26354844 99.69134239 523.16336527 96.13745117 522.97631836 C92.50529318 522.11780829 91.91836861 521.93612269 89.69995117 519.16381836 C88.43229047 516.84581022 87.2500038 514.54134837 86.10620117 512.16381836 C85.39551562 510.71447604 84.68456705 509.26526267 83.97338867 507.81616211 C83.60246094 507.0554541 83.2315332 506.29474609 82.84936523 505.51098633 C80.91933541 501.5697572 78.94809162 497.64924356 76.98120117 493.72631836 C76.18673482 492.13787447 75.39246439 490.54933257 74.59838867 488.96069336 C74.20490234 488.1737207 73.81141602 487.38674805 73.40600586 486.57592773 C70.1706543 480.10522461 66.93530273 473.63452148 63.69995117 467.16381836 C63.36995117 467.16381836 63.03995117 467.16381836 62.69995117 467.16381836 Z M20.69995117 489.16381836 C21.02995117 490.15381836 21.35995117 491.14381836 21.69995117 492.16381836 C21.69995117 491.17381836 21.69995117 490.18381836 21.69995117 489.16381836 C21.36995117 489.16381836 21.03995117 489.16381836 20.69995117 489.16381836 Z M-105.30004883 538.16381836 C-103.90067749 541.72592207 -102.35896449 545.07451968 -100.54223633 548.44506836 C-100.00300537 549.44666992 -99.46377441 550.44827148 -98.90820312 551.48022461 C-96.58234544 555.75254243 -94.24154361 560.01636948 -91.88745117 564.27319336 C-90.54712152 566.71390439 -89.2400206 569.16793051 -87.94458008 571.63256836 C-85.10341827 577.44033856 -85.10341827 577.44033856 -80.03833008 580.93334961 C-77.56476492 581.07218492 -77.56476492 581.07218492 -74.30004883 580.16381836 C-73.90817383 579.23569336 -73.51629883 578.30756836 -73.11254883 577.35131836 C-71.07754624 573.77252071 -69.93978107 572.9385967 -66.30004883 571.16381836 C-63.14616394 570.49157715 -63.14616394 570.49157715 -59.58203125 570.07983398 C-58.93055461 570.00236183 -58.27907797 569.92488968 -57.60785961 569.84506989 C-55.50667942 569.6016364 -53.40427739 569.37923166 -51.30004883 569.16381836 C-50.26943014 569.0576973 -50.26943014 569.0576973 -49.21799088 568.94943237 C-44.85855433 568.5088172 -40.49615297 568.10637432 -36.13186073 567.71711731 C-33.72225703 567.50166038 -31.3131414 567.28132763 -28.90409851 567.05969238 C-22.06804821 566.43124098 -15.23150638 565.8084515 -8.39404297 565.19555664 C-4.18102923 564.81756984 0.03120781 564.43176878 4.24305153 564.04096985 C5.83876419 563.89447028 7.43475377 563.7509545 9.03101158 563.61051941 C11.25172478 563.41494297 13.47131515 563.20945711 15.69091797 563.00170898 C16.9513945 562.88782837 18.21187103 562.77394775 19.51054382 562.65661621 C22.37601351 562.21387022 24.2461895 561.65252438 26.69995117 560.16381836 C25.37867119 559.14744914 24.05738678 558.13108566 22.73608398 557.11474609 C21.57780839 556.22372701 20.4196064 555.33261224 19.26147461 554.44140625 C16.1684561 552.06148642 13.07419702 549.68321427 9.97729492 547.30834961 C9.38585693 546.85443848 8.79441895 546.40052734 8.18505859 545.93286133 C7.0411362 545.05500108 5.89677751 544.17770902 4.75195312 543.30102539 C0.81238358 540.27625077 0.81238358 540.27625077 -0.30004883 539.16381836 C-3.27718634 538.90661382 -6.22597416 538.73089779 -9.21020508 538.60522461 C-10.2052858 538.56297256 -11.20036652 538.52072052 -12.2256012 538.47718811 C-29.1034662 537.86056198 -46.00538713 538.05461594 -62.89141846 538.09515381 C-67.68582716 538.10553822 -72.48024141 538.10998322 -77.2746582 538.11499023 C-86.61646931 538.12559038 -95.95825628 538.14256872 -105.30004883 538.16381836 Z M-72.30004883 596.16381836 C-71.05768153 599.99155471 -69.76239411 603.41215235 -67.75317383 606.90209961 C-67.24496094 607.7923584 -66.73674805 608.68261719 -66.21313477 609.59985352 C-65.66431641 610.54908691 -65.11549805 611.49832031 -64.55004883 612.47631836 C-63.37214738 614.53183934 -62.19509427 616.58784665 -61.01879883 618.64428711 C-60.4077832 619.7108252 -59.79676758 620.77736328 -59.16723633 621.8762207 C-57.30052993 625.16297128 -55.46685594 628.46596234 -53.64379883 631.77709961 C-40.16454608 656.24471505 -26.1431649 678.48454611 2.13879871 687.22680283 C7.62797096 688.55225194 13.07885228 688.44041374 18.69792175 688.41778564 C19.89206564 688.42090563 21.08620952 688.42402561 22.31653959 688.42724013 C25.61410902 688.43381658 28.91144922 688.43147751 32.20900452 688.4252677 C35.77220756 688.4207308 39.33539098 688.42773326 42.89859009 688.43322754 C49.87359117 688.44211135 56.84854916 688.44020364 63.82355192 688.43440226 C69.49640364 688.42987998 75.16924332 688.42927532 80.84209633 688.43144989 C81.65043985 688.43175636 82.45878338 688.43206282 83.29162217 688.43237858 C84.93397639 688.43301805 86.57633061 688.43366648 88.21868483 688.43432376 C103.6137064 688.44002456 119.00870413 688.43347402 134.40372179 688.42272303 C147.59435513 688.41379622 160.78495324 688.41533285 173.97558594 688.42456055 C189.30889904 688.43528223 204.64219123 688.43946635 219.97550756 688.43333602 C221.61324743 688.43269896 223.25098731 688.43207022 224.88872719 688.43144989 C225.69442234 688.43114134 226.50011749 688.43083279 227.33022764 688.43051489 C232.98934927 688.428793 238.64845757 688.43169228 244.30757713 688.436409 C251.2144975 688.44203932 258.12137245 688.44045673 265.02828767 688.42984751 C268.54786728 688.4246183 272.06737138 688.42248655 275.5869503 688.42914581 C279.41372875 688.43464076 283.24029717 688.42771908 287.06706238 688.41778564 C288.71214831 688.42447781 288.71214831 688.42447781 290.3904683 688.43130517 C309.88522503 688.3336897 323.88637057 683.08200264 338.17260742 669.80834961 C347.72683451 659.81111353 354.37544297 647.27656992 361.34838867 635.44213867 C363.13592278 632.4289038 364.97544625 629.45193313 366.82495117 626.47631836 C370.0094388 621.32336054 373.11918667 616.12921325 376.19995117 610.91381836 C376.86921631 609.78520386 376.86921631 609.78520386 377.55200195 608.63378906 C379.71464993 605.58112933 379.71464993 605.58112933 380.69995117 602.16381836 C376.55498973 601.17473402 372.6384271 601.01109839 368.38270092 600.96268368 C367.65234781 600.95308796 366.9219947 600.94349225 366.16950968 600.93360576 C363.71502296 600.9025118 361.26051563 600.87815277 358.80595398 600.85374451 C357.03112321 600.83265915 355.25629731 600.81116048 353.48147613 600.78928334 C348.59822494 600.73029385 343.71492456 600.67719399 338.83159626 600.62503779 C333.56680402 600.56778466 328.30207611 600.50510399 323.03733826 600.44308472 C312.71815808 600.3223758 302.39892755 600.20666494 292.07967236 600.09257036 C280.05775125 599.95943688 268.03589124 599.82113883 256.01403186 599.68256033 C234.553179 599.43533034 213.09227919 599.19244461 191.63134766 598.95214844 C170.82174642 598.7191383 150.01217534 598.483656 129.20263672 598.24511719 C127.28260369 598.22310881 127.28260369 598.22310881 125.32378211 598.20065581 C120.17813592 598.14166751 115.03248981 598.08267197 109.88684384 598.02366438 C87.6491758 597.76871641 65.41148452 597.51580542 43.17379001 597.2631785 C39.57951437 597.22233079 35.98523926 597.18143687 32.39096427 597.14053226 C19.79167293 596.99719195 7.19237492 596.85447992 -5.40694258 596.71345621 C-10.61592492 596.65515061 -15.82490392 596.59658407 -21.03387451 596.53723717 C-25.81167876 596.48281881 -30.5894919 596.42926204 -35.36731329 596.37637008 C-37.0868215 596.35719488 -38.80632645 596.33772487 -40.52582745 596.3179137 C-51.1178703 596.19610851 -61.70724557 596.13995268 -72.30004883 596.16381836 Z " fill="#000000" transform="translate(338.300048828125,106.836181640625)"/>
<path d="M0 0 C1.02738281 0.22171875 2.05476563 0.4434375 3.11328125 0.671875 C11.37613789 2.50327738 11.37613789 2.50327738 15.25 4.625 C15.25 5.285 15.25 5.945 15.25 6.625 C15.91 6.625 16.57 6.625 17.25 6.625 C20.27830962 14.22833652 20.81337191 21.10946034 21 29.25 C21.06380859 31.03277344 21.06380859 31.03277344 21.12890625 32.8515625 C21.58793008 48.08435324 21.58793008 48.08435324 18.1875 52 C14.55470977 54.00962864 11.43131628 55.14131638 7.25 54.625 C3.4509518 51.65183184 0.51722917 48.54098276 -0.1640625 43.65625 C-0.60339709 36.30146349 -0.88533595 28.99329085 -0.75 21.625 C-2.02875 21.439375 -3.3075 21.25375 -4.625 21.0625 C-5.34429687 20.95808594 -6.06359375 20.85367187 -6.8046875 20.74609375 C-8.83140667 20.4565703 -8.83140667 20.4565703 -10.75 21.625 C-11.87044249 24.13583614 -12.89747932 26.62209287 -13.875 29.1875 C-14.29072266 30.25387695 -14.29072266 30.25387695 -14.71484375 31.34179688 C-15.39942596 33.10046496 -16.07551635 34.86243424 -16.75 36.625 C-17.41 36.625 -18.07 36.625 -18.75 36.625 C-18.75 37.285 -18.75 37.945 -18.75 38.625 C-23.21187416 40.43099669 -26.06860892 40.79534777 -30.75 39.625 C-31.41 39.295 -32.07 38.965 -32.75 38.625 C-32.75 37.965 -32.75 37.305 -32.75 36.625 C-33.595625 36.3775 -34.44125 36.13 -35.3125 35.875 C-39.13427474 34.48526373 -42.26868063 32.71379162 -45.75 30.625 C-45.75 29.965 -45.75 29.305 -45.75 28.625 C-46.471875 28.521875 -47.19375 28.41875 -47.9375 28.3125 C-50.99491993 27.56513068 -53.13329635 26.34454811 -55.75 24.625 C-58.39 27.265 -61.03 29.905 -63.75 32.625 C-63.21375 34.15125 -62.6775 35.6775 -62.125 37.25 C-60.7616171 41.71428635 -60.59671996 44.31843993 -62.75 48.625 C-63.41 48.625 -64.07 48.625 -64.75 48.625 C-64.75 49.285 -64.75 49.945 -64.75 50.625 C-66.37760417 51.08072917 -68.00520833 51.53645833 -69.6328125 51.9921875 C-72.36003482 52.80733513 -75.05288785 53.71577522 -77.75 54.625 C-77.6778125 55.79417969 -77.605625 56.96335937 -77.53125 58.16796875 C-77.43742137 59.71614107 -77.34367575 61.26431842 -77.25 62.8125 C-77.17845703 63.96588867 -77.17845703 63.96588867 -77.10546875 65.14257812 C-76.87510411 68.976504 -76.6883872 72.78190177 -76.75 76.625 C-75.66460937 76.78355469 -74.57921875 76.94210937 -73.4609375 77.10546875 C-72.01545881 77.34012438 -70.570155 77.57585903 -69.125 77.8125 C-68.41214844 77.91369141 -67.69929688 78.01488281 -66.96484375 78.11914062 C-61.54935573 79.03828309 -58.57942727 80.64239564 -54.75 84.625 C-53.35727592 87.96380728 -53.46338085 91.33521384 -54.25 94.875 C-56.61575088 97.63504269 -59.27230364 99.63743117 -62.75 100.625 C-68.75776551 100.1728026 -74.61148606 98.93083615 -80.5 97.6875 C-81.75490234 97.43323242 -81.75490234 97.43323242 -83.03515625 97.17382812 C-84.24751953 96.91956055 -84.24751953 96.91956055 -85.484375 96.66015625 C-86.20850586 96.5094165 -86.93263672 96.35867676 -87.67871094 96.20336914 C-89.87853691 95.58910845 -91.74390654 94.70744282 -93.75 93.625 C-93.75 92.965 -93.75 92.305 -93.75 91.625 C-94.41 91.625 -95.07 91.625 -95.75 91.625 C-97.25055741 85.61583668 -98.1327637 79.82538319 -98.453125 73.64453125 C-98.49943054 72.82804611 -98.54573608 72.01156097 -98.59344482 71.17033386 C-98.68789615 69.46052556 -98.77845268 67.75049793 -98.86523438 66.0402832 C-99.00024498 63.43276867 -99.15574558 60.82699029 -99.3125 58.22070312 C-99.40228381 56.54954544 -99.49086728 54.87832274 -99.578125 53.20703125 C-99.64981903 52.04902763 -99.64981903 52.04902763 -99.72296143 50.86763 C-99.97824506 45.33410956 -99.42820838 40.92476703 -96.0625 36.3125 C-93.02760364 34.0978459 -90.44649018 33.9093454 -86.75 33.625 C-86.770625 32.531875 -86.79125 31.43875 -86.8125 30.3125 C-86.75 26.625 -86.75 26.625 -85.75 23.625 C-85.09 23.625 -84.43 23.625 -83.75 23.625 C-83.42 22.635 -83.09 21.645 -82.75 20.625 C-82.09 20.625 -81.43 20.625 -80.75 20.625 C-80.75 19.965 -80.75 19.305 -80.75 18.625 C-80.09 18.625 -79.43 18.625 -78.75 18.625 C-78.75 17.965 -78.75 17.305 -78.75 16.625 C-78.09 16.625 -77.43 16.625 -76.75 16.625 C-76.09 15.305 -75.43 13.985 -74.75 12.625 C-74.09 12.625 -73.43 12.625 -72.75 12.625 C-72.481875 12.026875 -72.21375 11.42875 -71.9375 10.8125 C-70.75082594 8.62652146 -69.65400887 7.21167406 -67.75 5.625 C-67.09 5.625 -66.43 5.625 -65.75 5.625 C-65.75 4.965 -65.75 4.305 -65.75 3.625 C-65.09 3.625 -64.43 3.625 -63.75 3.625 C-63.75 2.965 -63.75 2.305 -63.75 1.625 C-59.38170126 0.16890042 -55.11688853 -0.32175541 -50.79199219 1.40820312 C-48.84009328 2.48532114 -46.9839487 3.64469993 -45.125 4.875 C-44.4959375 5.27074219 -43.866875 5.66648437 -43.21875 6.07421875 C-39.35083983 8.52175527 -35.55110126 11.07533823 -31.75 13.625 C-31.35167969 12.79355469 -30.95335937 11.96210938 -30.54296875 11.10546875 C-30.01316406 10.01878906 -29.48335938 8.93210937 -28.9375 7.8125 C-28.41542969 6.73355469 -27.89335937 5.65460938 -27.35546875 4.54296875 C-21.4756843 -6.14364678 -9.97021837 -2.26076289 0 0 Z " fill="#000000" transform="translate(344.75,324.375)"/>
<path d="M0 0 C0.77214844 0.10957031 1.54429687 0.21914063 2.33984375 0.33203125 C7.46897223 1.1621287 10.80859413 2.48167378 14.875 5.75 C16.22591528 8.45183055 16.21358058 10.86808206 16.4375 13.875 C16.52128906 14.97070312 16.60507812 16.06640625 16.69140625 17.1953125 C16.75199219 18.03835938 16.81257812 18.88140625 16.875 19.75 C18.09316406 19.52183594 19.31132813 19.29367187 20.56640625 19.05859375 C22.19000234 18.76766035 23.81370614 18.47732759 25.4375 18.1875 C26.23736328 18.03603516 27.03722656 17.88457031 27.86132812 17.72851562 C32.77003527 16.86698743 36.9698113 16.44639608 41.875 17.75 C46.62244401 21.8001561 48.36834828 26.78713518 50.6875 32.4375 C51.10708984 33.39333984 51.52667969 34.34917969 51.95898438 35.33398438 C54.64265958 41.81990123 54.94576418 45.86164442 53.875 52.75 C56.11791412 55.2620439 56.11791412 55.2620439 58.875 56.75 C60.30110206 59.60220412 60.11954921 61.56643927 59.875 64.75 C58.93028328 67.3383283 57.94741621 69.7203967 56.76953125 72.1953125 C56.28790779 73.23375809 56.28790779 73.23375809 55.79655457 74.29318237 C55.1170696 75.74972781 54.43175475 77.20356621 53.7409668 78.65478516 C52.69116858 80.86726834 51.66789092 83.09069871 50.64648438 85.31640625 C49.98073145 86.73511036 49.31346337 88.15310464 48.64453125 89.5703125 C48.19108086 90.5610527 48.19108086 90.5610527 47.72846985 91.57180786 C45.74228204 95.6840986 43.72844124 98.27688443 39.875 100.75 C31.77068749 101.53180189 21.42195298 99.76453537 13.875 96.75 C11.47751849 94.23644676 10.05877128 92.6688564 9.375 89.25 C10.04342804 85.90785981 11.5587552 84.20249449 13.875 81.75 C16.64033983 80.36733009 18.62205436 80.84529226 21.6875 81.125 C22.72519531 81.21523438 23.76289062 81.30546875 24.83203125 81.3984375 C27.56004374 81.71361224 30.19357903 82.16514293 32.875 82.75 C33.101875 81.96625 33.32875 81.1825 33.5625 80.375 C35.01662918 76.3588337 36.87102765 72.69977385 38.8515625 68.921875 C40.01708903 66.84862257 40.01708903 66.84862257 39.875 64.75 C38.59504305 63.80825491 37.27503896 62.92049951 35.9375 62.0625 C32.7942159 59.76784678 31.98192211 59.04938191 30.625 55.25 C30.92895726 50.99459833 32.25827597 49.05938628 34.875 45.75 C36.13473028 43.77767749 36.13473028 43.77767749 35.31640625 41.5859375 C35.02636719 40.77382813 34.73632812 39.96171875 34.4375 39.125 C34.15003906 38.30773437 33.86257813 37.49046875 33.56640625 36.6484375 C33.33824219 36.02195312 33.11007812 35.39546875 32.875 34.75 C32.25568604 34.87640869 31.63637207 35.00281738 30.99829102 35.13305664 C28.14729128 35.7067642 25.29262772 36.25971808 22.4375 36.8125 C21.46361328 37.01166016 20.48972656 37.21082031 19.48632812 37.41601562 C7.68430076 39.66590044 7.68430076 39.66590044 1.875 37.75 C-0.97678144 34.86562677 -1.10427533 33.01665741 -1.41796875 28.98046875 C-1.39824235 27.63249835 -1.36277741 26.28467687 -1.3125 24.9375 C-1.29219727 23.89819336 -1.29219727 23.89819336 -1.27148438 22.83789062 C-1.23638845 21.14158735 -1.18258943 19.44568864 -1.125 17.75 C-3.765 17.42 -6.405 17.09 -9.125 16.75 C-9.66769531 17.85859375 -10.21039062 18.9671875 -10.76953125 20.109375 C-11.49197274 21.57302269 -12.21464092 23.0365585 -12.9375 24.5 C-13.47213867 25.59441406 -13.47213867 25.59441406 -14.01757812 26.7109375 C-17.78390239 34.3126929 -17.78390239 34.3126929 -20.125 36.75 C-21.115 36.75 -22.105 36.75 -23.125 36.75 C-23.125 37.41 -23.125 38.07 -23.125 38.75 C-28.03990863 38.31633159 -30.82679137 36.36232374 -34.125 32.75 C-34.1063587 25.79679579 -30.73051819 19.70311001 -27.875 13.5 C-27.15763672 11.86804688 -27.15763672 11.86804688 -26.42578125 10.203125 C-25.95011719 9.1615625 -25.47445312 8.12 -24.984375 7.046875 C-24.55608398 6.10166992 -24.12779297 5.15646484 -23.68652344 4.18261719 C-18.38306326 -4.07937112 -8.26333276 -1.351675 0 0 Z " fill="#000000" transform="translate(694.125,544.25)"/>
<path d="M0 0 C2.0625 1.875 2.0625 1.875 3 5 C2.93329416 12.85664495 1.10905988 20.19265904 -1.0625 27.69140625 C-1.52362434 29.32982483 -1.52362434 29.32982483 -1.99406433 31.00134277 C-2.98722217 34.5242929 -3.99335424 38.04338272 -5 41.5625 C-6.37526778 46.41549114 -7.74456479 51.27015765 -9.11328125 56.125 C-9.4507991 57.31883804 -9.78831696 58.51267609 -10.13606262 59.74269104 C-12.12122459 66.78851085 -14.03876146 73.84640513 -15.85546875 80.9375 C-16.06140656 81.73800278 -16.26734436 82.53850555 -16.47952271 83.36326599 C-17.40608161 86.9753102 -18.31764225 90.5902942 -19.20898438 94.21118164 C-19.52544922 95.45246826 -19.84191406 96.69375488 -20.16796875 97.97265625 C-20.55891724 99.55445679 -20.55891724 99.55445679 -20.95776367 101.16821289 C-22.15687216 104.42622633 -23.59917121 106.50149714 -26 109 C-30.00803597 110.1659741 -32.05282711 110.43240501 -35.875 108.6875 C-38 107 -38 107 -39 105 C-39.06023882 96.56594503 -36.42867128 88.43424001 -34.17578125 80.39453125 C-33.78726698 78.98439401 -33.39952197 77.57404463 -33.01249695 76.16349792 C-31.99435744 72.45999044 -30.96684378 68.75915266 -29.93695068 65.05889893 C-28.50875796 59.92111834 -27.09348575 54.77976097 -25.67648315 49.6388855 C-24.88884296 46.78139085 -24.09795555 43.92482377 -23.30471802 41.06887817 C-21.54444768 34.71775804 -19.81913734 28.36441661 -18.22021484 21.97021484 C-17.95403854 20.91082199 -17.68786224 19.85142914 -17.41362 18.75993347 C-16.93543213 16.83717145 -16.46694409 14.91195579 -16.01081848 12.98384094 C-14.7438879 7.88613551 -13.29456445 4.12590698 -10 0 C-6.71520119 -1.6423994 -3.41328997 -0.9752257 0 0 Z " fill="#000000" transform="translate(534,248)"/>
<path d="M0 0 C2 1.6875 2 1.6875 3 4 C2.92974155 7.44266385 2.60090824 9.28353249 0.375 11.9375 C-3.11319754 13.49800943 -5.36432898 12.99154664 -9 12 C-11 10.3125 -11 10.3125 -12 8 C-11.92974155 4.55733615 -11.60090824 2.71646751 -9.375 0.0625 C-5.88680246 -1.49800943 -3.63567102 -0.99154664 0 0 Z " fill="#000000" transform="translate(538,227)"/>
<path d="M0 0 C0.99 0.33 1.98 0.66 3 1 C2.34 1.66 1.68 2.32 1 3 C0.67 2.01 0.34 1.02 0 0 Z " fill="#000000" transform="translate(749,209)"/>
<path d="" fill="#000000" transform="translate(0,0)"/>
<path d="" fill="#000000" transform="translate(0,0)"/>
<path d="" fill="#000000" transform="translate(0,0)"/>
<path d="" fill="#000000" transform="translate(0,0)"/>
<path d="" fill="#000000" transform="translate(0,0)"/>
<path d="" fill="#000000" transform="translate(0,0)"/>
<path d="" fill="#000000" transform="translate(0,0)"/>
<path d="" fill="#000000" transform="translate(0,0)"/>
<path d="" fill="#000000" transform="translate(0,0)"/>
<path d="" fill="#000000" transform="translate(0,0)"/>
</svg>
