<?xml version="1.0" encoding="UTF-8"?>
<svg version="1.1" xmlns="http://www.w3.org/2000/svg" width="1000" height="1000">
<path d="M0 0 C1.52685294 0.00883741 3.05371054 0.01689647 4.58057117 0.02428532 C8.96705103 0.04931291 13.35326756 0.09003978 17.73959017 0.13439798 C20.84988399 0.16530841 23.96019437 0.19315551 27.07052231 0.22040939 C42.89631029 0.36057484 58.72170778 0.53224603 74.54707791 0.71268481 C79.54475738 0.76965417 84.54244557 0.82579827 89.54014015 0.88142586 C90.26213654 0.88946322 90.98413294 0.89750058 91.72800801 0.9057815 C93.19667093 0.92212821 94.66533387 0.93847347 96.13399682 0.9548173 C109.79530917 1.10694081 123.4565926 1.26154125 137.11786715 1.41701753 C148.71397255 1.54892902 160.31010122 1.67860187 171.90625 1.80664062 C185.51150289 1.95686326 199.11673727 2.10863172 212.72194797 2.262631 C214.1880177 2.27922118 215.65408746 2.29580922 217.12015724 2.3123951 C217.84066023 2.32054671 218.56116322 2.32869833 219.30349964 2.33709697 C224.25972948 2.39307017 229.21597019 2.44799927 234.17221642 2.50250053 C248.42001976 2.65962793 262.66758505 2.82774181 276.91491514 3.02390701 C284.084075 3.12130252 291.25308742 3.19853217 298.42264169 3.26003426 C302.93534199 3.30234817 307.44774704 3.36037076 311.96021616 3.42233098 C314.03256535 3.44754887 316.10500558 3.466332 318.17747629 3.47783172 C339.68956727 3.60378213 357.33475955 8.5104036 375.69995117 20.16381836 C376.57006836 20.71295898 377.44018555 21.26209961 378.33666992 21.82788086 C401.16493653 37.31970902 414.92594923 60.9052622 428.08276367 84.51147461 C430.89184693 89.54722046 433.91123165 94.42542449 436.96557617 99.31616211 C439.20378198 102.99105407 441.23961698 106.75816721 443.27026367 110.55053711 C444.68278375 113.13243856 446.17135907 115.64916555 447.69995117 118.16381836 C449.72318451 121.49237476 451.64638264 124.85352343 453.49682617 128.28100586 C456.59261099 133.98205964 459.75630186 139.64209718 462.94995117 145.28881836 C463.51206299 146.28292725 464.0741748 147.27703613 464.65332031 148.30126953 C470.60569248 158.80123717 476.69740177 169.21484144 482.94995117 179.53881836 C484.89659955 182.76515759 486.72891328 186.03209116 488.51245117 189.35131836 C490.94838024 193.87153318 493.53955502 198.27399906 496.19995117 202.66381836 C499.38042965 207.91180588 502.4049456 213.21142505 505.30541992 218.62084961 C506.70764491 221.17784811 508.18586474 223.67163992 509.69995117 226.16381836 C511.7353407 229.51405901 513.66006937 232.89660078 515.51245117 236.35131836 C517.94838051 240.8715337 520.53956743 245.27399205 523.19995117 249.66381836 C526.31410303 254.80265099 529.26814451 259.99111259 532.10620117 265.28881836 C534.05286399 268.80044541 536.11956812 272.2302639 538.19995117 275.66381836 C541.27300191 280.74254562 544.2290497 285.85567161 547.03979492 291.08569336 C549.2310917 295.14861539 551.46214222 299.1888642 553.69995117 303.22631836 C554.13670166 304.01482178 554.57345215 304.8033252 555.0234375 305.61572266 C557.21610762 309.55706686 559.44981678 313.45356036 561.82495117 317.28881836 C576.74346049 341.83081678 588.0381572 368.75129294 583.44995117 397.85131836 C583.31355225 398.71998535 583.17715332 399.58865234 583.03662109 400.48364258 C578.89262154 425.79488437 567.07519017 447.27068278 554.12963867 469.05444336 C551.98294219 472.67081417 549.89572408 476.315948 547.82495117 479.97631836 C544.0755075 486.56808224 540.17952833 493.06653929 536.26733398 499.56274414 C531.75940771 507.05089481 527.31935854 514.57717272 522.90014648 522.11791992 C521.71860283 524.13202404 520.53409336 526.14434894 519.34838867 528.15600586 C514.44327925 536.47900518 509.56502281 544.81734928 504.69995117 553.16381836 C484.21467857 588.30188509 484.21467857 588.30188509 474.51245117 603.91381836 C471.56019066 608.68644504 468.84171389 613.53694498 466.19604492 618.48413086 C464.63167973 621.2861009 462.94360739 623.97011751 461.19995117 626.66381836 C458.35209457 631.06618184 455.81780488 635.55909428 453.34448242 640.17944336 C451.4823903 643.55863191 449.51052614 646.86414525 447.51245117 650.16381836 C444.0675993 655.85407336 440.70562432 661.5863037 437.38745117 667.35131836 C433.44022206 674.19569899 429.44280058 681.00789838 425.38745117 687.78881836 C424.90816162 688.59343506 424.42887207 689.39805176 423.93505859 690.22705078 C421.13460937 694.89317392 418.19861033 699.43651959 415.15771484 703.94897461 C413.28468526 706.79474992 411.55273793 709.71257506 409.81982422 712.64501953 C404.79431404 721.12597854 399.35032972 729.02616344 393.02026367 736.58520508 C392.10043182 737.68498924 391.19518497 738.79706729 390.30151367 739.91821289 C386.75231847 744.27070927 382.97611826 747.53195192 378.32495117 750.66381836 C377.63087158 751.13303711 376.93679199 751.60225586 376.22167969 752.08569336 C350.77087452 768.7909215 322.15743145 767.30711754 292.83096683 767.37908602 C289.0984597 767.38928512 285.36597459 767.4049589 281.63348389 767.4198761 C274.34100678 767.44814237 267.04852226 767.47135538 259.75602181 767.49265386 C253.81281017 767.51009233 247.86960685 767.5293332 241.92640495 767.54981613 C241.07581173 767.55274473 240.2252185 767.55567332 239.34884972 767.55869066 C237.61989092 767.56464884 235.89093213 767.57061005 234.16197335 767.57657425 C217.98511241 767.63214931 201.80823747 767.68184331 185.63135176 767.72957925 C171.82924786 767.77045754 158.02717067 767.81674128 144.22509766 767.86694336 C128.12682148 767.92549699 112.02853901 767.98028978 95.93023151 768.02954423 C94.20294279 768.03484105 92.47565409 768.04014365 90.7483654 768.04545212 C89.89896181 768.04806195 89.04955822 768.05067179 88.17441513 768.05336071 C82.2650217 768.07177482 76.35564104 768.09279292 70.44626045 768.11491776 C63.20500202 768.14197018 55.9637433 768.16490548 48.72245676 768.18300273 C45.04617038 768.19228898 41.36991137 768.2031464 37.69364738 768.21910667 C28.36193402 768.25857285 19.03147066 768.2447904 9.69995117 768.16381836 C8.96322736 768.15815493 8.22650354 768.1524915 7.46745476 768.14665645 C2.79652538 768.10840271 -1.87315992 768.04488936 -6.54334158 767.9526339 C-8.02280338 767.92582218 -9.50238902 767.90496934 -10.98202764 767.89098294 C-31.27815711 767.68141981 -49.56768025 761.85245861 -66.30004883 750.16381836 C-66.99485352 749.68170898 -67.6896582 749.19959961 -68.40551758 748.70288086 C-82.94191882 738.19953306 -93.58654829 725.68226847 -102.30004883 710.16381836 C-102.81196777 709.25647949 -103.32388672 708.34914063 -103.85131836 707.41430664 C-106.81053719 702.16413545 -109.75377321 696.90524317 -112.68676758 691.64038086 C-116.05615521 685.59368628 -119.45294794 679.56291217 -122.86254883 673.53881836 C-123.39678467 672.59482178 -123.93102051 671.6508252 -124.48144531 670.67822266 C-125.55565142 668.7803016 -126.62995107 666.88243348 -127.7043457 664.98461914 C-129.28520693 662.19005509 -130.86339026 659.39399677 -132.44067383 656.59741211 C-138.00271658 646.73875582 -143.59138842 636.89603253 -149.21600342 627.07293701 C-155.26707699 616.50479865 -161.26707023 605.9098828 -167.20410156 595.27709961 C-171.72619982 587.17898133 -176.28362929 579.10135359 -180.86328125 571.03564453 C-183.40809462 566.54565057 -185.91843693 562.0409006 -188.37817383 557.50366211 C-190.83941854 552.97484382 -193.40580168 548.52504123 -196.05004883 544.10131836 C-199.92322544 537.56720866 -203.66565916 530.97212734 -207.3359375 524.32226562 C-210.80582079 518.0388545 -214.32632177 511.78511332 -217.86254883 505.53881836 C-218.42047119 504.55316895 -218.97839355 503.56751953 -219.55322266 502.55200195 C-220.640842 500.63059987 -221.72848762 498.70921266 -222.81616211 496.7878418 C-224.81686686 493.24990585 -226.80953614 489.70749556 -228.80004883 486.16381836 C-231.82440679 480.7815101 -234.85702756 475.40392236 -237.89501953 470.02929688 C-239.0007976 468.07302067 -240.10610159 466.11647642 -241.2109375 464.15966797 C-244.04265138 459.14641852 -246.88333965 454.13863103 -249.74145508 449.14038086 C-267.15844357 418.63999696 -279.12076217 389.1803994 -269.87329102 353.22094727 C-264.69817427 334.64959561 -255.25765994 318.59339818 -244.78833008 302.52709961 C-243.28527478 300.14035826 -241.93912427 297.71508094 -240.61254883 295.22631836 C-237.34136113 289.11663975 -233.76209573 283.20669964 -230.18286133 277.2746582 C-226.2900178 270.82117281 -222.43965893 264.3439879 -218.61254883 257.85131836 C-214.68572069 251.19268363 -210.7405607 244.54639749 -206.75244141 237.92431641 C-203.40401489 232.35574578 -200.1018099 226.76015192 -196.80004883 221.16381836 C-193.15428111 214.98440931 -189.50143771 208.81009015 -185.80004883 202.66381836 C-179.9032938 192.86816819 -174.10953812 183.01136801 -168.30004883 173.16381836 C-155.72255661 151.84396171 -155.72255661 151.84396171 -151.70141602 145.1628418 C-150.98436205 143.96989551 -150.27009353 142.77526983 -149.55883789 141.57885742 C-147.6138687 138.31195931 -145.61725995 135.08908446 -143.56176758 131.89038086 C-142.64107066 130.41910428 -141.72049543 128.94775155 -140.80004883 127.47631836 C-140.3660376 126.8236499 -139.93202637 126.17098145 -139.48486328 125.49853516 C-135.82666799 119.56801377 -135.48318032 114.02970608 -135.30004883 107.16381836 C-135.26363281 106.03371338 -135.2272168 104.9036084 -135.18969727 103.73925781 C-135.05406146 99.00221036 -134.94161651 94.26556922 -134.87036133 89.52709961 C-134.82395508 87.80040039 -134.82395508 87.80040039 -134.77661133 86.03881836 C-134.75679199 85.00499023 -134.73697266 83.97116211 -134.71655273 82.90600586 C-134.24266428 79.78600874 -133.4924896 78.4059846 -131.30004883 76.16381836 C-128.47593118 75.22244581 -126.77086851 75.04656454 -123.85083008 75.06616211 C-123.00327148 75.06938477 -122.15571289 75.07260742 -121.2824707 75.07592773 C-120.40139648 75.08430664 -119.52032227 75.09268555 -118.61254883 75.10131836 C-117.27353516 75.10808594 -117.27353516 75.10808594 -115.9074707 75.11499023 C-113.70492896 75.12676853 -111.50252284 75.14321672 -109.30004883 75.16381836 C-109.03708008 74.44452148 -108.77411133 73.72522461 -108.50317383 72.98413086 C-107.26603068 70.08407451 -105.79020466 67.66472918 -104.05004883 65.03881836 C-101.60829567 61.27760852 -99.34456379 57.49711559 -97.23754883 53.53881836 C-92.27850002 44.33847781 -86.47784267 36.76171719 -79.30004883 29.16381836 C-78.61168945 28.3994043 -77.92333008 27.63499023 -77.21411133 26.84741211 C-63.64948793 12.34990569 -43.90542281 3.29954564 -24.32661438 1.06077576 C-23.58357475 0.97555395 -22.84053511 0.89033213 -22.07497913 0.80252784 C-14.71315134 0.0151532 -7.39905187 -0.08076089 0 0 Z M-55.30004883 30.16381836 C-56.22301758 30.75936523 -57.14598633 31.35491211 -58.09692383 31.96850586 C-73.20907817 42.32586042 -81.90558591 58.30021526 -90.30004883 74.16381836 C-90.30004883 74.49381836 -90.30004883 74.82381836 -90.30004883 75.16381836 C-68.74291306 75.73298366 -47.19774119 76.24268133 -25.63214111 76.11529541 C-4.79238252 76.00769717 16.04796095 76.2373134 36.88373184 76.63686275 C41.4532475 76.72446066 46.02241634 76.80276304 50.59246826 76.85641479 C54.93508868 76.9081144 59.27627791 76.98857587 63.61800957 77.09012794 C65.23487485 77.12325107 66.85197793 77.14646477 68.46913338 77.15906334 C83.4670668 77.28832249 83.4670668 77.28832249 89.29003906 82.61912537 C91.37156319 84.89963328 93.38479694 87.1464725 95.26245117 89.60131836 C97.81902371 92.85075276 100.34159785 95.92560007 103.32495117 98.78881836 C104.45345582 99.91030276 105.57799005 101.03578766 106.69995117 102.16381836 C107.29880127 102.73737061 107.89765137 103.31092285 108.51464844 103.90185547 C114.84209358 110.79639501 115.08883836 118.17668532 115.01245117 127.10131836 C115.01387115 127.82137054 115.01529114 128.54142273 115.01675415 129.28329468 C114.9256892 142.68448736 114.9256892 142.68448736 110.94213867 147.37475586 C107.5777986 150.22076542 103.87173096 151.84589786 99.69995117 153.16381836 C98.65452148 153.51573242 97.6090918 153.86764648 96.53198242 154.23022461 C94.7175744 154.74826938 92.88588896 155.21095486 91.03979492 155.60131836 C85.48034425 156.93781401 81.79128248 160.5268214 78.69995117 165.16381836 C76.69987932 169.98495031 76.42178351 174.40949078 76.46948242 179.55834961 C76.46833435 180.77478401 76.46833435 180.77478401 76.46716309 182.01579285 C76.46995309 186.53744294 76.52258319 191.05851246 76.57373047 195.57983398 C76.58934273 196.98094925 76.58934273 196.98094925 76.60527039 198.41036987 C76.62676419 200.30420922 76.64997408 202.19802986 76.67488098 204.09182739 C76.73177857 209.58413786 76.59237465 215.00576356 76.26245117 220.48803711 C75.18337892 245.2894464 84.72798762 265.94272202 94.28295898 288.41821289 C97.40344523 295.78132539 100.27575588 303.23435715 103.11825562 310.70819092 C104.31398262 313.84540284 105.52907516 316.97497979 106.74291992 320.10522461 C107.39528734 321.79141337 108.04764165 323.4776072 108.69995117 325.16381836 C109.02995117 325.16381836 109.35995117 325.16381836 109.69995117 325.16381836 C109.93251138 320.76887775 110.07445192 316.3755155 110.19995117 311.97631836 C110.30049805 310.1075 110.30049805 310.1075 110.40307617 308.20092773 C110.81001737 301.73503 110.81001737 301.73503 107.97143555 296.2902832 C105.87620487 294.9510728 105.87620487 294.9510728 103.67651367 294.06494141 C100.97627637 292.83389201 99.60925377 291.00995513 98.32885742 288.36303711 C95.54202302 278.61777147 98.1214751 269.85118321 102.69995117 261.16381836 C103.93858816 259.03924102 105.22835541 257.14286093 106.69995117 255.16381836 C108.9633991 251.76864647 108.94854423 250.60537191 108.94287109 246.62597656 C108.94594772 245.49082108 108.94902435 244.35566559 108.95219421 243.18611145 C108.9450087 241.95801254 108.93782318 240.72991364 108.93041992 239.46459961 C108.9299617 238.20044724 108.92950348 236.93629486 108.92903137 235.63383484 C108.92600677 232.95464731 108.91918624 230.27580226 108.90576172 227.59667969 C108.88885798 224.18182135 108.88494509 220.76711104 108.8857069 217.35221577 C108.88536737 214.07716266 108.8765103 210.80213995 108.86791992 207.52709961 C108.86625069 205.70013298 108.86625069 205.70013298 108.86454773 203.83625793 C108.83138119 197.85306118 108.61490693 192.07931538 107.69995117 186.16381836 C108.35995117 186.16381836 109.01995117 186.16381836 109.69995117 186.16381836 C110.01448242 185.49995117 110.32901367 184.83608398 110.65307617 184.15209961 C116.12543292 172.86124307 122.31995842 167.48992986 134.07495117 162.91381836 C153.12664807 156.52777471 174.53003077 157.43281765 192.69995117 166.16381836 C199.22020331 169.48786847 203.94119389 175.44956377 206.49575806 182.29693604 C208.41400529 188.33739669 209.16389348 193.78961427 209.21166992 200.10913086 C209.23859673 201.45296341 209.23859673 201.45296341 209.2660675 202.82394409 C209.31963437 205.64552295 209.35389185 208.46693806 209.38745117 211.28881836 C209.42067174 213.2185284 209.45516568 215.14821697 209.4909668 217.07788086 C209.575329 221.77307404 209.64239308 226.46822321 209.69995117 231.16381836 C210.27777344 230.87482666 210.8555957 230.58583496 211.45092773 230.28808594 C212.19310547 229.91707764 212.9352832 229.54606934 213.69995117 229.16381836 C214.34158203 228.84243896 214.98321289 228.52105957 215.64428711 228.18994141 C226.43705824 222.82326308 237.02531222 218.23803449 248.69995117 215.16381836 C249.48563477 214.95273437 250.27131836 214.74165039 251.08081055 214.52416992 C271.99094663 208.98339067 293.43932344 206.05896585 315.07885742 205.96069336 C316.12127594 205.95367905 317.16369446 205.94666473 318.23770142 205.93943787 C321.57932923 205.92204958 324.92077979 205.91558658 328.26245117 205.91381836 C329.40444977 205.91314362 330.54644836 205.91246887 331.72305298 205.91177368 C348.55589921 205.92758583 365.07781994 206.23924298 381.69995117 209.16381836 C382.74022461 209.34605957 383.78049805 209.52830078 384.85229492 209.71606445 C407.77818247 213.87398679 439.92500002 219.7340267 454.62963867 239.79663086 C457.77335895 244.95594212 459.84829088 249.01336336 459.75291443 255.13357544 C459.73983749 256.15963394 459.72676056 257.18569244 459.71328735 258.24284363 C459.69398163 259.36805923 459.6746759 260.49327484 459.65478516 261.65258789 C459.62179001 264.11043889 459.58912646 266.56829437 459.55674744 269.02615356 C459.53803022 270.33257938 459.51931301 271.6390052 459.50002861 272.98501968 C459.44350641 277.07063645 459.40431044 281.15630061 459.36988831 285.24215698 C459.36404722 285.93229924 459.35820614 286.6224415 459.35218805 287.33349717 C459.32838707 290.18079398 459.30511645 293.028095 459.28194129 295.87539697 C459.21534425 303.95029323 459.13221776 312.02426951 459.00048828 320.09838867 C458.89592092 326.51489075 458.82715282 332.93066854 458.79973656 339.34797943 C458.78389408 342.74130588 458.75031712 346.13231216 458.67321587 349.52484512 C458.59571007 353.31738751 458.58102947 357.10545462 458.58056641 360.89868164 C458.5430426 362.01175186 458.5055188 363.12482208 458.46685791 364.2716217 C458.52318228 369.04706565 458.75483179 372.0000754 461.8257618 375.78136826 C464.35637241 378.08828074 466.93725408 380.14329128 469.69995117 382.16381836 C480.15468923 390.28120518 490.78156218 404.71278853 492.69995117 418.16381836 C493.48967437 425.14186434 492.25458672 431.08166575 488.69995117 437.16381836 C482.47717863 444.83613086 473.87479765 447.36643552 464.50610352 449.21533203 C463.60596527 449.39351974 462.70582703 449.57170746 461.77841187 449.7552948 C461.09251984 449.89010757 460.40662781 450.02492035 459.69995117 450.16381836 C459.70962921 451.14972458 459.71930725 452.1356308 459.72927856 453.15141296 C459.81437043 462.49235636 459.84606013 471.83219833 459.82692146 481.17352581 C459.81876115 485.97500131 459.82870359 490.77494995 459.8815918 495.57617188 C459.93204722 500.21938711 459.93289364 504.86031873 459.90090561 509.50367165 C459.8971857 511.26531755 459.91064106 513.0270952 459.94244766 514.78845787 C460.13124841 526.0140841 458.90069615 533.2120919 451.20553589 541.68855286 C448.14316737 544.71386471 445.41971696 546.98810629 441.69995117 549.16381836 C441.09803955 549.52008301 440.49612793 549.87634766 439.87597656 550.2434082 C438.16574823 551.24319184 436.4334858 552.20501391 434.69995117 553.16381836 C433.91491211 553.63045898 433.12987305 554.09709961 432.32104492 554.57788086 C418.60352653 562.18509142 399.7738572 568.18633032 384.05932617 568.21850586 C376.0672129 568.06959298 376.0672129 568.06959298 369.25708008 571.55786133 C366.7120507 575.23956641 365.23559169 579.27636033 363.81762695 583.49389648 C362.69995117 586.16381836 362.69995117 586.16381836 360.73461914 589.22436523 C352.63626792 602.04667931 353.76149173 615.67687906 354.0368042 630.37670898 C354.1253395 635.10463567 354.18934398 639.83147524 354.20742798 644.5602417 C354.21775075 647.06269439 354.25574206 649.56525207 354.32699585 652.06671143 C354.38173421 662.12076481 351.49792147 670.6451832 344.32495117 677.91381836 C305.20270673 708.36692909 236.99364738 709.22591868 189.84448242 709.36694336 C188.38001479 709.37392729 186.91554743 709.3809682 185.45108032 709.38806152 C180.80486665 709.40730079 176.15870036 709.41223655 171.51245117 709.41381836 C170.7209026 709.4144075 169.92935402 709.41499664 169.11381912 709.41560364 C144.84718546 709.42834862 120.82685186 709.00960209 96.69995117 706.16381836 C94.73735352 705.94701416 94.73735352 705.94701416 92.73510742 705.72583008 C9.65950012 696.43231256 9.65950012 696.43231256 -11.81958008 672.46850586 C-15.5318139 667.24776713 -15.4852735 661.87007566 -15.61645508 655.67944336 C-15.63723618 654.86384949 -15.65801727 654.04825562 -15.6794281 653.20794678 C-15.74466179 650.60998731 -15.80368651 648.01192923 -15.86254883 645.41381836 C-15.90575896 643.64948536 -15.94937405 641.88516223 -15.9934082 640.12084961 C-16.10031628 635.80193952 -16.2016571 631.48293052 -16.30004883 627.16381836 C-16.98972244 627.17270081 -17.67939606 627.18158325 -18.38996887 627.19073486 C-24.93514614 627.27136047 -31.48018195 627.33202375 -38.02574635 627.37106705 C-41.38977808 627.39181557 -44.75339463 627.41989427 -48.1171875 627.46557617 C-51.99726039 627.5144454 -55.87675409 627.53686841 -59.75708008 627.55444336 C-60.94711136 627.5750885 -62.13714264 627.59573364 -63.36323547 627.61700439 C-75.1166142 627.62011833 -84.82878647 624.55235355 -93.30004883 616.16381836 C-102.64482668 604.75401147 -104.46089058 593.43519834 -104.43286133 579.11303711 C-104.43490822 577.47047943 -104.43490822 577.47047943 -104.43699646 575.79473877 C-104.43904324 572.14690258 -104.43262789 568.49914655 -104.42504883 564.85131836 C-104.42383026 563.58925568 -104.42261169 562.32719299 -104.4213562 561.02688599 C-104.39630816 538.54162674 -104.18128137 516.05872448 -103.89388275 493.57541275 C-103.86280163 491.12127924 -103.83293481 488.66713334 -103.80328369 486.21298218 C-103.44243387 456.80333755 -103.44243387 456.80333755 -102.95239258 445.79272461 C-102.89946045 444.58817627 -102.84652832 443.38362793 -102.79199219 442.14257812 C-101.6704275 430.8354438 -97.71432893 420.44785806 -93.44458008 410.02319336 C-92.86343492 408.58352608 -92.28320635 407.14348852 -91.7038269 405.70310974 C-90.48095775 402.66774043 -89.25247161 399.63473807 -88.01913452 396.60360718 C-86.09589431 391.87658937 -84.18537728 387.14450266 -82.27783203 382.41113281 C-81.96180747 381.6270231 -81.64578291 380.84291338 -81.32018185 380.03504276 C-80.68449684 378.45775605 -80.04884956 376.88045412 -79.41324043 375.30313683 C-78.46682191 372.95569777 -77.51918248 370.60875478 -76.5712738 368.26191711 C-70.99399979 354.44704566 -65.5536323 340.58120054 -60.18408203 326.68432617 C-59.90140976 325.95559296 -59.61873749 325.22685974 -59.32749939 324.4760437 C-58.78201428 323.06380619 -58.24172337 321.64954968 -57.70704651 320.23318481 C-56.40634234 316.82376059 -55.01973026 313.53525256 -53.36889648 310.27954102 C-46.95536358 297.25014793 -47.2575353 284.46086808 -47.30004883 270.16381836 C-47.28749361 267.44323219 -47.26553623 264.72273217 -47.24487305 262.00219727 C-47.19469428 254.21521507 -47.20674662 246.42895964 -47.23138428 238.64190674 C-47.24186584 234.95976366 -47.24623336 231.27761287 -47.2512207 227.59545898 C-47.26174519 220.45156109 -47.27866448 213.30769275 -47.30004883 206.16381836 C-49.24786218 208.72076275 -50.92117389 211.16601565 -52.35864258 214.04272461 C-52.73827148 214.7895752 -53.11790039 215.53642578 -53.5090332 216.3059082 C-53.91444336 217.10464355 -54.31985352 217.90337891 -54.73754883 218.72631836 C-75.40681947 258.62478751 -75.40681947 258.62478751 -88.30004883 264.16381836 C-91.54120295 265.08541805 -94.81735443 265.77971388 -98.11645508 266.46069336 C-99.5175779 266.75753021 -99.5175779 266.75753021 -100.94700623 267.06036377 C-102.91366995 267.47449339 -104.88122958 267.88438849 -106.84960938 268.2902832 C-109.85887772 268.91305861 -112.86358463 269.55513646 -115.8684082 270.19897461 C-117.78417938 270.59988409 -119.70018767 270.99966252 -121.61645508 271.39819336 C-122.51239883 271.5908075 -123.40834259 271.78342163 -124.33143616 271.98187256 C-131.51771099 273.43920041 -135.80303467 272.85530368 -142.30004883 269.16381836 C-143.74435738 266.27520127 -143.67693389 264.36734135 -143.30004883 261.16381836 C-141.11254883 258.60131836 -141.11254883 258.60131836 -138.30004883 256.16381836 C-116.64940471 235.05444035 -106.11637321 204.24544027 -100.30004883 175.16381836 C-100.07446289 174.05651367 -99.84887695 172.94920898 -99.61645508 171.80834961 C-97.68845751 160.67914986 -98.11095591 149.4192109 -98.30004883 138.16381836 C-107.62328414 136.22860914 -118.02579175 134.20505049 -127.30004883 137.16381836 C-132.7448574 141.53089163 -135.3166458 148.24412435 -138.06176758 154.49145508 C-139.90879824 158.47757448 -142.26364479 162.06435732 -144.67504883 165.72631836 C-147.8436092 170.72609148 -150.7788933 175.78715288 -153.55786133 181.01538086 C-156.44431319 186.23170418 -159.55617231 191.31267317 -162.63549805 196.41674805 C-165.89079374 201.81318468 -169.11576947 207.22519338 -172.30004883 212.66381836 C-176.43064429 219.71316791 -180.62765332 226.7211304 -184.83911133 233.72241211 C-188.02213636 239.01929222 -191.17561099 244.33219152 -194.30004883 249.66381836 C-197.86662836 255.74924552 -201.47657264 261.80710587 -205.11254883 267.85131836 C-210.00198914 275.97929105 -214.83927078 284.13695298 -219.65698242 292.30761719 C-222.31917456 296.82008479 -224.98886871 301.32715723 -227.6965332 305.8125 C-228.75159695 307.5621144 -229.79977193 309.31570884 -230.84692383 311.07006836 C-232.20211838 313.34030881 -233.56821637 315.60281148 -234.9465332 317.85913086 C-251.40835967 344.83872969 -260.76242805 371.53758646 -253.60400391 403.24707031 C-251.17929964 412.72703205 -247.22485208 420.55650171 -242.36254883 428.97631836 C-241.65090215 430.23271033 -240.94061072 431.48987093 -240.23168945 432.74780273 C-238.87208753 435.15599352 -237.50494206 437.55958744 -236.12988281 439.95898438 C-234.59529544 442.64671332 -233.08353985 445.34428723 -231.58911133 448.05444336 C-229.34130265 452.11759116 -226.98756956 456.11159228 -224.61254883 460.10131836 C-220.71632827 466.68707512 -216.94839215 473.33329974 -213.24902344 480.03125 C-204.76776882 495.38207692 -196.05488767 510.60279908 -187.34133911 525.82254028 C-181.97100793 535.20606012 -176.6613629 544.62234225 -171.3894043 554.06152344 C-166.89950056 562.1003139 -162.37697533 570.12019279 -157.84228516 578.13378906 C-154.47179042 584.0901377 -151.1097906 590.05111359 -147.75854492 596.01831055 C-145.53605289 599.97323258 -143.30519047 603.92332624 -141.06958008 607.87084961 C-140.49852539 608.87954102 -139.9274707 609.88823242 -139.33911133 610.92749023 C-138.22396416 612.89665849 -137.10812767 614.86543661 -135.99145508 616.83374023 C-133.35584658 621.48845971 -130.75168716 626.15651321 -128.20239258 630.85913086 C-125.74780093 635.37626968 -123.18740508 639.81412369 -120.55004883 644.22631836 C-116.6746857 650.76411674 -112.93111887 657.36342474 -109.25756836 664.01635742 C-105.30459528 671.1722601 -101.30304858 678.30010647 -97.2578125 685.40429688 C-94.54024637 690.1782276 -91.85741895 694.96340743 -89.26098633 699.80444336 C-76.94005619 722.55093185 -59.12005026 739.69689772 -34.21801758 748.21850586 C-22.53355203 751.43441381 -10.33448742 751.3129294 1.69702148 751.29321289 C3.06066654 751.29454788 4.42431124 751.29630337 5.78795528 751.29843712 C9.50108018 751.30292095 13.21417774 751.3011063 16.92730308 751.2980175 C20.12695685 751.29613013 23.32660484 751.29786072 26.52625841 751.29958034 C36.1625185 751.3047145 45.79875902 751.30013631 55.43501663 751.29279327 C60.951052 751.2886107 66.46708732 751.28630111 71.98312378 751.28411865 C129.29869806 751.25917178 186.61395715 751.10792845 243.92885983 750.8300854 C250.79146868 750.79717438 257.65408702 750.76891149 264.51672363 750.74249268 C272.90233061 750.7100032 281.2878665 750.67021908 289.67339391 750.62122893 C293.95703662 750.59631151 298.2406379 750.57426459 302.52433205 750.56044006 C306.46089353 750.54757676 310.39729805 750.52550329 314.33377218 750.4964273 C315.75063499 750.48747891 317.16752258 750.48169908 318.5844121 750.47960687 C342.73759139 750.43746193 361.14668995 744.42659529 378.57495117 727.44116211 C387.72092681 718.114381 394.02602884 706.48875507 400.62182617 695.32006836 C403.59189725 690.30830928 406.69081468 685.38663349 409.82495117 680.47631836 C414.8976435 672.50740399 419.73868612 664.42487672 424.48217773 656.2565918 C426.54138306 652.71779709 428.62181457 649.19151689 430.69995117 645.66381836 C431.53729731 644.24070396 432.37453707 642.81752698 433.21166992 641.39428711 C433.83114502 640.34120361 433.83114502 640.34120361 434.46313477 639.2668457 C435.6739723 637.20799166 436.88430126 635.14883952 438.09448242 633.08959961 C443.34141531 624.1629995 448.60366975 615.24555664 453.87402344 606.33276367 C456.82713497 601.33753738 459.7744584 596.33902162 462.7121582 591.3347168 C468.99732056 580.62886628 475.33448008 569.95825761 481.88745117 559.41381836 C484.83971168 554.64119168 487.55818845 549.79069174 490.20385742 544.84350586 C492.23572261 541.20418596 494.49276508 537.7315307 496.79370117 534.25756836 C499.04008624 530.61179587 501.05268998 526.86419981 503.08959961 523.09838867 C505.64897648 518.43439383 508.35779551 513.86214802 511.07495117 509.28881836 C511.64221924 508.33064209 512.2094873 507.37246582 512.79394531 506.38525391 C516.46246137 500.20315402 520.20974311 494.07758928 524.00463867 487.97241211 C526.20298919 484.33044432 528.19820836 480.59390655 530.20385742 476.84350586 C531.76822262 474.04153582 533.45629495 471.35751921 535.19995117 468.66381836 C538.04642884 464.26358651 540.58397608 459.7771678 543.04370117 455.15209961 C544.58762312 452.36648572 546.23409328 449.66582407 547.92016602 446.96459961 C563.20387431 422.30386776 572.46759819 393.03988029 565.85620117 364.02319336 C559.87791672 342.68159702 546.27634811 323.03138465 535.17651367 304.11303711 C531.9533515 298.61266014 528.78701841 293.08157512 525.63745117 287.53881836 C520.93273049 279.26352959 516.12120605 271.05574548 511.23876953 262.8840332 C508.06799427 257.55777797 505.05056884 252.16912433 502.10180664 246.71704102 C500.22890802 243.30589964 498.2324875 239.98141841 496.19995117 236.66381836 C493.08330581 231.52654792 490.13168005 226.33637892 487.29370117 221.03881836 C484.98049302 216.86597227 482.4954421 212.80147245 480.02294922 208.72167969 C477.24428022 204.11875663 474.63542308 199.44567644 472.09448242 194.70678711 C470.25493108 191.35231114 468.26703077 188.09679352 466.28027344 184.828125 C464.75890229 182.26320559 463.31972335 179.67061436 461.90307617 177.04663086 C458.80729136 171.34557708 455.64360048 165.68553953 452.44995117 160.03881836 C451.88783936 159.04470947 451.32572754 158.05060059 450.74658203 157.02636719 C444.79420986 146.52639955 438.70250057 136.11279528 432.44995117 125.78881836 C430.5033028 122.56247913 428.67098907 119.29554556 426.88745117 115.97631836 C424.45152183 111.45610302 421.86033491 107.05364467 419.19995117 102.66381836 C416.60231781 98.3773212 414.06762284 94.08347214 411.69995117 89.66381836 C401.85127687 71.35783371 390.42906453 52.01229919 373.69995117 39.16381836 C372.96647461 38.59405273 372.23299805 38.02428711 371.47729492 37.43725586 C353.6524217 24.27873156 335.41545337 20.13034413 313.65214539 19.92967224 C312.60732351 19.91656716 311.56250163 19.90346208 310.48601848 19.88995987 C307.01789495 19.84751621 303.54973592 19.81119213 300.08154297 19.77490234 C297.57743923 19.74555553 295.07333977 19.71584178 292.56924438 19.68579102 C286.47640845 19.61371483 280.38353908 19.54568557 274.29063495 19.47965746 C269.29539585 19.42543859 264.30017859 19.36950253 259.30497169 19.3123951 C258.230092 19.30010921 258.230092 19.30010921 257.13349757 19.28757511 C255.67600971 19.27090926 254.21852189 19.25423978 252.76103411 19.23756672 C239.08181755 19.0812838 225.40254624 18.93031731 211.72325031 18.78116686 C200.17384946 18.65511782 188.62450726 18.52456195 177.07519531 18.390625 C138.49664532 17.94378715 99.91799469 17.53573164 61.33833981 17.19629955 C57.82400196 17.16492581 54.30967841 17.1322918 50.79535675 17.09915924 C39.06339226 16.98923215 27.33169927 16.89799835 15.59931374 16.84880257 C12.32596501 16.83454335 9.05289201 16.81141963 5.77966881 16.77950859 C-15.75912754 16.57698203 -37.12876708 16.75168183 -55.30004883 30.16381836 Z M-118.30004883 91.16381836 C-118.30004883 100.73381836 -118.30004883 110.30381836 -118.30004883 120.16381836 C-114.26428226 121.17276 -110.66297954 121.27685532 -106.55004883 121.22631836 C-105.85266602 121.22180664 -105.1552832 121.21729492 -104.43676758 121.21264648 C-102.7244908 121.20091856 -101.0122585 121.18298489 -99.30004883 121.16381836 C-99.15842968 111.09312318 -99.59525592 101.20711731 -100.30004883 91.16381836 C-106.24004883 91.16381836 -112.18004883 91.16381836 -118.30004883 91.16381836 Z M-83.30004883 92.16381836 C-83.30004883 102.06381836 -83.30004883 111.96381836 -83.30004883 122.16381836 C-80.10961914 122.27338867 -76.91918945 122.38295898 -73.63208008 122.49584961 C-70.53745631 122.61171605 -67.4430544 122.73238336 -64.34863281 122.85351562 C-62.20038009 122.9350374 -60.05193227 123.01157811 -57.90332031 123.08300781 C-54.81225645 123.18663886 -51.72234048 123.30825176 -48.63208008 123.43334961 C-47.19430962 123.47574516 -47.19430962 123.47574516 -45.72749329 123.51899719 C-39.64191129 123.78804971 -36.14705427 124.64261664 -31.50585938 128.75268555 C-29.56881714 132.62598563 -29.93352678 136.47590014 -30.00708008 140.74194336 C-30.01132492 141.66851746 -30.01556976 142.59509155 -30.01994324 143.54974365 C-30.0367156 146.5047327 -30.07436528 149.45903597 -30.11254883 152.41381836 C-30.12759753 154.41901683 -30.14128561 156.42422601 -30.15356445 158.42944336 C-30.18661445 163.34116532 -30.23838701 168.25237562 -30.30004883 173.16381836 C14.69646526 174.06912053 14.69646526 174.06912053 59.69995117 174.16381836 C59.99772461 172.94436523 60.29549805 171.72491211 60.60229492 170.46850586 C63.64373828 158.37191661 68.9675229 149.26930807 79.94995117 142.66381836 C85.94184505 139.65512271 92.07715701 138.77450526 98.69995117 138.16381836 C100.29735854 124.17227026 100.29735854 124.17227026 95.32495117 111.85131836 C92.86021212 109.6003027 92.86021212 109.6003027 89.69995117 109.16381836 C89.45116211 108.60952148 89.20237305 108.05522461 88.94604492 107.48413086 C87.47444265 104.74390594 85.70732049 102.46537784 83.76245117 100.03881836 C83.07280273 99.16999023 82.3831543 98.30116211 81.67260742 97.40600586 C79.1408747 94.52835322 77.56940731 93.24469697 73.70632935 92.88534546 C72.47075287 92.87202179 71.23517639 92.85869812 69.9621582 92.8449707 C69.27434863 92.83492791 68.58653906 92.82488512 67.87788677 92.814538 C65.57118712 92.78341007 63.26460926 92.76651639 60.95776367 92.74975586 C59.31002435 92.73090338 57.66229372 92.7112778 56.01457214 92.69093323 C51.54787327 92.63861508 47.08114457 92.59926707 42.61429214 92.56272507 C38.89948275 92.53088641 35.18476305 92.49178377 31.47002125 92.4529562 C-6.78614428 92.05727285 -45.04241694 92.06723528 -83.30004883 92.16381836 Z M-81.30004883 138.16381836 C-81.33743164 139.43612305 -81.37481445 140.70842773 -81.41333008 142.01928711 C-82.7056616 179.0034011 -91.48039681 215.78766505 -110.86645508 247.64428711 C-112.46489609 249.97039759 -112.46489609 249.97039759 -112.30004883 252.16381836 C-99.55552657 251.43935758 -99.55552657 251.43935758 -89.05004883 245.16381836 C-88.09578587 243.85712874 -87.18133406 242.52079732 -86.30004883 241.16381836 C-85.78442383 240.40327148 -85.26879883 239.64272461 -84.73754883 238.85913086 C-82.85897487 235.99778442 -81.0755754 233.09027916 -79.30004883 230.16381836 C-78.73495605 229.24681152 -78.73495605 229.24681152 -78.15844727 228.3112793 C-68.18073679 212.0844136 -60.0819918 195.32868208 -54.30004883 177.16381836 C-54.08445312 176.49882324 -53.86885742 175.83382812 -53.64672852 175.14868164 C-50.8256554 166.76589323 -50.8256554 166.76589323 -51.30004883 158.16381836 C-50.70629883 156.02319336 -50.70629883 156.02319336 -49.80004883 153.91381836 C-48.03540503 149.1332379 -48.11037139 145.09877661 -49.30004883 140.16381836 C-51.21224468 138.25162251 -54.63650386 138.91946538 -57.17895508 138.84741211 C-57.86561752 138.82663101 -58.55227997 138.80584991 -59.25975037 138.78443909 C-61.46057817 138.71887692 -63.66152858 138.66002821 -65.86254883 138.60131836 C-67.35149397 138.55813944 -68.84042656 138.51452536 -70.3293457 138.47045898 C-73.98611436 138.36318906 -77.64302201 138.26194064 -81.30004883 138.16381836 Z M136.69995117 180.16381836 C137.58553711 180.01944336 138.47112305 179.87506836 139.38354492 179.72631836 C155.02862579 177.38199823 169.25377116 177.67127698 184.69995117 181.16381836 C183.8402223 178.90655678 183.8402223 178.90655678 181.20776367 178.09350586 C169.51183905 174.44697047 146.42424141 170.43952812 136.69995117 180.16381836 Z M-30.30004883 190.16381836 C-30.30004883 200.06381836 -30.30004883 209.96381836 -30.30004883 220.16381836 C-11.79645909 220.22984366 6.69568796 219.98533894 25.1963501 219.70025635 C29.21315735 219.63872254 33.22999294 219.57909684 37.24682617 219.51928711 C45.06456263 219.4026133 52.88226631 219.28390479 60.69995117 219.16381836 C60.72892552 214.89299922 60.74674113 210.62220527 60.76245117 206.35131836 C60.77501953 204.52890625 60.77501953 204.52890625 60.7878418 202.66967773 C60.79267578 200.92460937 60.79267578 200.92460937 60.79760742 199.14428711 C60.80546265 197.53396606 60.80546265 197.53396606 60.81347656 195.89111328 C60.82189706 193.06882471 60.82189706 193.06882471 59.69995117 190.16381836 C29.99995117 190.16381836 0.29995117 190.16381836 -30.30004883 190.16381836 Z M138.69995117 197.16381836 C138.36995117 197.82381836 138.03995117 198.48381836 137.69995117 199.16381836 C142.67334688 200.71800452 147.49140418 201.75184289 152.69995117 202.16381836 C153.35350586 202.21795898 154.00706055 202.27209961 154.68041992 202.32788086 C162.59525496 202.65457199 173.06450138 201.58745156 179.69995117 197.16381836 C167.74472908 192.00063761 150.70426035 192.1886484 138.69995117 197.16381836 Z M132.69995117 215.16381836 C137.4976679 219.96153509 146.1705359 220.6456108 152.69995117 221.16381836 C153.67448242 221.2430957 153.67448242 221.2430957 154.66870117 221.32397461 C163.60859527 221.70758947 173.53074614 219.74953813 181.69995117 216.16381836 C178.41141515 215.06763968 177.50797615 215.27886033 174.25463867 216.08569336 C168.40915561 217.34511191 162.78721601 217.46695121 156.82495117 217.41381836 C155.24810547 217.40801758 155.24810547 217.40801758 153.6394043 217.40209961 C146.48646214 217.32227756 139.67099163 216.87600373 132.69995117 215.16381836 Z M216.09838867 247.65600586 C213.06669438 250.92481591 211.79659848 253.71804203 211.69995117 258.16381836 C212.52337649 260.48362782 212.52337649 260.48362782 213.69995117 262.16381836 C217.30518249 260.80230519 220.720025 259.17200624 224.16455078 257.44824219 C238.44063714 250.40905006 253.18699838 246.48495379 268.76245117 243.41381836 C270.26666626 243.11568237 270.26666626 243.11568237 271.80126953 242.81152344 C288.81911721 239.6426641 305.69256601 238.81406577 322.97680664 238.84814453 C326.30022342 238.85129492 329.6227378 238.82777467 332.94604492 238.80249023 C367.45778969 238.70007866 410.04324303 242.6379655 438.69995117 264.16381836 C439.35995117 264.16381836 440.01995117 264.16381836 440.69995117 264.16381836 C443.82057503 260.20302654 444.23137968 257.12381775 443.69995117 252.16381836 C437.98830267 240.75831466 423.48177045 236.41852358 412.12963867 232.59741211 C360.07124042 215.79746067 260.05361152 206.70260311 216.09838867 247.65600586 Z M185.13745117 231.66381836 C183.93991211 232.12788086 182.74237305 232.59194336 181.50854492 233.07006836 C180.11829102 233.61147461 180.11829102 233.61147461 178.69995117 234.16381836 C178.68577148 234.81608398 178.6715918 235.46834961 178.65698242 236.14038086 C178.30620585 242.56812457 177.50200141 245.78861704 172.69995117 250.16381836 C171.7125293 250.58663086 170.72510742 251.00944336 169.70776367 251.44506836 C165.953231 253.5905156 165.32254884 255.2478322 163.76245117 259.22631836 C159.11745569 270.13354597 152.63429849 278.01580515 143.57495117 285.60131836 C142.72674805 286.3219043 141.87854492 287.04249023 141.00463867 287.78491211 C138.1805081 289.97454391 135.13616675 291.61965445 131.9934082 293.3125 C131.00229034 293.84790909 130.01117249 294.38331818 128.99002075 294.93495178 C127.85643631 295.54324074 127.85643631 295.54324074 126.69995117 296.16381836 C126.67632504 303.39014606 126.65878932 310.61646487 126.648139 317.84282398 C126.64301621 321.20171347 126.63553398 324.56055544 126.62451172 327.91943359 C126.56666851 346.03116433 126.88531983 364.07018583 127.69995117 382.16381836 C133.96995117 381.83381836 140.23995117 381.50381836 146.69995117 381.16381836 C169.46995117 380.66881836 169.46995117 380.66881836 192.69995117 380.16381836 C192.69995117 330.33381836 192.69995117 280.50381836 192.69995117 229.16381836 C190.24117886 229.16381836 187.36572213 230.79847041 185.13745117 231.66381836 Z M125.69995117 231.16381836 C125.69995117 246.67381836 125.69995117 262.18381836 125.69995117 278.16381836 C137.68543349 270.97252897 147.79932691 262.1135085 151.69995117 248.16381836 C150.51038081 245.01384264 150.51038081 245.01384264 148.69995117 242.16381836 C148.01245117 239.28881836 148.01245117 239.28881836 147.69995117 237.16381836 C144.78346067 236.3506816 141.86676748 235.53828486 138.94995117 234.72631836 C138.12495117 234.4962207 137.29995117 234.26612305 136.44995117 234.02905273 C135.65073242 233.80668945 134.85151367 233.58432617 134.02807617 233.35522461 C133.29492188 233.15098877 132.56176758 232.94675293 131.80639648 232.73632812 C129.77808733 232.18505495 127.73908366 231.67360148 125.69995117 231.16381836 Z M-31.30004883 236.16381836 C-31.31260952 256.7447688 -31.31260952 256.7447688 -31.23754883 277.32543945 C-31.27324857 291.92468942 -31.84653268 304.06518137 -39.15838623 317.00482178 C-41.32042084 321.09344249 -42.90359803 325.42560634 -44.56958008 329.73413086 C-45.31079743 331.61526155 -46.05250572 333.49619887 -46.79467773 335.37695312 C-47.56735064 337.34755558 -48.33997307 339.31817782 -49.11254883 341.28881836 C-49.93424424 343.37613701 -50.75635603 345.46329178 -51.57885742 347.55029297 C-53.28874759 351.88977008 -54.99685441 356.22994307 -56.70385742 360.57055664 C-59.27472451 367.10406296 -61.85780188 373.63269141 -64.44458008 380.15991211 C-65.07415367 381.7486615 -65.07415367 381.7486615 -65.71644592 383.36950684 C-66.95253447 386.48848858 -68.18877555 389.60740983 -69.42504883 392.72631836 C-70.18920772 394.65418374 -70.95328856 396.58208006 -71.71728516 398.51000977 C-72.04005936 399.32442535 -72.36283356 400.13884094 -72.69538879 400.97793579 C-73.4299515 402.83429193 -74.15959765 404.69262576 -74.87851048 406.55509853 C-76.67391547 411.17386143 -78.52840635 415.7194734 -80.64900208 420.19917297 C-87.71020732 435.62847249 -88.66139487 449.87567867 -88.61645246 466.66088533 C-88.61645694 470.2614277 -88.66755344 473.8613046 -88.71238708 477.46151733 C-88.78965965 484.26399267 -88.82274702 491.06589726 -88.83898538 497.86876237 C-88.85953104 505.54297102 -88.93110224 513.21644054 -89.00647652 520.89027524 C-89.14709544 535.36438593 -89.25047181 549.83820849 -89.26858521 564.31304932 C-89.27747379 568.68863198 -89.33499347 573.05796305 -89.44747925 577.43206787 C-89.46586066 578.39102148 -89.48424208 579.34997509 -89.5031805 580.3379879 C-89.53786919 582.07241727 -89.58779576 583.80665642 -89.65783787 585.54001808 C-89.7509356 591.35103537 -88.2200803 595.1927542 -85.30004883 600.16381836 C-84.86692383 601.05069336 -84.43379883 601.93756836 -83.98754883 602.85131836 C-81.02021207 606.91766874 -77.0515673 609.57997887 -72.30004883 611.16381836 C-70.50534496 611.25195269 -68.70750644 611.28145556 -66.91064453 611.27734375 C-65.25927238 611.27723045 -65.25927238 611.27723045 -63.57453918 611.27711487 C-62.38696518 611.27195358 -61.19939117 611.2667923 -59.97583008 611.26147461 C-58.75929245 611.26005966 -57.54275482 611.25864471 -56.28935242 611.25718689 C-52.39705973 611.25158148 -48.50482419 611.23902803 -44.61254883 611.22631836 C-41.97648195 611.22130406 -39.34041417 611.21674103 -36.7043457 611.21264648 C-30.23622719 611.20161029 -23.76814209 611.18486686 -17.30004883 611.16381836 C-16.41623289 596.54316989 -16.41623289 596.54316989 -22.36254883 583.53881836 C-23.46160079 581.86960917 -24.56055444 580.20033524 -25.65942383 578.53100586 C-26.24788086 577.66958984 -26.83633789 576.80817383 -27.44262695 575.9206543 C-30.12170754 571.94429021 -32.63928116 567.87276195 -35.16699219 563.79907227 C-37.01678349 560.81814367 -38.88619552 557.85028344 -40.75708008 554.88256836 C-43.85041278 549.93734565 -46.81052769 544.9231829 -49.72851562 539.87280273 C-51.25248752 537.16379246 -51.25248752 537.16379246 -52.9934082 534.71289062 C-54.63995155 531.50071591 -54.58892054 529.38150317 -54.44458008 525.78491211 C-54.40018799 524.49198242 -54.3557959 523.19905273 -54.31005859 521.86694336 C-54.24477105 520.44504304 -54.1789176 519.02316862 -54.11254883 517.60131836 C-54.05401802 516.11829068 -53.99667348 514.63521578 -53.94042969 513.15209961 C-53.81438196 509.92097209 -53.6771413 506.69055115 -53.5324707 503.46020508 C-53.32440762 498.79466431 -53.1409235 494.12843297 -52.9622345 489.46168518 C-52.80909718 485.50218273 -52.6472953 481.54306876 -52.48300171 477.58401489 C-52.40327707 475.65121249 -52.32546948 473.71832997 -52.24966431 471.78536987 C-52.14040694 469.04652346 -52.02044628 466.30833975 -51.89770508 463.57006836 C-51.86743225 462.76706802 -51.83715942 461.96406769 -51.80596924 461.13673401 C-51.12256279 446.75996032 -51.12256279 446.75996032 -47.58496094 441.72070312 C-44.74585242 439.78620211 -41.93541385 438.52526733 -38.74145508 437.25366211 C-38.11528793 437.00008438 -37.48912079 436.74650665 -36.84397888 436.48524475 C-34.85389347 435.68093399 -32.8587237 434.89038035 -30.86254883 434.10131836 C-28.87086638 433.30662427 -26.88046533 432.50897075 -24.89183044 431.7066803 C-23.08577754 430.97915753 -21.27613314 430.26056931 -19.46630859 429.54248047 C-14.17266766 427.23750781 -10.46861943 424.50646778 -6.36254883 420.47631836 C23.33125041 393.27016453 72.41234137 388.4099572 110.69995117 383.16381836 C111.88871361 372.69846332 107.62369659 364.24972638 103.69995117 354.78881836 C103.00306671 353.07252912 102.30784172 351.35556516 101.61425781 349.63793945 C99.9471744 345.51801638 98.26300054 341.40536755 96.57330322 337.29467773 C95.05311123 333.5856175 93.56300947 329.86466278 92.0769043 326.1418457 C91.49211117 324.67712737 90.90413749 323.21366979 90.3112793 321.75219727 C88.75368589 317.89705884 87.26882208 314.01961986 85.8213501 310.12171936 C82.97669709 302.46403113 80.01010334 294.86064562 76.99291992 287.26928711 C75.72245058 284.05525187 74.45331495 280.84069299 73.18457031 277.62597656 C72.31554319 275.43206337 71.44179556 273.24001449 70.56347656 271.04980469 C69.27646699 267.83646324 68.00815713 264.61625301 66.74291992 261.39428711 C66.15549263 259.94701485 66.15549263 259.94701485 65.55619812 258.47050476 C63.33114074 252.74659175 62.18472833 247.61035867 61.8742218 241.46821594 C61.78200588 239.00367046 61.78200588 239.00367046 60.69995117 236.16381836 C30.33995117 236.16381836 -0.02004883 236.16381836 -31.30004883 236.16381836 Z M229.69995117 272.16381836 C229.69995117 272.82381836 229.69995117 273.48381836 229.69995117 274.16381836 C250.37466877 281.86964758 270.7657526 286.73252739 292.69995117 289.16381836 C293.46605713 289.25953125 294.23216309 289.35524414 295.02148438 289.45385742 C305.17810435 290.58068791 315.43203776 290.40778903 325.63745117 290.41381836 C326.6616214 290.4144931 327.68579163 290.41516785 328.74099731 290.41586304 C361.00802082 290.38214882 393.84190438 287.34096656 423.69995117 274.16381836 C380.40546263 239.13558061 275.50065034 247.83219693 229.69995117 272.16381836 Z M213.69995117 284.16381836 C211.6218106 286.78073612 210.76574648 288.73144919 210.26245117 292.03881836 C210.9805785 297.16829927 212.81981624 300.45812894 216.59448242 303.88256836 C241.9428851 322.88307462 278.4149172 328.21922382 309.29760742 328.36694336 C310.77366455 328.37746483 310.77366455 328.37746483 312.27954102 328.38819885 C315.44055807 328.40561857 318.60138787 328.41205168 321.76245117 328.41381836 C323.38073318 328.41483047 323.38073318 328.41483047 325.03170776 328.41586304 C340.78621292 328.40018487 356.1712911 328.07790811 371.69995117 325.16381836 C373.15546387 324.89843262 373.15546387 324.89843262 374.64038086 324.62768555 C395.44959208 320.73226579 422.58024862 315.5653169 436.44995117 298.01147461 C438.77849426 294.56959686 438.87281306 292.31250379 438.69995117 288.16381836 C438.36995117 287.50381836 438.03995117 286.84381836 437.69995117 286.16381836 C433.43401355 287.52378644 429.37369804 289.14574456 425.26245117 290.91381836 C370.12716677 313.46218106 288.36544128 314.48013005 232.94995117 292.32788086 C228.13224772 290.30068447 223.40173865 288.22168625 218.95385742 285.45678711 C216.69931892 283.91502071 216.69931892 283.91502071 213.69995117 284.16381836 Z M437.88745117 317.78881836 C412.97353526 335.97789835 381.36231723 339.68174867 351.69995117 344.16381836 C351.720979 345.05004883 351.74200684 345.9362793 351.76367188 346.84936523 C351.78002686 348.01532227 351.79638184 349.1812793 351.81323242 350.38256836 C351.83426025 351.53692383 351.85528809 352.6912793 351.87695312 353.88061523 C351.63201753 358.42391723 350.14849276 361.42958771 347.69995117 365.16381836 C346.69748939 366.82900548 345.69700869 368.49538973 344.69995117 370.16381836 C361.07389442 400.34324317 396.1476368 419.19119981 427.94018555 428.84399414 C435.69853403 431.2567544 435.69853403 431.2567544 443.69995117 432.16381836 C443.69995117 393.22381836 443.69995117 354.28381836 443.69995117 314.16381836 C441.61725343 314.16381836 439.43201571 316.6088506 437.88745117 317.78881836 Z M210.69995117 319.16381836 C209.35945591 321.84480889 209.58014597 323.89693042 209.58642578 326.89868164 C209.58650131 328.0997757 209.58657684 329.30086975 209.58665466 330.5383606 C209.59181595 331.84046478 209.59697723 333.14256897 209.60229492 334.48413086 C209.60415979 335.82648669 209.60558337 337.1688432 209.60658264 338.51119995 C209.61040239 342.04577511 209.62022805 345.58030923 209.63128662 349.11486816 C209.6415124 352.721023 209.64608276 356.32718446 209.65112305 359.93334961 C209.66185079 367.01018932 209.67892072 374.08700116 209.69995117 381.16381836 C212.30197124 382.46482839 214.49779544 382.49798849 217.40307617 382.74194336 C317.30675682 391.62347033 317.30675682 391.62347033 346.36791992 425.51538086 C347.69995117 427.16381836 347.69995117 427.16381836 349.69995117 430.16381836 C351.58358769 431.31395428 351.58358769 431.31395428 353.81323242 432.24975586 C355.05834595 432.80614746 355.05834595 432.80614746 356.32861328 433.3737793 C357.21427979 433.75824219 358.09994629 434.14270508 359.01245117 434.53881836 C359.91294189 434.93875 360.81343262 435.33868164 361.74121094 435.75073242 C367.76880115 438.40285057 373.82612381 440.80269387 380.07104492 442.89819336 C383.45165425 444.5257081 385.30205476 446.26797819 387.69995117 449.16381836 C388.36178589 452.52680969 388.36178589 452.52680969 388.41040039 456.41894531 C388.42558716 457.13214935 388.44077393 457.84535339 388.4564209 458.58016968 C388.49878224 460.93796261 388.50371808 463.29394951 388.50463867 465.65209961 C388.51819399 467.31382457 388.53262417 468.97554261 388.54788208 470.63725281 C388.57332052 474.13188529 388.57857826 477.62589451 388.5715332 481.12060547 C388.56670266 484.65817023 388.59383802 488.19292156 388.65356445 491.72998047 C388.9934021 512.06380782 388.87944284 529.66191142 379.51223755 548.24992371 C378.50460878 550.27755814 378.50460878 550.27755814 378.69995117 553.16381836 C398.91596912 551.52620797 424.54195087 545.71549865 439.69995117 531.16381836 C443.12988419 526.02971122 444.19661155 522.79371939 444.15405273 516.484375 C444.15463684 515.75183502 444.15522095 515.01929504 444.15582275 514.26455688 C444.15305809 511.86719716 444.12204566 509.4711144 444.09057617 507.07397461 C444.08310796 505.40246764 444.07741777 503.73095187 444.07342529 502.05943298 C444.05821449 497.67804431 444.01897269 493.29719316 443.97460938 488.91601562 C443.93355781 484.43814361 443.91539325 479.96018403 443.89526367 475.48217773 C443.85247336 466.70914568 443.78427815 457.93654905 443.69995117 449.16381836 C442.82695374 448.96606308 441.9539563 448.7683078 441.05450439 448.56455994 C439.89883972 448.30075027 438.74317505 448.03694061 437.55249023 447.76513672 C436.4113678 447.50550644 435.27024536 447.24587616 434.09454346 446.9783783 C405.2109406 440.04752365 378.08400836 426.68479846 355.69995117 407.16381836 C355.20366211 406.73456055 354.70737305 406.30530273 354.19604492 405.86303711 C345.64421587 398.42573215 338.0736718 390.82592469 332.82495117 380.66381836 C330.82911692 377.14550801 330.82911692 377.14550801 327.38745117 375.26928711 C325.67559246 374.99006625 323.95557437 374.75704859 322.23120117 374.57006836 C316.95619463 373.72346237 313.03340346 370.5333099 309.38745117 366.78881836 C305.0721894 360.07618894 304.39631356 355.58821565 304.69213867 347.64038086 C304.6947168 346.82311523 304.69729492 346.00584961 304.69995117 345.16381836 C302.93681961 343.4006868 300.36240224 343.76121544 297.96166992 343.55053711 C296.75865234 343.43919434 295.55563477 343.32785156 294.31616211 343.21313477 C293.0196875 343.09373535 291.72321289 342.97433594 290.38745117 342.85131836 C262.46553891 340.14431437 234.72076457 334.28306404 210.69995117 319.16381836 Z M320.69995117 348.16381836 C320.2042178 352.05886627 320.11978269 354.25875553 322.26245117 357.60131836 C325.64212921 359.76777864 327.75979105 359.72669838 331.69995117 359.16381836 C334.28328451 357.74715169 334.28328451 357.74715169 335.69995117 355.16381836 C336.33857428 350.54103667 336.33857428 350.54103667 334.45385742 346.47241211 C332.23581834 344.81752772 330.9455314 344.76136256 328.19995117 344.78881836 C327.03979492 344.7772168 327.03979492 344.7772168 325.85620117 344.76538086 C323.18242079 345.25944897 322.30088379 345.99076563 320.69995117 348.16381836 Z M459.69995117 395.16381836 C459.69995117 407.70381836 459.69995117 420.24381836 459.69995117 433.16381836 C467.73666412 432.63716734 467.73666412 432.63716734 473.69995117 429.16381836 C474.59713867 428.57600586 474.59713867 428.57600586 475.51245117 427.97631836 C477.6055394 424.78160475 477.39392053 421.76089285 476.69995117 418.16381836 C473.4918204 409.43867482 468.20723783 401.7752216 461.69995117 395.16381836 C461.03995117 395.16381836 460.37995117 395.16381836 459.69995117 395.16381836 Z M104.69995117 400.16381836 C103.35900973 400.33747998 102.01802553 400.51081166 100.67700195 400.68383789 C70.50579817 404.63655166 36.4214314 409.80181921 10.69995117 427.16381836 C10.00901367 427.59307617 9.31807617 428.02233398 8.60620117 428.46459961 C3.77844824 431.60468467 -0.10085021 435.67462463 -1.99145508 441.17553711 C-2.45390525 444.15512115 -1.36715635 446.40189302 -0.30004883 449.16381836 C3.26192738 447.83147611 6.59632514 446.21241532 9.96313477 444.44824219 C36.09796582 430.84130201 65.96842353 424.81342231 94.94995117 420.97631836 C96.10003662 420.82155029 97.25012207 420.66678223 98.43505859 420.50732422 C121.09064848 417.67633762 143.82325168 416.78031517 166.63745117 416.85131836 C167.86809296 416.85314117 169.09873474 416.85496399 170.3666687 416.85684204 C221.42781556 416.98332382 285.84910939 418.92992384 329.69995117 448.16381836 C331.85270065 447.85541237 331.85270065 447.85541237 333.69995117 447.16381836 C335.31646151 442.99492328 335.92616605 441.06867786 334.82495117 436.66381836 C327.74528511 422.81499791 306.80145527 416.35303928 292.96557617 411.84057617 C254.24184568 399.86595853 213.11609767 396.73450282 172.80946732 396.84576035 C170.72811048 396.8514116 168.64676183 396.85422529 166.56539917 396.85684204 C145.80495801 396.89476066 125.29987307 397.38809601 104.69995117 400.16381836 Z M13.69995117 460.16381836 C47.82745744 489.72882379 119.89185251 487.39344437 162.51245117 487.35131836 C163.642677 487.35071411 164.77290283 487.35010986 165.93737793 487.3494873 C182.94112321 487.32482763 199.78236397 487.02472767 216.69995117 485.16381836 C217.91344238 485.03491211 219.12693359 484.90600586 220.37719727 484.77319336 C272.12283919 480.74892956 272.12283919 480.74892956 317.69995117 459.16381836 C275.28029793 437.42539793 224.63066669 433.40847072 177.69995117 432.16381836 C176.87479004 432.1404541 176.04962891 432.11708984 175.19946289 432.09301758 C122.32385711 430.80125057 61.0433016 434.87816529 13.69995117 460.16381836 Z M-28.42504883 450.16381836 C-29.41311523 450.59307617 -29.41311523 450.59307617 -30.42114258 451.03100586 C-32.04885554 451.73870715 -33.67463841 452.4508446 -35.30004883 453.16381836 C-35.58692199 458.46563109 -35.87168918 463.76755128 -36.15454102 469.06958008 C-36.25097305 470.87169417 -36.34797141 472.67377806 -36.44555664 474.47583008 C-36.58605967 477.07226877 -36.7244977 479.66881078 -36.86254883 482.26538086 C-36.90629639 483.06561676 -36.95004395 483.86585266 -36.99511719 484.69033813 C-37.0735821 486.18028341 -37.14622568 487.67055165 -37.21185303 489.16111755 C-37.2914401 490.96833612 -37.39258527 492.77457403 -37.49633789 494.58056641 C-37.4315625 495.43303955 -37.36678711 496.2855127 -37.30004883 497.16381836 C-35.16910548 498.92215456 -33.44621864 500.08653065 -31.05004883 501.35131836 C-24.41330757 505.07810383 -24.41330757 505.07810383 -22.00317383 506.90209961 C-20.38546866 508.36224223 -20.38546866 508.36224223 -18.30004883 508.16381836 C-18.17503353 487.79978753 -18.38738211 467.51191697 -19.30004883 447.16381836 C-22.59965023 447.16381836 -25.44610535 448.85426301 -28.42504883 450.16381836 Z M354.69995117 450.16381836 C354.69995117 468.97381836 354.69995117 487.78381836 354.69995117 507.16381836 C360.39850399 505.60966759 366.09638088 504.03167512 371.69995117 502.16381836 C371.69995117 487.31381836 371.69995117 472.46381836 371.69995117 457.16381836 C363.48741817 452.36804258 363.48741817 452.36804258 354.69995117 450.16381836 Z M325.32495117 473.66381836 C255.43861507 512.13751375 152.2735838 509.50494795 41.47167969 489.01074219 C28.67555056 485.25434848 15.41933934 480.7105915 4.43530273 473.02148438 C2.53352673 471.8282772 2.53352673 471.8282772 -0.30004883 473.16381836 C-1.39803181 476.9152602 -1.42101594 478.83720716 -0.05004883 482.53881836 C11.55328982 500.45689913 42.20954885 507.05466995 61.69189453 511.38427734 C82.07157885 515.65746557 102.92135917 518.79149626 123.69995117 520.16381836 C125.60079468 520.29191895 125.60079468 520.29191895 127.54003906 520.42260742 C139.4879994 521.18215166 151.4170627 521.40638811 163.38745117 521.41381836 C164.37973724 521.4144931 165.37202332 521.41516785 166.39437866 521.41586304 C216.48231865 521.36245108 289.33303034 520.26868724 328.88745117 485.09350586 C331.66336724 482.13811246 332.64430382 480.09127425 332.88745117 476.03881836 C332.89044269 473.22142057 332.89044269 473.22142057 331.69995117 471.16381836 C328.97749613 471.16381836 327.67300023 472.27128454 325.32495117 473.66381836 Z M332.69995117 502.16381836 C332.69995117 502.82381836 332.69995117 503.48381836 332.69995117 504.16381836 C332.02577148 504.41647461 331.3515918 504.66913086 330.65698242 504.92944336 C327.820542 506.11347926 325.11384698 507.4616178 322.38793945 508.87890625 C277.25165843 532.22924738 222.69660615 536.21337673 172.69995117 537.16381836 C171.94085449 537.18041504 171.18175781 537.19701172 170.3996582 537.21411133 C165.8301796 537.30410106 161.2684925 537.26370368 156.69995117 537.16381836 C155.28866943 537.13698975 155.28866943 537.13698975 153.84887695 537.10961914 C101.08501803 535.99837415 43.77202894 531.1153943 -2.30004883 503.16381836 C-2.19213626 513.03072812 -2.07942295 522.89757055 -1.96070957 532.76435661 C-1.9057246 537.34670656 -1.85234599 541.92906309 -1.80273438 546.51147461 C-1.75472762 550.9400452 -1.702376 555.3685457 -1.64710808 559.7970314 C-1.6268477 561.48014691 -1.6081096 563.1632815 -1.59097481 564.84643173 C-2.6506419 581.05941018 -2.6506419 581.05941018 3.32495117 594.97631836 C3.9772168 595.66338867 4.62948242 596.35045898 5.30151367 597.05834961 C30.33642477 619.03525039 76.6953034 631.16381836 109.69995117 631.16381836 C109.72573242 630.34397461 109.75151367 629.52413086 109.77807617 628.67944336 C109.8631543 627.06295898 109.8631543 627.06295898 109.94995117 625.41381836 C109.99635742 624.34647461 110.04276367 623.27913086 110.09057617 622.17944336 C110.86046292 618.36949098 111.52973191 617.421854 114.69995117 615.16381836 C118.03827732 614.55843333 121.34431438 614.61772523 124.72924805 614.64624023 C125.74753189 614.63923096 126.76581573 614.63222168 127.81495667 614.625 C131.18314835 614.60738531 134.55050084 614.6190556 137.91870117 614.63256836 C140.25752931 614.62987446 142.59635636 614.62599289 144.93518066 614.62097168 C149.83783629 614.6150719 154.7402005 614.62365537 159.64282227 614.64233398 C165.93137559 614.66512339 172.21924609 614.65200294 178.50777435 614.62804413 C183.33759722 614.61359936 188.16725785 614.61818616 192.99708557 614.6285553 C195.31596456 614.63122622 197.63485822 614.62794004 199.95372009 614.61863708 C203.19309586 614.60849365 206.43136136 614.62394281 209.6706543 614.64624023 C210.63181656 614.63814331 211.59297882 614.63004639 212.58326721 614.6217041 C219.05834219 614.70439652 219.05834219 614.70439652 222.27502441 617.00769043 C224.11847538 619.79710826 224.51895858 622.10954186 224.94995117 625.41381836 C225.17424805 627.03030273 225.17424805 627.03030273 225.40307617 628.67944336 C225.50104492 629.49928711 225.59901367 630.31913086 225.69995117 631.16381836 C249.27810253 628.63942032 272.28653014 623.96406106 294.69995117 616.16381836 C295.39088867 615.93227051 296.08182617 615.70072266 296.79370117 615.4621582 C309.29403178 611.26282839 331.45867866 603.64636338 337.69995117 591.16381836 C337.79332905 588.26499272 337.8256939 585.39035262 337.81347656 582.49145508 C337.8136956 581.14502426 337.8136956 581.14502426 337.81391907 579.77139282 C337.8132207 576.79540618 337.80543184 573.81948161 337.79760742 570.84350586 C337.79574297 568.78370193 337.7943192 566.72389755 337.7933197 564.66409302 C337.78949665 559.23564434 337.77966816 553.80722231 337.76861572 548.37878418 C337.75839705 542.84228882 337.7538211 537.30578917 337.7487793 531.76928711 C337.73804572 520.9007858 337.72097182 510.03230429 337.69995117 499.16381836 C335.65443075 499.16381836 334.18437211 500.91882016 332.69995117 502.16381836 Z M-38.30004883 516.16381836 C-39.20336952 525.65023769 -37.41935366 531.28110001 -32.23754883 539.16381836 C-31.04333694 541.07254649 -29.84932503 542.98139975 -28.65551758 544.89038086 C-28.07721191 545.79433594 -27.49890625 546.69829102 -26.90307617 547.62963867 C-24.84762751 550.87903818 -22.94511674 554.19364607 -21.05004883 557.53881836 C-20.16301116 559.0977212 -19.25926372 560.64825883 -18.30004883 562.16381836 C-17.97004883 562.16381836 -17.64004883 562.16381836 -17.30004883 562.16381836 C-17.24013214 558.57547444 -17.25416858 554.99206061 -17.29663086 551.40356445 C-17.29907462 549.80220622 -17.27638889 548.2007306 -17.23706055 546.59985352 C-16.51689078 535.44459275 -16.51689078 535.44459275 -20.31176758 525.43725586 C-22.90209058 523.63632685 -25.40047291 522.3945736 -28.30004883 521.16381836 C-29.81499085 520.20793237 -31.31675083 519.23060636 -32.80004883 518.22631836 C-35.35042296 516.52632092 -35.35042296 516.52632092 -38.30004883 516.16381836 Z M354.69995117 524.16381836 C354.69995117 537.36381836 354.69995117 550.56381836 354.69995117 564.16381836 C358.45311024 559.15960626 360.4431082 553.95244931 362.69995117 548.16381836 C363.2478833 546.76510498 363.2478833 546.76510498 363.80688477 545.33813477 C365.0537924 542.13858878 366.28518071 538.93344439 367.51245117 535.72631836 C367.92188965 534.67154297 368.33132813 533.61676758 368.75317383 532.5300293 C369.32430908 531.02037598 369.32430908 531.02037598 369.90698242 529.48022461 C370.25220947 528.57731689 370.59743652 527.67440918 370.953125 526.74414062 C371.72270329 524.08520863 371.84222088 521.9159158 371.69995117 519.16381836 C365.79326946 519.16381836 360.33776061 522.40200291 354.69995117 524.16381836 Z M-0.30004883 613.16381836 C-0.32486037 618.8746713 -0.34296158 624.5854925 -0.35498047 630.29638672 C-0.35999368 632.23714749 -0.36680595 634.17790452 -0.37548828 636.11865234 C-0.38768615 638.9162692 -0.39330738 641.71383591 -0.39770508 644.51147461 C-0.40286636 645.37217056 -0.40802765 646.23286652 -0.41334534 647.11964417 C-0.57014347 655.83611432 -0.57014347 655.83611432 2.30932617 663.85913086 C5.22768267 666.67257912 8.3020608 668.37573382 11.94995117 670.03881836 C13.055 670.54699097 13.055 670.54699097 14.18237305 671.06542969 C61.38181038 691.86789329 119.04765555 693.4019765 169.88745117 693.35131836 C171.44476456 693.35091049 171.44476456 693.35091049 173.03353882 693.35049438 C221.12846949 693.29302671 274.29011663 691.63791255 319.26245117 673.16381836 C320.39577881 672.702052 320.39577881 672.702052 321.55200195 672.23095703 C328.51598525 669.18194279 334.20790528 665.51172623 337.12321472 658.22067261 C338.22563488 654.28903695 338.0640422 650.34664819 337.99291992 646.29272461 C337.98867508 645.37039536 337.98443024 644.4480661 337.98005676 643.49778748 C337.96336481 640.57365801 337.92573055 637.65023687 337.88745117 634.72631836 C337.87239206 632.73479191 337.85870581 630.74325457 337.84643555 628.75170898 C337.8134924 623.88880898 337.76177617 619.02643346 337.69995117 614.16381836 C333.73719164 615.70074728 330.20446279 617.55162414 326.51245117 619.66381836 C296.85049846 635.78110714 263.44853901 642.21434313 230.35668945 646.71826172 C227.73398022 647.02467161 227.73398022 647.02467161 225.69995117 648.16381836 C225.13083001 650.60290904 224.80667111 653.04372346 224.45776367 655.52319336 C223.44122068 659.06537408 222.43723479 660.64309117 219.69995117 663.16381836 C216.36692915 663.92679591 213.07752672 663.84666579 209.6706543 663.81079102 C208.65237045 663.81955261 207.63408661 663.82831421 206.58494568 663.83734131 C203.2165983 663.85936069 199.84956206 663.84477262 196.48120117 663.82788086 C194.14237211 663.83124824 191.80354475 663.8361002 189.46472168 663.84237671 C184.56200507 663.84975153 179.65974379 663.83902229 174.75708008 663.81567383 C168.46839404 663.78718647 162.18077487 663.80358707 155.89212799 663.83353615 C151.06227561 663.85159221 146.23267673 663.8458587 141.40281677 663.83289719 C139.08393732 663.82955853 136.76503495 663.8336663 134.44618225 663.84529495 C131.20658285 663.85797512 127.96871802 663.83866431 124.72924805 663.81079102 C123.76808578 663.82091217 122.80692352 663.83103333 121.81663513 663.84146118 C115.32611826 663.73784915 115.32611826 663.73784915 112.11120605 660.7906189 C109.88613135 656.64903717 109.94525258 652.76321975 109.69995117 648.16381836 C104.63560096 647.10286644 99.57429754 646.11538141 94.45776367 645.33959961 C60.61667805 640.20177079 29.01935173 631.00879965 -0.30004883 613.16381836 Z M125.69995117 630.16381836 C125.69995117 631.15381836 125.69995117 632.14381836 125.69995117 633.16381836 C134.47818052 633.95447214 143.16932854 634.31229232 151.98120117 634.29663086 C153.8051239 634.29806595 153.8051239 634.29806595 155.66589355 634.29953003 C158.21712293 634.30020552 160.76835408 634.29839566 163.31958008 634.29418945 C167.18989988 634.28883227 171.06010366 634.29415612 174.93041992 634.30053711 C177.42651392 634.29987622 179.92260785 634.29859482 182.41870117 634.29663086 C184.12709167 634.29966721 184.12709167 634.29966721 185.86999512 634.30276489 C193.52047931 634.28080655 201.08080027 633.85007412 208.69995117 633.16381836 C208.69995117 632.17381836 208.69995117 631.18381836 208.69995117 630.16381836 C181.30995117 630.16381836 153.91995117 630.16381836 125.69995117 630.16381836 Z " fill="#000000" transform="translate(338.300048828125,106.836181640625)"/>
<path d="M0 0 C19.70575676 -0.06165696 39.40310243 0.09695086 59.1065495 0.37092662 C62.21552125 0.41391061 65.32450936 0.45564254 68.43349785 0.49739558 C75.80749547 0.59643393 83.18146581 0.69733761 90.55541992 0.79956055 C97.19992633 0.89164853 103.84445527 0.98181244 110.48901367 1.07006836 C127.85657318 1.30108266 145.22385023 1.54318215 162.59082985 1.81462669 C170.25060279 1.93355062 177.91027911 2.0360552 185.57059956 2.11402416 C189.59509445 2.1578327 193.61927037 2.21622935 197.643507 2.27917671 C199.39837719 2.303407 201.15335118 2.32124329 202.90835762 2.33167839 C215.98507494 2.4129302 227.42099797 4.67799895 239.125 10.75 C239.79313721 11.09071533 240.46127441 11.43143066 241.1496582 11.7824707 C249.1584177 15.97671121 257.08856795 21.06935553 263 28 C263 28.66 263 29.32 263 30 C263.99 30.33 264.98 30.66 266 31 C267.64486686 32.86160925 269.14179918 34.70358985 270.625 36.6875 C271.06231445 37.2654834 271.49962891 37.8434668 271.95019531 38.43896484 C278.5089903 47.22737183 284.20210265 56.44204047 289.41601562 66.08251953 C292.01814409 70.8752808 294.69428255 75.62586488 297.375 80.375 C298.2259021 81.88271973 298.2259021 81.88271973 299.09399414 83.42089844 C302.69747324 89.77714208 306.41855211 96.02646975 310.296875 102.21875 C313.04901788 106.71307507 315.51669831 111.35359311 318 116 C321.14047038 121.76880251 324.43771324 127.38842059 327.9609375 132.93359375 C328.47527344 133.95646484 328.47527344 133.95646484 329 135 C328.67 135.66 328.34 136.32 328 137 C325.10316291 136.21186779 322.20755405 135.41963319 319.3125 134.625 C318.49587891 134.40328125 317.67925781 134.1815625 316.83789062 133.953125 C315.24946066 133.51582444 313.66416283 133.06695686 312.08251953 132.60571289 C310.46338147 132.13477719 308.83307657 131.70216599 307.19921875 131.28515625 C303.79559141 129.29618042 302.33449695 126.17440089 300.5 122.8125 C300.0769458 122.06564941 299.6538916 121.31879883 299.21801758 120.54931641 C298.29220833 118.91125636 297.37298149 117.26946311 296.45947266 115.62451172 C294.96085483 112.92960679 293.4421498 110.24692821 291.91796875 107.56640625 C287.45639371 99.7111755 283.02090822 91.84184501 278.6328125 83.9453125 C263.58777713 56.94925153 248.02944816 31.20629712 216.78515625 21.61328125 C208.60683977 19.81244578 200.36018474 19.8399134 192.02783203 19.81054688 C190.75269241 19.80225357 189.4775528 19.79396027 188.16377258 19.78541565 C185.39753109 19.76743924 182.63129503 19.75239074 179.86502457 19.73963928 C175.43121135 19.71910823 170.99745825 19.69147497 166.56369019 19.66296387 C157.88110619 19.60807384 149.19849073 19.56012037 140.51586151 19.51302338 C133.49494216 19.47477939 126.4740318 19.4350068 119.453125 19.39453125 C118.68944973 19.39017689 117.92577445 19.38582253 117.1389575 19.38133621 C108.75401945 19.33320975 100.36920354 19.27831677 91.98443604 19.20605469 C91.2423657 19.19969309 90.50029536 19.19333149 89.73573804 19.18677711 C86.7798609 19.16131994 83.82398522 19.13576867 80.86811876 19.10909653 C71.96065522 19.02928428 63.0556098 18.99433765 54.14774513 19.02066803 C49.36694232 19.02917813 44.58661015 19.00721759 39.80590439 18.97801208 C37.62669097 18.97192102 35.44738754 18.97963407 33.26828384 19.00233459 C16.99466522 19.16487851 16.99466522 19.16487851 11.98809814 16.24105835 C9.96898623 14.25798489 8.49178243 12.39159008 7 10 C6.236875 9.18789062 5.47375 8.37578125 4.6875 7.5390625 C4.130625 6.90742188 3.57375 6.27578125 3 5.625 C2.4225 4.97789062 1.845 4.33078125 1.25 3.6640625 C0 2 0 2 0 0 Z " fill="#000000" transform="translate(434,177)"/>
<path d="M0 0 C-3.458446 7.2705967 -7.25080372 14.16858746 -11.53125 20.984375 C-15.45378468 27.29367231 -19.12175108 33.75785264 -22.84545898 40.18554688 C-25.99294859 45.60530198 -29.19744126 50.96296275 -32.5625 56.25 C-43.2931276 73.58409074 -46.75841045 93.36127713 -43.86328125 113.42578125 C-41.54358655 123.02994709 -37.40116945 131.46209349 -32.625 140.0625 C-32.07328125 141.07376953 -31.5215625 142.08503906 -30.953125 143.12695312 C-27.85919098 148.7664831 -24.63258362 154.30421704 -21.29931641 159.80493164 C-19.68301681 162.53551218 -18.25420343 165.33057862 -16.875 168.1875 C-14.22397384 173.57930059 -11.51561187 178.77710259 -8.125 183.75 C-5.74421778 187.39119634 -3.7111317 191.14853375 -1.65625 194.98046875 C0.64571234 199.1772067 3.10994177 203.27277322 5.58203125 207.37109375 C8.12445393 212.08473138 8.07597231 215.82919521 7.87890625 221.171875 C7.84348976 222.1955014 7.84348976 222.1955014 7.80735779 223.23980713 C7.7310504 225.41010058 7.64688594 227.58000714 7.5625 229.75 C7.50924627 231.22524176 7.45650611 232.70050216 7.40429688 234.17578125 C7.2754805 237.78408912 7.13961806 241.3920921 7 245 C4.39577176 242.64459564 2.82948563 240.18336334 1.13671875 237.1171875 C0.58685303 236.1276709 0.0369873 235.1381543 -0.52954102 234.11865234 C-1.11791748 233.04824707 -1.70629395 231.9778418 -2.3125 230.875 C-3.57800737 228.59368474 -4.84363572 226.3124366 -6.109375 224.03125 C-6.7624922 222.85032811 -7.41548687 221.66933844 -8.06835938 220.48828125 C-11.04824765 215.10700677 -14.05493959 209.74084285 -17.0625 204.375 C-17.6402417 203.3432666 -18.2179834 202.3115332 -18.81323242 201.24853516 C-27.45310735 185.82510757 -36.16425431 170.44333069 -44.95336914 155.10449219 C-47.97452076 149.82270862 -50.94588908 144.52170266 -53.81640625 139.15625 C-54.66269846 137.61448994 -55.57167294 136.10648548 -56.51953125 134.625 C-58.19921668 131.64677149 -59.15299953 128.77571811 -60.125 125.5 C-60.45757812 124.3965625 -60.79015625 123.293125 -61.1328125 122.15625 C-63.04717749 115.18865131 -63.21929668 108.67501861 -63.24023438 101.46459961 C-63.24985396 99.46781407 -63.28101161 97.4711698 -63.3125 95.47460938 C-63.3930793 75.27942345 -55.12681992 58.94431646 -45.25 41.8125 C-44.72631836 40.90048828 -44.20263672 39.98847656 -43.66308594 39.04882812 C-39.87604036 32.47290884 -36.04662866 25.92522364 -32.078125 19.45703125 C-30.63489648 17.09532351 -29.28798298 14.70312493 -27.984375 12.26171875 C-23.31835251 3.72184442 -23.31835251 3.72184442 -19.78125 1.78515625 C-17.46618929 1.24206838 -15.37380763 1.05810019 -13 1 C-11.58198242 0.80106948 -10.16519119 0.59313097 -8.75 0.375 C-5.78151394 0.07815139 -2.97329536 -0.03075823 0 0 Z " fill="#000000" transform="translate(214,389)"/>
<path d="M0 0 C3.83950199 3.38779587 5.98062481 7.18392886 8.375 11.625 C9.1694423 13.06963275 9.96501388 14.51364506 10.76171875 15.95703125 C11.14505371 16.65393066 11.52838867 17.35083008 11.92333984 18.06884766 C13.28897137 20.51831374 14.7266153 22.91880766 16.1875 25.3125 C18.63858716 29.3554617 20.93006444 33.46232257 23.1640625 37.62890625 C24.63080542 40.32209591 26.12838121 42.9893118 27.6484375 45.65234375 C33.08065781 55.23180231 37.85437538 64.39967593 41 75 C41.23074219 75.68320312 41.46148438 76.36640625 41.69921875 77.0703125 C47.03396253 94.55011126 43.52058883 116.63871899 36 133 C35.34 132.67 34.68 132.34 34 132 C33.31635421 129.68635158 32.72936579 127.40945444 32.1875 125.0625 C31.06012567 120.39444011 29.92070029 116.52317791 27.3125 112.4375 C23.99484723 106.44954134 24.36126227 99.78573844 24.27661133 93.10522461 C24.12248807 81.9857712 21.35031483 73.90245169 16.4375 63.9375 C15.90535889 62.83204834 15.37321777 61.72659668 14.82495117 60.58764648 C12.11841591 55.03144384 9.27819721 49.68434667 5.99023438 44.45361328 C0.79918013 36.11822643 -0.24902819 29.06153905 -0.046875 19.31396484 C0.00199371 16.90158124 -0.00833089 14.49474491 -0.03125 12.08203125 C-0.06372127 8.05353899 -0.04589239 4.0283319 0 0 Z " fill="#000000" transform="translate(809,395)"/>
<path d="M0 0 C-1.27986684 4.24175514 -2.88540487 7.78682831 -5.1953125 11.5625 C-5.82477783 12.59955078 -6.45424316 13.63660156 -7.1027832 14.70507812 C-7.77011475 15.79240234 -8.43744629 16.87972656 -9.125 18 C-10.49716366 20.25976735 -11.86826701 22.52017889 -13.23828125 24.78125 C-13.89393066 25.86148438 -14.54958008 26.94171875 -15.22509766 28.0546875 C-17.93052994 32.54414212 -20.51721851 37.09390056 -23.09765625 41.65625 C-25.44947298 45.79003876 -27.84392706 49.89761273 -30.25 54 C-30.66290283 54.70705078 -31.07580566 55.41410156 -31.5012207 56.14257812 C-33.27102539 59.15372662 -35.06907448 62.10327641 -37.01171875 65.0078125 C-38.51516223 67.27036202 -39.90344826 69.51581534 -41.25390625 71.8671875 C-41.82334961 72.85332031 -41.82334961 72.85332031 -42.40429688 73.859375 C-43.18753736 75.22245118 -43.96339824 76.58979018 -44.73242188 77.9609375 C-45.73985148 79.69090179 -46.86212122 81.35290476 -48 83 C-48.99 83 -49.98 83 -51 83 C-54.24233314 79.75766686 -52.55822392 69.15561316 -52.59814453 64.78540039 C-52.47804144 56.44354951 -52.1120455 51.01102278 -46.3359375 44.71484375 C-43.5015636 41.42071355 -41.68169996 37.92469054 -39.65087891 34.09643555 C-36.7368638 28.63082573 -33.6262436 23.28369233 -30.5 17.9375 C-29.86191406 16.81150391 -29.22382812 15.68550781 -28.56640625 14.52539062 C-27.93605469 13.45353516 -27.30570313 12.38167969 -26.65625 11.27734375 C-25.81803711 9.82702759 -25.81803711 9.82702759 -24.96289062 8.34741211 C-22.52320483 5.42980279 -20.65024659 4.89419786 -17 4 C-15.74703125 3.64679687 -14.4940625 3.29359375 -13.203125 2.9296875 C-11.88594016 2.57616871 -10.5682232 2.22462698 -9.25 1.875 C-8.57839844 1.69324219 -7.90679688 1.51148438 -7.21484375 1.32421875 C-2.2465343 0 -2.2465343 0 0 0 Z " fill="#000000" transform="translate(756,680)"/>
<path d="M0 0 C0.02314169 8.70116929 0.04092443 17.40232803 0.05181217 26.10352135 C0.05703699 30.14356954 0.06412739 34.18359672 0.07543945 38.22363281 C0.08628254 42.120441 0.09227987 46.01722895 0.09487724 49.91405106 C0.09672892 51.40284163 0.10034463 52.89163107 0.10573006 54.38041306 C0.11295934 56.46115285 0.11399014 58.54180832 0.11352539 60.62255859 C0.115746 61.80836517 0.11796661 62.99417175 0.12025452 64.21591187 C0 67 0 67 -1 69 C-3.875 69.75 -3.875 69.75 -7 70 C-7.99 69.34 -8.98 68.68 -10 68 C-10.36749268 65.71426392 -10.36749268 65.71426392 -10.35644531 62.82275391 C-10.35944641 61.74047516 -10.36244751 60.65819641 -10.36553955 59.54312134 C-10.35319275 58.36615692 -10.34084595 57.1891925 -10.328125 55.9765625 C-10.32625183 54.76487396 -10.32437866 53.55318542 -10.32244873 52.30477905 C-10.31571102 49.73066473 -10.30176284 47.15656094 -10.28125 44.58251953 C-10.25040278 40.67600798 -10.24030836 36.76990193 -10.234375 32.86328125 C-10.22519163 30.35937017 -10.21481167 27.85546314 -10.203125 25.3515625 C-10.19887512 24.19484039 -10.19462524 23.03811829 -10.19024658 21.84634399 C-10.12706654 14.52189654 -9.71559762 7.28962182 -9 0 C-5.52176885 -1.15941038 -3.54104422 -0.70820884 0 0 Z " fill="#000000" transform="translate(769,456)"/>
<path d="M0 0 C5.89534242 17.68602727 2.00033957 40.65681346 -5.99902344 56.84814453 C-9.48282969 63.48282969 -9.48282969 63.48282969 -11 65 C-14.5 65.125 -14.5 65.125 -18 65 C-19 64 -19 64 -19.375 61.0625 C-19.31291336 56.68982654 -17.44738928 53.5789013 -15.44311523 49.77832031 C-7.80587429 35.07491954 -7.97839949 21.93302926 -8.95483398 5.82128906 C-9 3 -9 3 -8 0 C-5.13822943 -1.43088528 -3.06624227 -0.59991697 0 0 Z " fill="#000000" transform="translate(324,374)"/>
<path d="M0 0 C3.375 -0.1875 3.375 -0.1875 7 0 C9.22826846 3.34240269 9.25595255 4.4387556 9.2746582 8.34179688 C9.28419022 9.43302856 9.29372223 10.52426025 9.30354309 11.64855957 C9.30263168 12.82672241 9.30172028 14.00488525 9.30078125 15.21875 C9.30506638 16.42817261 9.3093515 17.63759521 9.31376648 18.88366699 C9.31951326 21.44245782 9.3200075 24.00126498 9.31567383 26.56005859 C9.31251262 30.48433142 9.33597431 34.40785162 9.36132812 38.33203125 C9.36360086 40.81510321 9.36430473 43.29817721 9.36328125 45.78125 C9.372491 46.95941284 9.38170074 48.13757568 9.39118958 49.35144043 C9.38496078 50.44267212 9.37873199 51.53390381 9.37231445 52.65820312 C9.37294388 53.61956177 9.3735733 54.58092041 9.3742218 55.57141113 C9 58 9 58 7.67204285 59.84558105 C6 61 6 61 2.875 60.8125 C1.92625 60.544375 0.9775 60.27625 0 60 C-1.29146455 57.41707089 -1.12705706 55.55613757 -1.12939453 52.6640625 C-1.13254669 51.54950684 -1.13569885 50.43495117 -1.13894653 49.28662109 C-1.1369223 48.07828613 -1.13489807 46.86995117 -1.1328125 45.625 C-1.13376923 44.38959473 -1.13472595 43.15418945 -1.13571167 41.88134766 C-1.13656804 38.59413916 -1.13253344 35.30697764 -1.12695312 32.01977539 C-1.12500203 30.00210059 -1.12694592 27.98446928 -1.13037109 25.96679688 C-1.13652992 22.10284387 -1.13580484 18.23895565 -1.1328125 14.375 C-1.13483673 13.16666504 -1.13686096 11.95833008 -1.13894653 10.71337891 C-1.13579437 9.59882324 -1.13264221 8.48426758 -1.12939453 7.3359375 C-1.12859894 6.35157715 -1.12780334 5.3672168 -1.12698364 4.35302734 C-1 2 -1 2 0 0 Z " fill="#000000" transform="translate(657,642)"/>
<path d="M0 0 C4.00172064 -0.06002581 7.99817246 -0.049042 12 0 C13.2065625 -0.01160156 13.2065625 -0.01160156 14.4375 -0.0234375 C16.5 0.0625 16.5 0.0625 20 1 C23.43092622 5.88175347 24.61912892 9.98620555 25.0625 15.9375 C25.6285165 21.77496327 26.75490693 26.59136671 29 32 C29.1875 35 29.1875 35 29 37 C28.01 37.495 28.01 37.495 27 38 C25.68113228 36.90344712 24.37009943 35.79746577 23.0625 34.6875 C21.96615234 33.76517578 21.96615234 33.76517578 20.84765625 32.82421875 C19 31 19 31 18 28 C17.01 27.67 16.02 27.34 15 27 C10.30627147 21.65271433 6.91282206 15.24163424 3.5625 9 C3.20841064 8.34112793 2.85432129 7.68225586 2.48950195 7.00341797 C0 2.25874915 0 2.25874915 0 0 Z " fill="#000000" transform="translate(285,747)"/>
<path d="M0 0 C3.5 0.125 3.5 0.125 4.5 1.125 C4.60869029 2.61272488 4.64902873 4.10552713 4.66113281 5.59716797 C4.67074036 6.54840546 4.6803479 7.49964294 4.69024658 8.47970581 C4.69449646 9.51507477 4.69874634 10.55044373 4.703125 11.6171875 C4.70882507 12.67406769 4.71452515 13.73094788 4.72039795 14.81985474 C4.72986448 17.06104526 4.73638846 19.30224981 4.74023438 21.54345703 C4.74993908 24.97843641 4.78094701 28.4128175 4.8125 31.84765625 C4.81902972 34.02082976 4.82428031 36.19400758 4.828125 38.3671875 C4.8404718 39.398508 4.8528186 40.42982849 4.86553955 41.49240112 C4.86253845 42.44994293 4.85953735 43.40748474 4.85644531 44.39404297 C4.86009094 45.23707977 4.86373657 46.08011658 4.86749268 46.94869995 C4.41337258 49.63800954 3.70621957 50.55233109 1.5 52.125 C-1.625 51.9375 -1.625 51.9375 -4.5 51.125 C-6.03411924 48.05676153 -5.64202568 44.8423082 -5.6328125 41.4765625 C-5.63376923 40.70879486 -5.63472595 39.94102722 -5.63571167 39.1499939 C-5.63639337 37.51747557 -5.63453976 35.88495455 -5.63037109 34.25244141 C-5.62509558 31.79453129 -5.63027796 29.3368101 -5.63671875 26.87890625 C-5.64548494 8.71675072 -5.64548494 8.71675072 -4.5 1.125 C-3.5 0.125 -3.5 0.125 0 0 Z " fill="#000000" transform="translate(520.5,386.875)"/>
<path d="M0 0 C-2.17780271 5.80486262 -5.34824168 10.93098053 -8.5 16.25 C-9.39138672 17.77753906 -9.39138672 17.77753906 -10.30078125 19.3359375 C-10.87183594 20.30273438 -11.44289063 21.26953125 -12.03125 22.265625 C-12.55267578 23.15024414 -13.07410156 24.03486328 -13.61132812 24.94628906 C-15 27 -15 27 -17 28 C-17 20.41 -17 12.82 -17 5 C-15.02 4.34 -13.04 3.68 -11 3 C-10.18015625 2.71898437 -9.3603125 2.43796875 -8.515625 2.1484375 C-7.76796875 1.89320313 -7.0203125 1.63796875 -6.25 1.375 C-5.49203125 1.11460937 -4.7340625 0.85421875 -3.953125 0.5859375 C-2 0 -2 0 0 0 Z " fill="#000000" transform="translate(826,562)"/>
<path d="M0 0 C1 1 1 1 1.0625 4.5625 C1.041875 5.696875 1.02125 6.83125 1 8 C-4.625 9.125 -4.625 9.125 -8 8 C-8 5.36 -8 2.72 -8 0 C-5.11795733 -1.44102133 -3.08226581 -0.65580124 0 0 Z " fill="#000000" transform="translate(768,442)"/>
<path d="M0 0 C0.763125 0.20625 1.52625 0.4125 2.3125 0.625 C3.63528481 6.03639241 3.63528481 6.03639241 2.25 8.5625 C-0.59843248 10.12454362 -2.62254903 9.37421024 -5.6875 8.625 C-5.875 5.25 -5.875 5.25 -5.6875 1.625 C-2.6875 -0.375 -2.6875 -0.375 0 0 Z " fill="#000000" transform="translate(320.6875,239.375)"/>
<path d="M0 0 C0.763125 0.20625 1.52625 0.4125 2.3125 0.625 C3.0625 2.875 3.0625 2.875 3.3125 5.625 C1.6875 8 1.6875 8 -0.6875 9.625 C-3.4375 9.375 -3.4375 9.375 -5.6875 8.625 C-5.875 5.25 -5.875 5.25 -5.6875 1.625 C-2.6875 -0.375 -2.6875 -0.375 0 0 Z " fill="#000000" transform="translate(320.6875,357.375)"/>
<path d="M0 0 C1.1446875 0.3403125 1.1446875 0.3403125 2.3125 0.6875 C3.11203138 3.97446233 3.40908936 5.39773192 2.3125 8.6875 C0.0025 8.6875 -2.3075 8.6875 -4.6875 8.6875 C-6.01591008 3.25309513 -6.01591008 3.25309513 -4.5625 0.75 C-2.6875 -0.3125 -2.6875 -0.3125 0 0 Z " fill="#000000" transform="translate(661.6875,630.3125)"/>
<path d="M0 0 C0 2.31 0 4.62 0 7 C-5.43440487 8.32841008 -5.43440487 8.32841008 -7.9375 6.875 C-9 5 -9 5 -8.8125 2.375 C-7.20916102 -2.31168316 -4.14069436 -0.81013585 0 0 Z " fill="#000000" transform="translate(525,374)"/>
<path d="M0 0 C2.31 0 4.62 0 7 0 C8.32841008 5.43440487 8.32841008 5.43440487 6.875 7.9375 C5 9 5 9 2.3125 8.6875 C1.549375 8.460625 0.78625 8.23375 0 8 C-0.79953138 4.71303767 -1.09658936 3.28976808 0 0 Z " fill="#000000" transform="translate(316,252)"/>
<path d="M0 0 C8.58 0 17.16 0 26 0 C26 0.33 26 0.66 26 1 C17.42 1 8.84 1 0 1 C0 0.67 0 0.34 0 0 Z " fill="#000000" transform="translate(533,789)"/>
<path d="" fill="#000000" transform="translate(0,0)"/>
<path d="" fill="#000000" transform="translate(0,0)"/>
<path d="" fill="#000000" transform="translate(0,0)"/>
<path d="" fill="#000000" transform="translate(0,0)"/>
<path d="" fill="#000000" transform="translate(0,0)"/>
<path d="" fill="#000000" transform="translate(0,0)"/>
<path d="" fill="#000000" transform="translate(0,0)"/>
</svg>
