<?xml version="1.0" encoding="UTF-8"?>
<svg version="1.1" xmlns="http://www.w3.org/2000/svg" width="1000" height="1000">
<path d="M0 0 C1.58158453 0.12800594 3.16547028 0.22847191 4.75 0.3125 C11.20063581 0.93346638 14.81060057 3.54923644 19.125 8.25 C33.80219768 26.48183149 30.93125264 52.16994787 29 74 C29.67546875 73.10796875 30.3509375 72.2159375 31.046875 71.296875 C31.94775975 70.11446376 32.8488102 68.93217876 33.75 67.75 C34.1934375 67.16347656 34.636875 66.57695312 35.09375 65.97265625 C37.54102962 62.76959909 39.95837031 59.67134434 43 57 C43.66 57 44.32 57 45 57 C45.23332031 56.40316406 45.46664063 55.80632812 45.70703125 55.19140625 C48.16834967 51.01980615 52.85141006 49.257693 57 47 C58.051875 46.38125 59.10375 45.7625 60.1875 45.125 C73.87478656 41.08612856 89.76172142 44.5641044 102.06640625 51.21484375 C121.31086616 62.92552042 132.53253307 77.040588 140 98 C140.29777344 98.77988281 140.59554687 99.55976563 140.90234375 100.36328125 C143.40678172 107.23028859 143.95347513 113.08597107 141.1015625 119.94921875 C137.48247649 126.68687887 132.30841217 131.66536833 125 134 C120.0236152 135.16823667 115.03683658 136.13429371 110 137 C112.29415169 138.14707585 114.01597579 138.30771792 116.56640625 138.578125 C139.316319 141.1260843 163.20283831 144.11177117 184.046875 154.17578125 C186.11452592 155.04832994 188.04815288 155.46317304 190.25 155.875 C195.71744928 157.51523478 197.78446655 160.8103272 200.45556641 165.62207031 C202.07541078 168.79121828 203.63890214 171.98294594 205.1875 175.1875 C206.34212304 177.53856013 207.49838502 179.88881604 208.65625 182.23828125 C209.2234375 183.39150879 209.790625 184.54473633 210.375 185.73291016 C212.57347574 190.15298263 214.86516899 194.51905517 217.1875 198.875 C220.98917237 206.0233065 224.63742345 213.23749392 228.23535156 220.49023438 C232.31944972 228.69711196 236.58940486 236.80241813 240.90014648 244.89208984 C241.44457397 245.93550537 241.44457397 245.93550537 242 247 C242.52456787 247.84159668 243.04913574 248.68319336 243.58959961 249.55029297 C245.58568889 254.43254008 245.56827381 259.00363974 245.6953125 264.234375 C245.73308807 265.30874817 245.77086365 266.38312134 245.80978394 267.49005127 C245.92792643 270.90974972 246.02735846 274.32966005 246.125 277.75 C246.23300073 281.18442331 246.34491809 284.61865748 246.4616394 288.05279541 C246.53313864 290.18717102 246.59898953 292.32174461 246.65872192 294.45648193 C246.68900482 295.41798157 246.71928772 296.3794812 246.75048828 297.37011719 C246.77474884 298.21805847 246.7990094 299.06599976 246.82400513 299.93963623 C246.87758871 302.0630664 246.87758871 302.0630664 248 304 C248.0970313 305.52229289 248.13076324 307.04883798 248.1328125 308.57421875 C248.13506836 309.53739014 248.13732422 310.50056152 248.13964844 311.49291992 C248.13481445 312.54713135 248.12998047 313.60134277 248.125 314.6875 C248.12016602 315.77716064 248.11533203 316.86682129 248.11035156 317.98950195 C248.08459651 321.65985468 248.04360429 325.32981738 248 329 C247.98724706 330.37369738 247.97455299 331.74739531 247.96191406 333.12109375 C247.92633112 336.62423737 247.86618653 340.12631778 247.79046631 343.6288147 C247.76364295 344.99342788 247.74326289 346.35818402 247.72955322 347.72299194 C247.6306946 356.66312507 247.38788848 361.61211152 241 368 C240.44671285 370.41404569 240.44671285 370.41404569 240.140625 373.25 C239.92599609 374.86273804 239.92599609 374.86273804 239.70703125 376.50805664 C239.55621094 377.66039795 239.40539062 378.81273926 239.25 380 C237.18421672 394.56357197 233.39355189 407.72108453 227 421 C227.85722656 420.71125 228.71445312 420.4225 229.59765625 420.125 C241.86042065 416.14340344 241.86042065 416.14340344 247 417 C250.78413662 419.05659599 251.7804712 420.32921756 253.125 424.4375 C253 428 253 428 251.12719727 430.51416016 C246.96392407 433.82358694 242.91634687 434.93761735 237.83984375 436.3359375 C236.82663559 436.62931 235.81342743 436.9226825 234.76951599 437.22494507 C232.61031427 437.84823403 230.44900941 438.46427613 228.28582764 439.0736084 C225.10256957 439.97108199 221.92583489 440.88844178 218.75048828 441.81347656 C213.22712188 443.42005172 207.6987567 445.00861493 202.16873169 446.59210205 C195.74651159 448.43155623 189.32624471 450.27779693 182.90625 452.125 C182.22990572 452.31956409 181.55356144 452.51412819 180.85672188 452.71458817 C164.51527581 457.41682338 148.19242154 462.18253864 131.87016678 466.95087814 C94.01733097 478.00855085 56.13947133 488.97574875 18.21487427 499.7850647 C-9.92476824 507.80917328 -38.01459325 516.01016952 -66.05712891 524.3671875 C-75.50060823 527.17069651 -84.98295516 529.82897917 -94.4765625 532.45703125 C-97.81441857 533.38269818 -101.14310856 534.329176 -104.4609375 535.32421875 C-105.69070313 535.69160156 -106.92046875 536.05898438 -108.1875 536.4375 C-109.19167969 536.74558594 -110.19585937 537.05367187 -111.23046875 537.37109375 C-115.63456512 538.37117769 -118.81819499 538.65655834 -122.8125 536.4375 C-125.70478473 533.21466844 -126.15129568 531.31192698 -126 527 C-122.19477732 522.12150938 -118.27935442 520.68404226 -112.5625 519.0625 C-111.74934326 518.81870605 -110.93618652 518.57491211 -110.09838867 518.32373047 C-100.11868239 515.3672696 -90.06016388 512.66765181 -80 510 C-82.51005101 508.32663266 -84.98688168 507.0158487 -87.68457031 505.69042969 C-94.93579198 502.05916267 -101.35623986 497.73652417 -107.75 492.75 C-108.5241626 492.14768555 -109.2983252 491.54537109 -110.09594727 490.92480469 C-113.54008981 488.18171612 -116.55621885 485.71176306 -119 482 C-119 481.34 -119 480.68 -119 480 C-119.99 479.67 -120.98 479.34 -122 479 C-123.16674805 477.50952148 -123.16674805 477.50952148 -124.26171875 475.62109375 C-124.65810547 474.94755859 -125.05449219 474.27402344 -125.46289062 473.58007812 C-125.86701172 472.87302734 -126.27113281 472.16597656 -126.6875 471.4375 C-127.10322266 470.72658203 -127.51894531 470.01566406 -127.94726562 469.28320312 C-128.97283111 467.52677489 -129.98746671 465.76397309 -131 464 C-132.03294189 464.09087891 -133.06588379 464.18175781 -134.13012695 464.27539062 C-138.01188164 464.61563069 -141.89415831 464.94956993 -145.77661133 465.28173828 C-147.44765543 465.42556358 -149.11855907 465.57103172 -150.78930664 465.71826172 C-159.87196377 466.5175138 -168.87089381 467.27521102 -178 467 C-177.896875 467.886875 -177.79375 468.77375 -177.6875 469.6875 C-178.02178426 473.2309132 -178.70523803 474.40249084 -181.26245117 476.79321289 C-184.86884096 479.29797399 -189.1240317 480.22226846 -193.3125 481.375 C-194.83460083 481.81489258 -194.83460083 481.81489258 -196.38745117 482.26367188 C-198.52335813 482.87989048 -200.66118753 483.48948028 -202.80078125 484.09277344 C-205.85356795 484.95847516 -208.89646898 485.85177962 -211.9375 486.7578125 C-221.83686582 489.70013089 -231.7650106 492.48866223 -241.75 495.125 C-253.77865685 498.308864 -265.6988358 501.83013711 -277.625 505.375 C-305.5057667 513.64925562 -305.5057667 513.64925562 -316.25823975 516.72320557 C-317.61047615 517.11111425 -318.96178712 517.50226601 -320.31207275 517.89691162 C-322.15989582 518.43628598 -324.01151753 518.96259512 -325.86328125 519.48828125 C-326.88719971 519.78259033 -327.91111816 520.07689941 -328.96606445 520.38012695 C-332.42387571 521.0866034 -335.47956974 521.24247396 -339 521 C-342.38677089 518.54999553 -343.78698584 517.13607554 -344.5625 513 C-343.84895126 509.19440669 -342.71651368 507.75983926 -340 505 C-337.3608081 503.86290136 -334.9816505 502.97497959 -332.25 502.1875 C-331.55261719 501.97158203 -330.85523438 501.75566406 -330.13671875 501.53320312 C-328.42910557 501.00688399 -326.7151217 500.50131045 -325 500 C-325.81082031 499.78085937 -326.62164062 499.56171875 -327.45703125 499.3359375 C-337.68609964 496.40654189 -347.27104681 492.52006256 -355 485 C-355 484.34 -355 483.68 -355 483 C-355.88171875 482.64228516 -355.88171875 482.64228516 -356.78125 482.27734375 C-364.25090461 477.97703203 -367.75155562 467.86955531 -370 460 C-370.35408939 458.3376193 -370.69384036 456.67187175 -371 455 C-372.11117187 454.69707031 -373.22234375 454.39414062 -374.3671875 454.08203125 C-382.66345298 451.76766248 -390.54593609 449.4359401 -398 445 C-398.98033203 444.45085937 -398.98033203 444.45085937 -399.98046875 443.890625 C-404.92019517 440.81514501 -408.28904199 436.59018078 -410 431 C-410.73668365 422.51434979 -409.18487186 414.10651096 -407.890625 405.74609375 C-407.14955491 400.45754811 -406.77468806 396.19764413 -408.37255859 391.078125 C-409.70172773 386.67583407 -410.32938353 382.08572696 -411.125 377.5625 C-411.39763672 376.08426758 -411.39763672 376.08426758 -411.67578125 374.57617188 C-413.54426095 363.976413 -414.04021977 357.35933783 -408.3125 348 C-407.87744141 347.2575 -407.44238281 346.515 -406.99414062 345.75 C-405.22074472 342.72340432 -403.43149999 339.70751197 -401.60498047 336.71264648 C-398.67390745 331.73962457 -397.27718412 327.78280368 -396.5 322.0625 C-394.13803243 307.58538344 -385.63740952 294.77727647 -373.9921875 285.81518555 C-357.16787483 273.71799548 -337.07627918 268.50892591 -317.4453125 262.8046875 C-315.80670678 262.32607096 -314.16818927 261.84715234 -312.52975464 261.36795044 C-308.26301822 260.12065578 -303.99539759 258.8764182 -299.72747803 257.63317871 C-292.87856273 255.63788741 -286.03061897 253.63927974 -279.18346786 251.63794327 C-276.81270961 250.94571665 -274.44131646 250.2556996 -272.06985474 249.56588745 C-256.97410702 245.67017683 -256.97410702 245.67017683 -244.125 237.375 C-242.90851332 236.28668501 -241.69105599 235.19945408 -240.47265625 234.11328125 C-239.88242676 233.58041504 -239.29219727 233.04754883 -238.68408203 232.49853516 C-236.37212068 230.44129845 -233.97492326 228.50034819 -231.5625 226.5625 C-225.21723119 221.40813208 -219.07490552 216.02637235 -212.90966797 210.65966797 C-204.93700685 203.73073032 -196.91517627 196.87385092 -188.71484375 190.21484375 C-185.76948694 187.81194115 -182.85246696 185.37716025 -179.9375 182.9375 C-175.50900281 179.24423594 -171.07591934 175.56270469 -166.53515625 172.0078125 C-164.761925 170.60343521 -163.02180943 169.15668332 -161.30859375 167.6796875 C-152.5109582 160.42612676 -143.18940339 157.39208982 -132.05859375 155.5 C-131.37925781 155.335 -130.69992187 155.17 -130 155 C-129.67 154.34 -129.34 153.68 -129 153 C-129.59683594 152.74347656 -130.19367188 152.48695313 -130.80859375 152.22265625 C-136.74760299 148.90909138 -139.52606436 142.43036452 -141.34765625 136.16796875 C-141.96951718 134.10130519 -142.73486039 132.21341799 -143.625 130.25 C-147.87888488 120.19536301 -146.55094222 109.08918504 -143 99 C-141.57054901 96.12203867 -139.90654613 93.58015233 -138 91 C-137.4225 90.0925 -136.845 89.185 -136.25 88.25 C-131.40247302 83.40247302 -125.89915785 81.75025551 -119.125 81.5 C-103.04521868 82.07894683 -87.92013104 87.40298561 -73 93 C-73.41975098 92.43313477 -73.83950195 91.86626953 -74.27197266 91.28222656 C-82.25554471 80.30514467 -84.76696033 68.34150732 -83 55 C-80.80319938 46.06699217 -76.29573565 38.43845468 -71 31 C-70.41605469 30.15695313 -69.83210938 29.31390625 -69.23046875 28.4453125 C-57.36595003 12.40947878 -37.48860746 2.2269176 -17.9375 -0.75 C-3.35211268 -1.67605634 -3.35211268 -1.67605634 0 0 Z M-51.4296875 32.4140625 C-54.45732117 35.46010124 -56.96286891 38.22218601 -59 42 C-59.51046875 42.93972656 -60.0209375 43.87945312 -60.546875 44.84765625 C-64.98330179 53.37193344 -68.19015215 60.37897446 -66 70 C-61.96151866 82.31736808 -55.32614222 89.06072788 -45.5 97.0625 C-44.38044922 97.97999023 -44.38044922 97.97999023 -43.23828125 98.91601562 C-41.79443911 100.0979218 -40.34808117 101.27676296 -38.89892578 102.45214844 C-37.38455215 103.68654402 -35.88827461 104.9431304 -34.3984375 106.20703125 C-31.45821882 108.40501232 -28.41164891 109.99246324 -25.125 111.625 C-23.36542969 112.51058594 -23.36542969 112.51058594 -21.5703125 113.4140625 C-18.03712507 114.983509 -14.73094757 116.03625139 -11 117 C-13.30424907 112.10347072 -15.8716954 107.60789896 -18.8125 103.0625 C-30.6940957 83.95441139 -37.12279297 61.72020009 -31.98046875 39.4609375 C-29.6013878 31.0630661 -25.36055766 23.51500363 -21 16 C-31.60848011 16 -44.01799778 25.47326134 -51.4296875 32.4140625 Z M1.09765625 17.85546875 C0.42605469 18.29503906 -0.24554687 18.73460937 -0.9375 19.1875 C-1.60652344 19.61417969 -2.27554687 20.04085937 -2.96484375 20.48046875 C-7.73369813 24.04109131 -10.19774479 27.86922629 -12.625 33.25 C-12.9240625 33.88035156 -13.223125 34.51070312 -13.53125 35.16015625 C-20.68170318 50.69499038 -18.26783312 65.59138912 -12.90234375 81.19140625 C-9.03241831 91.04331812 -3.81146759 100.88388606 3 109 C16.12892028 65.10618085 16.12892028 65.10618085 8.5 21.5 C6.65690639 18.42817731 4.91984909 16.13665924 1.09765625 17.85546875 Z M51.7734375 70.96484375 C39.6962885 83.66943491 27.4107735 100.59084361 24 118 C27.34208427 116.04327965 30.51371304 113.96222827 33.65234375 111.6953125 C47.22973209 102.13815696 61.7281722 94.55389081 78 91 C78.71720215 90.8232373 79.4344043 90.64647461 80.17333984 90.46435547 C87.77647999 88.72089031 95.35036153 88.56011044 103.125 88.375 C104.4765848 88.33671699 105.82814791 88.29765973 107.1796875 88.2578125 C110.45299391 88.16428946 113.72630557 88.07853802 117 88 C116.08413029 86.57165232 115.16076403 85.14811017 114.234375 83.7265625 C113.72100586 82.93330566 113.20763672 82.14004883 112.67871094 81.32275391 C109.96423372 77.56685858 106.65083946 74.81432384 103 72 C102.20207031 71.37867188 101.40414062 70.75734375 100.58203125 70.1171875 C84.4465066 58.15938784 66.75764257 56.80784243 51.7734375 70.96484375 Z M-125.625 101.125 C-128.74991972 107.65892304 -129.25488568 112.83488023 -129 120 C-127.98164063 119.7834375 -126.96328125 119.566875 -125.9140625 119.34375 C-91.02055279 112.31751149 -53.28896329 120.73663831 -21.96875 136.8125 C-18.79447777 138.08220889 -18.09415548 137.97920529 -15 137 C-32.17924578 129.41115465 -49.38575651 121.88781238 -66.63330078 114.45556641 C-69.60253332 113.17184165 -72.56586067 111.87568509 -75.52734375 110.57421875 C-100.71052791 98.65245616 -100.71052791 98.65245616 -125.625 101.125 Z M43 127 C43 127.66 43 128.32 43 129 C49.37435737 128.74087978 55.44482768 127.97175865 61.6675415 126.61643982 C73.14451221 124.12061273 84.55809148 122.88807038 96.25 121.9375 C99.81897454 121.64716549 103.38620515 121.34181755 106.953125 121.02734375 C108.14231537 120.93814919 108.14231537 120.93814919 109.35552979 120.84715271 C115.82635644 120.27391222 122.58477551 119.19959684 127 114 C127.45086345 111.24114506 127.18192449 108.81982959 127 106 C124.09323455 103.09323455 115.20598411 104.18644394 111 104 C110.32855957 103.96986816 109.65711914 103.93973633 108.96533203 103.90869141 C85.86926811 103.02016359 59.12340989 109.28867853 43 127 Z M-123 136 C-120.48054533 141.49938594 -115.96629398 143.78696999 -111 147 C-110.030625 147.680625 -109.06125 148.36125 -108.0625 149.0625 C-100.09009559 151.50303196 -92.02739229 147.34839417 -84.72265625 144.25756836 C-78.64718902 141.7310517 -72.45859121 140.24161787 -66 139 C-66.495 138.01 -66.495 138.01 -67 137 C-69.345922 136.37462028 -71.61799501 135.8728955 -74 135.4375 C-75.27875 135.18871094 -76.5575 134.93992187 -77.875 134.68359375 C-86.08397718 133.26099296 -94.17306111 132.7937684 -102.5 132.75 C-103.97146484 132.7190625 -103.97146484 132.7190625 -105.47265625 132.6875 C-111.86857744 132.65343384 -117.08288596 133.55115693 -123 136 Z M23 153 C23.68578125 153.54527344 24.3715625 154.09054687 25.078125 154.65234375 C34.76995887 162.43949904 43.48597946 170.0177565 51 180 C51.52722656 180.62777344 52.05445313 181.25554687 52.59765625 181.90234375 C74.37411083 208.44058307 78.94011052 249.21572512 76.29345703 282.04492188 C74.29795917 302.13935287 68.89512604 321.60879982 60.41796875 339.91015625 C58.95935279 342.9414787 58.95935279 342.9414787 58 346 C62.43558551 344.4655725 66.09734889 342.07410375 69.9375 339.4375 C71.26898505 338.53825323 72.60103005 337.63983508 73.93359375 336.7421875 C74.6076123 336.28682617 75.28163086 335.83146484 75.97607422 335.36230469 C79.13414822 333.2366047 82.3100447 331.13999373 85.5 329.0625 C86.5828125 328.35222656 87.665625 327.64195312 88.78125 326.91015625 C94.05215033 323.78215836 98.88492742 321.05798031 105.14453125 322.171875 C108.92837841 323.86066573 110.33422328 327.39609524 112 331 C112.30808594 331.59941406 112.61617187 332.19882812 112.93359375 332.81640625 C115.80409153 339.17545156 115.720201 346.13045202 116 353 C121.02691962 348.63597088 123.78185305 343.46232347 126.875 337.625 C127.4009375 336.64273438 127.926875 335.66046875 128.46875 334.6484375 C146.34736629 301.00493295 150.78396102 267.82520084 139.65576172 231.07275391 C133.32912026 211.07529078 121.29610218 192.2316748 105 179 C104.01257813 178.18917969 103.02515625 177.37835938 102.0078125 176.54296875 C94.80980755 170.75804172 87.26303736 165.83967361 79.19726562 161.34057617 C77 160 77 160 74.28710938 157.96606445 C64.65145529 151.11348721 56.97327407 150.98130851 45.5 151.4375 C43.86725424 151.46914865 42.23443387 151.49716432 40.6015625 151.52148438 C31.73698701 151.62934318 31.73698701 151.62934318 23 153 Z M-119 186 C-119.68835938 186.63808594 -120.37671875 187.27617187 -121.0859375 187.93359375 C-136.26301231 202.25223672 -146.01397909 222.51885197 -152 242.25 C-152.22002686 242.96510742 -152.44005371 243.68021484 -152.66674805 244.41699219 C-153.66421464 247.89914849 -154.41738701 250.5628365 -153 254 C-152.2265625 253.18015625 -151.453125 252.3603125 -150.65625 251.515625 C-143.23536578 243.78553727 -136.92269123 237.76179723 -125.75 236.6875 C-119.52282852 237.20643096 -114.98996675 239.59509269 -110.75 244.1875 C-107.65927051 248.0720234 -105.77581877 252.39331718 -104 257 C-96.42284402 247.95490497 -95.96828843 234.2507743 -94.79101562 223.00341797 C-92.91566792 205.32095376 -85.08940409 194.17644109 -71.2421875 182.87109375 C-69.7914211 181.72027836 -68.33541016 180.57605231 -66.875 179.4375 C-66.09745361 178.83123779 -65.31990723 178.22497559 -64.51879883 177.6003418 C-54.52405226 169.93933311 -43.80134259 163.44631025 -33 157 C-33.495 156.01 -33.495 156.01 -34 155 C-64.73464763 145.45316557 -98.09894876 165.53078866 -119 186 Z M99 154 C102.04922727 157.19477511 105.29532272 159.89414086 108.8125 162.5625 C109.80894531 163.32691406 110.80539062 164.09132813 111.83203125 164.87890625 C119.11323917 169.75399367 125.19846818 170.56290287 133.8125 171.0625 C135.50403198 171.17863647 135.50403198 171.17863647 137.22973633 171.29711914 C140.81915133 171.54326891 144.40928893 171.77359348 148 172 C152.73025021 172.29825833 157.45899575 172.61285239 162.1875 172.9375 C163.80652222 173.03140015 163.80652222 173.03140015 165.45825195 173.12719727 C172.0031958 173.57837622 177.62698017 174.1326365 182.80444336 178.53393555 C183.22862549 179.062854 183.65280762 179.59177246 184.08984375 180.13671875 C184.56357422 180.71357422 185.03730469 181.29042969 185.52539062 181.88476562 C185.99138672 182.47966797 186.45738281 183.07457031 186.9375 183.6875 C187.43056641 184.29400391 187.92363281 184.90050781 188.43164062 185.52539062 C189.63333055 187.00708596 190.81843283 188.5022087 192 190 C192.495 189.01 192.495 189.01 193 188 C190.7254621 181.72513845 187.92667759 174.39841313 181.9375 170.9375 C180.31356784 170.23842033 178.66438951 169.59638545 177 169 C176.02675781 168.59910156 175.05351563 168.19820312 174.05078125 167.78515625 C150.55945491 158.63882919 124.0841494 154.85320236 99 154 Z M-11.1875 163 C-12.53908203 163.8353125 -12.53908203 163.8353125 -13.91796875 164.6875 C-14.60503906 165.120625 -15.29210937 165.55375 -16 166 C-13.35177988 167.32411006 -11.51061806 167.01892401 -8.5546875 166.87890625 C-6.94013672 166.80639648 -6.94013672 166.80639648 -5.29296875 166.73242188 C-3.60107422 166.64831055 -3.60107422 166.64831055 -1.875 166.5625 C-0.73933594 166.51029297 0.39632813 166.45808594 1.56640625 166.40429688 C4.37786631 166.27435544 7.18899465 166.13938086 10 166 C7.18652518 163.81978793 4.83836199 162.40008531 1.4375 161.3125 C0.29087891 160.93544922 0.29087891 160.93544922 -0.87890625 160.55078125 C-5.3628095 159.38645278 -7.40294441 160.64079651 -11.1875 163 Z M-50.66796875 186.328125 C-51.25126953 186.79863281 -51.83457031 187.26914062 -52.43554688 187.75390625 C-53.01369141 188.24761719 -53.59183594 188.74132812 -54.1875 189.25 C-54.77724609 189.72824219 -55.36699219 190.20648438 -55.97460938 190.69921875 C-59.52364034 193.6126613 -62.77128116 196.73224657 -66 200 C-66.99 200.78375 -67.98 201.5675 -69 202.375 C-77.34830302 209.67976515 -79.09187432 217.81809573 -80.0625 228.5625 C-80.21834289 230.20979801 -80.37585725 231.85693887 -80.53515625 233.50390625 C-80.600979 234.22392822 -80.66680176 234.9439502 -80.73461914 235.68579102 C-81.05463872 238.47646774 -81.53117897 241.230832 -82 244 C-73.92438474 244.41665191 -65.84843471 244.82570839 -57.7719574 245.22526646 C-54.02111312 245.4110626 -50.2704337 245.5994015 -46.52001953 245.79370117 C-42.89579503 245.98136702 -39.27128506 246.1621579 -35.64648438 246.33833122 C-34.26859396 246.40648245 -32.89082049 246.47704534 -31.51318359 246.55014229 C-19.70740529 247.8044768 -19.70740529 247.8044768 -8.78515625 244.49609375 C3.92542065 229.30681025 18 203.30831618 18 183 C10.70629585 182.9767404 3.41259982 182.95901589 -3.88113403 182.94818783 C-7.26858844 182.94298863 -10.65601731 182.93594535 -14.04345703 182.92456055 C-17.9456448 182.91238859 -21.84779666 182.9067473 -25.75 182.90234375 C-27.55827271 182.89460182 -27.55827271 182.89460182 -29.40307617 182.88670349 C-40.65120483 182.30382137 -40.65120483 182.30382137 -50.66796875 186.328125 Z M-168 194 C-170.42779478 196.16073044 -172.90439399 198.2634937 -175.375 200.375 C-176.66372027 201.49499025 -177.95148409 202.616082 -179.23828125 203.73828125 C-182.65546629 206.70879824 -186.10085566 209.64399403 -189.5625 212.5625 C-195.84522043 217.85990503 -202.09247609 223.19807177 -208.31933594 228.56103516 C-209.53077266 229.59825306 -210.74834477 230.62832021 -211.96972656 231.65380859 C-212.93217285 232.46519287 -212.93217285 232.46519287 -213.9140625 233.29296875 C-214.50396973 233.78692139 -215.09387695 234.28087402 -215.70166016 234.78979492 C-216.34433838 235.38884644 -216.34433838 235.38884644 -217 236 C-217 236.33 -217 236.66 -217 237 C-212.43289197 237.29083455 -207.86544338 237.57532292 -203.29760742 237.85449219 C-201.75095537 237.949848 -200.20440043 238.04679526 -198.65795898 238.14550781 C-188.42051571 238.79761665 -178.25973612 239.13607829 -168 239 C-167.62230469 237.87207031 -167.24460937 236.74414062 -166.85546875 235.58203125 C-161.25978794 219.3884965 -154.1681148 203.46509173 -143.4609375 189.9609375 C-141.81400087 187.96399465 -141.81400087 187.96399465 -141 185 C-153.23055188 183.75699535 -159.0257948 185.05055122 -168 194 Z M35 186 C33.38392674 190.80856153 31.79769913 195.62247126 30.2734375 200.4609375 C24.18567444 219.56197748 17.37510001 238.28621013 3.515625 253.17578125 C1.91257601 254.91657688 1.91257601 254.91657688 1.17382812 257.04858398 C0 259 0 259 -1.93261719 259.72949219 C-2.71282227 259.83422852 -3.49302734 259.93896484 -4.296875 260.046875 C-5.17472656 260.16933594 -6.05257812 260.29179687 -6.95703125 260.41796875 C-8.33955078 260.58232422 -8.33955078 260.58232422 -9.75 260.75 C-10.62527344 260.87503906 -11.50054688 261.00007813 -12.40234375 261.12890625 C-26.56267693 262.98834394 -40.86074363 261.78554495 -55.0625 261 C-66.05290358 260.39332402 -76.98839369 259.81933789 -88 260 C-88.50789063 261.11117187 -89.01578125 262.22234375 -89.5390625 263.3671875 C-99.15278645 284.21684875 -99.15278645 284.21684875 -103.5625 288.52734375 C-105.16069927 290.16462941 -105.84890764 291.57105262 -106.6875 293.6875 C-107.120625 294.780625 -107.55375 295.87375 -108 297 C-103.83427792 296.80356758 -99.68113719 296.51930222 -95.52400208 296.19422913 C-93.89030981 296.06851187 -92.25601629 295.95028846 -90.62113953 295.84104919 C-68.98621843 294.29108751 -48.37529616 288.31955415 -27.51904297 282.71221924 C-23.61831172 281.66801513 -19.71316649 280.6409037 -15.80780983 279.61415768 C-12.03534772 278.62146686 -8.26460116 277.6223989 -4.49445724 276.62094307 C-2.69976308 276.14424147 -0.9047849 275.66860772 0.89048386 275.19407463 C3.37702421 274.53495967 5.86138535 273.86822243 8.34521484 273.19897461 C9.08061493 273.00516205 9.81601501 272.81134949 10.57369995 272.61166382 C13.82185718 271.72824203 16.17009832 270.88660112 19 269 C18.649375 268.360625 18.29875 267.72125 17.9375 267.0625 C15.72482285 259.83442132 18.61958963 252.2614841 20.94921875 245.34765625 C21.39186821 243.99914833 21.39186821 243.99914833 21.84346008 242.62339783 C22.78325026 239.76697282 23.73513448 236.91475361 24.6875 234.0625 C25.30744284 232.18450942 25.92658952 230.30625583 26.54492188 228.42773438 C27.76171024 224.73607583 28.98576548 221.04695902 30.21630859 217.35986328 C31.39889276 213.81548524 32.56798887 210.26712982 33.72509766 206.71435547 C33.99659134 205.88568466 34.26808502 205.05701385 34.54780579 204.20323181 C35.05637334 202.65031714 35.5616152 201.09630785 36.06291199 199.54103088 C37.1121527 196.35183456 38.12461876 193.81307186 40 191 C38.35 189.35 36.7 187.7 35 186 Z M151 189 C152.19689875 195.03110186 153.81264551 200.68888496 156.00390625 206.4296875 C156.42892677 207.56520554 156.42892677 207.56520554 156.86253357 208.72366333 C157.75691502 211.10959495 158.65945566 213.49233551 159.5625 215.875 C160.46718137 218.2797822 161.37020548 220.68518245 162.2731781 223.09060669 C162.83269708 224.57915205 163.39356472 226.06719136 163.95594788 227.55465698 C165.01525127 230.35781371 166.05225677 233.15677032 167 236 C184.8906643 235.34959217 184.8906643 235.34959217 199.70703125 226.42578125 C200.13371094 225.95527344 200.56039062 225.48476563 201 225 C198.13778587 220.96354418 195.25919928 217.12567781 191.6875 213.6875 C188.73824193 210.83568437 186.14390211 207.81405175 183.5625 204.625 C182.42361328 203.22507812 182.42361328 203.22507812 181.26171875 201.796875 C179.79484354 199.98291533 178.33841538 198.16043807 176.89453125 196.328125 C173.08726503 191.61611588 173.08726503 191.61611588 167.8125 188.9375 C166.554375 188.958125 165.29625 188.97875 164 189 C162.90171875 188.9896875 161.8034375 188.979375 160.671875 188.96875 C157.44628942 188.94082285 154.2252896 188.95634946 151 189 Z M50 211 C49.16235732 212.95649397 48.33000941 214.91525556 47.5 216.875 C47.0359375 217.96554687 46.571875 219.05609375 46.09375 220.1796875 C44.87947544 222.80661929 44.87947544 222.80661929 45 225 C48.3 224.67 51.6 224.34 55 224 C54.54625 222.411875 54.0925 220.82375 53.625 219.1875 C53.36976563 218.29417969 53.11453125 217.40085937 52.8515625 216.48046875 C52.04733339 213.79532104 52.04733339 213.79532104 50 211 Z M209.9375 237.875 C208.55884766 238.95394531 208.55884766 238.95394531 207.15234375 240.0546875 C206.44207031 240.69664062 205.73179687 241.33859375 205 242 C205 242.66 205 243.32 205 244 C195.7973917 248.73680502 186.05581273 250.15029258 175.9375 251.6875 C174.48491542 251.91400526 173.03244026 252.14121339 171.58007812 252.36914062 C168.05460944 252.9208658 164.52775717 253.46307734 161 254 C161.33 256.31 161.66 258.62 162 261 C163.485 260.7525 163.485 260.7525 165 260.5 C175.56110466 259.06471803 175.56110466 259.06471803 179.5 261.625 C181.45562482 264.72140596 181.60024477 266.39853135 181 270 C177.86437859 274.14915561 174.11762442 275.12740987 169.25 276.25 C168.55261719 276.42273438 167.85523438 276.59546875 167.13671875 276.7734375 C165.42753412 277.19488029 163.71413847 277.59918155 162 278 C161.90203125 279.26972656 161.8040625 280.53945313 161.703125 281.84765625 C159.99143456 302.23866615 154.63597534 320.44788349 144.45214844 338.25390625 C143.57913405 339.80593183 142.781917 341.40014271 142 343 C142.33 343.66 142.66 344.32 143 345 C143.76143311 344.76289307 144.52286621 344.52578613 145.30737305 344.28149414 C148.76661454 343.20590065 152.22703869 342.13416218 155.6875 341.0625 C157.48477539 340.50272461 157.48477539 340.50272461 159.31835938 339.93164062 C160.47529297 339.57392578 161.63222656 339.21621094 162.82421875 338.84765625 C163.88729248 338.51773682 164.95036621 338.18781738 166.0456543 337.84790039 C169 337 169 337 171.80737305 336.51025391 C174.18622521 336.22850972 174.18622521 336.22850972 175.2578125 333.98828125 C175.68707031 332.66376953 175.68707031 332.66376953 176.125 331.3125 C176.44984375 330.31992187 176.7746875 329.32734375 177.109375 328.3046875 C178.03579381 324.86718611 178.71671499 321.43559592 179.375 317.9375 C181.89714827 305.89161479 188.00043333 298.76565184 198.12011719 292.12988281 C203.75969835 288.74027481 209.87822756 286.36220567 216 284 C217.30218337 283.48723313 218.60426917 282.97421841 219.90625 282.4609375 C222.92960694 281.2844573 225.9590134 280.12995564 229 279 C230.0069879 261.00881516 225.83627661 248.98998124 216 234 C213.81835465 234 211.53057403 236.61577693 209.9375 237.875 Z M48.0625 239.75 C46.8259668 239.8428125 46.8259668 239.8428125 45.56445312 239.9375 C40.88568806 240.31309152 40.88568806 240.31309152 37.04296875 242.75 C33.74506849 249.86457136 32.40249107 256.30291153 34 264 C37.90073087 265.03589149 40.43655082 264.89245035 44.30078125 263.78515625 C45.27724609 263.51123047 46.25371094 263.23730469 47.25976562 262.95507812 C48.26716797 262.66052734 49.27457031 262.36597656 50.3125 262.0625 C51.33923828 261.77181641 52.36597656 261.48113281 53.42382812 261.18164062 C55.95221613 260.46428403 58.47722332 259.7368019 61 259 C60.85780436 256.79142945 60.71108153 254.58315013 60.5625 252.375 C60.44068359 250.53035156 60.44068359 250.53035156 60.31640625 248.6484375 C60.03336056 245.38467612 59.58961047 242.22056141 59 239 C55.33921405 239 51.7048666 239.40985682 48.0625 239.75 Z M-247.12988281 260.02832031 C-250.76472189 261.258897 -254.38453137 262.14525979 -258.125 263 C-266.39991308 265.03306054 -274.56751632 267.42848318 -282.75048828 269.80126953 C-290.22182939 271.95667295 -297.71484325 273.97690753 -305.24707031 275.90795898 C-316.80161178 278.88529042 -328.13128025 282.20979693 -339.375 286.1875 C-340.52742188 286.59145996 -341.67984375 286.99541992 -342.8671875 287.41162109 C-349.0918616 289.67640207 -354.55125636 292.24015971 -360 296 C-361.5159375 296.928125 -361.5159375 296.928125 -363.0625 297.875 C-363.701875 298.57625 -364.34125 299.2775 -365 300 C-364.9363921 303.70054409 -364.9363921 303.70054409 -364 307 C-362.96166016 306.70996094 -362.96166016 306.70996094 -361.90234375 306.4140625 C-340.54981444 300.73130766 -318.62434461 300.79341325 -296.6875 300.8125 C-295.51559113 300.81277191 -294.34368225 300.81304382 -293.13626099 300.81332397 C-273.6843592 300.83403212 -254.38269112 301.33818684 -235 303 C-233.7821582 303.10183594 -232.56431641 303.20367187 -231.30957031 303.30859375 C-218.1824384 304.447943 -205.21580114 306.1463495 -192.25 308.5 C-191.1369751 308.70149658 -190.0239502 308.90299316 -188.87719727 309.1105957 C-184.23917501 309.99924376 -179.8678455 310.94112141 -175.484375 312.71875 C-172.00779321 313.99713433 -171.2715681 314.21881949 -168 313 C-166.71490517 311.04442091 -165.80124109 309.03778423 -164.83203125 306.91015625 C-158.75771244 300.57680465 -141.98831899 301.60725279 -133.53466797 300.75 C-131.16802575 300.50799464 -128.80280185 300.25472481 -126.4375 300 C-125.7053125 299.92910156 -124.973125 299.85820312 -124.21875 299.78515625 C-122.47002367 299.59383686 -120.73232844 299.30608012 -119 299 C-117.62530526 296.25061053 -118.65957211 294.79706072 -119.52392578 291.99316406 C-120.32369319 288.64480449 -120.07433894 285.28617132 -119.9375 281.875 C-119.75881607 272.84405735 -120.11024805 262.33293621 -126 255 C-128.86243132 253.76336226 -128.86243132 253.76336226 -132 254 C-134.57798352 255.47184587 -134.57798352 255.47184587 -136.8125 257.8125 C-137.67101562 258.64523437 -138.52953125 259.47796875 -139.4140625 260.3359375 C-151.6902101 272.80410337 -151.6902101 272.80410337 -160 288 C-166.625 288.25 -166.625 288.25 -170 286 C-172.88280794 280.25347556 -172.2208933 273.88757025 -172.125 267.625 C-172.11597656 266.50738281 -172.10695313 265.38976562 -172.09765625 264.23828125 C-172.07418346 261.49196538 -172.04134728 258.74609528 -172 256 C-196.1811843 249.45332906 -223.81856182 251.95112103 -247.12988281 260.02832031 Z M51.65161133 277.89257812 C50.49472557 278.19517044 50.49472557 278.19517044 49.31446838 278.50387573 C46.73667231 279.17846275 44.15934743 279.85483199 41.58203125 280.53125 C39.77205164 281.00541835 37.96204861 281.47949728 36.15202332 281.95349121 C32.32909475 282.95488616 28.50638563 283.9571133 24.68383789 284.95996094 C19.87811601 286.22071669 15.07197835 287.47987792 10.26568794 288.73846436 C-20.88700558 296.8838232 -20.88700558 296.8838232 -51.99499512 305.1978302 C-54.0453863 305.74517104 -56.1004784 306.27512491 -58.15930176 306.7898407 C-59.14998657 307.04248184 -60.14067139 307.29512299 -61.16137695 307.55541992 C-62.03800491 307.77260178 -62.91463287 307.98978363 -63.81782532 308.21354675 C-66.2879883 308.91298328 -66.2879883 308.91298328 -68.3671875 311.58203125 C-68.86476563 312.64808594 -69.36234375 313.71414063 -69.875 314.8125 C-70.4940494 316.05960995 -71.11813581 317.30422694 -71.74609375 318.546875 C-72.25825439 319.59004883 -72.25825439 319.59004883 -72.78076172 320.65429688 C-75.77671157 326.41823082 -79.31523122 331.90306881 -82.69677734 337.4465332 C-83.23898926 338.35234131 -83.78120117 339.25814941 -84.33984375 340.19140625 C-84.82831787 340.99779541 -85.31679199 341.80418457 -85.82006836 342.63500977 C-87.14306899 344.96579278 -87.14306899 344.96579278 -87.35375977 347.67553711 C-87.67364868 348.82614624 -87.67364868 348.82614624 -88 350 C-98.65175258 355.13459487 -111.92308881 356.10586935 -123.48834038 358.0663681 C-128.37189579 358.89841464 -133.25103092 359.75579096 -138.13085938 360.609375 C-144.30592156 361.68895529 -150.48198459 362.76059274 -156.66381836 363.80078125 C-161.69542916 364.64811965 -166.72145572 365.52344646 -171.74492073 366.41776276 C-173.6500699 366.75168183 -175.55703951 367.07538846 -177.46572685 367.38845062 C-180.13159437 367.8271293 -182.78884204 368.30137946 -185.44702148 368.78417969 C-186.22789124 368.90391144 -187.00876099 369.02364319 -187.81329346 369.14700317 C-193.10151689 370.16068726 -195.53134815 372.03466746 -198.72268772 376.36545181 C-206.10173875 385.80825972 -224.50039345 387.98885137 -235.51417542 389.34745789 C-243.15316068 390.22213352 -250.7557993 390.35366514 -258.4375 390.3125 C-259.17056366 390.31034485 -259.90362732 390.3081897 -260.65890503 390.30596924 C-294.1567632 390.14938009 -331.43685028 384.57470754 -360.37890625 366.515625 C-363.0590957 364.8771865 -363.0590957 364.8771865 -366.41796875 363.66796875 C-370.51548893 361.75996317 -373.13733364 359.45522532 -376.3125 356.3125 C-379.62012553 352.5240614 -379.62012553 352.5240614 -384 351 C-384.433125 350.0409375 -384.433125 350.0409375 -384.875 349.0625 C-385.82823451 346.84793921 -385.82823451 346.84793921 -388 346 C-388.96019364 347.58220587 -389.91807798 349.16581331 -390.875 350.75 C-391.40867187 351.63171875 -391.94234375 352.5134375 -392.4921875 353.421875 C-393.23855469 354.69804688 -393.23855469 354.69804688 -394 356 C-394.39960938 356.66515625 -394.79921875 357.3303125 -395.2109375 358.015625 C-396.84467935 362.12424313 -395.57363079 366.72482715 -395 371 C-394.86335938 372.05960938 -394.72671875 373.11921875 -394.5859375 374.2109375 C-393.9155256 380.0452004 -393.9155256 380.0452004 -391.4296875 385.2265625 C-387.37407043 393.09401638 -390.7365214 404.25438172 -392.02148438 412.609375 C-392.84352552 418.3445458 -393.32817109 423.32158735 -392 429 C-373.77598473 450.08363468 -313.39657879 447.72557754 -287 449.6875 C-183.61467565 458.04188589 -183.61467565 458.04188589 -84 436 C-84.01571045 435.25129639 -84.0314209 434.50259277 -84.04760742 433.73120117 C-84.72602088 396.34976074 -78.10232073 362.21767609 -52 334 C-43.89496807 325.62379599 -33.8232625 319.86939068 -22.13574219 318.71777344 C-8.19448206 317.30086885 5.38973114 314.02053088 19.04077148 310.95294189 C21.75149107 310.34564054 24.46377582 309.74550981 27.17614079 309.14560699 C30.44228411 308.42284547 33.70748285 307.69588175 36.97265625 306.96875 C38.17688736 306.70098755 39.38111847 306.4332251 40.62184143 306.15734863 C46.13347665 304.91905401 51.59322385 303.6395787 57 302 C59.69712953 289.12132756 59.69712953 289.12132756 60 276 C57.25259025 276 54.315156 277.19238317 51.65161133 277.89257812 Z M220.875 299 C219.88693359 299.42925781 219.88693359 299.42925781 218.87890625 299.8671875 C217.25119329 300.57488879 215.62541041 301.28702624 214 302 C214 302.66 214 303.32 214 304 C215.30054155 304.86401719 216.64306749 305.665057 218 306.4375 C223.14425921 309.70149991 226.10256442 313.79548277 229.46875 318.8046875 C229.9740625 319.52914063 230.479375 320.25359375 231 321 C231.33 321 231.66 321 232 321 C232.020625 319.72125 232.04125 318.4425 232.0625 317.125 C232.07410156 316.40570312 232.08570313 315.68640625 232.09765625 314.9453125 C232.12649242 312.91814596 232.12649242 312.91814596 231 311 C230.76827173 308.45384991 230.58105471 305.92603775 230.4375 303.375 C230.39431641 302.66859375 230.35113281 301.9621875 230.30664062 301.234375 C230.20055249 299.48981463 230.09977111 297.74493303 230 296 C226.70039859 296 223.85394348 297.69044465 220.875 299 Z M-95.95263672 312.88623047 C-97.17755829 313.0799826 -98.40247986 313.27373474 -99.66452026 313.47335815 C-101.00294525 313.68774387 -102.34133346 313.90235931 -103.6796875 314.1171875 C-105.0534709 314.33663673 -106.42726046 314.55604739 -107.80105591 314.77542114 C-110.68129425 315.23605924 -113.5611932 315.6987604 -116.44091797 316.16259766 C-120.12418956 316.75546205 -123.80861723 317.34077857 -127.49339104 317.92422295 C-130.33195472 318.37496775 -133.16965493 318.83097497 -136.00714493 319.28842545 C-137.36475396 319.50640887 -138.72267115 319.72248227 -140.08089828 319.93658066 C-141.98433894 320.23718115 -143.88648904 320.54591905 -145.78857422 320.85498047 C-147.41048172 321.11479202 -147.41048172 321.11479202 -149.06515503 321.37985229 C-154.93669339 322.62053829 -157.67705144 324.31657685 -161.375 329.0625 C-162.15101563 330.04863281 -162.92703125 331.03476562 -163.7265625 332.05078125 C-164.47679687 333.02402344 -165.22703125 333.99726562 -166 335 C-166.64710938 335.81855469 -167.29421875 336.63710938 -167.9609375 337.48046875 C-171.44220138 341.8966572 -174.76884864 346.39805716 -178 351 C-165.60146385 349.99202906 -153.29324052 348.38341874 -141.0059309 346.4675436 C-137.22573524 345.88076648 -133.44894582 345.3351159 -129.65014648 344.88256836 C-112.65936367 343.27143051 -112.65936367 343.27143051 -98.19830322 335.34454346 C-93.50994634 329.27805354 -87 320.00469949 -87 312 C-90.09974765 312 -92.89116944 312.39960655 -95.95263672 312.88623047 Z M-343 318 C-344.56547073 318.10087921 -344.56547073 318.10087921 -346.16256714 318.20379639 C-350.82277712 318.51978292 -354.24936845 318.95261187 -358 322 C-361.35946243 327.03919364 -360.52357472 332.79667469 -359.5703125 338.62890625 C-357.91698226 345.15037551 -355.08106735 350.52382162 -350 355 C-345.55693043 357.61868067 -340.86328326 359.3396798 -336 361 C-335.17983398 361.28617188 -334.35966797 361.57234375 -333.51464844 361.8671875 C-297.09183964 374.44252835 -249.75655709 383.1916593 -212.984375 367.3828125 C-208.17134683 364.88964203 -205.64793074 361.17753858 -202.6875 356.75 C-202.14061523 355.96093262 -201.59373047 355.17186523 -201.03027344 354.35888672 C-199.90064788 352.72513884 -198.77842711 351.08624688 -197.66357422 349.44238281 C-196.05173836 347.07595987 -194.40933864 344.73450941 -192.75390625 342.3984375 C-191.75187404 340.97447184 -190.75053906 339.55001521 -189.75 338.125 C-189.05136841 337.1364502 -189.05136841 337.1364502 -188.33862305 336.12792969 C-186.2491941 333.10297679 -184.74472467 330.59559325 -184 327 C-187.41545082 324.72303279 -189.57288888 324.41776572 -193.61328125 323.81640625 C-194.28054733 323.71623199 -194.94781342 323.61605774 -195.63529968 323.5128479 C-197.85953503 323.18441979 -200.08542947 322.87110012 -202.3125 322.5625 C-203.48582886 322.39967026 -203.48582886 322.39967026 -204.68286133 322.23355103 C-210.44963868 321.44276387 -216.22220005 320.70548121 -222 320 C-222.72443298 319.91109497 -223.44886597 319.82218994 -224.19525146 319.73059082 C-247.70027759 316.89711196 -271.23363252 316.73600031 -294.875 316.75 C-295.6134314 316.75020016 -296.35186279 316.75040031 -297.1126709 316.75060654 C-301.43603049 316.75293504 -305.75925072 316.76404219 -310.08255386 316.78648186 C-312.0358919 316.79645973 -313.98924476 316.80339392 -315.94259644 316.81019592 C-324.99591147 316.88047088 -333.97171269 317.36552458 -343 318 Z M-379 319 C-380.18752623 323.31827721 -380.90381793 327.5623354 -380 332 C-377.17142929 334.63844898 -377.17142929 334.63844898 -374 336 C-374.64270983 330.0870696 -376.19003784 324.65755469 -378 319 C-378.33 319 -378.66 319 -379 319 Z M195 321 C194.34 324.3 193.68 327.6 193 331 C196.54518884 329.60240095 196.54518884 329.60240095 200 328 C205.96532949 327.58086737 211.43156539 327.59202828 217 330 C215.33150758 326.07578039 213.92811805 322.78157309 210.625 320 C205.04895202 317.87579124 200.44901651 319.25631472 195 321 Z M37.41796875 322.75 C36.19670036 323.01635254 36.19670036 323.01635254 34.95075989 323.28808594 C32.3619138 323.85386632 29.77471803 324.42682578 27.1875 325 C25.42783857 325.38589209 23.66807397 325.77131405 21.90820312 326.15625 C17.60425456 327.09872464 13.30177129 328.04763906 9 329 C9 329.99 9 330.98 9 332 C9.73992187 332.71929688 10.47984375 333.43859375 11.2421875 334.1796875 C14.54102506 337.55328625 16.20223074 340.8673719 18.125 345.125 C18.47046875 345.87257568 18.8159375 346.62015137 19.171875 347.39038086 C21.75115186 353.11069024 23.72353765 358.84372846 25 365 C29.43813225 360.9344117 32.56191927 356.46242915 35.75 351.375 C36.26788086 350.55338379 36.78576172 349.73176758 37.31933594 348.88525391 C46.28592832 335.65336996 46.28592832 335.65336996 51 321 C46.27271936 320.73668759 41.99795039 321.72711791 37.41796875 322.75 Z M-33 339 C-34.485 339.7734375 -34.485 339.7734375 -36 340.5625 C-38.29815778 341.91816752 -38.29815778 341.91816752 -39 345 C-38.11699219 345.21914063 -37.23398437 345.43828125 -36.32421875 345.6640625 C-19.74178612 350.04567198 -6.79055295 358.5827838 5 371 C6.01726194 372.02439228 7.03735638 373.04599523 8.0625 374.0625 C8.701875 374.701875 9.34125 375.34125 10 376 C9.65422497 362.3576034 4.36721899 350.32230184 -4.5 340.125 C-9.87219532 335.55863398 -14.24438 334.45180286 -21.18359375 334.640625 C-25.59916983 335.20405496 -29.1386943 336.85999925 -33 339 Z M95.125 341.5 C93.9184375 342.32177734 93.9184375 342.32177734 92.6875 343.16015625 C91.800625 343.76730469 90.91375 344.37445312 90 345 C83.36272967 349.46392502 76.6927524 353.86342156 69.93359375 358.140625 C66.51016391 360.31046868 63.09756268 362.49673037 59.6875 364.6875 C58.82535889 365.24038696 58.82535889 365.24038696 57.94580078 365.80444336 C54.27136644 368.16581875 50.628117 370.56844806 47 373 C50.25263975 374.62631987 53.31073917 372.87804514 56.61328125 371.83203125 C57.37867722 371.5959465 58.14407318 371.35986176 58.93266296 371.11662292 C61.39480052 370.35545318 63.85363224 369.58415955 66.3125 368.8125 C67.92752493 368.31117373 69.54275729 367.81051517 71.15820312 367.31054688 C74.30474812 366.33605974 77.44912452 365.35497214 80.59228516 364.36962891 C83.38791338 363.49560093 86.18796748 362.64198525 88.99755859 361.81396484 C90.75253662 361.29310303 90.75253662 361.29310303 92.54296875 360.76171875 C93.55770264 360.46612061 94.57243652 360.17052246 95.61791992 359.8659668 C98.14433182 359.13764651 98.14433182 359.13764651 100 357 C101.53885312 351.15235813 101.08736807 344.99927406 101 339 C98.3294667 339 97.32129363 339.98753406 95.125 341.5 Z M205 343 C197.40045984 348.86250241 194.6752221 359.62882772 193.28125 368.796875 C191.95352505 383.91818689 191.74922467 399.2489313 201 412 C203.34148231 412.12213894 203.34148231 412.12213894 206 411 C212.72385392 404.01443919 215.14890999 392.34071761 215 383 C215.33 382.34 215.66 381.68 216 381 C216.89039599 369.03102317 216.16810787 355.51815974 209.28125 345.3203125 C207.92385546 343.71873431 207.92385546 343.71873431 205 343 Z M147.99829102 359.63256836 C146.22036614 360.16541249 144.43875513 360.68612137 142.65356445 361.1940918 C128.41862677 365.13114573 128.41862677 365.13114573 119 376 C117.47780167 377.68317731 115.92297997 379.33858541 114.3125 380.9375 C113.58675781 381.66839844 112.86101562 382.39929688 112.11328125 383.15234375 C110.09496517 384.9169713 108.5041072 386.06719513 106 387 C102.3125 386.75 102.3125 386.75 99 386 C98.505 385.01 98.505 385.01 98 384 C97.34 384 96.68 384 96 384 C95.505 380.535 95.505 380.535 95 377 C88.29733007 378.73403343 81.67265146 380.68823439 75.0625 382.7421875 C74.25192139 382.99389709 73.44134277 383.24560669 72.60620117 383.50494385 C69.23375945 384.55384707 65.86203568 385.60499505 62.49169922 386.66064453 C59.99560724 387.44155846 57.49830618 388.21838721 55 388.9921875 C54.18233154 389.24546814 53.36466309 389.49874878 52.5222168 389.75970459 C45.70738851 391.84231102 38.83678778 393.66942178 31.9140625 395.35812378 C27.53762493 396.37456281 27.53762493 396.37456281 24 399 C22.84344299 408.0313496 24.12535245 419.37605734 27 428 C33.59145346 426.59658262 40.05828181 424.93010195 46.5390625 423.0859375 C48.06209991 422.65550896 48.06209991 422.65550896 49.61590576 422.21638489 C52.95308269 421.27209668 56.28908844 420.32374794 59.625 419.375 C60.77107727 419.0499649 61.91715454 418.72492981 63.09796143 418.39004517 C87.4911573 411.47187677 111.83901874 404.39949222 136.17498779 397.28291321 C137.10643616 397.01061386 138.03788452 396.73831451 138.99755859 396.45776367 C139.86188004 396.19818375 140.72620148 395.93860382 141.61671448 395.67115784 C144 395 144 395 146.10386658 394.59141541 C149.73538612 393.85264711 150.84794403 393.22553165 152.95629883 390.09838867 C153.69916138 388.27658081 153.69916138 388.27658081 154.45703125 386.41796875 C154.73093185 385.76677567 155.00483246 385.11558258 155.28703308 384.44465637 C156.15373168 382.36821653 156.98322361 380.27912737 157.8125 378.1875 C158.38758178 376.79263113 158.96503338 375.39873681 159.54492188 374.00585938 C161.05999465 370.3490461 162.5362849 366.67771041 164 363 C164.58140747 361.63935425 164.58140747 361.63935425 165.17456055 360.2512207 C166.17212583 357.93019116 166.17212583 357.93019116 166 355 C160.11795016 355 153.61656403 357.92929569 147.99829102 359.63256836 Z M-52 360 C-54.91171789 363.66980204 -54.91171789 363.66980204 -56 368 C-54.91203125 367.96519531 -53.8240625 367.93039062 -52.703125 367.89453125 C-35.80994598 367.51256831 -21.04520602 370.73803825 -8.328125 382.6796875 C-7.88984375 383.11539062 -7.4515625 383.55109375 -7 384 C-6.66442642 380.86041941 -6.66442642 380.86041941 -9.0546875 378.73046875 C-22.05931203 367.00469233 -34.25105981 360.56435422 -52 360 Z M175 377 C174.67725098 377.77190674 174.35450195 378.54381348 174.02197266 379.33911133 C172.82054072 382.20833471 171.61630086 385.07635837 170.41015625 387.94360352 C169.63324602 389.79287212 168.85957398 391.64350006 168.0859375 393.49414062 C167.35117187 395.23920898 167.35117187 395.23920898 166.6015625 397.01953125 C166.15119629 398.09307861 165.70083008 399.16662598 165.23681641 400.27270508 C162.82124041 405.59927426 162.82124041 405.59927426 160.0546875 406.94921875 C159.33539062 407.19285156 158.61609375 407.43648437 157.875 407.6875 C157.15054688 407.93886719 156.42609375 408.19023438 155.6796875 408.44921875 C155.12539063 408.63097656 154.57109375 408.81273437 154 409 C154.59410465 413.58683741 156.49634356 417.22288748 158.75 421.1875 C159.25273438 422.13012695 159.25273438 422.13012695 159.765625 423.09179688 C161.31781974 425.84047506 162.60266648 427.75785398 165.3203125 429.4140625 C174.04300436 431.32135664 185.23672325 430.83578525 194 429 C194.495 428.01 194.495 428.01 195 427 C194.21625 426.7525 193.4325 426.505 192.625 426.25 C189.53345968 424.77783794 189.30679366 424.04918521 188 421 C187.37480469 420.25234375 186.74960937 419.5046875 186.10546875 418.734375 C177.1924838 407.15906987 176.97295502 390.97982744 176 377 C175.67 377 175.34 377 175 377 Z M-64 387 C-67.16935062 398.36155602 -68.38704565 409.19300894 -68.375 421 C-68.37628906 422.21518311 -68.37757813 423.43036621 -68.37890625 424.68237305 C-68.29098506 431.98232985 -67.58036042 438.87110142 -66 446 C-66.66 446 -67.32 446 -68 446 C-68.21398437 446.61359375 -68.42796875 447.2271875 -68.6484375 447.859375 C-70.50942937 450.80684189 -72.35260117 451.18456782 -75.625 452.25 C-77.12933594 452.75273438 -77.12933594 452.75273438 -78.6640625 453.265625 C-79.43492187 453.50796875 -80.20578125 453.7503125 -81 454 C-78.92639095 460.69845619 -73.79536816 463.53002331 -68 467 C-57.55324375 471.98721475 -46.32020132 472.77589754 -35.34375 468.98046875 C-22.30282296 463.52501427 -15.62884515 455.93845961 -9.1875 443.5 C-5.0859173 431.41112466 -4.97001311 418.87224846 -10 407 C-15.61531796 395.9829903 -23.35991059 389.13968763 -35 385 C-44.16159649 382.04464629 -55.23612402 383.53569138 -64 387 Z M-5 385 C-4.67 385.99 -4.34 386.98 -4 388 C-4 387.01 -4 386.02 -4 385 C-4.33 385 -4.66 385 -5 385 Z M131.23046875 415.00366211 C129.79819695 415.41255676 129.79819695 415.41255676 128.33699036 415.82971191 C127.29765854 416.14243042 126.25832672 416.45514893 125.1875 416.77734375 C123.54118843 417.25379333 123.54118843 417.25379333 121.86161804 417.73986816 C118.23698934 418.79224359 114.61867036 419.86483297 111 420.9375 C108.49495657 421.66880173 105.9894988 422.39868552 103.48364258 423.12719727 C98.28082043 424.64168188 93.08031086 426.1637364 87.88134766 427.69140625 C80.2033347 429.94619202 72.51533317 432.16527844 64.82421875 434.375 C63.6239505 434.7199501 62.42368225 435.06490021 61.18704224 435.42030334 C58.83345793 436.09661686 56.47985124 436.7728525 54.1262207 437.44900513 C48.64944278 439.02336006 43.17399316 440.60228721 37.69921875 442.18359375 C36.28282356 442.59188416 36.28282356 442.59188416 34.83781433 443.00842285 C33.97569839 443.25757446 33.11358246 443.50672607 32.2253418 443.76342773 C31.47713669 443.97942123 30.72893158 444.19541473 29.95805359 444.41795349 C28.29518555 444.91225382 26.64575717 445.45141428 25 446 C24.16563773 448.50917706 23.49606207 450.93745243 22.875 453.5 C20.49322425 462.48766974 16.58609415 470.22176573 11.97387695 478.25512695 C10.92078681 480.14192446 9.95354715 482.06127143 9 484 C17.83716276 482.71337247 26.27489244 480.30406033 34.80767822 477.74966431 C38.32602509 476.69666361 41.84823826 475.65686674 45.37023926 474.61616516 C47.32931986 474.03724721 49.28821742 473.45770955 51.24694824 472.87760925 C64.35817502 468.99789445 77.49300699 465.19909879 90.62551498 461.39221191 C93.85245419 460.45662346 97.07917629 459.52028753 100.3059082 458.58398438 C101.55578018 458.22142548 102.80565216 457.85886658 104.09339905 457.48532104 C106.58413172 456.76239725 109.07464365 456.03871248 111.56492615 455.3142395 C117.54454273 453.57584614 123.5262903 451.84671608 129.51646614 450.14511204 C132.40557115 449.32377946 135.29328631 448.49762245 138.18088913 447.67102623 C139.5665642 447.2758233 140.95291425 446.88297877 142.33995438 446.49259377 C144.25874431 445.95238201 146.17509317 445.40352211 148.09130859 444.85424805 C149.7337001 444.38851631 149.7337001 444.38851631 151.40927124 443.91337585 C154.12084401 443.16699922 154.12084401 443.16699922 156 441 C155.278125 440.34 154.55625 439.68 153.8125 439 C148.08358824 433.22281089 144.87004162 425.85410771 141.52734375 418.5390625 C138.81424457 414.02879532 136.10597866 413.57215323 131.23046875 415.00366211 Z M8 441 C9 444 9 444 9 444 Z M-353 458 C-350.77834233 463.69687637 -348.73547099 467.94102486 -344 472 C-342.6078125 473.2684375 -342.6078125 473.2684375 -341.1875 474.5625 C-329.82463408 483.7857932 -314.19125389 486.08814726 -300 485 C-286.97652193 482.91675789 -274.23177326 478.79950263 -265 469 C-264.67 468.34 -264.34 467.68 -264 467 C-264.85513939 466.93815521 -264.85513939 466.93815521 -265.72755432 466.87506104 C-292.58628305 464.92489485 -319.34779377 462.93525789 -346 459 C-347.43217561 458.79476144 -348.86444591 458.59018069 -350.296875 458.38671875 C-351.18890625 458.25910156 -352.0809375 458.13148438 -353 458 Z M7 445 C6.50371094 446.05058594 6.00742187 447.10117187 5.49609375 448.18359375 C-3.57230784 467.04820522 -3.57230784 467.04820522 -11 472 C-11 472.66 -11 473.32 -11 474 C-11.57363281 474.28101563 -12.14726563 474.56203125 -12.73828125 474.8515625 C-14.92966897 475.96428787 -17.0543609 477.15495323 -19.1875 478.375 C-34.94366913 487.08844427 -49.65260768 489.19567941 -67.12890625 484.2578125 C-78.24250735 480.82778937 -88.39430842 473.65447231 -95 464 C-96.04451438 462.02288349 -97.05698138 460.02749004 -98 458 C-101.96 458.66 -105.92 459.32 -110 460 C-108.69641082 464.74032429 -106.8724016 467.77446804 -103.6875 471.5 C-102.92824219 472.3971875 -102.16898437 473.294375 -101.38671875 474.21875 C-100.59910156 475.1365625 -99.81148438 476.054375 -99 477 C-98.20335937 478.00933594 -97.40671875 479.01867187 -96.5859375 480.05859375 C-85.49127873 492.67834912 -69.45775283 497.97887272 -53.1875 499.3125 C-37.14007922 498.68383816 -21.22849355 492.6297324 -10.0234375 480.9375 C-9.47945312 480.298125 -8.93546875 479.65875 -8.375 479 C-7.82585937 478.360625 -7.27671875 477.72125 -6.7109375 477.0625 C-5.86402344 476.0415625 -5.86402344 476.0415625 -5 475 C-4.34515625 474.24074219 -3.6903125 473.48148438 -3.015625 472.69921875 C-0.68880802 469.5832681 1.00474993 466.32788394 2.625 462.8125 C2.93058838 462.15628662 3.23617676 461.50007324 3.55102539 460.82397461 C5.86943209 455.67230981 7.35057827 450.63273947 8 445 C7.67 445 7.34 445 7 445 Z M-249.52734375 472.9140625 C-250.98251445 475.54385387 -250.98251445 475.54385387 -252 478 C-252.33 478.66 -252.66 479.32 -253 480 C-243.95048869 478.44810391 -235.18893422 475.89606313 -226.375 473.375 C-224.87900649 472.95016768 -223.38291342 472.52568582 -221.88671875 472.1015625 C-218.25665273 471.07174234 -214.62796434 470.03719873 -211 469 C-211 468.67 -211 468.34 -211 468 C-215.71356013 467.75149533 -220.42326446 467.57079818 -225.1418457 467.45068359 C-226.74375842 467.40059858 -228.3452185 467.33250017 -229.94555664 467.24560547 C-241.14745134 466.36313465 -241.14745134 466.36313465 -249.52734375 472.9140625 Z " fill="#000000" transform="translate(577,203)"/>
<path d="M0 0 C1.52685294 0.00883741 3.05371054 0.01689647 4.58057117 0.02428532 C8.96705103 0.04931291 13.35326756 0.09003978 17.73959017 0.13439798 C20.84988399 0.16530841 23.96019437 0.19315551 27.07052231 0.22040939 C42.89631029 0.36057484 58.72170778 0.53224603 74.54707791 0.71268481 C79.54475738 0.76965417 84.54244557 0.82579827 89.54014015 0.88142586 C90.26213654 0.88946322 90.98413294 0.89750058 91.72800801 0.9057815 C93.19667093 0.92212821 94.66533387 0.93847347 96.13399682 0.9548173 C109.79530917 1.10694081 123.4565926 1.26154125 137.11786715 1.41701753 C148.71397255 1.54892902 160.31010122 1.67860187 171.90625 1.80664062 C185.51150289 1.95686326 199.11673727 2.10863172 212.72194797 2.262631 C214.1880177 2.27922118 215.65408746 2.29580922 217.12015724 2.3123951 C217.84066023 2.32054671 218.56116322 2.32869833 219.30349964 2.33709697 C224.25972948 2.39307017 229.21597019 2.44799927 234.17221642 2.50250053 C248.42001976 2.65962793 262.66758505 2.82774181 276.91491514 3.02390701 C284.084075 3.12130252 291.25308742 3.19853217 298.42264169 3.26003426 C302.93534199 3.30234817 307.44774704 3.36037076 311.96021616 3.42233098 C314.03256535 3.44754887 316.10500558 3.466332 318.17747629 3.47783172 C339.68956727 3.60378213 357.33475955 8.5104036 375.69995117 20.16381836 C376.57006836 20.71295898 377.44018555 21.26209961 378.33666992 21.82788086 C401.16493653 37.31970902 414.92594923 60.9052622 428.08276367 84.51147461 C430.89184693 89.54722046 433.91123165 94.42542449 436.96557617 99.31616211 C439.20378198 102.99105407 441.23961698 106.75816721 443.27026367 110.55053711 C444.68278375 113.13243856 446.17135907 115.64916555 447.69995117 118.16381836 C449.72318451 121.49237476 451.64638264 124.85352343 453.49682617 128.28100586 C456.59261099 133.98205964 459.75630186 139.64209718 462.94995117 145.28881836 C463.51206299 146.28292725 464.0741748 147.27703613 464.65332031 148.30126953 C470.60569248 158.80123717 476.69740177 169.21484144 482.94995117 179.53881836 C484.89659955 182.76515759 486.72891328 186.03209116 488.51245117 189.35131836 C490.94838024 193.87153318 493.53955502 198.27399906 496.19995117 202.66381836 C499.38042965 207.91180588 502.4049456 213.21142505 505.30541992 218.62084961 C506.70764491 221.17784811 508.18586474 223.67163992 509.69995117 226.16381836 C511.7353407 229.51405901 513.66006937 232.89660078 515.51245117 236.35131836 C517.94838051 240.8715337 520.53956743 245.27399205 523.19995117 249.66381836 C526.31410303 254.80265099 529.26814451 259.99111259 532.10620117 265.28881836 C534.05286399 268.80044541 536.11956812 272.2302639 538.19995117 275.66381836 C541.27300191 280.74254562 544.2290497 285.85567161 547.03979492 291.08569336 C549.2310917 295.14861539 551.46214222 299.1888642 553.69995117 303.22631836 C554.13670166 304.01482178 554.57345215 304.8033252 555.0234375 305.61572266 C557.21610762 309.55706686 559.44981678 313.45356036 561.82495117 317.28881836 C576.74346049 341.83081678 588.0381572 368.75129294 583.44995117 397.85131836 C583.31355225 398.71998535 583.17715332 399.58865234 583.03662109 400.48364258 C578.89262154 425.79488437 567.07519017 447.27068278 554.12963867 469.05444336 C551.98294219 472.67081417 549.89572408 476.315948 547.82495117 479.97631836 C544.0755075 486.56808224 540.17952833 493.06653929 536.26733398 499.56274414 C531.75940771 507.05089481 527.31935854 514.57717272 522.90014648 522.11791992 C521.71860283 524.13202404 520.53409336 526.14434894 519.34838867 528.15600586 C514.44327925 536.47900518 509.56502281 544.81734928 504.69995117 553.16381836 C484.21467857 588.30188509 484.21467857 588.30188509 474.51245117 603.91381836 C471.56019066 608.68644504 468.84171389 613.53694498 466.19604492 618.48413086 C464.63167973 621.2861009 462.94360739 623.97011751 461.19995117 626.66381836 C458.35209457 631.06618184 455.81780488 635.55909428 453.34448242 640.17944336 C451.4823903 643.55863191 449.51052614 646.86414525 447.51245117 650.16381836 C444.0675993 655.85407336 440.70562432 661.5863037 437.38745117 667.35131836 C433.44022206 674.19569899 429.44280058 681.00789838 425.38745117 687.78881836 C424.90816162 688.59343506 424.42887207 689.39805176 423.93505859 690.22705078 C421.13460937 694.89317392 418.19861033 699.43651959 415.15771484 703.94897461 C413.28468526 706.79474992 411.55273793 709.71257506 409.81982422 712.64501953 C404.79431404 721.12597854 399.35032972 729.02616344 393.02026367 736.58520508 C392.10043182 737.68498924 391.19518497 738.79706729 390.30151367 739.91821289 C386.75231847 744.27070927 382.97611826 747.53195192 378.32495117 750.66381836 C377.63087158 751.13303711 376.93679199 751.60225586 376.22167969 752.08569336 C350.77087452 768.7909215 322.15743145 767.30711754 292.83096683 767.37908602 C289.0984597 767.38928512 285.36597459 767.4049589 281.63348389 767.4198761 C274.34100678 767.44814237 267.04852226 767.47135538 259.75602181 767.49265386 C253.81281017 767.51009233 247.86960685 767.5293332 241.92640495 767.54981613 C241.07581173 767.55274473 240.2252185 767.55567332 239.34884972 767.55869066 C237.61989092 767.56464884 235.89093213 767.57061005 234.16197335 767.57657425 C217.98511241 767.63214931 201.80823747 767.68184331 185.63135176 767.72957925 C171.82924786 767.77045754 158.02717067 767.81674128 144.22509766 767.86694336 C128.12682148 767.92549699 112.02853901 767.98028978 95.93023151 768.02954423 C94.20294279 768.03484105 92.47565409 768.04014365 90.7483654 768.04545212 C89.89896181 768.04806195 89.04955822 768.05067179 88.17441513 768.05336071 C82.2650217 768.07177482 76.35564104 768.09279292 70.44626045 768.11491776 C63.20500202 768.14197018 55.9637433 768.16490548 48.72245676 768.18300273 C45.04617038 768.19228898 41.36991137 768.2031464 37.69364738 768.21910667 C28.36193402 768.25857285 19.03147066 768.2447904 9.69995117 768.16381836 C8.96322736 768.15815493 8.22650354 768.1524915 7.46745476 768.14665645 C2.79652538 768.10840271 -1.87315992 768.04488936 -6.54334158 767.9526339 C-8.02280338 767.92582218 -9.50238902 767.90496934 -10.98202764 767.89098294 C-31.27815711 767.68141981 -49.56768025 761.85245861 -66.30004883 750.16381836 C-66.99485352 749.68170898 -67.6896582 749.19959961 -68.40551758 748.70288086 C-82.94191882 738.19953306 -93.58654829 725.68226847 -102.30004883 710.16381836 C-102.81196777 709.25647949 -103.32388672 708.34914063 -103.85131836 707.41430664 C-106.81053719 702.16413545 -109.75377321 696.90524317 -112.68676758 691.64038086 C-116.05615521 685.59368628 -119.45294794 679.56291217 -122.86254883 673.53881836 C-123.39678467 672.59482178 -123.93102051 671.6508252 -124.48144531 670.67822266 C-125.55565142 668.7803016 -126.62995107 666.88243348 -127.7043457 664.98461914 C-129.28520693 662.19005509 -130.86339026 659.39399677 -132.44067383 656.59741211 C-138.00271658 646.73875582 -143.59138842 636.89603253 -149.21600342 627.07293701 C-155.26707699 616.50479865 -161.26707023 605.9098828 -167.20410156 595.27709961 C-171.72619982 587.17898133 -176.28362929 579.10135359 -180.86328125 571.03564453 C-183.40809462 566.54565057 -185.91843693 562.0409006 -188.37817383 557.50366211 C-190.83941854 552.97484382 -193.40580168 548.52504123 -196.05004883 544.10131836 C-199.92322544 537.56720866 -203.66565916 530.97212734 -207.3359375 524.32226562 C-210.80582079 518.0388545 -214.32632177 511.78511332 -217.86254883 505.53881836 C-218.42047119 504.55316895 -218.97839355 503.56751953 -219.55322266 502.55200195 C-220.640842 500.63059987 -221.72848762 498.70921266 -222.81616211 496.7878418 C-224.81686686 493.24990585 -226.80953614 489.70749556 -228.80004883 486.16381836 C-231.82440679 480.7815101 -234.85702756 475.40392236 -237.89501953 470.02929688 C-239.0007976 468.07302067 -240.10610159 466.11647642 -241.2109375 464.15966797 C-244.04265138 459.14641852 -246.88333965 454.13863103 -249.74145508 449.14038086 C-267.15844357 418.63999696 -279.12076217 389.1803994 -269.87329102 353.22094727 C-264.69817427 334.64959561 -255.25765994 318.59339818 -244.78833008 302.52709961 C-243.28527478 300.14035826 -241.93912427 297.71508094 -240.61254883 295.22631836 C-237.34136113 289.11663975 -233.76209573 283.20669964 -230.18286133 277.2746582 C-226.2900178 270.82117281 -222.43965893 264.3439879 -218.61254883 257.85131836 C-214.68572069 251.19268363 -210.7405607 244.54639749 -206.75244141 237.92431641 C-203.40401489 232.35574578 -200.1018099 226.76015192 -196.80004883 221.16381836 C-193.15428111 214.98440931 -189.50143771 208.81009015 -185.80004883 202.66381836 C-179.9032938 192.86816819 -174.10953812 183.01136801 -168.30004883 173.16381836 C-166.05067449 169.3509487 -163.80079645 165.53837755 -161.55004883 161.72631836 C-161.00525879 160.80351074 -160.46046875 159.88070312 -159.89916992 158.92993164 C-156.84692677 153.76495378 -153.77397965 148.61339215 -150.67504883 143.47631836 C-146.83105613 137.10231486 -143.10566891 130.66248496 -139.38769531 124.21435547 C-136.19207491 118.68083059 -132.93854147 113.18630318 -129.63720703 107.71533203 C-126.88731537 103.15490731 -124.18027526 98.57069977 -121.48754883 93.97631836 C-117.29818271 86.83182837 -113.04678451 79.72602894 -108.77490234 72.63061523 C-105.88710207 67.82832586 -103.02994659 63.01005902 -100.20605469 58.16992188 C-94.01560891 47.56935864 -87.77170294 38.13130507 -79.30004883 29.16381836 C-78.61168945 28.3994043 -77.92333008 27.63499023 -77.21411133 26.84741211 C-63.64948793 12.34990569 -43.90542281 3.29954564 -24.32661438 1.06077576 C-23.58357475 0.97555395 -22.84053511 0.89033213 -22.07497913 0.80252784 C-14.71315134 0.0151532 -7.39905187 -0.08076089 0 0 Z M-55.30004883 30.16381836 C-56.68643555 31.06100586 -56.68643555 31.06100586 -58.10083008 31.97631836 C-73.05847098 42.20376513 -80.83797772 57.4702692 -89.45874023 72.89135742 C-91.64580618 76.77831473 -93.91597773 80.60622779 -96.23754883 84.41381836 C-99.29327979 89.47726466 -102.30771226 94.56279205 -105.30004883 99.66381836 C-110.40545885 108.36503253 -115.579598 117.02411064 -120.80786133 125.65209961 C-124.14799683 131.17763805 -127.38546233 136.75931467 -130.61254883 142.35131836 C-134.33840907 148.80696076 -138.11122675 155.229345 -141.9621582 161.61108398 C-144.71228831 166.17191922 -147.41958235 170.75652738 -150.11254883 175.35131836 C-153.80332708 181.64552316 -157.53899191 187.91136831 -161.30004883 194.16381836 C-164.99848194 200.31222129 -168.67238652 206.47338816 -172.30004883 212.66381836 C-176.43094559 219.7129938 -180.62765092 226.72112641 -184.83911133 233.72241211 C-188.02213636 239.01929222 -191.17561099 244.33219152 -194.30004883 249.66381836 C-197.86662836 255.74924552 -201.47657264 261.80710587 -205.11254883 267.85131836 C-210.00198914 275.97929105 -214.83927078 284.13695298 -219.65698242 292.30761719 C-222.31917456 296.82008479 -224.98886871 301.32715723 -227.6965332 305.8125 C-228.75159695 307.5621144 -229.79977193 309.31570884 -230.84692383 311.07006836 C-232.20211838 313.34030881 -233.56821637 315.60281148 -234.9465332 317.85913086 C-251.40835967 344.83872969 -260.76242805 371.53758646 -253.60400391 403.24707031 C-251.17929964 412.72703205 -247.22485208 420.55650171 -242.36254883 428.97631836 C-241.65090215 430.23271033 -240.94061072 431.48987093 -240.23168945 432.74780273 C-238.87208753 435.15599352 -237.50494206 437.55958744 -236.12988281 439.95898438 C-234.59529544 442.64671332 -233.08353985 445.34428723 -231.58911133 448.05444336 C-229.34130265 452.11759116 -226.98756956 456.11159228 -224.61254883 460.10131836 C-220.71632827 466.68707512 -216.94839215 473.33329974 -213.24902344 480.03125 C-204.76776882 495.38207692 -196.05488767 510.60279908 -187.34133911 525.82254028 C-181.97100793 535.20606012 -176.6613629 544.62234225 -171.3894043 554.06152344 C-166.89950056 562.1003139 -162.37697533 570.12019279 -157.84228516 578.13378906 C-154.47179042 584.0901377 -151.1097906 590.05111359 -147.75854492 596.01831055 C-145.53605289 599.97323258 -143.30519047 603.92332624 -141.06958008 607.87084961 C-140.49852539 608.87954102 -139.9274707 609.88823242 -139.33911133 610.92749023 C-138.22396416 612.89665849 -137.10812767 614.86543661 -135.99145508 616.83374023 C-133.35584658 621.48845971 -130.75168716 626.15651321 -128.20239258 630.85913086 C-125.74780093 635.37626968 -123.18740508 639.81412369 -120.55004883 644.22631836 C-116.6746857 650.76411674 -112.93111887 657.36342474 -109.25756836 664.01635742 C-105.30459528 671.1722601 -101.30304858 678.30010647 -97.2578125 685.40429688 C-94.54024637 690.1782276 -91.85741895 694.96340743 -89.26098633 699.80444336 C-76.94005619 722.55093185 -59.12005026 739.69689772 -34.21801758 748.21850586 C-22.53355203 751.43441381 -10.33448742 751.3129294 1.69702148 751.29321289 C3.06066654 751.29454788 4.42431124 751.29630337 5.78795528 751.29843712 C9.50108018 751.30292095 13.21417774 751.3011063 16.92730308 751.2980175 C20.12695685 751.29613013 23.32660484 751.29786072 26.52625841 751.29958034 C36.1625185 751.3047145 45.79875902 751.30013631 55.43501663 751.29279327 C60.951052 751.2886107 66.46708732 751.28630111 71.98312378 751.28411865 C129.29869806 751.25917178 186.61395715 751.10792845 243.92885983 750.8300854 C250.79146868 750.79717438 257.65408702 750.76891149 264.51672363 750.74249268 C272.90233061 750.7100032 281.2878665 750.67021908 289.67339391 750.62122893 C293.95703662 750.59631151 298.2406379 750.57426459 302.52433205 750.56044006 C306.46089353 750.54757676 310.39729805 750.52550329 314.33377218 750.4964273 C315.75063499 750.48747891 317.16752258 750.48169908 318.5844121 750.47960687 C342.73759139 750.43746193 361.14668995 744.42659529 378.57495117 727.44116211 C387.72092681 718.114381 394.02602884 706.48875507 400.62182617 695.32006836 C403.59189725 690.30830928 406.69081468 685.38663349 409.82495117 680.47631836 C414.8976435 672.50740399 419.73868612 664.42487672 424.48217773 656.2565918 C426.54138306 652.71779709 428.62181457 649.19151689 430.69995117 645.66381836 C431.53729731 644.24070396 432.37453707 642.81752698 433.21166992 641.39428711 C433.83114502 640.34120361 433.83114502 640.34120361 434.46313477 639.2668457 C435.6739723 637.20799166 436.88430126 635.14883952 438.09448242 633.08959961 C443.34141531 624.1629995 448.60366975 615.24555664 453.87402344 606.33276367 C456.82713497 601.33753738 459.7744584 596.33902162 462.7121582 591.3347168 C468.99732056 580.62886628 475.33448008 569.95825761 481.88745117 559.41381836 C484.83971168 554.64119168 487.55818845 549.79069174 490.20385742 544.84350586 C492.23572261 541.20418596 494.49276508 537.7315307 496.79370117 534.25756836 C499.04008624 530.61179587 501.05268998 526.86419981 503.08959961 523.09838867 C505.64897648 518.43439383 508.35779551 513.86214802 511.07495117 509.28881836 C511.64221924 508.33064209 512.2094873 507.37246582 512.79394531 506.38525391 C516.46246137 500.20315402 520.20974311 494.07758928 524.00463867 487.97241211 C526.20298919 484.33044432 528.19820836 480.59390655 530.20385742 476.84350586 C531.76822262 474.04153582 533.45629495 471.35751921 535.19995117 468.66381836 C538.04642884 464.26358651 540.58397608 459.7771678 543.04370117 455.15209961 C544.58762312 452.36648572 546.23409328 449.66582407 547.92016602 446.96459961 C563.20387431 422.30386776 572.46759819 393.03988029 565.85620117 364.02319336 C559.87791672 342.68159702 546.27634811 323.03138465 535.17651367 304.11303711 C531.9533515 298.61266014 528.78701841 293.08157512 525.63745117 287.53881836 C520.93273049 279.26352959 516.12120605 271.05574548 511.23876953 262.8840332 C508.06799427 257.55777797 505.05056884 252.16912433 502.10180664 246.71704102 C500.22890802 243.30589964 498.2324875 239.98141841 496.19995117 236.66381836 C493.08330581 231.52654792 490.13168005 226.33637892 487.29370117 221.03881836 C484.98049302 216.86597227 482.4954421 212.80147245 480.02294922 208.72167969 C477.24428022 204.11875663 474.63542308 199.44567644 472.09448242 194.70678711 C470.25493108 191.35231114 468.26703077 188.09679352 466.28027344 184.828125 C464.75890229 182.26320559 463.31972335 179.67061436 461.90307617 177.04663086 C458.80729136 171.34557708 455.64360048 165.68553953 452.44995117 160.03881836 C451.88783936 159.04470947 451.32572754 158.05060059 450.74658203 157.02636719 C444.79420986 146.52639955 438.70250057 136.11279528 432.44995117 125.78881836 C430.5033028 122.56247913 428.67098907 119.29554556 426.88745117 115.97631836 C424.45152183 111.45610302 421.86033491 107.05364467 419.19995117 102.66381836 C416.60231781 98.3773212 414.06762284 94.08347214 411.69995117 89.66381836 C401.85127687 71.35783371 390.42906453 52.01229919 373.69995117 39.16381836 C372.96647461 38.59405273 372.23299805 38.02428711 371.47729492 37.43725586 C353.6524217 24.27873156 335.41545337 20.13034413 313.65214539 19.92967224 C312.60732351 19.91656716 311.56250163 19.90346208 310.48601848 19.88995987 C307.01789495 19.84751621 303.54973592 19.81119213 300.08154297 19.77490234 C297.57743923 19.74555553 295.07333977 19.71584178 292.56924438 19.68579102 C286.47640845 19.61371483 280.38353908 19.54568557 274.29063495 19.47965746 C269.29539585 19.42543859 264.30017859 19.36950253 259.30497169 19.3123951 C258.230092 19.30010921 258.230092 19.30010921 257.13349757 19.28757511 C255.67600971 19.27090926 254.21852189 19.25423978 252.76103411 19.23756672 C239.08181755 19.0812838 225.40254624 18.93031731 211.72325031 18.78116686 C200.17384946 18.65511782 188.62450726 18.52456195 177.07519531 18.390625 C138.49664532 17.94378715 99.91799469 17.53573164 61.33833981 17.19629955 C57.82400196 17.16492581 54.30967841 17.1322918 50.79535675 17.09915924 C39.06339226 16.98923215 27.33169927 16.89799835 15.59931374 16.84880257 C12.32596501 16.83454335 9.05289201 16.81141963 5.77966881 16.77950859 C-15.75912754 16.57698203 -37.12876708 16.75168183 -55.30004883 30.16381836 Z " fill="#000000" transform="translate(338.300048828125,106.836181640625)"/>
<path d="M0 0 C1.27307007 0.00238174 2.54614014 0.00476349 3.85778809 0.00721741 C16.05530513 0.0441363 28.25043439 0.21544104 40.44635487 0.40740299 C67.07398147 0.8264372 93.70190419 1.11923422 120.33203125 1.32421875 C121.00057947 1.32939097 121.66912769 1.33456319 122.35793495 1.33989215 C135.23761212 1.4395198 148.1173079 1.53649018 160.99707031 1.6244812 C175.03733833 1.72051169 189.07738275 1.82716351 203.11733246 1.96262264 C209.86246588 2.02718286 216.60747703 2.08363045 223.3527832 2.12548828 C229.75903655 2.16537354 236.16500142 2.21964382 242.57099891 2.28960657 C245.95098157 2.32607656 249.33048969 2.35427178 252.71067047 2.36973572 C269.58757669 2.45201766 285.88410635 2.54810078 301.12890625 10.7578125 C301.78673096 11.10175049 302.44455566 11.44568848 303.12231445 11.80004883 C316.66987446 19.09615431 329.6206438 29.95719273 337.87890625 43.0703125 C338.65644147 44.23728823 339.43654424 45.40255596 340.21875 46.56640625 C346.77425504 56.46756691 352.68887851 66.65054103 358.4765625 77.015625 C361.94908836 83.22600691 365.52969634 89.37021244 369.12890625 95.5078125 C373.35485836 102.72173021 377.53486677 109.95493347 381.61157227 117.25415039 C387.31277506 127.44729038 393.13578018 137.58328521 399.19140625 147.5703125 C403.03013026 153.91255217 406.60050083 160.42071661 409.87890625 167.0703125 C406.83739521 166.14699665 403.86806274 165.14855765 400.87890625 164.0703125 C400.25193848 163.84456543 399.6249707 163.61881836 398.97900391 163.38623047 C396.86853374 162.6063069 394.78045284 161.78078713 392.69140625 160.9453125 C392.01464844 160.699021 391.33789062 160.45272949 390.640625 160.19897461 C384.56320188 157.68533453 382.05677037 153.66194073 378.87890625 148.0703125 C378.37657471 147.20905762 377.87424316 146.34780273 377.35668945 145.46044922 C375.75464323 142.67767005 374.18846965 139.87710071 372.62890625 137.0703125 C368.75528838 130.15608916 364.85938066 123.26205141 360.81640625 116.4453125 C357.19412286 110.33270928 353.64413691 104.18259645 350.12890625 98.0078125 C325.85665483 51.19324752 325.85665483 51.19324752 283.19140625 23.3203125 C274.78758989 21.12690368 266.67452813 20.88459874 258.02734375 20.7890625 C256.67844736 20.77109851 255.32955524 20.75281188 253.98066711 20.73423767 C250.21118964 20.68388114 246.44166059 20.64006932 242.67208481 20.59778976 C240.23178305 20.57006112 237.79150476 20.54076277 235.35122681 20.51101685 C181.04025569 19.85213835 126.72534291 19.47081555 72.41148567 19.14107704 C66.22741649 19.10351066 60.04335673 19.06520839 53.85931396 19.02349854 C42.01907569 18.94366718 30.1789864 18.87614398 18.33853149 18.83914185 C14.9893174 18.82823674 11.64025266 18.81056781 8.29110718 18.78659058 C4.47786076 18.75961865 0.66485042 18.74697457 -3.148489 18.74617577 C-5.12331365 18.74237852 -7.09809445 18.72402959 -9.0728302 18.70491028 C-23.88921401 18.74212192 -36.23485835 23.37413293 -48.12109375 32.0703125 C-49.04921875 32.74707031 -49.04921875 32.74707031 -49.99609375 33.4375 C-59.46782726 40.92186085 -64.90288458 52.60408085 -70.84912109 62.87646484 C-72.8000839 66.24140761 -74.7725709 69.59356702 -76.74609375 72.9453125 C-77.1443335 73.62239258 -77.54257324 74.29947266 -77.95288086 74.99707031 C-86.61844965 89.72174788 -95.31559023 104.42883229 -104.12109375 119.0703125 C-114.20197174 135.84190144 -124.19108385 152.6623511 -133.93359375 169.6328125 C-139.43495352 179.21359159 -145.09008613 188.67986179 -150.89648438 198.078125 C-152.87085117 201.29001356 -154.80995862 204.52277793 -156.74609375 207.7578125 C-157.10936768 208.36439697 -157.4726416 208.97098145 -157.84692383 209.59594727 C-158.93893445 211.42036528 -160.03014146 213.24526147 -161.12109375 215.0703125 C-162.64094274 217.61256962 -164.16161028 220.15433261 -165.68359375 222.6953125 C-166.05830811 223.32091064 -166.43302246 223.94650879 -166.8190918 224.59106445 C-169.20217311 228.56148425 -171.62014695 232.50854298 -174.05859375 236.4453125 C-177.4922715 242.00556779 -180.82195455 247.62109366 -184.11547852 253.26538086 C-186.46579823 257.28546389 -188.8512033 261.27989988 -191.28515625 265.25 C-191.81915039 266.12519287 -192.35314453 267.00038574 -192.90332031 267.90209961 C-193.93288808 269.58643081 -194.96830719 271.2672054 -196.01074219 272.94360352 C-207.49258398 291.78087908 -210.17246398 312.59250047 -206.12109375 334.0703125 C-205.93289062 334.84117187 -205.7446875 335.61203125 -205.55078125 336.40625 C-203.8565431 344.69261478 -208.48632117 352.80076733 -212.12109375 360.0703125 C-216.11546958 358.5896387 -217.27219594 356.57839826 -219.12109375 352.8203125 C-219.59546875 351.88703125 -220.06984375 350.95375 -220.55859375 349.9921875 C-224.97402853 339.58165808 -226.783366 329.42793605 -226.64257812 318.16625977 C-226.62113074 316.13631371 -226.64251314 314.10991819 -226.66796875 312.08007812 C-226.70821443 293.4278949 -220.05502666 276.68822802 -210.12109375 261.0703125 C-209.17894071 259.51061377 -208.24155426 257.94802724 -207.30859375 256.3828125 C-205.55165107 253.45151648 -203.79083877 250.52265367 -202.0234375 247.59765625 C-198.29605105 241.41961846 -194.61304505 235.22469667 -191.05859375 228.9453125 C-187.84123443 223.27663179 -184.47091826 217.72193599 -181.03515625 212.18359375 C-178.69180469 208.3720607 -176.44286459 204.5114194 -174.19921875 200.640625 C-169.23118519 192.08346099 -164.16115224 183.58515358 -159.12109375 175.0703125 C-158.78625977 174.50459534 -158.45142578 173.93887817 -158.10644531 173.35601807 C-155.98142962 169.7658299 -153.85586999 166.17596443 -151.72970581 162.5864563 C-150.71233235 160.86883167 -149.69515261 159.15109231 -148.67797852 157.43334961 C-145.78480132 152.55081542 -142.88603008 147.672085 -139.9609375 142.80859375 C-137.72565573 139.08998964 -135.52604386 135.35230565 -133.34228516 131.60327148 C-129.84255864 125.59804303 -126.28574263 119.70378196 -122.34765625 113.97265625 C-120.71985028 111.44800178 -119.46799813 108.79709151 -118.17578125 106.08984375 C-117.00988882 103.85737565 -115.67007325 101.83475669 -114.24609375 99.7578125 C-110.80954177 94.73315695 -107.98462697 89.43532302 -105.12109375 84.0703125 C-100.92958499 76.52559673 -96.31445012 69.23559253 -91.77685547 61.89599609 C-85.04816661 51.06288933 -85.04816661 51.06288933 -78.80859375 39.9453125 C-75.05086138 32.93445754 -70.86334764 27.38358706 -64.65625 22.390625 C-62.94850306 21.02138742 -62.94850306 21.02138742 -61.37109375 18.6953125 C-60.75234375 17.8909375 -60.75234375 17.8909375 -60.12109375 17.0703125 C-59.13109375 17.0703125 -58.14109375 17.0703125 -57.12109375 17.0703125 C-57.12109375 16.4103125 -57.12109375 15.7503125 -57.12109375 15.0703125 C-38.62528799 3.7423342 -21.61618973 -0.07475883 0 0 Z " fill="#000000" transform="translate(365.12109375,175.9296875)"/>
<path d="M0 0 C0.88365234 0.03158203 1.76730469 0.06316406 2.67773438 0.09570312 C4.8490914 0.17786258 7.01873013 0.30341511 9.1875 0.4375 C6.52210478 5.89608335 3.67524992 11.16064823 0.5625 16.375 C-0.32559222 17.87365562 -1.21361098 19.37235477 -2.1015625 20.87109375 C-2.55176758 21.62890137 -3.00197266 22.38670898 -3.46582031 23.16748047 C-5.59190731 26.75130152 -7.70167087 30.34467904 -9.8125 33.9375 C-10.6535747 35.36722935 -11.49472053 36.79691686 -12.3359375 38.2265625 C-13.92567264 40.92898834 -15.51420838 43.63211247 -17.1015625 46.3359375 C-19.66758639 50.70565512 -22.23948716 55.07189483 -24.8125 59.4375 C-25.72273926 60.9831665 -25.72273926 60.9831665 -26.65136719 62.56005859 C-41.63560795 87.98930435 -41.63560795 87.98930435 -48.7265625 99.14453125 C-50.03563812 101.21110569 -51.32528273 103.29025543 -52.5859375 105.38671875 C-58.7777335 115.57556616 -66.38077316 125.08075307 -75.8125 132.4375 C-76.575625 133.118125 -77.33875 133.79875 -78.125 134.5 C-91.80047101 144.3590605 -107.50748741 146.5752084 -123.89173889 146.60244751 C-124.97532619 146.60809105 -126.0589135 146.6137346 -127.17533678 146.61954916 C-130.79014525 146.63718379 -134.40494038 146.64794428 -138.01977539 146.65869141 C-140.61939669 146.66991555 -143.21901625 146.68154816 -145.81863403 146.69355774 C-152.14278162 146.72194517 -158.4669379 146.74510216 -164.79111315 146.7663355 C-169.94652336 146.7837287 -175.10192366 146.80296744 -180.25732231 146.82349777 C-181.36149276 146.82789066 -181.36149276 146.82789066 -182.48796968 146.8323723 C-183.98404548 146.83833023 -185.48012128 146.84429144 -186.97619706 146.85025589 C-201.00404513 146.90594745 -215.03190969 146.95560068 -229.05978703 147.0032609 C-241.02775486 147.04407382 -252.99569138 147.09034552 -264.96362305 147.140625 C-278.90834622 147.19920867 -292.85307666 147.25400634 -306.79783624 147.30322587 C-308.29519588 147.30852279 -309.79255549 147.31382539 -311.28991508 147.31913376 C-312.02630307 147.32174359 -312.76269105 147.32435343 -313.52139382 147.32704235 C-318.64311322 147.34545143 -323.76481763 147.36650054 -328.88652229 147.3885994 C-381.71051557 147.61357543 -381.71051557 147.61357543 -398.88198745 147.23447299 C-400.73314042 147.19540633 -402.5846008 147.17177232 -404.43602848 147.14920998 C-415.20565489 146.82256386 -425.24726659 143.71460225 -434.8125 138.8125 C-435.47548096 138.47766602 -436.13846191 138.14283203 -436.8215332 137.79785156 C-443.79352337 134.13970343 -449.76490562 129.45299435 -455.8125 124.4375 C-456.66457031 123.78910156 -457.51664062 123.14070312 -458.39453125 122.47265625 C-469.77066323 112.89759201 -480.1668661 95.37440171 -484.8125 81.4375 C-478.48907911 80.02698267 -472.23136331 79.29451844 -465.8125 80.4375 C-462.76996543 82.90361689 -461.46504176 85.93978891 -459.8125 89.4375 C-451.26878364 103.95760909 -440.77734424 115.15319473 -425.6875 122.8125 C-424.70221313 123.31354248 -424.70221313 123.31354248 -423.69702148 123.82470703 C-415.09344012 128.00024309 -407.27284264 128.72955609 -397.81452942 128.69146729 C-396.62038553 128.69458727 -395.42624165 128.69770725 -394.19591159 128.70092177 C-390.89834215 128.70749823 -387.60100195 128.70515915 -384.30344665 128.69894934 C-380.74024362 128.69441244 -377.17706019 128.7014149 -373.61386108 128.70690918 C-366.63886 128.715793 -359.66390201 128.71388528 -352.68889926 128.7080839 C-347.01604753 128.70356163 -341.34320786 128.70295696 -335.67035484 128.70513153 C-334.86201132 128.705438 -334.05366779 128.70574446 -333.22082901 128.70606022 C-331.57847478 128.70669969 -329.93612056 128.70734812 -328.29376634 128.7080054 C-312.89874478 128.7137062 -297.50374704 128.70715566 -282.10872938 128.69640467 C-268.91809604 128.68747786 -255.72749793 128.6890145 -242.53686523 128.69824219 C-227.20355213 128.70896387 -211.87025994 128.71314799 -196.53694361 128.70701766 C-194.89920374 128.7063806 -193.26146386 128.70575186 -191.62372398 128.70513153 C-190.81802883 128.70482298 -190.01233369 128.70451443 -189.18222353 128.70419653 C-183.5231019 128.70247464 -177.8639936 128.70537392 -172.20487404 128.71009064 C-165.29795367 128.71572096 -158.39107872 128.71413837 -151.4841635 128.70352915 C-147.96458389 128.69829994 -144.44507979 128.69616819 -140.92550087 128.70282745 C-137.09872242 128.70832241 -133.272154 128.70140072 -129.44538879 128.69146729 C-127.80030286 128.69815945 -127.80030286 128.69815945 -126.12198287 128.70498681 C-106.69945314 128.60773301 -92.56224158 123.38184208 -78.32421875 110.125 C-73.33167045 104.78305096 -69.63694421 98.63356083 -65.8125 92.4375 C-65.20035645 91.45378418 -64.58821289 90.47006836 -63.95751953 89.45654297 C-56.12169574 76.85735814 -48.38360029 64.19768835 -40.8125 51.4375 C-40.23000488 50.45668457 -39.64750977 49.47586914 -39.04736328 48.46533203 C-36.98887908 44.99833115 -34.93153217 41.530659 -32.875 38.0625 C-32.52658051 37.47497955 -32.17816101 36.88745911 -31.81918335 36.28213501 C-28.44169194 30.58537584 -25.06764848 24.8868513 -21.734375 19.1640625 C-21.28570068 18.39497559 -20.83702637 17.62588867 -20.37475586 16.83349609 C-19.57825468 15.46579823 -18.78449933 14.09649496 -17.99438477 12.72509766 C-17.29952707 11.5322348 -16.59085034 10.34727892 -15.86645508 9.17211914 C-15.12802792 7.9568018 -14.43582976 6.71275048 -13.7800293 5.45092773 C-10.29230509 -0.56753704 -6.57551094 -0.4462129 0 0 Z " fill="#000000" transform="translate(754.8125,665.5625)"/>
<path d="M0 0 C2.44781271 2.53222004 3.23094105 4.62742955 4 8 C13.49838969 10.9281161 22.84542419 13.06952035 32.6875 14.5625 C33.69639786 14.71833557 33.69639786 14.71833557 34.72567749 14.87731934 C45.8847027 16.5880109 57.06440851 17.80328756 68.3125 18.75 C69.01305511 18.80898468 69.71361023 18.86796936 70.43539429 18.92874146 C87.98549643 20.37727785 105.50485542 21.16336914 123.11328125 21.203125 C123.98619497 21.20595238 124.8591087 21.20877975 125.75847435 21.21169281 C130.39294082 21.22653923 135.02737743 21.23585586 139.66186523 21.24023438 C143.39503962 21.24458127 147.12797797 21.2583465 150.86108398 21.28125 C170.58827681 21.39969482 190.19485648 21.20420577 209.8671875 19.609375 C210.64340769 19.54662636 211.41962788 19.48387772 212.21936989 19.4192276 C236.73794611 17.94658777 236.73794611 17.94658777 260 11 C261.02304948 9.34738161 262.02616054 7.68208635 263 6 C266.45710764 5.05715246 268.85426758 4.65937685 272.3125 5.6875 C274.49107202 7.38194491 275.16155829 8.34493458 276 11 C276.41348193 15.34156026 276.60692971 17.81372829 274.625 21.6875 C264.87373728 30.27789811 251.24237593 32.2044747 238.8125 34.0625 C237.68682617 34.23241455 236.56115234 34.4023291 235.40136719 34.57739258 C223.97504329 36.24180046 212.52560677 37.33000872 201 38 C200.28874969 38.04236786 199.57749939 38.08473572 198.84469604 38.12838745 C181.75749496 39.11594324 164.67300752 39.20024827 147.5625 39.1875 C146.84987251 39.18738041 146.13724503 39.18726082 145.40302277 39.1871376 C121.89010087 39.18215537 98.45202265 38.83642015 75 37 C74.31192261 36.94672546 73.62384521 36.89345093 72.91491699 36.83856201 C0.60241467 31.17293189 0.60241467 31.17293189 -14 17 C-16.47601332 12.83579579 -16.15783642 9.63134568 -15 5 C-13.14284944 2.01529375 -11.62501874 0.37830082 -8.625 -1.4375 C-5.09733444 -2.19342834 -3.23168275 -1.5455874 0 0 Z " fill="#000000" transform="translate(205,612)"/>
<path d="M0 0 C2.65641785 2.57592034 2.96921315 4.44216664 3.1953125 8.06640625 C3.0625 10 3.0625 10 1.9375 12.375 C-2.02668923 15.81063066 -6.70651066 16.41522178 -11.7722168 17.14501953 C-12.43963394 17.24284729 -13.10705109 17.34067505 -13.79469299 17.44146729 C-15.99116819 17.76161115 -18.18882889 18.07254113 -20.38671875 18.3828125 C-21.9250835 18.60380919 -23.46339758 18.82515888 -25.00166321 19.04684448 C-28.22473546 19.50982061 -31.44842328 19.96817369 -34.67260742 20.42333984 C-38.78130235 21.00379624 -42.88817617 21.59614795 -46.99464703 22.19211006 C-50.17260481 22.65185758 -53.35149045 23.10491133 -56.5306797 23.55605698 C-58.04386113 23.77163665 -59.5567478 23.98929689 -61.06931114 24.2091713 C-82.91566529 27.3748476 -82.91566529 27.3748476 -88.0625 23.875 C-90.29446906 20.45264744 -90.77078611 18.99977332 -89.9375 15 C-87.94642007 11.97905114 -86.28871283 10.35609853 -82.73234558 9.41885376 C-81.87989761 9.27885956 -81.02744965 9.13886536 -80.14916992 8.99462891 C-79.16790131 8.83150208 -78.18663269 8.66837524 -77.17562866 8.50030518 C-71.24201116 7.58353507 -65.30611493 6.69120983 -59.36328125 5.8359375 C-57.98569005 5.6370296 -56.60810119 5.43810553 -55.23051453 5.23916626 C-52.36410321 4.82585382 -49.49743566 4.41437074 -46.63061523 4.00390625 C-42.97534638 3.48016532 -39.3211518 2.94928632 -35.66715717 2.41673851 C-32.83053846 2.00457221 -29.9932071 1.59748618 -27.15566063 1.19176102 C-25.15895375 0.90499692 -23.16299983 0.61300545 -21.16706848 0.32089233 C-5.55875894 -1.89234347 -5.55875894 -1.89234347 0 0 Z " fill="#000000" transform="translate(479.9375,585)"/>
<path d="M0 0 C3.38221356 4.39900552 5.09363223 8.81241186 7 14 C7.37769531 14.90234375 7.75539063 15.8046875 8.14453125 16.734375 C14.61224324 34.01207912 12.4308486 56.67218733 4.93554688 73.37158203 C3.99307472 75.26608403 3.00152861 77.13604398 2 79 C1.67 79 1.34 79 1 79 C-0.30477806 63.3853223 -0.11830687 47.74618289 -0.06866455 32.09185791 C-0.05828436 28.4642394 -0.053836 24.83661357 -0.04882812 21.20898438 C-0.03822465 14.13930546 -0.0212438 7.06965564 0 0 Z " fill="#000000" transform="translate(838,455)"/>
<path d="M0 0 C0.66 0.66 1.32 1.32 2 2 C1.01 2.495 1.01 2.495 0 3 C0 2.01 0 1.02 0 0 Z " fill="#000000" transform="translate(660,501)"/>
<path d="" fill="#000000" transform="translate(0,0)"/>
<path d="M0 0 C2 1 2 1 2 1 Z " fill="#000000" transform="translate(649,375)"/>
</svg>
