<?xml version="1.0" standalone="no"?>
<!DOCTYPE svg PUBLIC "-//W3C//DTD SVG 20010904//EN"
 "http://www.w3.org/TR/2001/REC-SVG-20010904/DTD/svg10.dtd">
<svg version="1.0" xmlns="http://www.w3.org/2000/svg"
 width="900.000000pt" height="636.000000pt" viewBox="0 0 900.000000 636.000000"
 preserveAspectRatio="xMidYMid meet">

<g transform="translate(0.000000,636.000000) scale(0.100000,-0.100000)"
fill="#000000" stroke="none">
<path d="M4495 4689 c-270 -14 -687 -58 -704 -75 -6 -6 15 -5 214 11 723 58
1495 31 2249 -81 92 -14 196 -35 230 -48 83 -31 243 -127 536 -321 294 -194
310 -203 250 -141 -145 150 -612 467 -769 522 -141 49 -662 110 -1140 134
-228 11 -639 11 -866 -1z"/>
<path d="M4250 4559 c-324 -17 -730 -64 -822 -95 -50 -16 -133 -85 -313 -259
-120 -117 -117 -115 101 58 95 74 186 143 203 151 27 14 126 31 289 49 l42 5
-20 -26 c-11 -15 -88 -106 -173 -202 l-152 -175 -175 -7 c-241 -9 -504 -28
-537 -38 -16 -5 194 -9 487 -9 474 -1 521 -3 596 -21 45 -10 108 -31 140 -45
l59 -27 390 -3 c401 -4 581 -12 933 -42 144 -12 208 -14 220 -6 17 10 191 556
192 599 0 12 -6 27 -14 33 -18 15 -329 47 -586 60 -222 12 -631 12 -860 0z
m-487 -289 l-177 -210 -43 0 c-24 0 -43 3 -43 6 0 3 80 97 177 210 l177 204
43 0 43 0 -177 -210z"/>
<path d="M5855 4490 c-49 -20 -66 -57 -160 -356 -52 -164 -92 -300 -89 -303 9
-9 865 -8 918 1 117 21 62 28 -229 28 -332 0 -435 6 -435 25 0 9 21 13 74 12
92 -2 106 8 106 75 0 47 -1 49 -22 42 -24 -7 -151 -23 -156 -19 -2 2 25 18 58
36 55 30 79 56 50 53 -5 -1 -43 -2 -84 -2 -64 -2 -79 -6 -105 -28 -25 -20 -31
-34 -31 -63 0 -38 29 -79 45 -64 4 5 0 -7 -9 -24 -16 -31 -20 -33 -71 -33 -30
0 -55 2 -55 5 0 20 164 513 174 523 17 17 255 -7 431 -43 66 -13 124 -25 128
-25 5 0 46 -78 92 -172 46 -95 84 -170 85 -166 0 12 -62 183 -101 275 -21 51
-39 95 -39 99 0 13 31 -20 46 -47 8 -15 38 -44 68 -64 110 -73 266 -268 251
-314 -3 -11 -33 -41 -67 -66 -67 -50 -64 -54 18 -25 74 25 121 62 129 100 13
60 -90 229 -234 382 -74 79 -98 90 -271 117 -269 43 -471 60 -515 41z"/>
<path d="M7405 4070 c-38 -3 -63 -9 -55 -12 21 -9 152 -26 295 -38 99 -9 131
-16 184 -40 35 -17 65 -30 67 -30 8 0 -18 56 -34 74 -40 45 -88 56 -242 54
-80 -1 -176 -4 -215 -8z"/>
<path d="M2374 3970 c-11 -4 -45 -35 -75 -68 l-54 -61 -210 -21 c-270 -27
-648 -75 -795 -101 -164 -29 -237 -66 -276 -142 l-15 -28 48 24 c215 108 812
203 1626 260 97 7 177 10 177 6 0 -3 -18 -14 -40 -24 -23 -10 -37 -22 -33 -25
4 -4 123 -13 263 -20 l255 -13 303 63 c166 35 301 64 299 66 -1 1 -130 -8
-287 -21 l-285 -24 -22 -28 -23 -28 0 35 c0 19 7 57 15 84 11 37 12 52 4 63
-9 10 -91 13 -433 12 -231 0 -430 -4 -442 -9z"/>
<path d="M7095 3923 c-59 -7 -169 -35 -214 -56 -25 -11 -68 -28 -96 -38 -45
-16 -47 -18 -20 -18 17 -1 73 10 125 24 229 59 470 53 760 -20 52 -13 122 -33
154 -45 74 -25 84 -20 17 9 -254 109 -543 166 -726 144z"/>
<path d="M7901 3821 c-9 -6 -6 -10 12 -15 60 -15 120 -132 133 -263 l7 -63
-109 -2 c-149 -3 -189 0 -247 17 -75 22 -81 19 -38 -20 48 -44 82 -121 87
-199 3 -42 1 -53 -5 -36 -41 124 -116 184 -227 184 -116 -1 -251 -97 -317
-225 -25 -49 -27 -51 -21 -19 10 59 71 174 120 229 48 53 134 111 167 111 9 0
17 5 17 10 0 6 -24 10 -52 10 -96 -1 -204 -27 -300 -72 l-93 -43 -650 -1 -650
-2 402 33 c221 18 410 35 420 38 10 3 -333 5 -762 5 l-780 1 59 -30 c164 -85
248 -270 213 -471 -8 -46 -21 -99 -29 -118 -15 -35 -15 -34 -10 35 9 135 -36
286 -108 369 -65 74 -183 126 -285 126 -139 0 -302 -92 -409 -230 -36 -47 -21
-9 26 67 54 85 152 174 240 217 l73 36 -359 0 -359 0 34 -33 c49 -48 104 -199
96 -262 -6 -43 -38 -118 -54 -128 -5 -3 -8 34 -8 82 0 73 -5 95 -29 148 -34
74 -97 137 -152 152 -24 7 -144 10 -309 10 -148 -1 -261 -4 -250 -6 53 -13
211 -90 203 -98 -2 -2 -30 3 -63 11 -69 16 -125 18 -125 5 0 -5 11 -52 25
-103 43 -161 30 -230 -51 -264 -39 -16 -57 -18 -31 -3 57 33 67 149 24 276
-36 103 -70 151 -136 187 -49 26 -65 29 -249 42 -648 44 -1373 45 -1766 3
-181 -19 -193 -39 -147 -232 18 -73 45 -161 62 -196 28 -61 28 -63 7 -49 -13
8 -35 40 -51 70 -25 51 -76 230 -92 321 -7 41 -17 45 -70 23 -54 -23 -59 -43
-35 -138 60 -238 96 -307 172 -326 30 -8 502 -12 1612 -12 1140 0 1573 -3
1583 -11 18 -15 17 -79 -3 -107 -19 -28 -39 -30 -24 -3 5 11 10 29 10 40 l0
21 -1695 0 c-932 0 -1695 -4 -1695 -8 0 -11 61 -38 115 -51 31 -8 60 -31 125
-97 102 -104 181 -157 275 -187 l70 -22 995 0 c895 0 1007 2 1110 18 146 22
320 66 435 110 50 19 91 31 93 26 7 -18 -40 -79 -88 -114 -134 -99 -355 -144
-800 -166 -331 -16 -1627 -6 -1780 14 -63 8 -128 18 -145 22 -54 13 -123 47
-130 62 -3 9 3 33 13 55 11 21 16 38 13 38 -13 0 -70 -65 -80 -92 -13 -35 16
-73 74 -98 35 -15 45 -26 55 -57 50 -153 161 -292 304 -381 l49 -30 -94 -6
c-498 -34 -680 -47 -714 -53 -37 -6 -38 -7 -15 -14 33 -9 7488 -9 7520 0 22 7
20 9 -20 14 -69 10 -735 57 -807 57 -19 0 -15 6 27 46 87 82 159 217 196 370
11 44 17 115 18 197 l1 127 40 11 c65 18 117 54 199 139 42 44 85 80 95 80 25
0 45 25 91 114 46 88 52 139 19 156 -11 7 -27 9 -35 6 -8 -3 -14 -1 -14 3 0 5
14 14 32 20 l31 11 -6 113 c-13 236 -71 417 -145 455 -30 16 -67 21 -81 13z
m-6630 -369 c-19 -9 -43 -29 -54 -44 -24 -32 -34 -123 -19 -168 6 -17 7 -28 2
-25 -4 3 -16 28 -25 56 -35 104 10 200 92 199 l38 -1 -34 -17z m1768 -15 c-91
-61 -92 -212 -1 -318 l37 -43 -34 19 c-94 55 -141 204 -93 294 19 36 72 71
106 71 14 0 11 -6 -15 -23z m-1647 -24 c29 -26 58 -87 65 -138 7 -54 -19 -131
-47 -140 -46 -15 -123 47 -148 120 -10 29 -10 29 -11 5 -1 -37 32 -103 64
-128 15 -12 23 -22 18 -22 -6 0 -22 9 -36 20 -82 65 -91 240 -15 295 28 20 82
14 110 -12z m1794 -11 c79 -43 128 -186 89 -262 -40 -77 -170 -30 -220 80
l-16 35 6 -35 c7 -42 43 -96 82 -121 15 -10 23 -19 17 -19 -25 0 -93 61 -113
102 -33 70 -36 125 -9 178 33 65 93 80 164 42z m652 -221 c29 -39 76 -61 129
-61 36 -1 37 -2 19 -15 -28 -21 -95 -19 -133 5 -43 26 -73 87 -72 147 l1 48
15 -45 c9 -25 27 -60 41 -79z m122 89 c14 -26 4 -60 -17 -60 -13 0 -13 3 -3
15 10 12 10 21 2 40 -14 30 3 34 18 5z m811 -26 c143 -42 261 -147 337 -299
40 -80 51 -125 13 -52 -61 118 -149 215 -232 258 l-44 22 58 -62 c67 -73 77
-101 13 -36 -70 69 -182 115 -284 115 -40 0 -43 2 -31 17 21 24 71 53 95 53
11 0 45 -7 75 -16z m2697 -18 c39 -21 76 -64 106 -123 25 -51 60 -173 51 -181
-2 -3 -7 9 -11 24 -15 60 -54 134 -94 178 -74 80 -149 85 -226 14 -42 -39 -44
-40 -34 -13 36 96 130 142 208 101z m-3736 -128 c-9 -9 -193 -51 -198 -45 -2
1 27 18 62 36 36 19 78 49 92 67 l27 34 14 -41 c9 -28 10 -44 3 -51z m1040
-50 c184 -85 290 -342 233 -563 -38 -146 -138 -272 -251 -315 -79 -29 -196
-25 -269 10 -118 57 -213 199 -237 353 -36 233 90 470 283 532 68 22 172 15
241 -17z m2678 6 c117 -70 173 -401 110 -649 -24 -94 -50 -144 -95 -183 -67
-59 -130 -32 -184 81 -48 98 -65 207 -58 367 6 144 20 210 62 296 46 93 103
124 165 88z m-6255 -270 c11 -8 48 -24 83 -34 62 -19 98 -20 1061 -20 l996 0
65 31 65 30 -25 -26 c-14 -15 -43 -37 -65 -48 l-40 -22 -1005 0 -1005 0 -55
27 c-55 27 -124 78 -105 78 6 -1 19 -7 30 -16z m5430 -23 l100 -7 -140 -9
c-174 -12 -915 -10 -1010 3 l-70 9 50 3 c28 1 118 6 200 10 157 8 698 2 870
-9z m351 -165 c-23 -55 -92 -151 -135 -187 -32 -28 -60 -46 -119 -74 -1 -1 7
-27 18 -59 29 -86 79 -174 132 -232 27 -28 48 -53 48 -55 0 -2 -80 -1 -177 3
-309 11 -933 27 -1360 34 l-412 7 50 45 c62 55 131 151 165 228 28 64 53 179
55 252 2 86 17 5 18 -95 l1 -93 719 0 c509 0 728 3 752 11 59 20 132 83 194
167 33 45 61 82 63 82 1 0 -4 -16 -12 -34z m165 -255 c40 -126 105 -223 172
-258 46 -23 107 -12 158 28 l43 34 -20 -34 c-27 -48 -89 -91 -131 -91 -103 0
-210 126 -259 302 -8 29 -17 109 -19 178 l-5 125 20 -110 c11 -60 29 -139 41
-174z m-3180 135 c-18 -18 -61 -50 -96 -71 l-64 -37 25 -66 c33 -88 76 -156
136 -218 l49 -51 -418 -7 c-476 -8 -1098 -23 -1253 -31 -102 -5 -104 -5 -81
12 109 79 183 162 237 268 l36 72 354 7 c394 7 561 18 741 46 119 19 283 66
333 95 37 21 37 18 1 -19z m268 -184 c49 -77 142 -159 218 -194 94 -43 227
-51 322 -19 131 45 251 152 316 284 28 56 35 65 30 38 -3 -19 -17 -60 -31 -90
-74 -162 -249 -295 -414 -316 -243 -30 -506 192 -526 444 l-5 66 29 -82 c16
-45 44 -104 61 -131z m-2529 45 c50 -57 131 -92 260 -111 14 -2 -10 -4 -52 -5
-100 -1 -174 25 -240 87 -55 51 -59 62 -23 62 16 0 36 -12 55 -33z"/>
<path d="M4552 3035 c-94 -26 -180 -102 -231 -202 -29 -58 -26 -63 8 -16 37
51 80 82 138 99 58 18 65 13 13 -10 -39 -17 -130 -108 -130 -130 0 -21 15 -32
92 -75 54 -29 84 -40 99 -36 18 6 19 5 10 -13 -14 -26 -14 -87 -1 -113 8 -14
7 -19 -3 -19 -21 0 -139 -137 -135 -156 9 -46 134 -83 187 -55 19 11 21 20 21
101 0 50 4 90 8 90 5 0 17 -27 27 -61 10 -34 25 -64 33 -67 27 -10 85 84 103
168 14 68 22 59 9 -10 -38 -200 -204 -317 -356 -251 -47 20 -48 20 -26 1 13
-11 40 -24 60 -30 158 -43 317 83 359 284 l12 61 -2 -72 c-3 -81 4 -82 27 -8
l16 50 -3 -68 c-3 -77 6 -69 34 28 13 45 18 53 18 30 1 -67 -43 -182 -97 -254
-15 -18 -49 -48 -76 -67 -65 -43 -47 -44 24 -1 72 42 142 135 171 225 44 137
23 306 -51 422 -82 128 -227 191 -358 155z m42 -201 c23 -9 23 -144 1 -144 -8
0 -15 8 -16 18 0 9 -4 43 -8 75 -7 58 -5 62 23 51z m86 -179 c14 -12 23 -13
45 -5 32 12 51 1 42 -24 -4 -10 -18 -16 -37 -16 -25 0 -30 -4 -30 -25 0 -27
-32 -65 -54 -65 -22 0 -46 40 -46 75 0 36 25 75 47 75 9 0 24 -7 33 -15z"/>
<path d="M4316 2674 c-10 -26 -5 -146 8 -189 17 -59 42 -58 124 5 37 29 67 56
66 61 -1 5 -2 26 -3 47 -1 37 -2 37 -75 65 -84 31 -111 34 -120 11z"/>
<path d="M7335 3014 c-30 -32 -59 -95 -75 -161 l-12 -52 43 -51 c23 -27 46
-50 50 -50 4 0 3 -14 -3 -31 -8 -22 -7 -37 1 -56 11 -24 10 -25 -12 -19 -18 4
-31 -2 -57 -29 l-34 -35 12 -62 c6 -34 15 -65 20 -70 5 -5 21 24 37 64 27 70
45 103 45 82 0 -8 -30 -121 -46 -176 -4 -14 1 -18 25 -18 62 0 120 104 141
251 9 63 9 63 6 -24 -2 -49 -2 -86 1 -83 3 2 11 26 18 53 11 40 13 43 14 18 1
-47 -25 -159 -48 -204 -23 -45 -63 -76 -83 -66 -7 4 -4 -1 6 -9 28 -23 35 -21
76 23 25 26 44 62 61 112 21 65 24 92 23 214 -1 154 -16 241 -59 324 -42 83
-103 106 -150 55z m9 -151 c16 -110 18 -145 8 -139 -6 3 -14 36 -17 72 -5 42
-13 68 -22 71 -10 4 -11 9 -2 19 18 22 27 16 33 -23z m94 -175 c14 -14 16 -67
3 -87 -16 -25 -41 -4 -41 33 0 59 14 78 38 54z"/>
<path d="M7239 2709 c-1 -24 -2 -56 -3 -72 -3 -42 7 -48 42 -25 44 28 43 63
-3 108 l-35 34 -1 -45z"/>
<path d="M2375 3781 c-143 -20 -267 -40 -275 -46 -9 -5 -30 -29 -49 -52 l-33
-43 -91 0 c-104 0 -347 -26 -380 -41 -19 -8 -18 -9 8 -4 66 13 827 17 1020 6
379 -21 399 -21 325 -11 -138 20 -404 41 -592 47 -109 3 -198 9 -198 13 0 13
189 72 383 120 105 27 181 48 167 48 -14 0 -142 -17 -285 -37z"/>
<path d="M4655 3769 c-351 -14 -497 -38 -603 -102 -56 -34 -102 -85 -66 -74
267 83 824 135 1749 164 l240 8 -150 6 c-208 9 -929 8 -1170 -2z"/>
<path d="M6825 3766 c24 -8 47 -24 58 -42 33 -52 97 -187 97 -206 0 -22 -40
-33 -175 -48 -55 -7 -102 -14 -105 -17 -3 -3 65 -3 150 -1 142 3 159 5 205 28
68 34 77 55 66 169 -12 133 -10 131 -190 130 -131 -1 -142 -2 -106 -13z"/>
<path d="M6600 3668 c-11 -18 -20 -36 -20 -40 0 -5 56 -8 123 -8 123 0 124 0
135 25 25 53 21 55 -103 55 l-115 0 -20 -32z m210 -8 c0 -6 -37 -10 -90 -10
-53 0 -90 4 -90 10 0 6 37 10 90 10 53 0 90 -4 90 -10z"/>
<path d="M2988 3573 c7 -3 16 -2 19 1 4 3 -2 6 -13 5 -11 0 -14 -3 -6 -6z"/>
<path d="M892 1563 c-24 -82 -42 -151 -42 -155 0 -5 38 -8 84 -8 l85 0 15 53
c8 28 23 80 32 115 l17 62 84 0 c45 0 83 -1 83 -2 0 -2 -14 -48 -30 -103 -16
-55 -30 -106 -30 -112 0 -10 23 -13 84 -13 l83 0 33 115 33 115 73 0 c90 0 93
-5 59 -120 -13 -47 -25 -91 -25 -97 0 -10 23 -13 84 -13 l83 0 18 63 c48 167
54 198 45 222 l-10 25 -408 0 -408 0 -42 -147z"/>
<path d="M1835 1698 c-15 -43 -65 -234 -65 -249 0 -10 10 -25 22 -33 19 -14
71 -16 360 -16 l337 0 21 70 c11 39 29 103 41 143 11 39 22 78 24 85 3 9 -18
12 -83 12 l-87 0 -30 -107 -30 -108 -188 -3 c-164 -2 -188 0 -194 13 -5 14 6
60 43 188 5 15 -3 17 -81 17 -59 0 -87 -4 -90 -12z"/>
<path d="M2642 1688 c-40 -44 -57 -133 -29 -157 9 -7 97 -12 253 -13 151 -2
239 -7 239 -13 0 -6 -98 -11 -268 -13 l-268 -2 -9 -26 c-6 -14 -10 -34 -10
-45 0 -18 10 -19 320 -19 355 0 364 1 393 62 27 58 30 86 13 113 l-16 25 -241
0 c-188 0 -240 3 -237 13 4 9 69 13 270 15 l266 2 10 40 10 40 -337 0 c-337 0
-338 0 -359 -22z"/>
<path d="M3417 1699 c-33 -19 -87 -165 -89 -241 -2 -57 3 -58 359 -58 355 0
331 -4 347 63 l6 27 -259 0 c-216 0 -260 2 -264 14 -7 18 7 71 28 102 l15 24
260 0 c142 0 261 3 263 8 3 4 8 22 12 40 l7 32 -334 0 c-208 0 -340 -4 -351
-11z"/>
<path d="M4116 1573 c-21 -76 -41 -146 -44 -155 -4 -17 16 -18 317 -18 l321 0
9 23 c5 12 11 32 15 45 l7 22 -235 0 c-130 0 -236 4 -236 8 0 5 7 32 15 60 8
29 22 75 29 102 l15 50 -87 0 -87 0 -39 -137z"/>
<path d="M4816 1573 c-21 -76 -41 -146 -44 -155 -4 -17 17 -18 351 -18 l356 0
10 38 c6 20 11 40 11 45 0 4 -120 7 -266 7 -208 0 -265 3 -262 13 4 9 54 13
195 15 l191 2 6 24 c3 13 9 31 12 40 5 14 -14 16 -186 16 -149 0 -191 3 -188
13 4 9 69 13 274 15 l270 2 11 40 10 40 -356 0 -356 0 -39 -137z"/>
<path d="M5976 1689 c-18 -14 -33 -44 -50 -102 -39 -131 -40 -143 -17 -166 20
-20 31 -21 346 -21 l325 0 9 23 c5 12 11 32 15 45 l7 22 -261 0 c-290 0 -282
-2 -260 67 25 76 13 73 301 73 l257 0 11 31 c6 18 11 36 11 40 0 5 -150 9
-334 9 -322 0 -334 -1 -360 -21z"/>
<path d="M6788 1563 c-91 -82 -167 -151 -167 -155 -1 -5 39 -8 87 -8 85 0 89
1 117 30 l29 30 138 0 139 0 17 -30 c17 -30 18 -30 105 -30 48 0 87 3 87 8 0
4 -36 72 -79 152 l-79 145 -114 3 -113 2 -167 -147z m272 25 c11 -18 20 -36
20 -40 0 -5 -28 -8 -62 -8 l-62 0 39 40 c21 22 40 40 42 40 2 0 12 -15 23 -32z"/>
<path d="M7456 1693 c-2 -10 -21 -72 -40 -139 -20 -67 -36 -129 -36 -138 0
-15 11 -16 83 -14 l82 3 14 48 15 47 175 -2 c195 -3 186 1 168 -71 l-8 -28 87
3 87 3 14 48 c9 31 11 53 4 64 -7 13 -2 26 16 50 29 38 41 106 23 128 -11 13
-61 15 -346 15 -308 0 -333 -1 -338 -17z m510 -75 c4 -6 -1 -17 -12 -25 -15
-11 -56 -14 -186 -12 -93 1 -168 6 -168 10 0 37 8 39 185 39 120 0 176 -4 181
-12z"/>
</g>
</svg>
