<?xml version="1.0" standalone="no"?>
<!DOCTYPE svg PUBLIC "-//W3C//DTD SVG 20010904//EN"
 "http://www.w3.org/TR/2001/REC-SVG-20010904/DTD/svg10.dtd">
<svg version="1.0" xmlns="http://www.w3.org/2000/svg"
 width="1486.000000pt" height="1108.000000pt" viewBox="0 0 1486.000000 1108.000000"
 preserveAspectRatio="xMidYMid meet">

<g transform="translate(0.000000,1108.000000) scale(0.100000,-0.100000)"
fill="#000000" stroke="none">
<path d="M9383 10849 c-154 -11 -374 -42 -523 -75 -147 -33 -414 -117 -505
-158 l-70 -33 -45 28 c-45 28 -137 49 -213 49 -48 0 -159 -65 -190 -112 -31
-45 -50 -46 -102 -4 -24 20 -50 36 -58 36 -9 0 -98 -18 -199 -41 -143 -31
-187 -45 -201 -61 -15 -17 -28 -21 -62 -19 -48 3 -202 -13 -302 -30 -55 -10
-70 -18 -129 -70 -37 -32 -70 -59 -74 -59 -4 0 -13 6 -19 14 -11 13 -24 10
-89 -18 -171 -73 -254 -119 -273 -150 -10 -17 -39 -81 -65 -143 -26 -62 -52
-113 -58 -113 -36 0 -184 35 -197 47 -9 8 -27 55 -40 104 -13 50 -28 98 -34
106 -10 13 -183 53 -233 53 -13 0 -147 -77 -299 -171 -278 -173 -384 -228
-898 -459 -141 -63 -185 -91 -185 -118 0 -8 -7 -54 -16 -102 l-16 -88 -48 -31
c-68 -44 -172 -158 -216 -238 -98 -173 -98 -387 -1 -530 54 -78 150 -132 302
-169 115 -28 145 -38 142 -48 -2 -5 -30 -17 -62 -26 -172 -48 -192 -264 -36
-401 71 -63 229 -129 308 -129 28 0 28 -1 2 -52 -50 -98 33 -163 194 -150 9 1
17 -3 17 -9 0 -7 -21 -75 -46 -153 -25 -77 -49 -152 -53 -166 -7 -21 -15 -26
-62 -32 -30 -3 -130 -6 -222 -7 -164 -1 -169 -2 -225 -30 -31 -16 -77 -50
-102 -76 l-45 -46 -1 -97 c-1 -53 -9 -140 -19 -192 -12 -66 -18 -143 -17 -255
0 -179 11 -265 49 -375 16 -46 28 -106 31 -156 l4 -81 -33 -6 c-19 -4 -173
-25 -343 -47 -258 -34 -316 -45 -350 -64 -77 -44 -621 -362 -690 -404 -39 -23
-81 -42 -95 -42 -14 -1 -75 -18 -136 -38 -274 -93 -320 -176 -376 -684 l-22
-198 35 -42 c67 -82 427 -476 454 -497 15 -12 41 -21 61 -21 55 0 27 -33 -42
-50 -31 -7 -62 -18 -69 -24 -7 -6 -30 -59 -51 -118 l-38 -108 37 -40 c54 -60
46 -87 -30 -101 -26 -5 -51 -13 -55 -17 -4 -4 -17 -59 -28 -122 l-21 -114 45
-46 c43 -44 45 -48 37 -86 -5 -27 -14 -40 -27 -42 -70 -10 -65 -1 -65 -127 0
-80 -4 -116 -12 -122 -7 -4 -112 -24 -233 -45 -1215 -205 -1956 -469 -2091
-744 -57 -116 -14 -229 130 -338 720 -548 3734 -914 7266 -881 432 3 796 7
810 7 1101 35 1989 86 2733 158 53 6 142 14 198 20 750 73 1526 189 2114 315
842 181 1376 408 1475 628 97 213 -134 413 -690 597 -271 90 -754 204 -1103
261 -59 10 -76 16 -72 27 14 38 16 64 5 77 -16 20 -5 47 29 73 34 25 53 101
31 127 -17 20 -3 75 25 97 28 22 43 101 23 125 -17 21 -11 60 14 85 18 18 19
28 13 118 -6 84 -5 98 9 103 9 4 16 16 16 27 0 11 4 20 8 20 4 0 15 13 25 29
14 24 18 67 23 243 l6 213 51 52 50 52 20 973 c13 693 16 990 9 1033 -6 33
-34 166 -62 295 -126 576 -180 834 -180 856 0 26 -11 37 -315 313 l-200 181
-70 0 c-38 0 -76 4 -83 9 -9 5 -17 41 -23 92 -20 184 -59 296 -120 336 l-37
25 -375 -15 c-213 -8 -383 -19 -393 -25 -15 -8 -23 -7 -38 6 -16 15 -59 17
-396 20 l-378 3 -27 -33 c-41 -49 -85 -149 -98 -223 -11 -65 -11 -65 -44 -65
-19 0 -36 6 -39 13 -2 7 2 56 11 108 19 120 19 341 0 452 -82 468 -385 766
-805 790 l-65 4 -7 153 -6 154 37 55 c38 56 91 154 91 168 0 4 -18 -24 -41
-62 -44 -76 -87 -127 -101 -119 -20 13 -4 55 53 139 34 49 86 139 116 199 56
111 78 133 49 50 -25 -75 -12 -62 24 23 40 97 109 202 155 237 117 90 338 130
575 107 137 -14 188 -26 255 -58 74 -36 87 -49 94 -90 6 -35 17 -44 240 -199
206 -142 237 -161 260 -154 30 10 159 55 182 65 12 5 18 26 23 84 7 78 7 79
39 85 80 16 103 98 48 173 -16 23 -40 48 -53 57 l-23 17 24 18 c23 18 23 18
11 112 -7 52 -16 101 -21 110 -4 8 -93 64 -198 122 l-189 107 -107 -12 c-106
-12 -108 -13 -137 -49 -28 -34 -32 -36 -61 -28 -260 77 -505 126 -697 139
-169 11 -601 11 -777 -1z m732 -84 c568 -38 744 -81 1040 -256 169 -99 365
-264 365 -305 0 -7 -19 5 -42 27 -98 90 -310 218 -444 265 l-51 18 -86 -54
c-56 -34 -87 -59 -87 -70 0 -16 -5 -15 -60 7 -268 108 -639 105 -932 -8 -74
-29 -92 -41 -169 -118 -83 -84 -194 -238 -240 -333 -13 -27 -26 -48 -30 -48
-3 0 -24 28 -47 63 -41 64 -97 125 -74 82 14 -28 67 -215 87 -310 20 -91 32
-397 18 -459 -7 -33 -14 -41 -43 -50 -37 -12 -193 -96 -188 -102 2 -1 24 2 48
8 25 6 106 11 180 11 123 0 147 -3 275 -37 163 -43 259 -86 333 -150 205 -176
301 -431 290 -769 -5 -142 -18 -215 -71 -407 l-23 -85 -86 -3 -86 -3 -22 39
c-39 69 -104 91 -154 51 l-27 -21 -29 27 c-16 15 -51 33 -77 40 l-48 13 1 54
c2 76 25 111 93 142 124 55 256 56 365 1 l51 -26 -43 40 c-105 97 -297 122
-454 60 -62 -24 -68 -24 -68 4 0 18 11 28 48 46 124 60 291 205 346 301 l18
32 -63 -47 c-87 -63 -265 -150 -372 -180 -385 -109 -765 1 -1049 303 -42 45
-95 110 -118 144 l-43 63 7 -39 c11 -61 43 -137 86 -207 38 -63 39 -64 19 -81
-11 -9 -54 -22 -95 -29 -86 -14 -82 -24 15 -44 30 -6 56 -15 58 -21 8 -24
-141 -192 -247 -278 -72 -59 -197 -146 -209 -146 -5 0 -11 42 -14 93 -6 100
-32 184 -73 233 l-24 29 10 -28 c11 -31 12 -138 1 -177 -6 -23 -10 -19 -43 40
-20 36 -56 84 -80 108 l-44 42 38 -77 c83 -173 121 -408 121 -743 0 -300 -25
-489 -94 -722 -11 -38 -23 -68 -27 -68 -4 0 -46 29 -94 65 -49 36 -88 63 -88
60 0 -3 16 -27 35 -54 64 -89 89 -156 93 -256 2 -49 0 -106 -5 -125 -9 -33
-13 -36 -76 -52 -36 -9 -102 -20 -145 -23 l-79 -7 -6 70 c-10 116 -50 186
-114 198 -45 9 -77 -1 -117 -36 -37 -33 -46 -36 -46 -17 0 8 -13 32 -30 55
-54 75 -130 75 -207 0 -41 -40 -43 -41 -43 -18 0 38 -44 124 -75 148 l-28 22
28 68 c22 51 46 84 99 138 93 93 154 118 271 111 44 -3 109 -14 145 -26 l65
-20 -35 29 c-19 16 -65 46 -102 65 -38 20 -68 40 -68 44 0 26 47 156 78 216
27 52 65 98 144 178 58 59 104 107 100 107 -4 0 -35 -7 -70 -15 -71 -17 -125
-42 -170 -80 -37 -31 -53 -26 -104 35 -39 45 -76 116 -109 210 -24 68 -32 207
-16 280 l7 35 -27 -34 c-16 -18 -45 -61 -65 -94 -31 -50 -38 -70 -38 -113 0
-63 -2 -64 -115 -64 -152 0 -312 42 -468 122 -83 43 -127 86 -127 123 0 43 23
50 145 46 85 -2 127 1 171 14 108 31 161 119 95 158 -64 38 -124 134 -90 146
8 2 45 34 82 70 115 111 182 278 194 489 l6 103 49 21 c80 34 124 107 116 197
-2 27 1 35 12 34 8 -1 69 -11 136 -23 67 -11 146 -20 177 -20 49 0 61 4 92 32
42 36 95 135 95 175 0 15 -7 53 -15 83 -8 30 -11 58 -6 63 4 4 35 12 69 18 68
10 230 65 248 83 7 6 26 71 43 145 l31 134 -22 24 c-23 24 -23 25 -4 39 25 18
20 18 138 -11 55 -14 102 -24 104 -22 2 2 22 46 45 98 33 75 40 101 35 131 -5
33 0 47 54 127 33 50 70 96 82 102 40 21 76 28 92 16 12 -10 56 -121 56 -142
0 -3 -48 -37 -107 -77 -60 -39 -99 -67 -88 -63 11 5 85 18 164 29 161 23 149
15 164 112 6 39 5 41 -27 56 -26 13 -35 25 -40 52 -4 20 -4 41 0 47 11 18 162
85 289 129 216 74 482 129 725 150 270 23 373 24 655 5z m1200 -111 c88 -48
168 -94 178 -102 15 -13 17 -29 15 -91 -3 -68 -5 -76 -24 -79 -12 -2 -76 31
-155 79 -74 44 -183 106 -242 135 -81 41 -108 59 -105 72 4 22 103 71 143 72
20 0 87 -30 190 -86z m-3205 -37 c0 -1 -23 -27 -50 -56 l-51 -54 -39 18 c-22
10 -40 21 -40 25 0 8 38 35 80 57 21 11 100 19 100 10z m134 -96 c3 -5 -16
-30 -43 -57 -26 -27 -50 -56 -53 -64 -4 -11 -16 -5 -49 27 -41 40 -42 42 -26
66 28 43 150 63 171 28z m-697 -37 c2 -6 -25 -29 -60 -52 -34 -22 -87 -66
-116 -97 -29 -31 -54 -55 -55 -53 -1 2 -9 27 -19 57 -20 67 -12 86 48 112 45
20 160 48 184 46 8 -1 16 -7 18 -13z m140 -19 c2 -6 -17 -21 -41 -32 -31 -16
-56 -39 -84 -80 -38 -56 -43 -59 -128 -90 -55 -20 -92 -29 -98 -23 -6 6 19 38
66 83 105 104 270 186 285 142z m3403 -20 c118 -42 285 -147 351 -222 l32 -37
-7 -89 c-8 -107 -15 -122 -64 -143 -86 -36 -76 -40 -379 159 l-123 81 -1 40
c-2 87 3 142 14 155 19 22 99 71 118 71 9 0 36 -7 59 -15z m-3075 -133 c-3
-10 -26 -53 -50 -97 l-44 -81 -91 -47 c-51 -26 -98 -47 -106 -47 -7 0 -25 17
-39 38 -24 37 -25 40 -11 79 34 98 100 191 180 254 l51 41 58 -62 c40 -43 56
-67 52 -78z m-256 46 c-29 -35 -68 -96 -87 -135 -19 -40 -40 -73 -46 -73 -7 0
-23 22 -36 49 -20 43 -21 54 -11 79 7 16 32 44 56 61 47 34 142 81 163 81 7 0
-11 -28 -39 -62z m-679 -27 c0 -5 -20 -26 -45 -46 -24 -20 -61 -59 -82 -86
-20 -27 -41 -49 -46 -49 -15 0 -106 74 -107 86 0 6 24 28 53 47 50 35 75 41
215 56 6 0 12 -3 12 -8z m109 -23 c4 -13 14 -51 21 -84 l12 -62 -50 -72 c-28
-39 -52 -76 -55 -83 -3 -11 -247 -50 -257 -41 -11 11 73 153 126 212 65 72
159 152 180 152 8 0 18 -10 23 -22z m-559 -138 c0 -5 -28 -38 -63 -73 -35 -34
-73 -83 -85 -107 -16 -33 -35 -53 -76 -77 -30 -18 -58 -33 -64 -33 -18 0 31
192 54 211 8 6 53 28 101 50 88 38 133 48 133 29z m913 -66 c20 -29 37 -57 37
-64 0 -7 -14 -63 -31 -124 l-30 -111 -80 -53 c-64 -42 -83 -51 -95 -42 -38 33
-24 160 31 275 40 83 114 190 124 178 4 -4 24 -31 44 -59z m-787 20 c24 -14
44 -30 44 -36 0 -5 -10 -38 -22 -74 -18 -50 -27 -64 -43 -64 -32 1 -206 37
-213 45 -11 11 156 155 180 155 5 0 29 -12 54 -26z m611 -50 c-13 -27 -35 -81
-47 -121 l-23 -72 -38 20 c-21 10 -50 19 -64 19 -34 0 -42 26 -18 53 11 12 32
40 47 62 18 27 45 49 89 71 34 17 66 28 70 24 5 -4 -2 -29 -16 -56z m-1593 0
c60 -14 75 -21 80 -38 13 -49 8 -54 -66 -77 -40 -11 -76 -24 -80 -28 -4 -3 79
-35 185 -70 105 -35 194 -65 196 -67 7 -6 -45 -71 -118 -148 -58 -60 -122
-109 -270 -207 -106 -71 -189 -129 -184 -129 24 0 569 283 796 414 l259 148
46 -14 c47 -15 63 -34 77 -88 5 -22 0 -30 -31 -50 -35 -23 -73 -81 -89 -137
-5 -17 3 -13 33 18 33 33 46 39 81 39 49 0 52 -9 11 -32 -64 -37 -83 -108 -58
-220 l12 -53 7 69 c5 44 15 79 27 95 19 25 24 26 113 25 115 -1 244 -37 244
-68 0 -14 -14 -23 -50 -35 -64 -21 -121 -56 -141 -86 -9 -13 -17 -44 -18 -69
-5 -98 -97 -131 -207 -75 l-35 18 22 -47 c53 -114 69 -284 38 -411 -23 -93
-88 -214 -137 -256 -48 -41 -67 -44 -67 -10 0 32 -37 56 -98 62 -43 4 -45 3
-23 -9 43 -23 48 -43 22 -79 -19 -25 -22 -40 -18 -76 7 -63 68 -149 127 -180
57 -30 59 -53 5 -71 -78 -27 -262 13 -322 70 -51 48 -48 139 7 217 33 46 25
44 -33 -8 -40 -36 -77 -113 -84 -174 -5 -39 -14 -59 -35 -80 -34 -34 -47 -32
-70 13 l-17 34 -16 -37 c-8 -20 -15 -43 -15 -50 0 -20 -29 -43 -80 -66 -41
-18 -56 -19 -154 -11 -155 13 -172 8 -331 -96 -213 -139 -353 -171 -605 -140
-78 9 -167 26 -197 38 -91 34 -153 101 -153 167 0 48 18 46 70 -9 94 -97 234
-140 394 -120 311 38 525 185 707 485 21 33 36 61 35 62 -1 1 -36 -9 -77 -22
-91 -28 -231 -50 -437 -67 -244 -19 -572 10 -735 67 -149 51 -242 134 -273
242 -45 153 51 332 272 514 l72 58 24 98 24 98 64 33 c36 18 214 104 395 191
281 135 364 180 559 305 126 80 233 146 237 146 5 0 42 -7 83 -16z m1229 -229
c-1 -5 -16 -46 -32 -90 -17 -44 -33 -92 -36 -107 -3 -16 -9 -28 -13 -28 -4 1
-26 18 -50 40 l-43 38 32 76 c33 80 40 85 109 82 19 0 34 -5 33 -11z m159 -15
c21 -6 39 -14 42 -18 2 -4 -2 -101 -9 -216 -14 -240 -7 -224 -118 -258 -66
-20 -101 -17 -63 6 83 51 94 63 97 116 5 63 -7 78 -84 109 -31 13 -58 29 -60
36 -5 12 79 192 104 221 14 17 40 18 91 4z m-2064 -1647 c40 -20 53 -53 30
-80 -18 -23 -162 -88 -228 -104 -65 -15 -230 -15 -260 1 -30 16 -27 65 8 97
38 36 112 71 196 94 86 23 197 20 254 -8z m3689 -19 c7 -19 -53 -83 -119 -126
-50 -31 -65 -47 -25 -27 44 24 113 73 148 106 l37 35 68 -33 c153 -72 348
-104 477 -77 37 8 69 12 72 10 3 -3 5 -19 5 -37 0 -24 -11 -42 -49 -79 l-50
-49 -453 -23 c-249 -12 -490 -25 -536 -28 -63 -5 -82 -3 -76 6 5 8 2 9 -10 5
-71 -27 -54 -10 36 37 140 72 337 197 396 252 50 46 69 53 79 28z m-4197 -24
c0 -5 -5 -10 -11 -10 -5 0 -17 -16 -25 -36 l-15 -36 -30 28 c-16 15 -27 29
-26 31 6 5 82 32 95 32 6 1 12 -3 12 -9z m1480 -41 c0 -21 -58 -69 -83 -69
-14 0 -38 -11 -54 -24 -70 -58 -172 -82 -283 -66 -107 15 -129 30 -34 23 123
-9 242 27 279 83 12 18 21 21 52 17 30 -4 46 1 73 20 39 28 50 32 50 16z
m5116 -1 c2 -3 0 -17 -5 -31 -9 -22 -17 -26 -73 -32 -61 -6 -368 8 -449 21
-40 7 -48 20 -26 43 9 10 68 12 280 8 147 -2 270 -7 273 -9z m889 -5 c-4 -10
-10 -28 -12 -40 -10 -44 -27 -48 -212 -51 -213 -5 -431 15 -431 38 0 4 8 17
18 28 16 20 33 22 252 30 392 15 393 15 385 -5z m-2420 -11 c-6 -5 -38 -30
-73 -56 -111 -85 -222 -243 -222 -318 0 -16 -2 -28 -4 -28 -2 0 -11 -3 -20 -6
-13 -5 -16 1 -16 33 0 92 116 245 257 338 60 39 104 60 78 37z m1665 -4 c0 -7
-7 -34 -14 -60 -8 -26 -18 -79 -22 -117 -6 -60 -9 -71 -25 -71 -15 0 -19 7
-19 38 0 47 25 154 45 192 16 31 35 40 35 18z m884 -72 c22 -83 40 -226 30
-235 -5 -4 -33 -6 -61 -3 l-53 4 0 43 c0 47 23 179 41 233 14 42 24 33 43 -42z
m-6287 -183 c64 -24 73 -31 69 -48 -3 -11 -6 -31 -6 -44 0 -22 -1 -22 -40 13
-22 20 -42 36 -45 36 -3 0 5 -17 18 -37 63 -102 92 -221 77 -320 -9 -66 -35
-147 -56 -181 l-15 -23 -34 30 c-42 36 -67 45 -111 37 -45 -9 -90 -48 -118
-105 l-24 -46 -16 40 c-22 51 -61 92 -102 105 -42 14 -98 -8 -135 -52 l-27
-32 -15 55 c-25 83 -76 122 -155 118 l-47 -3 -11 69 c-11 63 -10 74 8 112 26
55 86 115 171 170 113 74 150 86 257 88 111 3 229 18 256 33 25 15 17 16 101
-15z m3776 -54 c33 -17 67 -51 67 -66 0 -22 -18 -15 -60 23 -52 47 -55 68 -7
43z m-3473 -29 c21 -7 19 -8 -17 -9 -24 -1 -46 -1 -50 -2 -4 0 -9 4 -11 10 -4
13 41 13 78 1z m3699 -24 c18 -22 5 -36 -33 -36 -43 0 -48 7 -30 41 12 24 18
27 33 20 10 -6 23 -17 30 -25z m-634 16 c-6 -5 -49 -14 -97 -21 -97 -13 -202
-42 -233 -65 -17 -12 -18 -18 -9 -44 l12 -30 -132 -6 c-252 -11 -818 -27 -822
-23 -8 7 -21 138 -14 142 3 2 264 13 580 24 316 12 595 23 620 24 25 2 58 4
75 5 16 1 25 -2 20 -6z m2465 -33 c349 -23 637 -43 639 -45 15 -13 -32 -19
-207 -25 -306 -11 -520 -23 -490 -27 40 -5 680 15 698 22 10 4 94 -65 245
-200 l230 -207 122 -556 c66 -306 118 -559 115 -562 -6 -6 -1378 -139 -1427
-139 -20 0 -20 6 -18 342 3 391 -7 356 100 357 74 1 83 11 83 93 0 66 -25 236
-45 303 -25 87 -35 91 -224 99 l-164 7 -21 -25 -21 -26 -67 25 c-36 13 -89 27
-116 31 -27 3 -54 9 -59 13 -6 3 -15 32 -20 64 -10 55 -9 59 11 67 29 11 43
29 51 65 15 66 14 65 61 65 37 0 44 -3 44 -20 0 -35 42 -53 102 -44 l53 9 -60
5 c-44 4 -60 9 -60 20 0 20 114 28 126 8 7 -10 9 -10 9 0 0 8 20 12 68 12 66
0 68 -1 79 -30 12 -31 12 -31 80 -28 59 3 69 6 78 26 10 22 12 22 150 17 201
-8 225 -12 225 -36 0 -43 109 -46 145 -4 17 20 26 23 67 18 38 -4 47 -10 52
-29 4 -14 16 -26 32 -30 30 -8 93 1 107 15 6 6 -5 6 -29 1 -48 -11 -76 -4 -72
18 4 21 73 29 94 11 11 -9 18 -7 34 12 23 28 26 62 6 78 -10 9 -219 21 -673
42 -362 16 -664 29 -670 29 -7 0 -13 11 -13 25 0 51 -25 56 -264 48 l-218 -6
-47 -37 c-25 -20 -77 -64 -116 -98 l-70 -62 -99 0 -98 0 -95 88 -96 87 87 12
c97 12 123 28 157 95 l19 38 218 3 c119 1 289 4 377 5 106 2 374 -11 795 -39z
m-6770 -111 c1 -292 163 -552 409 -654 69 -28 40 -31 -53 -4 -101 29 -195 110
-286 248 l-49 73 -6 -43 c-18 -120 66 -266 163 -284 18 -4 31 -11 29 -18 -2
-6 -37 -112 -76 -234 -76 -236 -78 -249 -41 -310 16 -25 26 -32 52 -32 47 0
31 -7 -73 -34 l-94 -24 -34 33 -33 33 12 73 c7 41 39 179 71 307 57 225 65
261 54 250 -3 -3 -59 -150 -125 -328 l-120 -324 37 -38 c33 -34 35 -38 17 -44
-10 -3 -55 -22 -99 -41 -112 -48 -120 -50 -107 -27 5 10 89 263 186 561 l177
542 -16 53 c-17 54 -33 302 -22 332 15 40 27 11 27 -66z m1917 45 c18 -52 87
-191 109 -220 14 -19 24 -36 22 -39 -3 -2 -213 -7 -466 -11 -395 -5 -462 -4
-462 8 0 8 6 34 14 59 7 25 17 78 21 118 l7 72 47 1 c37 1 533 21 669 27 23 2
34 -3 39 -15z m4267 -29 c9 -3 16 -14 16 -24 0 -14 -70 -154 -85 -169 -14 -14
-12 12 5 70 11 35 20 67 20 70 0 3 -84 4 -187 1 l-188 -4 -89 -49 c-49 -27
-90 -49 -92 -49 -17 0 9 26 84 83 l88 66 154 4 c85 1 178 4 207 5 28 1 58 -1
67 -4z m-1397 -102 c24 -12 60 -45 82 -72 33 -41 43 -68 65 -157 46 -197 65
-335 81 -613 8 -151 18 -292 20 -312 5 -34 0 -43 -54 -106 l-60 -70 -78 -6
c-163 -13 -483 -51 -483 -57 0 -6 20 -8 404 -34 216 -15 220 -14 241 5 12 11
24 20 27 20 7 0 35 -65 57 -135 l19 -60 1 510 c1 280 -4 628 -10 773 -6 145
-9 266 -6 268 2 3 43 -32 89 -78 l85 -83 53 -813 53 -813 -17 -295 c-10 -163
-16 -297 -14 -299 2 -3 17 123 32 278 29 288 32 372 17 557 -5 58 -26 363 -47
678 -44 649 -46 606 40 653 27 15 77 33 110 40 82 18 282 16 375 -4 75 -17
201 -69 201 -84 0 -4 -63 -7 -140 -5 -128 3 -141 1 -146 -15 -3 -10 -15 -39
-26 -65 -33 -75 -9 -103 41 -47 l29 31 140 -4 c77 -1 143 -5 146 -8 3 -3 24
-122 46 -265 38 -239 42 -283 50 -549 10 -314 11 -321 69 -328 l26 -3 -35 -37
-35 -36 -204 -14 c-193 -13 -204 -12 -209 4 -3 14 -15 18 -47 18 -47 0 -55 -9
-55 -63 0 -41 -9 -54 -40 -58 -22 -4 -26 -11 -37 -69 -7 -36 -12 -80 -13 -98
0 -31 2 -33 28 -28 15 3 52 8 82 12 30 3 60 11 67 16 12 9 30 107 26 139 -3
24 15 26 237 39 107 6 205 12 218 14 l22 3 0 -267 0 -268 -41 -202 c-22 -111
-39 -204 -37 -206 3 -2 26 87 52 199 43 185 47 216 52 367 3 91 10 179 16 197
34 113 324 264 641 332 77 17 794 94 841 90 15 -1 -126 -46 -202 -64 -75 -18
-139 -19 -230 -4 -64 11 -72 10 -162 -21 -58 -19 -131 -35 -187 -41 -51 -4
-109 -16 -130 -24 -96 -40 -205 -138 -263 -235 -21 -36 -58 -91 -82 -123 -73
-96 -117 -189 -150 -314 -27 -104 -31 -135 -32 -263 l-1 -144 -70 -14 c-38 -8
-73 -17 -77 -20 -3 -4 -51 -188 -104 -410 -54 -222 -100 -399 -102 -394 -2 6
33 187 78 403 44 216 79 393 78 394 -2 2 -232 -40 -512 -93 -372 -70 -513 -93
-525 -85 -9 5 -28 34 -43 64 -15 30 -34 54 -43 54 -8 0 -24 15 -35 33 -11 17
-22 32 -25 32 -4 0 -4 -4 -1 -9 3 -5 -11 -3 -32 5 -33 11 -52 10 -141 -7 -57
-11 -105 -18 -107 -16 -3 2 0 17 6 33 6 16 9 43 5 61 l-6 33 70 0 c66 0 73 -2
138 -46 l68 -46 -35 36 c-40 43 -87 74 -129 86 -20 6 -138 -4 -368 -31 l-338
-39 -150 -55 -150 -55 -155 -221 c-85 -122 -160 -224 -167 -226 -6 -3 -19 -1
-27 4 -12 6 20 55 153 234 93 124 173 229 178 232 6 4 106 38 224 76 143 46
331 96 569 151 195 44 401 92 456 106 135 32 138 32 130 -8 -23 -116 -47 -140
-56 -57 l-5 44 -42 -102 c-24 -56 -43 -107 -43 -113 0 -7 14 -4 36 9 35 21 37
21 67 4 17 -10 32 -24 34 -30 3 -7 -14 -32 -37 -57 l-41 -44 28 -9 c25 -9 34
-5 76 30 42 36 47 45 47 81 0 29 -7 47 -26 67 l-25 27 45 188 c44 189 45 190
47 394 2 166 -1 206 -12 212 -11 7 -1112 188 -1140 188 -5 0 -57 72 -116 160
-125 188 -98 173 -382 214 -96 14 -176 28 -179 31 -3 3 15 5 39 5 24 0 274 7
554 15 281 8 563 15 627 15 l118 0 40 36 40 36 0 447 0 446 -39 45 -39 45
-898 0 -899 0 -3 72 -3 73 468 3 c257 1 646 2 863 2 391 0 395 0 437 -23z
m257 -45 c3 -34 10 -208 16 -387 6 -179 12 -372 15 -430 3 -82 2 -95 -5 -60
-9 40 -60 825 -60 913 0 27 4 35 14 31 10 -4 16 -27 20 -67z m1385 63 c140 -9
177 -18 155 -40 -7 -7 -70 -7 -200 1 -104 6 -191 13 -193 15 -2 2 2 10 9 19
14 17 34 18 229 5z m-349 -10 c0 -5 -14 -33 -32 -61 l-31 -52 -81 7 c-45 3
-126 6 -181 6 l-100 1 55 49 c51 45 59 49 115 52 135 9 255 8 255 -2z m748
-16 c12 -2 22 -12 22 -21 0 -14 -12 -15 -96 -11 -94 5 -123 15 -109 38 7 11
120 7 183 -6z m457 -14 c132 -6 250 -13 263 -16 24 -5 30 -29 9 -37 -7 -2
-132 1 -277 9 -438 22 -418 19 -406 50 5 14 18 16 89 10 45 -3 190 -11 322
-16z m-532 -74 c8 -21 -2 -26 -55 -26 -41 0 -48 3 -48 20 0 17 7 20 49 20 33
0 51 -5 54 -14z m525 -23 c-3 -14 -13 -18 -48 -18 -35 0 -45 4 -48 18 -3 14 4
17 48 17 44 0 51 -3 48 -17z m-1788 3 c0 -2 3 -11 6 -20 5 -14 -4 -16 -63 -16
-64 0 -93 10 -93 32 0 4 34 8 75 8 41 0 75 -2 75 -4z m520 -16 c0 -19 -7 -20
-212 -20 -210 0 -211 0 -193 20 17 19 31 20 212 20 186 0 193 -1 193 -20z
m-5741 -66 c17 -14 36 -42 42 -62 12 -43 8 -151 -6 -154 -16 -3 -105 114 -117
154 -9 31 -8 41 6 63 21 32 37 32 75 -1z m289 -93 c30 -31 62 -122 62 -178 0
-28 -4 -32 -38 -38 -93 -15 -156 42 -156 142 0 95 71 135 132 74z m325 -2 l31
-32 -44 -39 c-86 -75 -120 -81 -139 -26 -17 48 -13 67 18 99 41 41 91 40 134
-2z m5323 -54 c139 -29 234 -88 234 -146 l0 -29 89 0 89 0 6 -112 c10 -190 18
-623 12 -617 -6 6 -42 395 -52 570 l-6 116 -117 7 c-64 3 -127 9 -140 13 -23
6 -23 7 -5 14 10 4 31 8 47 8 23 1 27 5 27 30 0 50 -107 107 -270 141 -79 17
-82 19 -37 19 26 1 82 -6 123 -14z m-3094 -82 c9 -131 -24 -346 -57 -373 -8
-6 -48 -10 -97 -8 -76 3 -83 5 -81 23 1 11 24 97 51 190 27 94 52 182 56 198
6 26 9 27 65 27 l59 0 4 -57z m3358 -24 c0 -21 -4 -39 -10 -39 -5 0 -10 21
-10 46 0 27 4 43 10 39 6 -3 10 -24 10 -46z m-4561 29 c-1 -20 -39 -88 -97
-174 -29 -43 -65 -109 -80 -146 l-27 -68 -120 2 -120 3 -3 50 c-7 107 34 273
79 321 22 23 27 24 196 24 132 0 173 -3 172 -12z m-2129 -7 c0 -3 -63 -195
-140 -426 -129 -388 -144 -426 -192 -497 -29 -43 -56 -78 -60 -78 -7 0 -3 447
7 694 6 157 -4 176 -86 176 -32 0 -55 -6 -73 -21 -33 -26 -40 -20 -32 25 7 38
44 89 80 109 27 15 496 33 496 18z m6476 -16 c27 -8 56 -19 64 -25 23 -15 -5
-30 -57 -30 -54 0 -73 -25 -74 -100 l-1 -55 -14 80 c-7 44 -16 95 -19 113 -6
30 -4 32 23 32 15 0 51 -7 78 -15z m-5365 -232 c16 -42 6 -218 -17 -283 l-19
-55 -307 -3 c-243 -2 -308 0 -308 10 0 7 25 88 56 180 l56 168 166 3 c92 1
211 4 265 5 l97 2 11 -27z m5859 -128 c0 -16 -64 -22 -74 -6 -9 14 5 21 41 21
23 0 33 -5 33 -15z m-4949 -147 c15 -36 18 -136 5 -183 l-8 -30 -13 25 c-28
51 -38 117 -25 170 7 28 16 50 20 50 4 0 14 -15 21 -32z m252 -39 c15 -11 31
-38 38 -61 11 -41 9 -65 -12 -141 -10 -38 -11 -39 -47 -32 -80 14 -117 65
-110 151 6 71 29 104 72 104 18 0 45 -9 59 -21z m271 -49 c30 -37 46 -88 46
-152 l0 -48 -49 0 c-66 0 -97 13 -116 49 -25 50 -15 115 27 169 19 23 65 14
92 -18z m-2954 -235 c-7 -172 -16 -225 -41 -225 -5 0 -7 10 -5 23 3 12 12 99
21 192 16 161 22 203 28 194 2 -2 0 -85 -3 -184z m2295 128 c-4 -16 -7 -29 -8
-29 -1 -1 -38 -12 -82 -23 -78 -22 -115 -43 -115 -65 0 -8 -167 -11 -583 -11
-532 0 -748 -7 -967 -32 -30 -3 -52 -3 -49 1 3 3 59 24 123 46 266 90 692 130
1470 138 l218 2 -7 -27z m1415 -43 c96 -11 211 -26 255 -34 44 -8 168 -27 275
-42 182 -25 260 -44 180 -44 -19 0 -287 -14 -595 -31 -308 -17 -576 -28 -595
-24 -19 3 -84 12 -143 19 -59 8 -110 16 -113 18 -2 3 49 8 113 11 109 6 320
38 342 51 5 4 17 26 27 51 20 54 9 53 254 25z m-1665 -120 c528 -21 1023 -53
1053 -70 8 -4 -141 -65 -350 -144 -200 -76 -381 -146 -403 -155 -37 -16 -93
-17 -860 -5 -451 7 -878 13 -950 14 l-130 1 -65 96 c-36 52 -73 108 -83 123
l-18 28 33 20 c43 26 202 59 354 72 292 27 998 36 1419 20z m2125 -81 c117
-23 233 -78 311 -148 56 -50 88 -104 68 -116 -5 -4 -215 -33 -466 -66 l-458
-60 -223 12 c-122 7 -225 15 -227 20 -4 5 34 339 39 346 1 1 471 27 661 36 93
5 191 -3 295 -24z m4595 -176 c-4 -65 -7 -125 -7 -133 0 -8 16 -53 36 -100 32
-76 36 -94 35 -170 l-1 -85 -29 110 c-48 179 -149 352 -228 390 -32 17 -37 16
-160 -19 -243 -69 -252 -70 -314 -52 -80 23 -135 20 -203 -10 -50 -23 -79 -28
-185 -34 -149 -8 -178 -21 -272 -119 -106 -110 -172 -284 -191 -496 l-6 -60
16 70 c33 146 113 298 195 369 67 57 109 75 210 86 111 13 148 21 217 49 46
18 70 21 190 18 133 -2 140 -1 232 31 83 30 104 33 162 29 36 -3 84 -15 105
-25 38 -20 114 -94 167 -165 l29 -38 -7 -137 -6 -137 -33 -33 -34 -33 -25 63
c-14 35 -31 77 -37 93 -6 17 -23 44 -37 60 l-25 30 24 -50 c14 -27 37 -84 51
-125 15 -41 49 -125 76 -186 70 -158 101 -288 106 -449 l4 -130 -44 210 c-44
214 -50 231 -129 415 -24 58 -57 137 -71 175 -39 104 -32 100 -117 70 -63 -23
-92 -27 -192 -28 -136 -2 -129 2 -192 -111 -33 -60 -55 -146 -55 -215 0 -20
-20 -126 -44 -236 -52 -240 -51 -235 -71 -408 -22 -192 -54 -288 -141 -424
-24 -38 -50 -62 -101 -92 -60 -36 -77 -41 -129 -41 -92 0 -133 16 -187 72 -88
91 -108 163 -148 538 -25 233 -23 506 5 750 22 188 30 219 95 355 49 102 68
129 122 181 97 93 130 106 279 114 104 6 135 12 183 34 66 30 146 34 221 12
53 -16 77 -12 295 50 154 44 177 42 243 -26 26 -27 59 -68 73 -90 36 -57 43
-43 10 18 -37 67 -91 119 -150 141 l-50 19 90 7 c50 3 95 8 100 10 6 2 21 4
34 4 l24 1 -8 -117z m-8856 -12 c11 -7 10 -14 -5 -37 l-19 -28 -6 29 c-8 44 1
54 30 36z m8673 -22 c16 -12 28 -23 26 -25 -2 -2 -26 3 -53 11 -64 20 -130 8
-244 -44 -117 -53 -132 -55 -249 -31 -131 26 -141 26 -218 -11 -59 -29 -76
-32 -171 -34 -128 -2 -115 14 21 26 54 5 128 21 185 40 89 30 98 31 156 20 34
-6 84 -11 111 -11 54 0 186 28 279 59 78 26 120 26 157 0z m-1572 2 c0 -4 -24
-31 -53 -59 l-54 -50 -89 -7 c-49 -3 -120 -10 -159 -14 -142 -16 -100 5 62 32
155 26 169 30 207 61 51 41 86 56 86 37z m-1720 -146 c294 -47 536 -87 537
-89 5 -5 -15 -9 -255 -56 -126 -24 -236 -51 -270 -66 -141 -62 -842 -397 -839
-401 2 -2 94 34 203 81 252 106 286 116 416 123 174 9 332 -26 460 -103 73
-44 184 -164 152 -164 -3 0 -92 -20 -197 -44 -204 -47 -328 -59 -882 -86 -110
-6 -252 -15 -316 -21 -64 -6 -125 -12 -135 -12 -16 -2 -18 4 -16 33 5 56 11
68 40 78 20 7 -4 10 -98 15 -103 4 -136 10 -187 31 -38 16 -99 30 -155 36 -78
9 -1006 60 -1075 60 -21 0 -23 5 -23 57 l0 56 -349 -7 -348 -7 -17 25 c-18 28
-88 72 -136 86 -18 5 -518 10 -1158 10 -1030 1 -1132 0 -1182 -15 -76 -23
-109 -41 -151 -82 l-36 -34 -309 -6 c-170 -3 -307 -3 -304 -1 3 3 125 75 271
160 l266 155 364 50 c200 27 371 53 379 56 12 6 26 -21 64 -123 27 -71 50
-129 52 -127 1 1 -9 53 -22 116 -14 63 -23 118 -22 121 2 4 43 -15 93 -43 l90
-51 1065 -29 1065 -29 369 86 c202 48 372 86 377 84 4 -2 -45 -47 -109 -100
-64 -54 -146 -125 -182 -158 -50 -47 -26 -31 105 66 94 70 194 147 223 172
l53 44 171 -11 c94 -6 172 -12 174 -14 2 -1 -45 -29 -104 -61 -329 -179 -542
-300 -538 -304 3 -2 20 5 38 16 18 10 186 96 373 190 l340 171 479 62 c263 33
513 67 555 74 42 7 83 13 91 14 9 0 256 -37 550 -84z m3238 -373 c3 -10 -5
-13 -29 -11 -44 4 -54 9 -38 20 20 13 62 7 67 -9z m-328 -22 c18 -11 13 -16
-27 -23 -34 -7 -41 1 -21 21 14 14 28 15 48 2z m324 -45 c25 -23 76 -117 76
-141 0 -6 -11 -21 -26 -34 -21 -21 -27 -22 -34 -10 -5 8 -10 22 -10 30 0 33
-22 92 -41 111 -11 11 -33 19 -51 19 -29 0 -259 -39 -328 -56 l-25 -6 24 26
c22 24 32 26 105 26 70 1 89 5 136 30 73 38 136 40 174 5z m-6709 -13 c62 -28
121 -85 136 -129 9 -28 15 -33 42 -33 18 0 417 -20 887 -45 932 -50 940 -51
1028 -115 91 -66 145 -178 146 -305 1 -108 -25 -538 -34 -555 -5 -9 -260 -117
-567 -240 l-558 -224 -90 -3 c-427 -14 -1122 -21 -1250 -13 -82 6 -179 11
-215 12 l-65 3 -7 -470 c-4 -258 -10 -480 -13 -493 -9 -35 -48 -49 -81 -27
l-26 17 7 488 7 488 -43 6 c-24 3 -165 10 -314 16 -148 6 -481 21 -740 35
-258 13 -472 22 -475 19 -4 -5 -48 -794 -49 -896 -1 -34 -7 -54 -21 -68 -25
-25 -41 -25 -70 -2 l-22 18 25 474 c13 261 22 477 20 480 -3 3 -102 9 -221 13
-272 10 -903 80 -945 105 -15 10 -122 122 -237 251 -179 199 -210 238 -210
265 0 63 59 493 75 543 31 104 131 196 254 234 71 21 51 20 789 35 l333 6 52
52 c91 91 1 85 1282 83 l1120 -2 50 -23z m5327 -324 c-3 -147 -10 -193 -28
-176 -21 22 2 338 25 338 3 0 5 -73 3 -162z m-3032 3 c0 -11 -3 -27 -6 -36 -6
-14 -11 -12 -35 11 -38 36 -36 44 6 44 28 0 35 -4 35 -19z m870 -63 c-47 -11
-189 -53 -316 -94 l-230 -74 -160 -215 -159 -215 -3 42 c-2 24 1 86 7 138 6
52 14 143 17 203 5 99 8 107 27 112 12 2 96 14 187 26 91 11 273 38 405 59
266 42 361 49 225 18z m250 -98 c0 -18 -48 -106 -66 -121 -14 -11 -68 -15
-268 -17 -138 -2 -271 1 -296 5 l-44 8 114 43 c102 37 138 45 310 66 232 28
250 29 250 16z m418 -131 c38 -19 82 -68 82 -91 0 -5 -10 -8 -22 -8 -13 0 -36
-7 -52 -15 -39 -21 -41 -20 -69 28 -14 23 -37 53 -52 67 -24 22 -24 25 -8 31
33 14 76 9 121 -12z m2490 -38 c3 -8 -1 -12 -9 -9 -7 2 -15 10 -17 17 -3 8 1
12 9 9 7 -2 15 -10 17 -17z m203 -58 c30 -18 31 -28 13 -94 -2 -8 10 -28 27
-45 l31 -29 22 28 c21 26 23 27 38 10 34 -39 37 -56 17 -84 -16 -23 -17 -28
-4 -45 8 -10 15 -29 15 -42 0 -22 1 -22 30 -7 l31 16 14 -35 c20 -46 19 -53
-6 -61 -12 -4 -18 -12 -15 -20 3 -8 11 -42 18 -75 12 -59 13 -61 39 -56 22 4
28 1 33 -17 12 -45 7 -67 -18 -77 -17 -6 -23 -15 -20 -32 2 -13 6 -45 9 -72 6
-46 8 -48 35 -43 26 6 28 4 33 -36 7 -50 3 -57 -29 -57 -23 0 -24 -2 -24 -75
l0 -75 30 0 c29 0 30 -2 30 -45 0 -43 -1 -45 -30 -45 -30 0 -30 -1 -30 -55 0
-30 -1 -58 -2 -62 -2 -5 7 -9 20 -11 19 -3 22 -9 22 -48 0 -42 -1 -44 -30 -44
-29 0 -30 -2 -30 -45 0 -25 -1 -48 -1 -52 -1 -5 8 -12 20 -18 15 -7 20 -16 17
-30 -3 -11 -6 -28 -6 -37 0 -12 -8 -18 -25 -18 -19 0 -26 -6 -30 -27 -4 -16
-10 -45 -14 -65 -7 -31 -6 -39 11 -50 17 -11 18 -18 10 -48 -7 -27 -13 -34
-30 -33 -17 2 -23 -5 -32 -35 -13 -47 -13 -58 1 -80 14 -22 -14 -84 -34 -77
-17 7 -58 -100 -44 -114 15 -15 -19 -85 -37 -78 -16 6 -58 -47 -51 -65 3 -7
-6 -26 -19 -43 -21 -25 -28 -28 -43 -19 -26 16 -58 -7 -50 -36 4 -15 -2 -24
-23 -35 -43 -22 -56 -19 -66 17 -7 25 -17 34 -43 40 -42 11 -73 -8 -101 -61
-19 -38 -40 -61 -40 -44 0 4 18 37 40 72 l39 65 -43 46 c-52 55 -87 114 -132
222 -74 175 -128 475 -117 651 3 53 3 97 0 97 -3 0 -25 -11 -48 -25 -24 -14
-47 -25 -51 -25 -10 0 -10 62 -2 151 l7 66 53 13 c37 9 54 18 54 29 0 9 3 40
7 70 4 40 3 52 -5 47 -17 -10 -15 14 4 49 15 28 52 177 76 310 6 33 14 65 18
70 22 27 49 119 39 131 -7 9 -5 30 5 69 18 69 19 70 45 54 11 -7 22 -11 24 -9
2 3 18 25 37 49 l34 44 -28 22 c-26 20 -26 23 -11 39 22 22 30 20 49 -9 l17
-26 27 20 c35 24 99 42 128 35 19 -5 23 0 29 28 12 56 19 59 66 31z m-349 -55
c-7 -7 -12 -8 -12 -2 0 14 12 26 19 19 2 -3 -1 -11 -7 -17z m-2187 -438 c44
-126 95 -319 130 -493 14 -70 30 -138 36 -150 25 -54 -8 -60 881 157 458 112
835 202 837 200 2 -2 2 -6 -1 -10 -12 -11 -1742 -485 -1755 -480 -8 3 -13 21
-13 43 0 118 -78 522 -146 754 -19 65 -34 122 -34 126 1 18 30 -48 65 -147z
m-858 -45 c8 -22 -6 -33 -17 -15 -13 20 -12 30 0 30 6 0 13 -7 17 -15z m243
-75 c21 -11 41 -24 44 -28 3 -5 -1 -31 -8 -59 l-14 -51 39 -38 c38 -37 40 -38
53 -19 44 62 41 60 59 31 51 -79 49 -71 27 -99 -20 -25 -20 -28 -5 -56 8 -17
15 -42 15 -56 0 -25 1 -25 30 -10 42 22 46 20 64 -32 15 -44 15 -49 0 -60 -9
-7 -21 -14 -25 -15 -5 -2 1 -45 14 -96 12 -51 26 -91 32 -89 53 20 53 20 64
-34 12 -56 9 -63 -34 -75 -19 -5 -20 -9 -11 -95 l10 -90 38 6 c33 6 38 4 38
-12 0 -10 3 -34 6 -54 6 -37 6 -37 -36 -44 -40 -7 -42 -8 -36 -37 3 -17 6 -57
6 -88 l0 -58 40 -7 40 -7 0 -55 0 -56 -39 7 -38 6 -7 -46 c-3 -26 -6 -61 -6
-79 0 -29 4 -33 35 -39 43 -8 46 -14 38 -71 l-6 -47 -37 6 c-37 6 -38 5 -44
-32 -13 -81 -9 -98 27 -109 28 -8 32 -13 29 -39 -6 -68 -10 -74 -49 -71 l-36
2 -13 -65 c-18 -94 -18 -98 16 -105 33 -7 36 -20 16 -75 -11 -30 -17 -35 -46
-35 -32 0 -34 -2 -51 -57 l-17 -57 29 -12 c16 -6 29 -13 29 -16 0 -4 -40 -86
-45 -91 -2 -2 -12 1 -23 7 -17 9 -22 3 -45 -56 -23 -59 -25 -69 -12 -83 12
-14 11 -21 -11 -58 -18 -30 -31 -41 -42 -38 -21 7 -65 -57 -57 -83 3 -11 -8
-30 -34 -55 -34 -33 -40 -36 -48 -21 -8 14 -13 14 -37 4 -22 -10 -26 -18 -24
-43 3 -28 -2 -33 -41 -53 -24 -12 -47 -20 -52 -18 -4 3 -10 22 -14 43 -5 33
-11 39 -46 50 -36 11 -45 10 -72 -6 -18 -10 -44 -39 -58 -65 -29 -54 -46 -74
-55 -64 -3 3 18 43 48 89 l55 84 -58 63 c-36 39 -77 100 -109 162 -90 176
-136 332 -175 597 -21 142 -24 187 -18 301 4 97 3 132 -5 127 -7 -4 -12 12
-15 51 l-3 58 -2 -61 -2 -61 -50 -23 c-27 -13 -52 -21 -55 -18 -7 6 10 243 18
255 3 5 31 16 62 23 31 7 58 17 61 22 6 9 23 151 19 156 -2 2 -28 -4 -60 -13
-31 -9 -59 -15 -61 -12 -5 4 40 244 47 251 2 3 26 0 52 -6 27 -5 51 -8 53 -5
6 6 33 115 34 134 0 7 -17 16 -39 19 -65 10 -66 11 -30 118 17 53 35 96 40 96
4 0 24 -10 44 -21 20 -12 38 -20 40 -18 2 2 15 34 29 72 l25 67 -40 26 -40 25
36 67 c21 37 39 69 41 71 2 2 19 -8 38 -23 l35 -26 22 33 c12 17 34 44 48 60
l25 27 -35 29 -34 30 23 23 23 23 28 -34 28 -34 42 28 c31 21 59 30 109 34 65
6 66 6 74 41 17 70 13 68 68 40z m-550 -45 c-53 -29 -151 -67 -156 -62 -6 6
95 60 136 74 58 19 68 14 20 -12z m133 -26 c-13 -13 -26 -18 -34 -14 -9 6 -7
11 6 22 11 7 26 13 34 13 12 0 11 -5 -6 -21z m-123 -155 c0 -14 -63 -110 -79
-119 -9 -5 -32 -10 -51 -11 -22 0 -99 -32 -204 -83 -93 -45 -175 -80 -183 -77
-26 10 -12 36 58 99 70 64 74 66 258 130 196 69 201 71 201 61z m-5429 -133
l31 -68 71 -9 c47 -6 72 -13 71 -21 -1 -7 -2 -49 -2 -93 l-2 -80 -80 0 c-73 0
-82 2 -110 28 -29 25 -32 34 -45 147 -20 163 -20 165 10 165 21 0 30 -10 56
-69z m-781 -115 c93 -87 179 -171 190 -186 l20 -28 -53 -33 c-28 -18 -64 -43
-78 -57 l-27 -24 -119 105 c-132 116 -193 180 -193 201 0 33 64 187 76 184 7
-2 90 -74 184 -162z m4477 17 c61 -135 76 -192 81 -307 4 -104 3 -109 -14
-101 -39 17 -104 17 -129 1 -13 -9 -26 -16 -28 -16 -3 0 -7 51 -9 113 -4 106
-7 118 -52 227 -26 63 -50 123 -53 133 -5 15 4 17 84 17 l90 0 30 -67z m-2682
-58 c292 -25 584 -50 650 -55 66 -6 139 -13 163 -16 l42 -5 0 -64 0 -63 -42
-4 c-36 -4 -349 12 -1300 67 l-118 7 0 63 c0 34 3 76 6 93 6 27 9 30 38 26 17
-2 270 -24 561 -49z m7388 -47 c-6 -68 -30 -125 -66 -158 -12 -12 -60 -51
-106 -88 l-84 -66 -39 43 c-39 45 -46 61 -27 61 37 0 309 230 309 261 0 5 4 9
10 9 6 0 7 -24 3 -62z m-3135 -15 c-26 -72 -66 -132 -110 -165 -34 -26 -290
-158 -306 -158 -5 0 -28 23 -52 51 l-43 51 24 19 c24 19 487 258 501 259 4 0
-2 -26 -14 -57z m-1916 -85 c-3 -86 -6 -95 -32 -122 l-28 -29 -578 32 c-319
18 -585 34 -591 36 -9 3 -13 26 -13 70 l0 66 53 -5 c28 -4 261 -24 517 -46
256 -22 486 -42 511 -45 l46 -5 54 69 c30 39 56 70 59 71 3 0 4 -42 2 -92z
m126 30 c10 -25 10 -28 -8 -28 -16 0 -20 7 -20 37 0 39 9 36 28 -9z m1258 -84
c-6 -15 -32 -19 -40 -6 -3 5 2 19 11 32 14 20 17 21 25 6 5 -10 7 -24 4 -32z
m-5669 -120 c87 -80 172 -159 188 -176 l30 -30 -65 4 -65 3 -9 -40 c-19 -89
-11 -92 -157 52 l-133 131 13 79 c17 104 22 123 31 123 5 0 80 -66 167 -146z
m663 -15 c16 -31 30 -59 30 -62 0 -17 -73 -47 -114 -47 -46 0 -67 -12 -91 -55
-10 -16 -18 -11 -83 45 -70 60 -85 80 -59 80 6 0 64 34 127 75 l115 74 22 -27
c13 -15 36 -52 53 -83z m8800 -6 c0 -78 0 -78 -35 -100 -19 -13 -39 -23 -45
-23 -6 0 -10 34 -10 85 0 82 1 85 28 99 55 31 62 24 62 -61z m-3845 -95 l45
-56 -68 -50 -67 -51 -33 32 c-19 18 -43 44 -53 59 l-20 27 52 77 51 76 24 -28
c13 -16 44 -54 69 -86z m3318 52 l46 -55 -26 -27 c-15 -16 -31 -28 -36 -28 -8
0 -109 105 -115 121 -3 8 68 50 79 46 4 -1 27 -27 52 -57z m397 8 c0 -75 -35
-142 -132 -253 -93 -107 -81 -107 -160 -12 l-41 48 58 52 c76 68 258 215 268
216 4 1 7 -23 7 -51z m-963 36 c-3 -3 -153 -54 -334 -113 l-328 -107 -22 80
c-12 45 -22 85 -23 91 0 5 22 -14 48 -43 38 -41 55 -52 78 -51 16 0 148 33
294 73 262 73 299 82 287 70z m403 -43 c0 -5 -9 -12 -20 -15 -11 -3 -29 -9
-40 -12 -34 -9 -22 12 13 24 43 13 47 14 47 3z m-2685 -103 c-33 -134 -57
-166 -210 -280 l-120 -89 -62 68 c-34 37 -62 71 -63 75 0 15 294 220 376 261
49 25 91 43 93 41 2 -1 -5 -36 -14 -76z m2789 -158 c107 -120 156 -182 156
-199 0 -29 9 -34 -169 109 -140 113 -143 117 -157 230 -4 38 -3 52 4 45 6 -5
80 -89 166 -185z m-353 110 c4 -36 5 -67 3 -69 -2 -2 -61 2 -131 8 l-129 12
-234 -77 c-129 -42 -239 -80 -244 -85 -17 -15 -67 -292 -62 -342 8 -73 -7 -94
-94 -134 -123 -57 -120 -56 -120 -29 0 21 11 28 70 52 39 15 75 33 82 41 17
21 47 197 54 324 l7 116 381 126 c210 69 388 125 396 124 11 -2 17 -20 21 -67z
m-3863 -34 c10 -14 25 -52 32 -85 7 -34 19 -66 27 -73 8 -7 49 -15 92 -18 l76
-5 -4 -60 c-2 -33 -5 -62 -6 -63 -8 -8 -225 -59 -230 -54 -3 3 -5 28 -5 56 0
32 -6 61 -16 75 l-17 23 -211 -6 c-117 -3 -202 -2 -191 2 11 5 83 21 161 37
l141 27 23 54 c24 59 69 114 93 114 9 0 24 -11 35 -24z m4837 -58 l14 -63 -37
-30 c-20 -16 -41 -30 -46 -30 -11 0 -20 29 -30 95 -6 45 -6 45 36 71 24 14 45
25 47 23 2 -2 9 -31 16 -66z m-9485 -194 c85 -82 186 -180 224 -216 l69 -65
-48 -37 c-48 -36 -49 -36 -69 -18 -49 45 -249 213 -329 277 l-86 70 -1 110 0
109 42 -39 c24 -22 113 -108 198 -191z m5468 45 c73 -81 135 -155 138 -162 5
-14 -104 -117 -124 -117 -5 0 -16 9 -23 19 -8 11 -58 71 -112 134 l-98 116 37
80 c20 45 40 81 43 80 3 0 66 -68 139 -150z m3883 -17 c-7 -16 -50 -66 -96
-112 l-85 -84 -39 38 -40 39 127 133 127 134 9 -60 c6 -41 5 -68 -3 -88z
m-8851 -27 c47 -9 100 -20 118 -23 l34 -7 -107 -72 -107 -73 -74 67 c-41 36
-74 68 -74 69 0 12 89 63 105 60 11 -2 58 -12 105 -21z m9046 -99 c-8 -12 -26
-34 -40 -51 l-25 -30 -14 35 c-25 59 -24 66 23 105 l44 37 13 -38 c11 -31 11
-41 -1 -58z m-3527 -4 c-5 -41 -19 -95 -37 -134 -27 -59 -39 -72 -151 -161
-67 -53 -125 -97 -129 -96 -10 0 -112 124 -112 135 0 5 28 32 61 59 90 73 363
272 370 269 3 -2 2 -34 -2 -72z m2922 -43 c112 -91 147 -125 139 -134 -8 -10
-38 2 -128 52 -113 62 -118 66 -139 116 -32 73 -36 87 -29 87 4 0 74 -55 157
-121z m-7956 61 c4 -6 -8 -10 -30 -10 -20 0 -45 -5 -55 -10 -25 -13 -37 5 -13
19 23 13 90 14 98 1z m8424 -129 c-8 -52 -22 -76 -91 -155 -33 -38 -36 -39
-64 -28 -16 7 -40 21 -54 32 l-25 19 115 116 c106 106 115 113 121 92 4 -13 3
-48 -2 -76z m-8599 8 c-12 -62 -39 -112 -106 -199 -52 -68 -193 -220 -203
-220 -3 1 -44 36 -90 79 l-84 78 77 59 c43 33 151 109 240 171 117 81 163 108
168 98 5 -7 3 -37 -2 -66z m4594 -181 c97 -113 176 -210 175 -215 0 -4 -18
-23 -39 -41 l-38 -32 -146 165 -146 164 0 86 c0 48 4 85 9 83 5 -1 88 -96 185
-210z m-845 171 c31 -42 105 -87 156 -94 66 -10 118 9 163 60 39 44 41 45 102
45 70 0 80 -19 17 -32 -20 -4 -56 -23 -80 -41 -56 -43 -120 -60 -199 -55 -74
5 -128 28 -173 75 l-32 33 -264 -157 c-184 -109 -273 -157 -294 -157 -36 0
-824 30 -1155 44 -129 5 -278 10 -331 10 l-96 0 -18 -47 c-98 -263 -355 -598
-590 -768 -52 -37 -37 -22 50 52 84 71 191 196 270 313 70 104 173 314 215
436 l32 92 61 -5 c34 -2 402 -26 817 -53 l755 -49 37 26 c57 39 511 301 524
302 5 1 20 -13 33 -30z m-4629 -131 c75 -68 208 -188 298 -266 89 -79 162
-150 162 -157 0 -33 -31 -20 -188 78 -92 57 -220 134 -284 171 -64 37 -119 75
-122 84 -8 26 -36 195 -36 215 0 27 19 13 170 -125z m9707 87 c-5 -11 -22 -37
-36 -58 -23 -36 -26 -37 -38 -21 -20 27 -16 42 23 90 33 40 38 43 49 27 10
-13 10 -23 2 -38z m-8322 -132 c59 -167 105 -235 183 -271 49 -22 63 -24 146
-20 57 4 111 13 144 26 28 11 52 16 52 12 0 -5 -19 -24 -42 -44 -24 -20 -37
-36 -30 -36 24 0 91 40 127 75 19 20 35 32 35 27 0 -20 -174 -284 -256 -389
-66 -85 -93 -112 -106 -107 -36 11 -101 -41 -147 -118 -21 -35 -41 -49 -41
-30 0 5 28 46 62 92 l62 83 -40 31 c-167 130 -311 390 -378 684 l-14 62 108 0
107 0 28 -77z m8211 32 c12 -48 -3 -69 -87 -123 -45 -29 -83 -51 -85 -49 -6 5
149 196 158 197 4 0 10 -11 14 -25z m-3356 -54 c0 -21 3 -65 6 -97 l5 -59 -51
-33 c-29 -18 -54 -32 -56 -30 -1 2 -6 51 -9 108 l-7 105 49 22 c64 28 63 29
63 -16z m-4000 11 c0 -11 -54 -147 -88 -222 -40 -89 -113 -211 -178 -297 -60
-81 -174 -206 -181 -199 -3 2 20 37 50 78 66 87 158 241 226 375 41 83 60 129
106 261 5 13 65 17 65 4z m6913 -41 c43 -23 76 -45 74 -47 -6 -6 -117 34 -134
48 -17 14 -38 52 -26 47 5 -2 43 -24 86 -48z m-8009 -48 c10 -39 16 -75 13
-80 -3 -5 -31 -26 -62 -48 -43 -29 -59 -35 -65 -26 -9 15 -44 171 -38 174 1 1
30 16 63 34 33 18 63 29 66 25 3 -4 13 -39 23 -79z m449 32 c72 -7 78 -14 50
-55 -26 -38 -45 -49 -83 -50 -33 0 -39 5 -68 53 -18 29 -32 56 -32 60 0 5 15
6 33 3 17 -3 62 -8 100 -11z m4478 -146 c-6 -19 -29 -64 -51 -98 -42 -65 -189
-241 -201 -241 -10 0 -139 146 -138 156 1 11 115 110 273 236 l121 97 3 -57
c2 -31 -1 -73 -7 -93z m3659 116 c0 -2 -10 -10 -22 -16 -21 -11 -22 -11 -9 4
13 16 31 23 31 12z m-8792 -119 c-7 -104 -36 -154 -145 -247 -48 -41 -93 -78
-100 -82 -14 -9 -125 61 -120 76 6 19 352 335 361 329 5 -2 6 -37 4 -76z
m4433 -71 c30 -33 121 -135 202 -226 132 -150 145 -168 133 -185 -13 -17 -26
-8 -185 121 -95 76 -174 142 -177 147 -10 16 -42 209 -34 206 4 -2 31 -30 61
-63z m-5307 -72 c123 -77 487 -313 495 -320 3 -2 -2 -10 -10 -18 -12 -12 -28
-8 -119 32 -58 25 -170 67 -250 93 l-145 48 -29 58 c-36 74 -78 184 -70 184 4
0 61 -34 128 -77z m1181 -28 l17 -44 -52 -61 c-28 -33 -55 -60 -59 -60 -7 0
-48 82 -53 108 -3 11 106 100 124 102 3 0 14 -20 23 -45z m5029 18 c3 -10 10
-47 17 -82 l12 -64 -49 -43 c-27 -24 -52 -43 -55 -44 -8 0 -42 180 -36 187 10
9 92 61 99 62 4 1 9 -7 12 -16z m-148 -149 c15 -120 8 -134 -114 -256 l-109
-110 -49 37 c-27 21 -50 38 -51 39 -2 2 38 47 88 102 50 54 118 132 152 172
34 39 65 72 68 72 4 0 11 -25 15 -56z m-5078 -26 c2 -33 -3 -70 -11 -90 -18
-41 -163 -208 -181 -208 -20 0 -150 57 -153 67 -1 4 24 30 55 56 31 26 104 90
162 142 58 51 110 93 115 91 6 -1 11 -28 13 -58z m340 -68 c10 -17 6 -28 -35
-85 -26 -36 -51 -65 -57 -65 -6 0 -19 12 -30 26 -18 25 -18 26 5 52 88 101 96
106 117 72z m4982 -122 c11 -37 10 -39 -36 -98 -26 -33 -51 -57 -54 -53 -12
13 -42 101 -39 111 7 18 103 92 110 84 4 -4 12 -24 19 -44z m-756 -116 c97
-79 176 -148 176 -153 0 -28 -42 -14 -164 53 l-135 73 -29 65 c-38 84 -47 113
-34 109 6 -2 90 -68 186 -147z m-4399 69 c16 -32 9 -67 -17 -88 -28 -24 -231
-133 -237 -128 -4 5 227 245 236 245 1 0 9 -13 18 -29z m-921 -11 c77 -18 347
-129 371 -152 21 -20 -83 6 -254 63 -160 54 -211 78 -211 101 0 11 -4 11 94
-12z m5919 -106 c0 -27 -6 -61 -13 -75 -20 -37 -151 -199 -161 -199 -10 0 -92
41 -119 59 -12 9 12 38 130 156 159 159 165 161 163 59z m-4783 -32 c0 -8 -43
-32 -57 -32 -3 0 2 9 12 20 18 20 45 27 45 12z m5047 -22 c11 -17 7 -28 -28
-85 -23 -36 -45 -65 -49 -65 -15 0 -41 51 -32 63 38 51 86 107 91 107 3 0 12
-9 18 -20z m-132 -170 c9 -17 13 -40 10 -50 -5 -16 -154 -122 -225 -160 -18
-10 -21 -10 -14 2 17 28 198 238 206 238 4 0 15 -14 23 -30z m-547 -99 c61
-35 112 -64 112 -66 0 -7 -173 55 -187 66 -18 16 -60 74 -47 67 5 -3 60 -33
122 -67z m707 -51 c3 -5 -9 -17 -27 -26 l-33 -17 24 27 c28 29 28 29 36 16z"/>
<path d="M9867 10560 c-134 -28 -275 -101 -368 -190 l-74 -70 75 55 c147 110
361 196 530 214 l75 8 -75 1 c-41 0 -115 -8 -163 -18z"/>
<path d="M9075 10491 c-54 -62 -177 -161 -315 -253 -74 -50 -137 -92 -140 -95
-15 -14 144 53 228 97 54 27 101 50 105 50 20 0 -18 -96 -64 -161 -16 -23 -23
-25 -56 -20 -34 6 -38 10 -36 34 2 30 -8 35 -27 12 -14 -17 -156 -105 -170
-105 -5 0 -16 12 -25 28 l-15 27 2 -38 3 -39 -122 -56 c-67 -32 -115 -59 -106
-61 25 -5 151 28 216 57 53 23 59 24 74 9 14 -14 13 -20 -12 -63 -37 -64 -139
-162 -204 -197 -29 -16 -54 -27 -57 -24 -2 2 9 33 25 68 16 35 32 79 36 98 l7
34 -63 -44 c-35 -25 -88 -60 -117 -77 l-52 -32 -10 26 c-6 14 -10 33 -11 42
-1 9 -5 2 -9 -16 -4 -18 -6 -42 -3 -51 4 -15 -11 -25 -74 -51 -43 -18 -96 -39
-118 -47 -39 -13 -38 -13 35 -8 41 2 102 12 134 20 94 25 111 4 54 -61 -45
-52 -134 -107 -229 -143 -89 -34 -133 -38 -184 -16 -33 13 -35 13 -26 -3 17
-32 60 -64 93 -71 18 -4 33 -13 33 -21 0 -26 -63 -51 -211 -84 l-148 -33 71
-7 c91 -9 230 9 318 40 99 36 115 39 115 21 0 -16 -84 -101 -155 -157 -59 -47
-164 -107 -213 -121 -37 -11 -45 -10 -59 4 -16 15 -16 19 0 52 30 63 16 72
-45 30 l-37 -25 -32 43 c-18 23 -36 46 -39 50 -6 7 3 -76 11 -112 3 -10 -21
-26 -73 -48 -119 -52 -256 -84 -388 -91 -128 -6 -114 -15 43 -27 110 -8 244 8
299 36 21 11 38 15 38 10 0 -20 -71 -174 -106 -228 -48 -75 -147 -178 -204
-211 -66 -39 -152 -38 -204 2 -38 28 -38 28 -31 5 23 -75 60 -111 140 -140
176 -62 392 -20 550 108 94 77 201 221 179 242 -5 5 -33 5 -65 -1 -45 -9 -71
-7 -132 6 -43 10 -77 20 -77 23 0 9 102 183 107 183 3 0 25 -17 49 -39 98 -86
244 -94 389 -22 102 51 191 124 255 208 59 78 63 98 20 88 -47 -10 -161 -8
-172 3 -7 7 -3 20 13 41 17 23 31 31 54 31 112 0 317 117 387 221 27 41 64
136 55 145 -2 3 -29 -4 -58 -15 -115 -42 -252 -65 -272 -45 -3 4 0 19 8 34 13
24 22 28 99 39 98 13 172 37 255 81 66 35 143 108 161 150 9 22 21 29 66 39
152 34 307 218 322 383 l5 62 -40 -32 c-46 -36 -69 -42 -54 -14 17 33 42 169
39 213 l-3 44 -30 -34z"/>
<path d="M8798 8573 c27 -38 128 -115 194 -149 63 -32 191 -74 220 -73 20 1
20 2 3 6 -133 30 -281 104 -372 186 -46 43 -60 52 -45 30z"/>
<path d="M9248 8343 c6 -2 18 -2 25 0 6 3 1 5 -13 5 -14 0 -19 -2 -12 -5z"/>
<path d="M7665 7919 c73 -160 104 -316 106 -522 1 -104 3 -115 11 -77 5 25 7
106 5 180 -6 158 -28 255 -86 375 -51 106 -80 141 -36 44z"/>
<path d="M7761 7254 c0 -11 3 -14 6 -6 3 7 2 16 -1 19 -3 4 -6 -2 -5 -13z"/>
<path d="M5968 9420 c-80 -13 -171 -57 -258 -127 -128 -102 -202 -217 -220
-342 -6 -40 -15 -82 -21 -93 -9 -17 -7 -24 17 -44 57 -48 111 -73 212 -98 214
-53 366 -42 495 36 82 49 148 106 176 152 11 17 29 62 41 100 39 121 9 228
-91 320 -92 86 -210 118 -351 96z m240 -76 c169 -84 214 -296 95 -452 -14 -18
-27 -31 -30 -29 -2 3 4 28 13 57 13 40 16 72 11 138 -9 137 -49 224 -129 282
-50 37 -30 39 40 4z m-130 -60 c12 -8 36 -33 52 -55 72 -101 96 -252 52 -340
-46 -93 -157 -182 -242 -193 -48 -6 -48 -6 37 32 49 21 113 90 142 152 22 47
26 69 26 150 0 113 -21 167 -94 238 -39 37 -42 43 -21 37 14 -4 35 -14 48 -21z
m-244 -55 c54 -25 59 -110 10 -181 -56 -80 -161 -112 -218 -67 -21 17 -26 29
-26 65 0 54 16 87 67 136 57 56 113 71 167 47z"/>
<path d="M4646 9274 c-10 -26 -6 -88 7 -105 18 -24 73 -49 104 -48 l28 1 -30
7 c-74 18 -112 66 -100 127 6 35 2 45 -9 18z"/>
<path d="M4106 8766 c-10 -50 2 -104 27 -121 25 -17 35 -12 18 9 -7 8 -10 23
-7 33 3 10 -2 40 -13 67 l-18 49 -7 -37z"/>
<path d="M4538 8707 c-24 -18 -51 -49 -60 -68 -18 -39 -33 -54 -63 -63 -11 -3
0 -3 25 0 64 7 94 32 101 84 4 28 14 48 30 61 13 10 21 19 17 19 -3 0 -26 -15
-50 -33z"/>
<path d="M5752 8551 c31 -37 48 -87 49 -151 0 -40 1 -42 10 -20 20 50 -19 167
-63 191 -20 11 -20 9 4 -20z"/>
<path d="M8584 7984 c-18 -14 -18 -15 4 -4 12 6 22 13 22 15 0 8 -5 6 -26 -11z"/>
<path d="M11505 7329 c-88 -4 -177 -7 -197 -8 -32 -1 -38 -5 -38 -22 0 -22 1
-22 174 -14 165 6 175 6 216 -15 60 -31 124 -99 160 -171 27 -53 35 -88 55
-233 29 -214 31 -166 5 109 -21 233 -35 339 -45 355 -5 7 -37 10 -88 8 -45 -2
-154 -6 -242 -9z"/>
<path d="M12112 7284 c4 -22 68 -30 238 -33 110 -1 172 -24 228 -83 39 -41 53
-90 78 -263 9 -69 19 -123 22 -121 12 13 -36 470 -52 490 -9 11 -66 16 -264
21 -245 7 -254 7 -250 -11z"/>
<path d="M12193 7124 c-15 -40 35 -384 61 -419 11 -15 29 -16 186 -5 125 8
179 15 189 25 13 12 13 30 3 117 -16 133 -45 253 -67 278 -17 18 -32 20 -192
20 -149 0 -174 -2 -180 -16z m97 -283 l13 -92 103 2 c57 1 107 -1 111 -5 17
-17 -28 -26 -129 -26 l-106 0 -6 28 c-23 104 -34 312 -19 349 5 11 10 -17 14
-73 4 -50 12 -132 19 -183z"/>
<path d="M12682 6735 c0 -16 2 -22 5 -12 2 9 2 23 0 30 -3 6 -5 -1 -5 -18z"/>
<path d="M11902 6660 c0 -19 2 -27 5 -17 2 9 2 25 0 35 -3 9 -5 1 -5 -18z"/>
<path d="M10500 6920 l-33 -34 7 -188 c8 -230 39 -489 64 -532 l18 -31 265 3
c315 5 302 0 313 116 12 129 -15 389 -61 583 -3 13 -25 41 -49 63 l-44 40
-133 0 c-74 0 -175 3 -224 6 l-91 7 -32 -33z m84 -495 c10 -71 19 -137 21
-145 2 -8 6 -28 10 -44 l6 -28 174 7 c170 7 175 7 175 -13 0 -18 -9 -20 -107
-26 -60 -3 -144 -7 -188 -8 -76 -1 -81 0 -92 23 -23 47 -46 261 -47 429 0 207
16 249 25 65 4 -71 14 -188 23 -260z"/>
<path d="M11124 5670 c-18 -7 -115 -144 -130 -185 -4 -10 3 -18 20 -25 21 -8
26 -16 26 -42 0 -68 -12 -108 -31 -108 -10 0 -21 -4 -24 -10 -4 -7 111 -227
131 -249 2 -2 14 -1 28 3 21 5 29 18 46 74 38 123 54 262 41 379 -13 126 -31
173 -63 172 -13 0 -32 -4 -44 -9z m46 -255 c26 -9 36 -18 38 -38 4 -32 -14
-43 -92 -52 l-59 -8 6 48 c4 26 7 54 7 62 0 16 30 12 100 -12z"/>
<path d="M10312 5005 c0 -16 2 -22 5 -12 2 9 2 23 0 30 -3 6 -5 -1 -5 -18z"/>
<path d="M11201 4804 c0 -11 3 -14 6 -6 3 7 2 16 -1 19 -3 4 -6 -2 -5 -13z"/>
<path d="M12770 5464 c-96 -26 -147 -50 -80 -38 44 7 162 45 175 56 12 10 17
11 -95 -18z"/>
<path d="M12493 5430 c-13 -5 -23 -12 -23 -15 0 -4 5 -3 10 0 6 4 41 10 78 15
l67 7 -55 1 c-30 0 -65 -3 -77 -8z"/>
<path d="M12379 5303 c-18 -27 -51 -70 -74 -98 -43 -51 -105 -192 -105 -238 0
-22 -8 -25 -127 -50 -144 -30 -451 -87 -470 -87 -10 0 -13 24 -13 93 0 63 -3
87 -10 77 -17 -26 -11 -340 10 -538 37 -341 48 -390 112 -478 41 -57 97 -84
175 -84 53 0 67 5 120 39 71 46 89 67 136 163 47 96 63 162 87 359 10 90 40
256 65 369 25 112 45 221 45 240 0 70 22 156 56 218 18 34 32 62 29 62 -2 0
-19 -21 -36 -47z m-79 -263 c0 -11 -4 -20 -9 -20 -5 0 -7 9 -4 20 3 11 7 20 9
20 2 0 4 -9 4 -20z"/>
<path d="M11582 5060 c0 -14 2 -19 5 -12 2 6 2 18 0 25 -3 6 -5 1 -5 -13z"/>
<path d="M7174 5294 c-18 -14 -18 -15 4 -4 12 6 22 13 22 15 0 8 -5 6 -26 -11z"/>
<path d="M8770 5130 c-8 -5 -10 -10 -5 -10 6 0 17 5 25 10 8 5 11 10 5 10 -5
0 -17 -5 -25 -10z"/>
<path d="M3915 5206 c-111 -28 -188 -93 -246 -207 -29 -59 -34 -84 -75 -408
-24 -191 -52 -430 -62 -533 l-18 -187 50 -5 c28 -3 204 -13 391 -21 187 -8
428 -20 535 -26 402 -22 1595 -77 1598 -74 2 2 10 72 17 157 8 84 32 362 55
618 45 505 47 592 14 637 -45 61 21 58 -1144 60 -823 1 -1076 -1 -1115 -11z
m2181 -87 c28 -28 42 -95 30 -143 -6 -26 -7 -26 -109 -26 -73 0 -2211 67
-2235 70 -7 1 29 58 50 77 57 53 19 52 1170 50 l1068 -2 26 -26z m-1446 -230
c377 -11 861 -26 1075 -32 l390 -12 -2 -74 c-1 -40 -4 -75 -6 -77 -2 -2 -127
3 -278 11 -378 20 -392 20 -423 -7 -23 -22 -26 -38 -60 -326 -38 -320 -37
-337 7 -347 12 -2 137 -11 277 -19 l255 -14 -281 1 c-222 2 -284 5 -297 16
-15 12 -17 43 -17 261 0 240 -1 248 -23 281 -44 66 -121 85 -192 49 -22 -11
-40 -20 -40 -20 -1 0 2 23 5 52 4 29 5 61 2 71 -11 43 -39 46 -625 79 -556 31
-564 31 -590 12 -14 -10 -29 -26 -32 -34 -10 -25 -57 -581 -51 -605 3 -12 18
-27 32 -34 23 -10 712 -71 808 -71 16 0 27 -3 23 -6 -8 -9 -857 27 -884 37
-23 8 -23 10 -23 221 0 146 -5 234 -15 281 -12 58 -12 79 0 155 8 48 19 103
26 122 6 19 13 41 15 48 3 11 28 13 122 8 64 -4 425 -16 802 -27z m-413 -352
c4 -5 2 -12 -5 -16 -10 -6 -10 -11 3 -21 15 -13 20 -5 16 28 -2 14 1 14 23 6
9 -3 14 -10 11 -14 -3 -4 2 -13 10 -20 15 -12 20 -4 16 23 -2 13 16 8 29 -8 7
-9 20 -13 28 -10 8 3 42 0 76 -6 66 -11 100 -27 79 -35 -10 -4 -10 -8 0 -19
13 -14 41 0 31 16 -11 18 12 8 26 -11 9 -13 18 -16 25 -10 16 13 97 -21 90
-37 -2 -7 -1 -13 3 -14 4 0 19 -1 33 -3 27 -2 79 -31 79 -45 0 -4 11 -13 25
-19 34 -16 55 -61 50 -108 -9 -80 -8 -79 -59 -82 -34 -2 -47 0 -45 10 3 26 -1
39 -12 33 -6 -4 -8 -13 -5 -21 4 -10 -2 -14 -19 -14 -17 0 -23 4 -19 14 9 23
-14 28 -26 6 -12 -22 -42 -28 -34 -6 3 8 1 17 -5 21 -6 3 -14 -1 -17 -9 -8
-21 -30 -20 -38 0 -5 14 -7 14 -22 -1 -15 -15 -18 -15 -35 1 -11 9 -19 12 -19
6 0 -8 -28 -10 -87 -7 -140 5 -275 15 -313 22 -19 3 -55 5 -78 4 -41 -2 -43
-1 -37 19 5 17 4 21 -6 17 -8 -2 -13 -10 -11 -16 1 -6 -9 -11 -23 -11 -18 0
-23 4 -18 16 4 12 2 15 -8 12 -8 -3 -13 -11 -11 -17 1 -6 -7 -11 -18 -11 -11
0 -20 7 -20 15 0 18 -12 19 -28 3 -21 -21 -29 6 -21 69 4 32 8 82 8 110 1 44
4 52 19 50 9 -1 17 3 17 8 0 6 -6 9 -12 9 -7 -1 -13 8 -13 21 0 13 6 22 13 21
6 0 12 4 12 9 0 6 -6 9 -12 9 -14 -2 -17 9 -5 20 9 10 348 3 359 -7z m984 -44
c29 -30 31 -88 5 -127 -36 -56 -122 -69 -162 -25 -15 17 -16 26 -6 81 6 33 19
69 28 79 30 34 100 30 135 -8z m666 -77 c4 -4 1 -11 -7 -16 -10 -7 -11 -10 -2
-10 24 0 27 2 24 16 -2 8 1 14 5 14 14 0 35 -17 34 -26 -1 -5 5 -9 12 -9 6 0
11 6 10 13 -4 18 24 15 31 -4 4 -10 13 -13 26 -9 42 13 85 -23 45 -39 -13 -4
-13 -9 -3 -25 9 -15 9 -23 -1 -34 -8 -10 -8 -17 -2 -22 10 -6 6 -121 -5 -157
-6 -21 -30 -24 -37 -5 -4 9 -8 8 -16 -3 -9 -13 -14 -13 -31 -2 -16 10 -25 10
-35 2 -9 -8 -17 -7 -28 5 -11 10 -18 12 -22 4 -4 -6 -14 -7 -24 -4 -23 10 -85
10 -100 1 -6 -4 -20 -5 -29 -1 -9 3 -78 8 -153 9 -75 2 -141 6 -148 10 -6 4
-10 15 -7 24 3 10 8 53 11 97 8 120 14 145 35 142 11 -1 18 3 17 8 -1 6 -10 9
-19 8 -19 -3 -24 8 -10 21 9 10 420 2 429 -8z m-840 -102 c33 -23 45 -25 96
-21 61 5 68 -5 14 -22 -21 -7 -49 -8 -79 -2 l-47 8 -10 -46 c-30 -147 -35
-165 -39 -146 -4 19 18 255 24 255 2 0 20 -12 41 -26z m916 -331 c-7 -2 -21
-2 -30 0 -10 3 -4 5 12 5 17 0 24 -2 18 -5z"/>
<path d="M3937 4524 c-3 -3 -3 -12 0 -20 4 -11 9 -12 19 -3 8 6 11 15 8 20 -6
10 -18 12 -27 3z"/>
<path d="M3996 4522 c-3 -5 -1 -14 3 -20 6 -10 10 -10 20 1 9 12 8 16 -3 20
-9 4 -17 3 -20 -1z"/>
<path d="M4056 4522 c-3 -5 -1 -14 3 -20 6 -10 10 -10 20 1 9 12 8 16 -3 20
-9 4 -17 3 -20 -1z"/>
<path d="M4115 4520 c-4 -6 -3 -16 3 -22 6 -6 12 -6 17 2 4 6 3 16 -3 22 -6 6
-12 6 -17 -2z"/>
<path d="M4172 4521 c-10 -6 -10 -10 1 -20 12 -9 16 -8 20 3 7 19 -4 27 -21
17z"/>
<path d="M3994 4466 c-8 -8 -7 -15 2 -23 9 -9 15 -9 23 1 15 18 -9 40 -25 22z"/>
<path d="M4054 4466 c-8 -8 -7 -15 2 -23 9 -9 15 -9 23 1 15 18 -9 40 -25 22z"/>
<path d="M4114 4466 c-8 -8 -7 -15 2 -23 9 -9 15 -9 22 0 14 17 -9 38 -24 23z"/>
<path d="M4171 4466 c-8 -10 -8 -16 1 -24 19 -15 40 9 22 25 -9 9 -15 9 -23
-1z"/>
<path d="M4231 4466 c-8 -10 -8 -16 1 -24 19 -15 40 9 22 25 -9 9 -15 9 -23
-1z"/>
<path d="M4291 4466 c-8 -10 -8 -16 1 -24 19 -15 40 9 22 25 -9 9 -15 9 -23
-1z"/>
<path d="M3933 4463 c-10 -3 -10 -7 0 -18 13 -14 41 0 31 16 -6 10 -12 10 -31
2z"/>
<path d="M4344 4459 c-7 -11 7 -15 48 -14 21 0 37 5 35 10 -2 11 -76 14 -83 4z"/>
<path d="M4462 4461 c-11 -7 -10 -10 3 -15 20 -7 38 1 30 15 -7 11 -16 11 -33
0z"/>
<path d="M3937 4406 c-7 -19 11 -32 24 -19 6 6 5 14 -4 22 -12 9 -16 8 -20 -3z"/>
<path d="M3997 4406 c-7 -19 4 -27 21 -17 10 6 10 10 -1 20 -12 9 -16 8 -20
-3z"/>
<path d="M4057 4406 c-7 -19 4 -27 21 -17 10 6 10 10 -1 20 -12 9 -16 8 -20
-3z"/>
<path d="M4117 4406 c-3 -8 -2 -18 3 -21 13 -8 20 9 11 24 -6 10 -10 9 -14 -3z"/>
<path d="M4173 4405 c-10 -10 -9 -14 2 -19 17 -6 26 5 17 21 -5 8 -11 7 -19
-2z"/>
<path d="M4231 4407 c-9 -12 -8 -16 3 -20 19 -7 27 4 17 21 -6 10 -10 10 -20
-1z"/>
<path d="M4291 4406 c-9 -10 -9 -16 -1 -21 16 -10 31 7 21 23 -6 10 -10 10
-20 -2z"/>
<path d="M4527 4406 c-7 -19 11 -32 24 -19 6 6 5 14 -4 22 -12 9 -16 8 -20 -3z"/>
<path d="M4587 4406 c-7 -19 4 -27 21 -17 10 6 10 10 -1 20 -12 9 -16 8 -20
-3z"/>
<path d="M4644 4406 c-8 -8 -7 -15 0 -22 8 -8 15 -7 22 0 8 8 7 15 0 22 -8 8
-15 7 -22 0z"/>
<path d="M3875 4401 c-7 -12 12 -24 25 -16 11 7 4 25 -10 25 -5 0 -11 -4 -15
-9z"/>
<path d="M4345 4401 c-7 -12 12 -24 25 -16 11 7 4 25 -10 25 -5 0 -11 -4 -15
-9z"/>
<path d="M4405 4401 c-7 -12 12 -24 25 -16 11 7 4 25 -10 25 -5 0 -11 -4 -15
-9z"/>
<path d="M4465 4401 c-7 -12 12 -24 25 -16 11 7 4 25 -10 25 -5 0 -11 -4 -15
-9z"/>
<path d="M3937 4346 c-7 -19 11 -32 24 -19 6 6 5 14 -4 22 -12 9 -16 8 -20 -3z"/>
<path d="M3997 4346 c-7 -19 4 -27 21 -17 10 6 10 10 -1 20 -12 9 -16 8 -20
-3z"/>
<path d="M4057 4346 c-3 -8 -2 -18 3 -21 13 -8 24 15 12 27 -6 6 -11 4 -15 -6z"/>
<path d="M4117 4346 c-3 -8 -2 -18 3 -21 13 -8 20 9 11 24 -6 10 -10 9 -14 -3z"/>
<path d="M4175 4350 c-4 -6 -3 -16 3 -22 13 -13 23 4 13 21 -7 10 -10 10 -16
1z"/>
<path d="M4235 4350 c-4 -6 -3 -16 3 -22 13 -13 23 4 13 21 -7 10 -10 10 -16
1z"/>
<path d="M4527 4346 c-7 -19 4 -27 21 -17 10 6 10 10 -1 20 -12 9 -16 8 -20
-3z"/>
<path d="M4587 4346 c-3 -8 -2 -18 3 -21 13 -8 24 15 12 27 -6 6 -11 4 -15 -6z"/>
<path d="M4647 4346 c-3 -8 -2 -18 3 -21 13 -8 20 9 11 24 -6 10 -10 9 -14 -3z"/>
<path d="M4705 4350 c-4 -6 -3 -16 3 -22 13 -13 23 4 13 21 -7 10 -10 10 -16
1z"/>
<path d="M4761 4347 c-9 -12 -8 -16 3 -20 19 -7 27 4 17 21 -6 10 -10 10 -20
-1z"/>
<path d="M3877 4344 c-11 -11 3 -24 18 -18 8 4 12 10 9 15 -6 11 -18 12 -27 3z"/>
<path d="M4286 4341 c-3 -5 1 -11 9 -15 15 -6 29 7 18 18 -9 9 -21 8 -27 -3z"/>
<path d="M4344 4339 c-7 -11 7 -15 48 -14 21 0 37 5 35 10 -2 11 -76 14 -83 4z"/>
<path d="M4467 4344 c-11 -11 3 -24 18 -18 8 4 12 10 9 15 -6 11 -18 12 -27 3z"/>
<path d="M4057 4286 c-3 -8 -2 -18 3 -21 13 -8 24 15 12 27 -6 6 -11 4 -15 -6z"/>
<path d="M4175 4290 c-4 -6 -3 -16 3 -22 13 -13 23 4 13 21 -7 10 -10 10 -16
1z"/>
<path d="M4235 4290 c-4 -6 -3 -16 3 -22 6 -6 12 -6 17 2 4 6 3 16 -3 22 -6 6
-12 6 -17 -2z"/>
<path d="M4286 4292 c-17 -4 -17 -4 1 -17 13 -10 21 -10 31 -2 10 8 18 8 32
-1 17 -10 30 -7 30 9 0 8 -67 16 -94 11z"/>
<path d="M4527 4286 c-3 -8 -2 -18 3 -21 13 -8 24 15 12 27 -6 6 -11 4 -15 -6z"/>
<path d="M4647 4286 c-3 -8 -2 -18 3 -21 13 -8 24 15 12 27 -6 6 -11 4 -15 -6z"/>
<path d="M4705 4290 c-4 -6 -3 -16 3 -22 13 -13 23 4 13 21 -7 10 -10 10 -16
1z"/>
<path d="M4765 4290 c-4 -6 -3 -16 3 -22 13 -13 23 4 13 21 -7 10 -10 10 -16
1z"/>
<path d="M3877 4284 c-11 -11 3 -24 18 -18 8 4 12 10 9 15 -6 11 -18 12 -27 3z"/>
<path d="M3935 4281 c-6 -11 9 -23 19 -14 9 9 7 23 -3 23 -6 0 -12 -4 -16 -9z"/>
<path d="M3995 4281 c-6 -11 9 -23 19 -14 9 9 7 23 -3 23 -6 0 -12 -4 -16 -9z"/>
<path d="M4116 4281 c-4 -5 -2 -12 3 -15 5 -4 12 -2 15 3 4 5 2 12 -3 15 -5 4
-12 2 -15 -3z"/>
<path d="M4407 4284 c-11 -11 3 -24 18 -18 8 4 12 10 9 15 -6 11 -18 12 -27 3z"/>
<path d="M4465 4281 c-6 -11 9 -23 19 -14 9 9 7 23 -3 23 -6 0 -12 -4 -16 -9z"/>
<path d="M4585 4281 c-6 -11 9 -23 19 -14 9 9 7 23 -3 23 -6 0 -12 -4 -16 -9z"/>
<path d="M4822 4281 c2 -7 7 -12 11 -12 12 1 9 15 -3 20 -7 2 -11 -2 -8 -8z"/>
<path d="M4057 4226 c-3 -8 -2 -18 3 -21 13 -8 24 15 12 27 -6 6 -11 4 -15 -6z"/>
<path d="M4175 4230 c-4 -6 -3 -16 3 -22 13 -13 23 4 13 21 -7 10 -10 10 -16
1z"/>
<path d="M4647 4226 c-3 -8 -2 -18 3 -21 13 -8 24 15 12 27 -6 6 -11 4 -15 -6z"/>
<path d="M4705 4230 c-4 -6 -3 -16 3 -22 13 -13 23 4 13 21 -7 10 -10 10 -16
1z"/>
<path d="M4765 4230 c-4 -6 -3 -16 3 -22 13 -13 23 4 13 21 -7 10 -10 10 -16
1z"/>
<path d="M4115 4221 c-6 -11 9 -23 19 -14 9 9 7 23 -3 23 -6 0 -12 -4 -16 -9z"/>
<path d="M4232 4221 c2 -7 7 -12 11 -12 12 1 9 15 -3 20 -7 2 -11 -2 -8 -8z"/>
<path d="M4292 4221 c2 -7 7 -12 11 -12 12 1 9 15 -3 20 -7 2 -11 -2 -8 -8z"/>
<path d="M4352 4221 c2 -7 7 -12 11 -12 12 1 9 15 -3 20 -7 2 -11 -2 -8 -8z"/>
<path d="M4405 4221 c-6 -11 9 -23 19 -14 9 9 7 23 -3 23 -6 0 -12 -4 -16 -9z"/>
<path d="M4465 4221 c-6 -11 9 -23 19 -14 9 9 7 23 -3 23 -6 0 -12 -4 -16 -9z"/>
<path d="M4525 4221 c-6 -11 9 -23 19 -14 9 9 7 23 -3 23 -6 0 -12 -4 -16 -9z"/>
<path d="M4585 4221 c-6 -11 9 -23 19 -14 9 9 7 23 -3 23 -6 0 -12 -4 -16 -9z"/>
<path d="M4822 4221 c2 -7 7 -12 11 -12 12 1 9 15 -3 20 -7 2 -11 -2 -8 -8z"/>
<path d="M4822 4161 c2 -7 7 -12 11 -12 12 1 9 15 -3 20 -7 2 -11 -2 -8 -8z"/>
<path d="M5525 4401 c-7 -12 12 -24 25 -16 11 7 4 25 -10 25 -5 0 -11 -4 -15
-9z"/>
<path d="M5585 4401 c-7 -12 12 -24 25 -16 11 7 4 25 -10 25 -5 0 -11 -4 -15
-9z"/>
<path d="M5645 4400 c-8 -13 9 -20 24 -11 10 6 9 10 -3 14 -8 3 -18 2 -21 -3z"/>
<path d="M5705 4400 c-8 -13 9 -20 24 -11 10 6 9 10 -3 14 -8 3 -18 2 -21 -3z"/>
<path d="M5766 4401 c-4 -5 -2 -12 3 -15 5 -4 12 -2 15 3 4 5 2 12 -3 15 -5 4
-12 2 -15 -3z"/>
<path d="M5821 4401 c-10 -6 -9 -10 3 -14 8 -3 18 -2 21 3 8 13 -9 20 -24 11z"/>
<path d="M5707 4346 c-3 -8 -2 -18 3 -21 13 -8 24 15 12 27 -6 6 -11 4 -15 -6z"/>
<path d="M5767 4346 c-3 -8 -2 -18 3 -21 13 -8 20 9 11 24 -6 10 -10 9 -14 -3z"/>
<path d="M5825 4350 c-4 -6 -3 -16 3 -22 13 -13 23 4 13 21 -7 10 -10 10 -16
1z"/>
<path d="M5465 4341 c-7 -12 12 -24 25 -16 11 7 4 25 -10 25 -5 0 -11 -4 -15
-9z"/>
<path d="M5525 4341 c-7 -12 12 -24 25 -16 11 7 4 25 -10 25 -5 0 -11 -4 -15
-9z"/>
<path d="M5587 4344 c-11 -11 3 -24 18 -18 8 4 12 10 9 15 -6 11 -18 12 -27 3z"/>
<path d="M5645 4341 c-7 -12 12 -24 25 -16 11 7 4 25 -10 25 -5 0 -11 -4 -15
-9z"/>
<path d="M5876 4341 c-3 -5 1 -11 9 -15 15 -6 29 7 18 18 -9 9 -21 8 -27 -3z"/>
<path d="M5936 4341 c-3 -5 1 -11 9 -15 15 -6 29 7 18 18 -9 9 -21 8 -27 -3z"/>
<path d="M5995 4341 c-7 -12 12 -24 25 -16 11 7 4 25 -10 25 -5 0 -11 -4 -15
-9z"/>
<path d="M5647 4286 c-3 -8 -2 -18 3 -21 13 -8 24 15 12 27 -6 6 -11 4 -15 -6z"/>
<path d="M5707 4286 c-3 -8 -2 -18 3 -21 13 -8 24 15 12 27 -6 6 -11 4 -15 -6z"/>
<path d="M5767 4286 c-3 -8 -2 -18 3 -21 13 -8 20 9 11 24 -6 10 -10 9 -14 -3z"/>
<path d="M5825 4290 c-4 -6 -3 -16 3 -22 13 -13 23 4 13 21 -7 10 -10 10 -16
1z"/>
<path d="M5885 4290 c-4 -6 -3 -16 3 -22 13 -13 23 4 13 21 -7 10 -10 10 -16
1z"/>
<path d="M5470 4280 c0 -5 7 -10 16 -10 8 0 12 5 9 10 -3 6 -10 10 -16 10 -5
0 -9 -4 -9 -10z"/>
<path d="M5525 4281 c-6 -11 9 -23 19 -14 9 9 7 23 -3 23 -6 0 -12 -4 -16 -9z"/>
<path d="M5585 4281 c-6 -11 9 -23 19 -14 9 9 7 23 -3 23 -6 0 -12 -4 -16 -9z"/>
<path d="M5942 4281 c4 -13 18 -16 19 -4 0 4 -5 9 -11 12 -7 2 -11 -2 -8 -8z"/>
<path d="M5996 4281 c-3 -5 1 -11 9 -15 15 -6 29 7 18 18 -9 9 -21 8 -27 -3z"/>
<path d="M5647 4226 c-3 -8 -2 -18 3 -21 13 -8 24 15 12 27 -6 6 -11 4 -15 -6z"/>
<path d="M5707 4226 c-3 -8 -2 -18 3 -21 13 -8 24 15 12 27 -6 6 -11 4 -15 -6z"/>
<path d="M5765 4230 c-4 -6 -3 -16 3 -22 6 -6 12 -6 17 2 4 6 3 16 -3 22 -6 6
-12 6 -17 -2z"/>
<path d="M5825 4230 c-4 -6 -3 -16 3 -22 13 -13 23 4 13 21 -7 10 -10 10 -16
1z"/>
<path d="M5885 4230 c-4 -6 -3 -16 3 -22 13 -13 23 4 13 21 -7 10 -10 10 -16
1z"/>
<path d="M5470 4220 c0 -5 5 -10 10 -10 6 0 10 5 10 10 0 6 -4 10 -10 10 -5 0
-10 -4 -10 -10z"/>
<path d="M5530 4220 c0 -5 5 -10 10 -10 6 0 10 5 10 10 0 6 -4 10 -10 10 -5 0
-10 -4 -10 -10z"/>
<path d="M5585 4221 c-6 -11 9 -23 19 -14 9 9 7 23 -3 23 -6 0 -12 -4 -16 -9z"/>
<path d="M5940 4220 c0 -5 7 -10 16 -10 8 0 12 5 9 10 -3 6 -10 10 -16 10 -5
0 -9 -4 -9 -10z"/>
<path d="M6000 4220 c0 -5 5 -10 10 -10 6 0 10 5 10 10 0 6 -4 10 -10 10 -5 0
-10 -4 -10 -10z"/>
<path d="M5707 4166 c-3 -8 -2 -18 3 -21 13 -8 24 15 12 27 -6 6 -11 4 -15 -6z"/>
<path d="M5765 4170 c-4 -6 -3 -16 3 -22 6 -6 12 -6 17 2 4 6 3 16 -3 22 -6 6
-12 6 -17 -2z"/>
<path d="M5825 4170 c-8 -13 -1 -24 14 -19 6 3 7 10 2 18 -6 10 -10 10 -16 1z"/>
<path d="M5884 4169 c-3 -6 -1 -16 5 -22 8 -8 11 -5 11 11 0 24 -5 28 -16 11z"/>
<path d="M5470 4160 c0 -5 5 -10 10 -10 6 0 10 5 10 10 0 6 -4 10 -10 10 -5 0
-10 -4 -10 -10z"/>
<path d="M5530 4160 c0 -5 5 -10 10 -10 6 0 10 5 10 10 0 6 -4 10 -10 10 -5 0
-10 -4 -10 -10z"/>
<path d="M5590 4160 c0 -5 5 -10 10 -10 6 0 10 5 10 10 0 6 -4 10 -10 10 -5 0
-10 -4 -10 -10z"/>
<path d="M5650 4154 c0 -8 5 -12 10 -9 6 3 10 10 10 16 0 5 -4 9 -10 9 -5 0
-10 -7 -10 -16z"/>
<path d="M5940 4160 c0 -5 5 -10 10 -10 6 0 10 5 10 10 0 6 -4 10 -10 10 -5 0
-10 -4 -10 -10z"/>
<path d="M6000 4160 c0 -5 5 -10 10 -10 6 0 10 5 10 10 0 6 -4 10 -10 10 -5 0
-10 -4 -10 -10z"/>
<path d="M2925 5069 c-348 -8 -365 -11 -450 -69 -81 -56 -93 -90 -126 -347
-15 -126 -29 -238 -29 -250 0 -15 62 -92 191 -235 106 -117 193 -214 194 -216
2 -2 468 -60 621 -77 l60 -7 13 99 c7 54 24 175 37 268 13 94 42 298 63 455
27 196 46 300 60 333 12 27 21 51 21 53 0 5 -250 3 -655 -7z m-250 -166 c-11
-150 -25 -398 -25 -434 0 -28 14 -55 65 -127 l65 -91 0 -76 c0 -84 13 -120 57
-155 l28 -21 -34 5 c-18 3 -43 6 -56 6 -29 0 -34 5 -228 219 -129 143 -166
189 -162 205 3 12 18 116 35 231 17 116 33 217 35 226 10 30 135 87 198 88
l27 1 -5 -77z m783 22 c1 -1 -2 -15 -8 -30 -8 -21 -14 -25 -28 -19 -9 4 -54 9
-99 12 -93 5 -168 -13 -228 -53 -38 -27 -54 -23 -55 13 0 7 -9 31 -19 53 l-20
41 227 -7 c125 -4 228 -9 230 -10z m-576 -128 c6 -12 19 -47 29 -77 16 -54 16
-54 24 -22 7 34 29 43 39 16 7 -19 -9 -96 -28 -133 -21 -39 -77 -89 -110 -97
l-29 -7 7 149 c4 82 9 164 12 181 5 28 9 31 25 23 10 -6 24 -20 31 -33z m486
-101 c64 -33 63 -26 30 -291 -17 -132 -32 -246 -34 -252 -2 -9 -25 -13 -71
-13 -89 0 -169 37 -235 107 -76 82 -93 123 -93 228 0 132 44 207 55 93 3 -29
9 -59 13 -65 15 -24 43 -14 55 20 26 72 117 165 177 180 38 9 76 7 103 -7z
m-444 -298 c46 -167 202 -288 372 -288 41 0 54 -4 54 -15 0 -18 -26 -19 -123
-5 -83 12 -115 28 -189 92 l-58 49 0 -48 c0 -47 1 -49 45 -72 43 -23 51 -41
18 -41 -9 0 -35 12 -59 27 l-43 27 0 88 1 88 -51 67 c-28 38 -51 71 -51 75 0
4 12 9 28 11 15 2 30 5 33 6 3 0 14 -27 23 -61z m206 -363 c10 -12 10 -21 2
-40 -14 -30 -36 -34 -27 -5 4 11 0 29 -9 42 -9 12 -16 26 -16 31 0 10 33 -8
50 -28z"/>
<path d="M6259 4393 c-31 -351 -55 -640 -53 -642 2 -2 230 0 506 5 l503 9 525
209 c289 115 526 210 528 211 2 2 5 86 7 187 2 100 7 220 11 266 9 111 -6 162
-65 223 -35 36 -59 51 -101 62 -39 11 -305 29 -900 61 -465 26 -859 46 -875
46 l-30 0 -56 -637z m623 546 c241 -13 435 -25 433 -27 -6 -6 -857 17 -902 24
-20 3 -33 11 -33 20 0 11 8 14 33 10 17 -3 229 -15 469 -27z m333 -129 c363
-11 731 -21 818 -22 88 -2 161 -7 164 -12 11 -17 -19 -22 -64 -11 -181 46
-333 -145 -268 -337 16 -46 63 -105 100 -126 34 -18 13 -21 -90 -14 l-100 7
-7 65 c-10 99 -41 172 -105 240 -225 244 -627 137 -699 -186 -41 -188 50 -371
229 -459 81 -39 72 -47 -13 -12 -71 29 -134 73 -194 134 -61 61 -87 111 -101
193 l-11 65 -60 8 c-32 4 -64 5 -70 3 -7 -3 -38 -83 -69 -178 -52 -157 -84
-222 -101 -206 -3 4 3 19 14 35 15 20 35 104 71 298 52 274 57 319 42 344 -11
18 -79 30 -172 31 -42 0 -97 3 -123 6 -38 6 -46 10 -40 23 4 9 9 39 11 66 2
28 6 55 8 61 2 7 33 9 87 7 45 -2 380 -12 743 -23z m717 -281 c-2 -62 -2 -63
12 -34 27 59 95 105 154 105 91 0 168 -137 127 -224 -52 -110 -232 -97 -318
22 -38 52 -44 130 -14 176 29 43 42 28 39 -45z m-398 -53 c61 -30 114 -85 131
-137 6 -18 19 -33 29 -35 23 -3 46 -23 46 -40 0 -7 -9 -38 -21 -69 -29 -78
-112 -166 -197 -207 -62 -31 -74 -33 -167 -33 -89 0 -106 3 -157 28 -79 39
-143 104 -181 185 -27 58 -31 78 -31 152 -1 65 4 94 19 125 35 71 85 56 85
-25 0 -77 9 -88 34 -44 70 123 265 171 410 100z m-1146 -168 c18 -5 30 -13 27
-19 -11 -16 5 -31 20 -19 10 9 23 5 54 -15 22 -15 43 -35 45 -44 3 -9 -1 -45
-7 -81 l-12 -65 -105 3 c-58 2 -107 6 -109 8 -2 2 1 10 7 17 8 10 8 17 1 24
-7 7 -8 17 -3 25 5 7 9 38 10 68 1 117 3 123 22 115 9 -4 32 -11 50 -17z
m1822 -18 c0 -5 -7 -10 -16 -10 -8 0 -12 5 -9 10 3 6 10 10 16 10 5 0 9 -4 9
-10z"/>
<path d="M6355 4290 c-4 -6 -3 -16 3 -22 13 -13 23 4 13 21 -7 10 -10 10 -16
1z"/>
<path d="M6355 4230 c-4 -6 -3 -16 3 -22 13 -13 23 4 13 21 -7 10 -10 10 -16
1z"/>
<path d="M6415 4230 c-4 -6 -3 -16 3 -22 13 -13 23 4 13 21 -7 10 -10 10 -16
1z"/>
<path d="M6475 4230 c-4 -6 -3 -16 3 -22 13 -13 23 4 13 21 -7 10 -10 10 -16
1z"/>
<path d="M6355 4169 c-4 -6 -3 -15 3 -21 6 -6 11 -4 15 6 7 18 -9 31 -18 15z"/>
<path d="M6416 4171 c-4 -7 -5 -15 -2 -18 9 -9 19 4 14 18 -4 11 -6 11 -12 0z"/>
<path d="M6476 4171 c-4 -7 -5 -15 -2 -18 9 -9 19 4 14 18 -4 11 -6 11 -12 0z"/>
<path d="M6356 4112 c-2 -4 -1 -14 3 -21 6 -10 10 -9 14 3 6 16 -8 32 -17 18z"/>
<path d="M6415 4109 c-10 -15 3 -25 16 -12 7 7 7 13 1 17 -6 3 -14 1 -17 -5z"/>
<path d="M12638 4194 l23 -19 -46 3 c-62 5 -95 -10 -153 -72 -80 -84 -132
-207 -171 -405 -26 -128 -45 -394 -37 -506 14 -192 60 -378 112 -458 42 -64
131 -85 224 -52 58 20 59 20 20 -20 l-34 -35 32 11 c159 55 287 505 268 939
-8 187 -19 263 -57 383 -46 143 -105 226 -175 243 l-29 7 23 -19z m-61 -210
c30 -28 35 -37 23 -44 -20 -10 -190 -23 -190 -14 0 4 11 27 25 51 23 39 29 43
65 43 31 0 46 -7 77 -36z m65 -115 c15 -8 17 -13 8 -19 -8 -5 -10 -15 -6 -26
7 -18 8 -18 21 -1 15 21 19 17 44 -55 14 -41 16 -57 7 -71 -9 -14 -7 -20 7
-28 14 -8 17 -24 17 -80 l0 -70 -30 16 c-26 14 -33 14 -72 -1 -48 -19 -78 -41
-78 -58 0 -6 -14 -24 -31 -39 -26 -22 -29 -30 -19 -42 15 -18 5 -49 -14 -42
-8 3 -20 -1 -26 -8 -10 -12 -9 -16 4 -21 15 -6 15 -9 1 -30 -8 -13 -15 -30
-15 -39 0 -17 31 -20 47 -4 7 7 12 1 16 -20 4 -20 13 -31 23 -31 13 0 15 -6
10 -32 -4 -18 -10 -54 -13 -80 -5 -40 -3 -48 11 -48 9 0 24 16 33 35 15 32 20
35 45 30 23 -6 30 -2 37 17 9 23 9 23 16 -6 12 -44 -37 -134 -83 -153 -50 -21
-77 -10 -101 39 -35 74 -52 159 -58 293 -7 175 19 340 75 459 22 45 51 92 67
104 32 26 30 25 57 11z m-163 -36 c-50 -83 -88 -160 -99 -203 -14 -55 -33
-100 -41 -100 -10 0 -19 29 -19 63 0 44 49 244 63 256 11 8 41 14 100 19 18 2
17 -1 -4 -35z m236 -363 c23 -44 21 -171 -4 -201 -19 -24 -19 -24 -40 -5 -41
37 -52 157 -21 216 16 29 47 25 65 -10z m-282 -615 c43 -6 47 -8 41 -28 -20
-66 -78 -75 -106 -17 -22 46 -22 63 0 57 9 -3 39 -8 65 -12z"/>
<path d="M12557 3794 c-9 -10 2 -24 19 -24 8 0 14 7 14 15 0 15 -21 21 -33 9z"/>
<path d="M12492 3586 c1 -10 8 -17 13 -17 15 1 12 24 -3 29 -9 3 -13 -2 -10
-12z"/>
<path d="M12497 3134 c-9 -10 4 -34 19 -34 8 0 14 9 14 20 0 19 -19 27 -33 14z"/>
<path d="M12575 3020 c-4 -7 -3 -16 3 -22 14 -14 45 -2 40 15 -6 16 -34 21
-43 7z"/>
<path d="M9460 3506 c0 -2 15 -13 32 -25 l33 -20 -56 6 c-79 8 -121 -9 -188
-76 -124 -124 -217 -384 -250 -701 -38 -357 -17 -632 69 -884 16 -48 38 -100
50 -116 53 -75 135 -99 239 -70 36 10 77 21 91 25 20 5 16 -2 -25 -41 -40 -37
-45 -45 -25 -39 154 48 288 347 335 753 19 159 19 480 0 632 -29 240 -118 459
-213 523 -34 22 -92 44 -92 33z m-76 -257 c35 -24 71 -68 62 -76 -3 -3 -49
-10 -103 -14 -54 -5 -106 -11 -115 -13 -10 -2 -18 0 -18 5 0 12 38 89 52 107
17 20 88 15 122 -9z m126 -174 c10 -12 10 -15 -3 -15 -22 0 -31 -18 -16 -36
10 -13 14 -12 30 2 18 16 20 15 40 -30 26 -59 36 -116 20 -116 -19 0 -12 -29
9 -40 18 -10 20 -21 20 -102 0 -86 -1 -90 -17 -76 -32 27 -53 28 -110 8 -62
-22 -93 -45 -93 -69 0 -9 -16 -29 -35 -44 -37 -29 -45 -54 -21 -63 12 -5 13
-11 4 -30 -8 -18 -16 -22 -33 -18 -29 7 -44 -15 -21 -31 15 -12 15 -15 -4 -49
-12 -19 -19 -40 -15 -46 9 -15 41 -12 55 5 18 21 32 19 25 -5 -8 -26 11 -60
34 -60 17 0 17 -4 -2 -86 -14 -61 -17 -88 -9 -96 17 -17 40 -2 62 42 20 40 33
49 45 30 12 -19 35 -10 46 17 10 26 10 26 24 6 17 -25 8 -64 -30 -128 -36 -62
-69 -85 -121 -85 -40 0 -45 3 -68 43 -113 193 -106 695 13 942 54 111 83 145
126 145 18 0 38 -7 45 -15z m-219 -37 c-48 -72 -99 -174 -117 -235 -9 -32 -25
-77 -36 -101 l-20 -43 -15 27 c-11 23 -12 41 -3 99 12 76 32 164 56 237 16 51
18 51 126 56 l37 2 -28 -42z m273 -417 c32 -35 46 -105 37 -180 -10 -79 -24
-111 -50 -111 -72 0 -99 221 -35 291 21 24 27 24 48 0z m-275 -787 c8 -7 -10
-52 -30 -77 -32 -42 -74 -37 -98 11 -42 84 -42 83 46 76 43 -4 80 -8 82 -10z"/>
<path d="M9385 2990 c-4 -7 -3 -16 3 -22 14 -14 45 -2 40 15 -6 16 -34 21 -43
7z"/>
<path d="M9302 2733 c5 -26 38 -29 38 -4 0 15 -6 21 -21 21 -14 0 -19 -5 -17
-17z"/>
<path d="M9314 2175 c-7 -18 3 -35 21 -35 21 0 28 19 15 35 -16 19 -29 19 -36
0z"/>
<path d="M9412 2028 c2 -15 10 -23 23 -23 30 0 27 39 -3 43 -20 3 -23 0 -20
-20z"/>
</g>
</svg>
