<?xml version="1.0" encoding="UTF-8"?>
<svg version="1.1" xmlns="http://www.w3.org/2000/svg" width="1000" height="1000">
<path d="M0 0 C2.68449749 3.43951241 3.19777573 5.97519153 2.71679688 10.18579102 C2.1291433 14.79310958 0.96736832 19.05809341 -0.46875 23.46484375 C-0.70911987 24.22422745 -0.94948975 24.98361115 -1.19714355 25.76600647 C-1.95693893 28.15908133 -2.72844574 30.54819404 -3.5 32.9375 C-4.01766078 34.5655221 -4.53459422 36.19377565 -5.05078125 37.82226562 C-8.80370352 49.60740704 -8.80370352 49.60740704 -10 52 C-8.68 52.33 -7.36 52.66 -6 53 C-6 53.66 -6 54.32 -6 55 C-5.1646875 55.309375 -5.1646875 55.309375 -4.3125 55.625 C-1.1586076 57.50028737 0.7779146 60.1520741 3 63 C3.7425 63.86625 4.485 64.7325 5.25 65.625 C6.94388874 67.923849 7.4258209 69.27839107 8 72 C8.94875 71.154375 9.8975 70.30875 10.875 69.4375 C17.30377341 63.95872752 23.55756407 58.65178094 32 57 C31.93216309 56.36690918 31.86432617 55.73381836 31.79443359 55.08154297 C31.03023005 47.42711509 30.71795885 39.81523202 30.625 32.125 C30.58761719 30.92875 30.55023437 29.7325 30.51171875 28.5 C30.41407882 18.80110033 30.41407882 18.80110033 33.3984375 15.7421875 C37.49327354 13 37.49327354 13 40 13 C44.18671578 14.83807034 46.07229267 16.89961663 48 21 C48.2521484 23.8669002 48.35108656 26.50447089 48.29296875 29.36328125 C48.28872391 30.15526413 48.28447906 30.94724701 48.28010559 31.76322937 C48.26338163 34.28000627 48.22574225 36.79596724 48.1875 39.3125 C48.17244499 41.02407693 48.15875801 42.73566649 48.14648438 44.44726562 C48.11349885 48.63182233 48.06176098 52.81577307 48 57 C48.93336182 57.13575439 49.86672363 57.27150879 50.82836914 57.41137695 C58.18153573 58.77605132 64.64885262 64.42097333 70.12890625 69.3359375 C76.78680759 75.25716082 83.84610739 80.69770312 91 86 C92.67231131 87.24243819 94.33893861 88.492561 96 89.75 C96.763125 90.32234375 97.52625 90.8946875 98.3125 91.484375 C99.1478125 92.23460937 99.1478125 92.23460937 100 93 C100 93.66 100 94.32 100 95 C100.66 95.185625 101.32 95.37125 102 95.5625 C105.59765304 97.28637541 108.06632546 99.57986726 110.99609375 102.25390625 C112.76866456 103.79842702 114.51261803 105.06744983 116.5 106.3125 C117.325 106.869375 118.15 107.42625 119 108 C119 108.66 119 109.32 119 110 C119.5671875 110.25910156 120.134375 110.51820313 120.71875 110.78515625 C123.21881232 112.11652505 125.28512532 113.67394396 127.5 115.4375 C129.73488695 117.20933674 131.94475404 118.96130891 134.28125 120.59765625 C134.8484375 121.06042969 135.415625 121.52320313 136 122 C136 122.66 136 123.32 136 124 C136.721875 124.2475 137.44375 124.495 138.1875 124.75 C141.27606582 126.12269592 143.51011418 127.72353296 146 130 C146 130.66 146 131.32 146 132 C146.58910156 132.10699219 147.17820312 132.21398437 147.78515625 132.32421875 C150.28857387 133.08804811 151.51484578 134.05857756 153.4375 135.8125 C156.21507655 138.31940784 159.06448212 140.67850162 162 143 C162.55405518 143.43981201 163.10811035 143.87962402 163.67895508 144.33276367 C165.51278013 145.78734804 167.34985852 147.23774104 169.1875 148.6875 C169.81591797 149.18572266 170.44433594 149.68394531 171.09179688 150.19726562 C174.3857862 152.84157738 174.3857862 152.84157738 178 155 C162.79413786 127.85024547 162.79413786 127.85024547 147.00854492 101.03710938 C144.91474928 97.57667019 142.94621405 94.07853198 141.0625 90.5 C130.135513 70.29708173 114.91850861 50.64918144 92.3203125 43.10546875 C85.9702991 41.27961504 79.51502302 40.07113531 73 39 C71.1582605 33.35199888 70.45224761 27.91492272 70 22 C89.95312643 20.78868035 109.2895795 28.52146882 124.625 41.1640625 C127.13683286 43.39254836 129.58001325 45.67231789 132 48 C132.74636719 48.70640625 133.49273438 49.4128125 134.26171875 50.140625 C138.10305107 53.86125002 141.0887676 57.48840908 144 62 C144.77884834 63.16609975 145.55885299 64.33142779 146.33984375 65.49609375 C152.89534879 75.39725441 158.80997226 85.58022853 164.59765625 95.9453125 C168.07018382 102.15569747 171.65091396 108.29982493 175.25 114.4375 C180.17440643 122.84724134 185.01933383 131.29325648 189.77050781 139.80175781 C198.82149828 155.98426737 208.00437003 172.07641109 217.58813477 187.94970703 C220.92325764 193.4762418 224.1534321 199.03457941 227.20703125 204.72265625 C229.74848077 209.36813806 232.37378995 213.96452712 235 218.5625 C235.49862549 219.43729004 235.99725098 220.31208008 236.51098633 221.21337891 C239.48692496 226.4157822 242.52544358 231.57414378 245.63598633 236.69726562 C247.047764 239.08063541 248.37682113 241.49726623 249.6875 243.9375 C252.40649731 248.97294178 255.25080752 253.92727213 258.125 258.875 C258.59365479 259.68380615 259.06230957 260.4926123 259.54516602 261.32592773 C261.53340003 264.75620696 263.52280714 268.18566002 265.52734375 271.60644531 C282.61145758 300.76463705 296.0806797 326.92751374 287.33349609 361.37475586 C283.15818297 376.30931314 275.79932318 389.69983885 268 403 C266.88869333 404.9123947 265.77806197 406.82518192 264.66796875 408.73828125 C258.60941326 419.16453613 252.50742187 429.56554369 246.3828125 439.953125 C244.68400605 442.8350035 242.99254717 445.72107189 241.3046875 448.609375 C240.85641602 449.37515869 240.40814453 450.14094238 239.94628906 450.92993164 C239.09525642 452.38401494 238.24554276 453.83887142 237.39746094 455.29467773 C235.05673428 459.2894333 232.67155548 463.21627715 230 467 C229.67 467 229.34 467 229 467 C228.93876305 460.99877921 228.94698987 455.00123989 229 449 C229.00386719 447.71609375 229.00773438 446.4321875 229.01171875 445.109375 C229.29450946 436.41112291 231.5613722 430.42257927 236 423 C236.68245132 421.83863547 237.36473637 420.67717322 238.046875 419.515625 C239.53863987 416.99699114 241.05000377 414.49130519 242.57421875 411.9921875 C246.39721652 405.72054333 250.10252414 399.3794519 253.80664062 393.03710938 C254.94222135 391.09863033 256.08753992 389.1662095 257.234375 387.234375 C269.27451102 366.80978961 276.06343048 343.95707954 270.5 320.3125 C267.95041878 312.02856657 264.16589196 304.56543974 260 297 C259.5447998 296.17032715 259.08959961 295.3406543 258.62060547 294.48583984 C251.56608642 281.69761791 244.14876338 269.12531434 236.67529297 256.5793457 C232.72080114 249.93332247 228.83930665 243.25833699 225.08227539 236.49902344 C222.51931191 231.89510239 219.87119292 227.34701563 217.1875 222.8125 C211.78904991 213.68980269 206.53737337 204.48489868 201.29394531 195.27246094 C199.53286116 192.17959844 197.76671106 189.0896511 196 186 C195.03000074 188.90999779 194.89490327 190.64458107 194.94221497 193.66252136 C194.96105287 195.1072775 194.96105287 195.1072775 194.98027134 196.58122063 C194.99943072 197.64133921 195.01859011 198.70145779 195.03833008 199.79370117 C195.0626166 201.47969768 195.0626166 201.47969768 195.08739376 203.19975471 C195.14313565 206.98091906 195.20636484 210.76192168 195.26953125 214.54296875 C195.31077343 217.23788389 195.3516014 219.93280231 195.39190674 222.62773132 C195.47954463 228.43211472 195.57100747 234.23642774 195.66506958 240.04071045 C195.80151909 248.46078304 195.93225679 256.88093675 196.06159484 265.30112123 C196.26957166 278.83183235 196.48202935 292.36246898 196.69726562 305.89306641 C196.96380819 322.65163697 197.22352714 339.41030648 197.48067665 356.16902351 C197.809592 377.59935263 198.14033417 399.02965584 198.47778893 420.45985222 C198.53447022 424.07345135 198.59035498 427.68706221 198.64619446 431.30067444 C198.83268302 443.24897486 199.03809054 455.19667194 199.27563059 467.14406085 C199.36780041 471.81235683 199.45607637 476.48072891 199.54528618 481.14908218 C199.61910401 484.90653135 199.69947831 488.66380255 199.78004456 492.42111206 C199.82431474 494.71969989 199.86827172 497.01829377 199.91186523 499.31689453 C199.93592123 500.34088474 199.95997723 501.36487495 199.98476219 502.41989517 C200.21562233 515.53564884 199.20297463 526.33613298 191 537 C190.34 537 189.68 537 189 537 C188.34 538.32 187.68 539.64 187 541 C186.34 541 185.68 541 185 541 C185 541.66 185 542.32 185 543 C183.64871743 543.63121136 182.29377953 544.25459835 180.9375 544.875 C180.18339844 545.22304688 179.42929687 545.57109375 178.65234375 545.9296875 C171.61226274 548.77060384 165.52197224 549.32536647 157.97631836 549.41064453 C156.88541397 549.43044373 155.79450958 549.45024292 154.67054749 549.47064209 C151.06040029 549.5338036 147.45020415 549.58346544 143.83984375 549.6328125 C141.29528119 549.67406192 138.75073063 549.71605727 136.20619202 549.75875854 C130.85229357 549.84669001 125.49835508 549.92871238 120.14428711 550.00537109 C113.39952375 550.10197226 106.65499864 550.20976001 99.91046715 550.32130814 C70.93933985 550.79899096 41.97528365 551.15957774 13 551 C12.88032364 551.56299301 12.76064728 552.12598602 12.63734436 552.70603943 C9.23078588 568.42481905 3.9656869 583.77396193 -0.88354492 599.09545898 C-1.5896164 601.33437777 -2.29041589 603.57496558 -2.98608398 605.81713867 C-4.00826977 609.10999787 -5.04726715 612.39714178 -6.08984375 615.68359375 C-6.39317123 616.67233994 -6.69649872 617.66108612 -7.00901794 618.67979431 C-9.86894921 627.58151469 -13.85182641 635.76825892 -21 642 C-21.721875 642.66 -22.44375 643.32 -23.1875 644 C-32.84065051 650.86446258 -43.1587365 653.6291851 -55 653 C-57.93637224 652.37137746 -60.76733496 651.47980784 -63.625 650.5625 C-64.47908447 650.29735596 -65.33316895 650.03221191 -66.21313477 649.7590332 C-68.1113294 649.16872565 -70.00815791 648.57401249 -71.90380859 647.97558594 C-75.17853675 646.94374445 -78.45777721 645.92738512 -81.73828125 644.9140625 C-86.66195337 643.39244046 -91.58368685 641.86478133 -96.50390625 640.33203125 C-101.21787827 638.86394321 -105.93367683 637.4021436 -110.65234375 635.94921875 C-127.01045889 630.90607653 -143.31977933 625.71756758 -159.62316895 620.50061035 C-172.16785864 616.48699851 -184.72146671 612.51362942 -197.31201172 608.64599609 C-205.61229564 606.08227073 -213.88615504 603.44056515 -222.15625 600.78125 C-223.92849442 600.21148941 -223.92849442 600.21148941 -225.73654175 599.63021851 C-231.71385588 597.70755083 -237.68991267 595.78106435 -243.66455078 593.85009766 C-245.8935406 593.13179222 -248.12254394 592.41352876 -250.3515625 591.6953125 C-251.36198608 591.36752808 -252.37240967 591.03974365 -253.41345215 590.70202637 C-258.97711058 588.91169782 -264.55734178 587.28682694 -270.20251465 585.77505493 C-275.25924907 584.37406567 -280.24903432 582.76274534 -285.24609375 581.1640625 C-286.37845963 580.80283295 -287.5108255 580.44160339 -288.67750549 580.06942749 C-291.05697448 579.30927052 -293.43603321 578.54782824 -295.81469727 577.78515625 C-299.42225081 576.62988336 -303.03233229 575.48276483 -306.64257812 574.3359375 C-308.96890982 573.59164517 -311.2950869 572.84686937 -313.62109375 572.1015625 C-314.68396103 571.76492584 -315.74682831 571.42828918 -316.84190369 571.08145142 C-331.75889358 566.27319854 -343.91159702 562.03434208 -352 548 C-352.391875 547.36191406 -352.78375 546.72382812 -353.1875 546.06640625 C-358.66358458 536.38259492 -358.94453724 525.28775873 -356.13549805 514.76000977 C-351.60146228 499.35335032 -346.59425484 484.09798057 -341.64208984 468.82177734 C-340.44422966 465.12403503 -339.24937053 461.4253323 -338.0546875 457.7265625 C-337.6921286 456.61173492 -337.3295697 455.49690735 -336.95602417 454.34829712 C-335.02971735 448.382154 -333.23880628 442.40640767 -331.64187622 436.34335327 C-330.30892804 431.47704358 -329.1036983 428.00336209 -325.25 424.5 C-321.19093608 422.62658588 -319.2470074 422.66297915 -315 424 C-312.5625 426 -312.5625 426 -311 429 C-310.2240823 437.23577458 -312.60044412 444.10652097 -315.19921875 451.84375 C-315.6368747 453.17981446 -316.07327682 454.51629022 -316.50849915 455.85314941 C-317.6541182 459.36193223 -318.81501565 462.86545888 -319.97979736 466.36791992 C-321.82627314 471.93075665 -323.64726218 477.50204365 -325.47327042 483.07162476 C-326.13234659 485.08042408 -326.79304727 487.0886843 -327.4538269 489.09692383 C-330.49218214 498.34776693 -333.3641881 507.62637222 -336 517 C-336.36609375 518.25361328 -336.7321875 519.50722656 -337.109375 520.79882812 C-338.81792544 526.93986797 -338.03537808 532.78773152 -337 539 C-336.01 539.33 -335.02 539.66 -334 540 C-333.46375 540.763125 -332.9275 541.52625 -332.375 542.3125 C-326.57947686 548.87059198 -316.22986387 550.62041826 -308.125 553.0625 C-306.18114857 553.65618722 -304.23799463 554.25212504 -302.29481506 554.8480072 C-300.93412495 555.26505423 -299.57323086 555.6814363 -298.21214294 556.09718323 C-290.73389398 558.38174962 -283.27207315 560.71778752 -275.8125 563.0625 C-275.1144928 563.28157013 -274.4164856 563.50064026 -273.69732666 563.72634888 C-263.8012706 566.83336107 -253.91900041 569.98227107 -244.04296875 573.15234375 C-242.92445023 573.51119156 -241.8059317 573.87003937 -240.65351868 574.23976135 C-235.09055181 576.02491545 -229.52855217 577.81299692 -223.96801758 579.60571289 C-221.90578534 580.26846543 -219.84353048 580.9311476 -217.78125 581.59375 C-216.39252937 582.04312172 -216.39252937 582.04312172 -214.97575378 582.50157166 C-210.53751121 583.92518262 -206.09625514 585.264757 -201.59301758 586.46826172 C-195.57179315 588.08417415 -189.6568291 589.98260403 -183.73046875 591.9140625 C-181.3704695 592.67781717 -179.01044243 593.44148588 -176.65039062 594.20507812 C-174.82278198 594.79784546 -174.82278198 594.79784546 -172.95825195 595.40258789 C-147.46373952 603.67729986 -147.46373952 603.67729986 -121.80639648 611.42797852 C-113.18467103 613.96624505 -104.64823267 616.73208339 -96.109375 619.53515625 C-94.20530304 620.15756833 -92.30123083 620.77997967 -90.39711761 621.40226555 C-89.76204536 621.60983042 -89.12697311 621.81739529 -88.47265625 622.03125 C-87.51506283 622.3441608 -87.51506283 622.3441608 -86.53812408 622.66339302 C-82.10747252 624.11309945 -77.68429617 625.58440128 -73.26171875 627.05859375 C-70.8986697 627.8327404 -68.5353976 628.60620659 -66.171875 629.37890625 C-64.55487701 629.92660423 -64.55487701 629.92660423 -62.9052124 630.48536682 C-54.37689796 633.24568346 -45.45888069 634.83043654 -37 631 C-29.18361151 624.78833888 -26.95881255 615.42513589 -24.125 606.3125 C-23.61114944 604.71082645 -23.09566705 603.10967557 -22.57861328 601.5090332 C-21.27662221 597.45990954 -19.99943019 593.40349899 -18.73217773 589.34338379 C-18.02912991 587.09323222 -17.32124703 584.84467175 -16.61132812 582.59667969 C-11.63283963 566.85033257 -11.63283963 566.85033257 -7 551 C-8.2375 551.020625 -9.475 551.04125 -10.75 551.0625 C-13.6640825 551.06766681 -16.20953327 550.93015558 -19 550 C-18.6738437 548.6648929 -18.33867892 547.33198554 -18 546 C-17.81824219 545.24460937 -17.63648438 544.48921875 -17.44921875 543.7109375 C-16.57565035 541.03199439 -15.80604328 539.18176859 -14 537 C-10.036124 535.61185168 -6.18077454 535.20377989 -2 535 C-1.30151736 533.06643218 -0.61655186 531.12797702 0.0625 529.1875 C0.44535156 528.10855469 0.82820313 527.02960937 1.22265625 525.91796875 C2.29482689 522.96817771 2.29482689 522.96817771 1 520 C-0.65 519.67 -2.3 519.34 -4 519 C-3.52754173 517.31264902 -3.04990569 515.62653359 -2.54296875 513.94921875 C-1.9061914 511.79303011 -1.9061914 511.79303011 -1.4375 508.6875 C0 506 0 506 2.12890625 505.18359375 C4.41817273 504.67128529 6.67143878 504.27789414 9 504 C9.08612549 503.09797852 9.17225098 502.19595703 9.26098633 501.26660156 C10.08207312 495.57090745 12.03906305 490.18623647 13.82421875 484.734375 C14.20810257 483.54636292 14.59198639 482.35835083 14.98750305 481.13433838 C16.00864137 477.97733384 17.03457871 474.82197591 18.06304932 471.6673584 C19.08671592 468.52421866 20.10466402 465.37922993 21.12304688 462.234375 C22.31399803 458.55707977 23.50508503 454.87983052 24.69747925 451.20300293 C30.70791467 432.67999912 30.70791467 432.67999912 36.32421875 414.03515625 C39.8848874 401.75329248 43.88943097 389.60710362 47.8125 377.4375 C48.60891688 374.96165059 49.40514225 372.48573957 50.20117188 370.00976562 C52.13190975 364.00579911 54.06500104 358.0025945 56 352 C55.67 351.67 55.34 351.34 55 351 C54.41605469 351.85658203 54.41605469 351.85658203 53.8203125 352.73046875 C50.24630281 357.91031229 46.560215 362.99234891 42.75 368 C42.32605957 368.56356201 41.90211914 369.12712402 41.46533203 369.70776367 C39.43940648 372.34886019 37.79989494 374.13340337 35 376 C37.00862838 369.52807693 39.48336963 363.40332863 42.3125 357.25 C42.71130371 356.37093994 43.11010742 355.49187988 43.52099609 354.58618164 C45.67562162 349.84678836 47.8864493 345.13785308 50.125 340.4375 C52.56878921 335.17656489 54.62900326 329.81713974 56.625 324.375 C57.07903198 323.13786255 57.07903198 323.13786255 57.54223633 321.87573242 C58.74972312 318.55422619 59.92472051 315.24053448 60.98046875 311.8671875 C63.06652797 305.30540497 66.3527588 300.06421271 70.29614258 294.47558594 C74.81215378 288.05722569 78.00634936 281.54102221 80.4375 274.0625 C80.64286377 273.43279297 80.84822754 272.80308594 81.05981445 272.15429688 C83.33006927 265.11693773 85.41976049 258.02182912 87.4465332 250.91088867 C87.99019728 249.03384467 88.56903068 247.16710185 89.1484375 245.30078125 C91.20180806 237.34161553 88.96689515 231.02854882 85.05859375 224.03125 C84 222 84 222 84 220 C83.34 220 82.68 220 82 220 C80.89355469 218.51318359 80.89355469 218.51318359 79.671875 216.3984375 C79.20885986 215.60896729 78.74584473 214.81949707 78.26879883 214.00610352 C77.76759521 213.13783936 77.2663916 212.2695752 76.75 211.375 C68.07022404 196.62723888 59.01340321 182.10929742 49.171875 168.10546875 C46.57289702 164.3893042 44.02765727 160.63991218 41.5 156.875 C41.0659082 156.2344165 40.63181641 155.59383301 40.18457031 154.93383789 C38.42447575 152.30394559 37.00593815 150.01781444 36 147 C34.41058594 147.2165625 34.41058594 147.2165625 32.7890625 147.4375 C29 147 29 147 26.5234375 144 C25.780268 142.68153812 25.06520735 141.34694337 24.375 140 C23.6143497 138.61009182 22.8526404 137.22076265 22.08984375 135.83203125 C21.55399658 134.82970459 21.55399658 134.82970459 21.00732422 133.80712891 C19.8033443 131.64720177 18.39548104 129.68241457 16.9375 127.6875 C14.1673585 123.38998596 14.54429211 118.94189887 15 114 C14.01 113.67 13.02 113.34 12 113 C10.96484375 111.4609375 10.96484375 111.4609375 9.9375 109.375 C7.56013668 104.85873229 4.85211542 100.6615389 2 96.4375 C-3.43355529 88.37794128 -3.43355529 88.37794128 -5.75 84.625 C-7.52730738 81.74715352 -9.33890706 78.89523595 -11.1875 76.0625 C-11.67605469 75.31097656 -12.16460938 74.55945313 -12.66796875 73.78515625 C-13.8908403 71.86732639 -13.8908403 71.86732639 -16 71 C-16.23783203 71.91265625 -16.23783203 71.91265625 -16.48046875 72.84375 C-17.67069185 77.31530641 -18.90241949 81.75603654 -20.34765625 86.15234375 C-20.69437378 87.21582031 -20.69437378 87.21582031 -21.0480957 88.30078125 C-21.51056681 89.70862374 -21.98156878 91.11369673 -22.46166992 92.515625 C-24.09867917 97.28302707 -24.09867917 97.28302707 -23 102 C-21.36395804 103.37073786 -19.69321939 104.70055256 -18 106 C-11.74221385 112.8266758 -8.58942873 120.7856651 -8 130 C-8.48419097 140.30457711 -11.53723182 150.53723182 -19 158 C-21.25 158.8125 -21.25 158.8125 -23 159 C-23 159.66 -23 160.32 -23 161 C-32.80455182 167.48684994 -42.33435846 168.94761686 -53.86328125 166.84765625 C-58.61355561 165.5639582 -62.7778053 163.49709935 -67 161 C-67 160.34 -67 159.68 -67 159 C-67.556875 158.79375 -68.11375 158.5875 -68.6875 158.375 C-75.64065337 154.24069259 -78.89095141 146.50649131 -81 139 C-82.4026726 128.49678754 -80.4578418 120.4410721 -76 111 C-75.34 111 -74.68 111 -74 111 C-73.67 109.68 -73.34 108.36 -73 107 C-72.34 107 -71.68 107 -71 107 C-70.67 106.01 -70.34 105.02 -70 104 C-61.6114242 96.95139364 -53.77013558 94.50993034 -43 95 C-42.73445313 93.74316406 -42.46890625 92.48632812 -42.1953125 91.19140625 C-40.97663014 85.70733564 -39.44362387 80.33011365 -37.875 74.9375 C-37.59785156 73.97650391 -37.32070313 73.01550781 -37.03515625 72.02539062 C-36.35920711 69.68287721 -35.68078301 67.34111223 -35 65 C-41.56206837 67.32634463 -48.020104 69.80640639 -54.43359375 72.515625 C-58.9375191 74.3902051 -63.46771016 76.19531009 -68 78 C-74.2758462 80.50087073 -80.53047267 83.04043964 -86.7578125 85.66015625 C-91.98629934 87.82084419 -97.24982648 89.89376218 -102.50683594 91.98388672 C-107.45558138 93.95910107 -112.36561684 95.99576661 -117.25 98.125 C-122.73728203 100.50881924 -128.28586899 102.62079275 -133.89941406 104.68017578 C-139.35853516 106.70601124 -144.66462962 109.00649526 -149.97753906 111.38549805 C-155.43654812 113.80791652 -160.97799946 115.93924634 -166.59765625 117.95898438 C-170.55184925 119.39350969 -174.25572717 121.08943263 -178 123 C-179.33333333 123.33333333 -180.66666667 123.66666667 -182 124 C-182.94875 124.474375 -183.8975 124.94875 -184.875 125.4375 C-187.89604968 126.94802484 -190.79343823 127.95170096 -194 129 C-208.63910191 134.15505393 -208.63910191 134.15505393 -219 145 C-220.19127578 147.86130101 -221.13129227 150.78227601 -222.05859375 153.73828125 C-222.32962418 154.57731491 -222.6006546 155.41634857 -222.87989807 156.2808075 C-223.74117416 158.95532411 -224.58927169 161.63382064 -225.4375 164.3125 C-226.00244749 166.06861942 -226.5681963 167.82448128 -227.13476562 169.58007812 C-229.64352053 177.38588395 -232.08538646 185.20455807 -234.359375 193.08203125 C-238.23570224 206.47893044 -242.67243098 219.70870602 -246.98071289 232.97119141 C-251.12315422 245.73363621 -255.19482776 258.50367775 -258.9609375 271.3828125 C-261.78006497 281.0196564 -264.74319922 290.6028058 -267.83203125 300.15625 C-268.03631304 300.78808826 -268.24059483 301.41992653 -268.45106697 302.07091141 C-269.69119259 305.90274344 -270.93579433 309.73311079 -272.18212891 313.56292725 C-273.66563046 318.12159191 -275.14737516 322.68082108 -276.62443542 327.24157715 C-277.40328852 329.645461 -278.18445768 332.04859628 -278.96846008 334.45080566 C-280.89183177 340.38488468 -282.66776556 346.32716175 -284.27516174 352.35415649 C-285.49132099 356.79344624 -286.88840073 361.17340691 -288.28515625 365.55859375 C-288.73779091 366.98595604 -288.73779091 366.98595604 -289.1995697 368.44215393 C-289.83120151 370.43144508 -290.46398929 372.42036954 -291.09790039 374.40893555 C-292.06742857 377.45297429 -293.03095568 380.4988709 -293.99414062 383.54492188 C-294.61161844 385.48709389 -295.22944449 387.42915523 -295.84765625 389.37109375 C-296.13415543 390.2783873 -296.4206546 391.18568085 -296.71583557 392.12046814 C-296.98629196 392.96557449 -297.25674835 393.81068085 -297.53540039 394.68139648 C-297.77061905 395.42099106 -298.00583771 396.16058563 -298.2481842 396.92259216 C-299.45973748 400.27034076 -300.41461786 402.51496908 -303.1875 404.8125 C-306.94120071 406.39739585 -309.09737951 406.06435104 -313 405 C-315.3181362 403.10888889 -316.66914015 401.66171969 -318 399 C-317.58727382 391.75918975 -315.78379884 385.37552165 -313.5625 378.5 C-312.97622912 376.64771111 -312.38997496 374.79541691 -311.8039856 372.94303894 C-311.10479211 370.73795374 -310.40149139 368.53420547 -309.69775391 366.33056641 C-307.641806 359.88519848 -305.60874464 353.43262409 -303.57421875 346.98046875 C-302.77469421 344.44530113 -301.97514768 341.91014048 -301.17553711 339.375 C-300.97517758 338.73974081 -300.77481806 338.10448162 -300.56838703 337.44997215 C-298.79327129 331.82271222 -297.01428897 326.19667764 -295.23493958 320.570755 C-291.16783113 307.71055424 -287.10131517 294.85049985 -283.140625 281.95703125 C-279.42010129 269.85295386 -275.61854134 257.77778073 -271.7421875 245.72265625 C-271.36481445 244.54880875 -270.98744141 243.37496124 -270.59863281 242.1655426 C-268.6873193 236.22338592 -266.772143 230.28250105 -264.85253906 224.34301758 C-264.13341993 222.11150494 -263.41434268 219.8799788 -262.6953125 217.6484375 C-262.36747772 216.63785782 -262.03964294 215.62727814 -261.70187378 214.58607483 C-259.91632679 209.03727347 -258.2941698 203.47226635 -256.78625488 197.84222412 C-254.27051945 188.74811978 -251.27810122 179.78233122 -248.4128418 170.79370117 C-247.59427139 168.22327439 -246.78308466 165.65069445 -245.97827148 163.07592773 C-244.80604997 159.32589883 -243.6127347 155.58275426 -242.41796875 151.83984375 C-242.0646196 150.70103256 -241.71127045 149.56222137 -241.34721375 148.38890076 C-238.38672133 139.21841849 -234.55635925 130.29696604 -227 124 C-226.34 124 -225.68 124 -225 124 C-224.67 123.01 -224.34 122.02 -224 121 C-221.88093489 119.79390386 -219.8488641 118.78733291 -217.625 117.8125 C-216.96669189 117.51496826 -216.30838379 117.21743652 -215.63012695 116.91088867 C-204.6549965 111.99355111 -193.54338881 107.33855916 -182.35473633 102.92919922 C-180.0135844 102.00536052 -177.6762545 101.07247814 -175.33984375 100.13671875 C-171.91772362 98.76686299 -168.49466713 97.3994164 -165.0703125 96.03515625 C-157.10619708 92.85967163 -149.15386215 89.66696477 -141.25 86.34375 C-135.96792935 84.15981694 -130.6533126 82.05742311 -125.34375 79.94140625 C-119.95473248 77.79066884 -114.5906065 75.58981605 -109.2421875 73.33984375 C-104.01370066 71.17915581 -98.75017352 69.10623782 -93.49316406 67.01611328 C-88.54441862 65.04089893 -83.63438316 63.00423339 -78.75 60.875 C-73.21942453 58.47322427 -67.63073751 56.32038707 -61.96655273 54.26049805 C-58.69437654 53.05862769 -55.49058668 51.80151122 -52.33203125 50.32421875 C-44.42106266 46.64531105 -37.74412721 45.02905026 -29 45 C-26.52312494 39.22812007 -24.42505786 33.37961234 -22.5625 27.3828125 C-22.35351074 26.71320496 -22.14452148 26.04359741 -21.92919922 25.35369873 C-21.06300673 22.57053504 -20.2006365 19.7864023 -19.35449219 16.99707031 C-18.7266713 14.93450246 -18.08333712 12.87729868 -17.4375 10.8203125 C-17.06496094 9.60617676 -16.69242188 8.39204102 -16.30859375 7.14111328 C-14.66452204 3.19472773 -12.53396917 1.16370075 -9.1875 -1.375 C-5.59813596 -2.40053258 -3.35600711 -1.46443947 0 0 Z M49 74 C47.62441178 82.32063118 46.38646752 91.82493262 49 100 C52.51802958 103.53974582 56.47612407 105.03360632 61 107 C67.32873622 111.97346658 70.21195103 119.7651033 71.3828125 127.54296875 C71.7173974 134.5580989 69.99774206 142.24272222 65.55078125 147.81640625 C65.08027344 148.31011719 64.60976563 148.80382812 64.125 149.3125 C63.42375 150.199375 62.7225 151.08625 62 152 C62.67854719 156.15610152 64.57801917 159.56886049 67 163 C67.66 163 68.32 163 69 163 C69.28875 163.9075 69.5775 164.815 69.875 165.75 C71.47591327 170.50169063 71.47591327 170.50169063 74.4375 174.4375 C76 176 76 176 76.92211914 178.5715332 C78.712192 181.16876297 78.712192 181.16876297 81.12057495 181.42709351 C84.02894292 181.54789007 86.89899617 181.5076718 89.80859375 181.41796875 C91.42423973 181.40024162 91.42423973 181.40024162 93.07252502 181.38215637 C96.52833546 181.34087512 99.98235373 181.26612989 103.4375 181.1875 C106.8603193 181.12445887 110.28294974 181.06881281 113.70606995 181.02497864 C115.83561549 180.99616856 117.96504935 180.95581904 120.09410095 180.9016571 C132.62961935 180.69549025 143.5525537 182.08145103 153.03515625 190.890625 C161.20701395 199.7044333 163.08876783 208.20877923 163.28125 219.93920898 C163.29929687 220.82840342 163.31734375 221.71759785 163.3359375 222.63373756 C163.39503641 225.60862231 163.44760354 228.58358393 163.5 231.55859375 C163.54073706 233.69714379 163.58175991 235.83568841 163.62304688 237.97422791 C163.75622969 244.98269072 163.87896221 251.99131829 164 259 C164.0309375 260.77850216 164.0309375 260.77850216 164.0625 262.59293365 C164.37145802 280.39252885 164.65793877 298.19246009 164.93628693 315.99255753 C165.00086433 320.12129496 165.06594235 324.25002444 165.13104248 328.37875366 C165.6561727 361.7119167 166.16701668 395.04527245 166.59375 428.37986374 C166.6244585 430.7703476 166.65568582 433.16082421 166.68701172 435.55130005 C166.79445986 443.81294826 166.88647019 452.07445873 166.96008301 460.33648682 C166.99981536 463.9830539 167.06244899 467.62871705 167.12792969 471.27490234 C167.1561924 473.52050042 167.1838949 475.76610565 167.2109375 478.01171875 C167.23467438 479.00202591 167.25841125 479.99233307 167.28286743 481.01264954 C167.32869904 486.53655926 166.68108846 490.97031199 164.64883423 496.12458801 C163.83652276 498.14177358 163.83652276 498.14177358 164 501 C163.01 501.33 162.02 501.66 161 502 C160.62875 502.70125 160.2575 503.4025 159.875 504.125 C155.24009357 511.23185653 148.12400852 515.14273466 140 517 C135.87621815 517.47985825 131.77378309 517.60310162 127.625 517.6875 C126.43874023 517.72166016 125.25248047 517.75582031 124.03027344 517.79101562 C115.01340377 518.02460093 106.00101249 518.03308143 96.98193359 517.98120117 C86.73078627 517.9438737 76.49589923 518.20982923 66.25 518.5 C52.16231704 518.8983228 38.09453133 519.1353797 24 519 C23.34634601 520.53836708 22.70246397 522.08088766 22.0625 523.625 C21.52302734 524.91277344 21.52302734 524.91277344 20.97265625 526.2265625 C19.94832512 529.14734604 19.47431289 531.94741824 19 535 C23.10471559 534.9485131 27.20942938 534.89688529 31.31414223 534.84518051 C32.84729269 534.82589447 34.38044369 534.80665105 35.9135952 534.78744888 C45.34244691 534.66935514 54.77123671 534.54780106 64.19995117 534.41918945 C67.80647425 534.37033442 71.41300138 534.32178853 75.01953125 534.2734375 C75.92804777 534.26122099 76.83656429 534.24900448 77.77261162 534.23641777 C89.3427915 534.08220448 100.91256331 533.96151811 112.48352051 533.88545227 C118.12991003 533.84821729 123.7761675 533.7984204 129.42242813 533.74531841 C133.97449195 533.70360926 138.52625108 533.67868886 143.07848263 533.66588211 C145.90763779 533.65376275 148.73645755 533.62528786 151.56543922 533.59231186 C153.47687528 533.57489228 155.38845946 533.5771057 157.29997253 533.58010864 C165.91817653 533.45645374 171.85423206 531.7638453 179 527 C182.85945379 521.56029405 183.56429956 516.40814655 183.42015076 509.89953613 C183.41518017 508.57447445 183.41518017 508.57447445 183.41010916 507.22264385 C183.39383419 504.27356858 183.34827686 501.32570695 183.30249023 498.37695312 C183.28404408 496.24454297 183.26724266 494.11211804 183.25195217 491.97968292 C183.20447771 486.18882871 183.13019309 480.39861253 183.04905462 474.60814285 C183.00026198 471.01926942 182.95780183 467.43038036 182.91768265 463.84140015 C182.73670917 447.6636293 182.50716262 431.48676204 182.25759212 415.30992994 C182.18043954 410.30664092 182.1048454 405.30333024 182.03021049 400.30000305 C182.01939777 399.57518983 182.00858505 398.8503766 181.99744467 398.10359934 C181.97545871 396.62932858 181.95347645 395.15505777 181.93149786 393.68078691 C181.72789224 380.03397868 181.52001356 366.38723834 181.31049227 352.74051982 C181.13188068 341.10082377 180.95685485 329.46107826 180.78442383 317.82128906 C180.58219788 304.17039217 180.37788062 290.51952925 180.17022032 276.86871386 C180.14801329 275.40861546 180.12580827 273.94851704 180.10360527 272.48841858 C180.08723168 271.41184333 180.08723168 271.41184333 180.0705273 270.31351909 C179.99471293 265.31986415 179.92032346 260.32618921 179.84651375 255.33250427 C179.74697328 248.60138232 179.64394472 241.8703218 179.53871346 235.13928604 C179.5009436 232.69180574 179.46422123 230.24430897 179.42870712 227.79679489 C179.33341872 221.25452537 179.21857004 214.71327658 179.06903768 208.17201042 C179.02172763 205.99829946 178.98094336 203.82443947 178.94570231 201.65049934 C178.88942622 198.36249289 178.80764165 195.07599747 178.71995544 191.78869629 C178.7076757 190.80399904 178.69539595 189.81930179 178.68274409 188.80476522 C178.43398729 181.09253311 176.5792641 176.88631934 171.375 171.0625 C169.27258186 168.78143778 169.27258186 168.78143778 167 169 C167 168.34 167 167.68 167 167 C165.35178756 165.96986723 163.67888441 164.97934924 162 164 C155.10988271 159.12061733 155.10988271 159.12061733 152.58642578 156.57275391 C149.92330637 153.93258536 146.94395291 151.69155311 144 149.375 C143.3709375 148.87226563 142.741875 148.36953125 142.09375 147.8515625 C141.4853125 147.37203125 140.876875 146.8925 140.25 146.3984375 C139.69828125 145.96192871 139.1465625 145.52541992 138.578125 145.07568359 C136.86647578 143.80381254 136.86647578 143.80381254 134 143 C134 142.34 134 141.68 134 141 C131.96113461 139.09227081 131.96113461 139.09227081 129.375 137.125 C128.46234375 136.41085937 127.5496875 135.69671875 126.609375 134.9609375 C124.64396927 133.48394098 122.6892662 132.08006843 120.625 130.75 C118.05670641 129.03780427 116.1740217 127.1740217 114 125 C112.948125 124.29875 111.89625 123.5975 110.8125 122.875 C108 121 108 121 107 119 C106.01 119 105.02 119 104 119 C104 118.34 104 117.68 104 117 C102.28502228 115.41173778 102.28502228 115.41173778 100.125 113.875 C99.40570312 113.33617187 98.68640625 112.79734375 97.9453125 112.2421875 C96.10373994 110.82060368 96.10373994 110.82060368 94 111 C93.67 110.01 93.34 109.02 93 108 C91.61641909 106.7062375 91.61641909 106.7062375 89.8125 105.5 C85.75498613 102.5724267 81.80527808 99.53235415 77.875 96.4375 C77.28952393 95.97859375 76.70404785 95.5196875 76.10083008 95.046875 C73.24824464 92.80369276 70.44491714 90.5287514 67.6953125 88.16015625 C65.315582 85.79153854 65.315582 85.79153854 63 86 C63 85.34 63 84.68 63 84 C61.41829377 82.54891737 61.41829377 82.54891737 59.375 81.125 C58.65054688 80.5990625 57.92609375 80.073125 57.1796875 79.53125 C54.4831098 77.63688 51.76307366 75.79599788 49 74 Z M23.875 80 C23.31167969 80.47695312 22.74835938 80.95390625 22.16796875 81.4453125 C20.77493803 82.62584701 19.38698462 83.81236791 18 85 C20.88210297 91.09534117 23.91383868 96.62961655 28 102 C29.32 101.67 30.64 101.34 32 101 C32 92.42 32 83.84 32 75 C28.58123361 75 26.36848918 77.85941764 23.875 80 Z M-51 114 C-56.92979948 116.20643702 -59.35778067 119.48304605 -62 125 C-63.64972287 130.16913164 -62.65062684 134.93228601 -61 140 C-60.34 140.99 -59.68 141.98 -59 143 C-58.34 143 -57.68 143 -57 143 C-57 143.66 -57 144.32 -57 145 C-51.18221784 148.38489144 -46.75519858 150.16417291 -39.92578125 148.4921875 C-33.71668207 146.49517593 -31.34518306 143.41205238 -28.1875 137.75 C-26.36538994 131.99596822 -26.82171461 127.30943937 -29.5625 121.9375 C-30.036875 121.298125 -30.51125 120.65875 -31 120 C-33.44114754 123.66172131 -34.06279517 127.05514731 -35.0234375 131.30859375 C-36.46577569 135.28367781 -38.76842098 137.28698057 -42.375 139.375 C-45.90723309 140.21600788 -47.76640507 139.58086863 -51 138 C-53.69617499 134.69105796 -53.33120452 131.10693606 -53 127 C-52.27357802 124.37370513 -51.45730573 121.80668839 -50.55859375 119.234375 C-49.75078631 116.85284858 -49.75078631 116.85284858 -51 114 Z M49 118 C48.91867813 120.56314499 48.85935825 123.12368418 48.8125 125.6875 C48.78736328 126.40873047 48.76222656 127.12996094 48.73632812 127.87304688 C48.67327543 132.47589338 49.22183542 135.30307233 52 139 C55.4009682 136.08751775 55.77607816 133.69022723 56.13671875 129.35546875 C55.90497116 125.36278885 54.35418692 123.20430997 52 120 C51.01 119.34 50.02 118.68 49 118 Z M26 133 C26.60183749 135.02045442 27.27306096 137.02111039 28 139 C28.66 139.33 29.32 139.66 30 140 C29.39816251 137.97954558 28.72693904 135.97888961 28 134 C27.34 133.67 26.68 133.34 26 133 Z M92 197 C91.67 197.99 91.34 198.98 91 200 C92.2879728 201.70196405 93.62986661 203.36345179 95 205 C96.04451438 206.97711651 97.05698138 208.97250996 98 211 C98.66 211 99.32 211 100 211 C100.2784375 211.73347656 100.556875 212.46695313 100.84375 213.22265625 C101.90505029 215.77192822 103.13783303 218.04124896 104.5 220.4375 C110.22997916 231.89745832 109.84370403 244.3781314 105.8984375 256.33984375 C105.16923779 258.38606743 104.40951774 260.4218679 103.609375 262.44140625 C102.87021575 265.54492748 103.37705718 266.34378359 105 269 C106.32231201 273.24792732 106.64549842 276.59533048 104.7578125 280.703125 C103.69598724 282.44065724 102.59325985 284.15406115 101.4453125 285.8359375 C99.84443686 288.02682174 99.84443686 288.02682174 99 291 C98.34 291 97.68 291 97 291 C92.47919867 296.34062601 90.54380966 302.76336818 88.6875 309.375 C88.097278 311.39740526 87.50609152 313.41952923 86.9140625 315.44140625 C86.60758789 316.4998877 86.30111328 317.55836914 85.98535156 318.64892578 C83.90963835 325.70820217 81.68490129 332.72296009 79.48901367 339.74560547 C79.16392822 340.79506348 78.83884277 341.84452148 78.50390625 342.92578125 C78.21330322 343.85817627 77.9227002 344.79057129 77.62329102 345.7512207 C76.91096706 347.93229646 76.91096706 347.93229646 77 350 C78.14855469 349.67773438 79.29710937 349.35546875 80.48046875 349.0234375 C91.15061857 346.37173983 103.22700611 346.73638424 113 352 C120.32779097 356.65558195 120.32779097 356.65558195 122 360 C122.66 360 123.32 360 124 360 C124 360.99 124 361.98 124 363 C124.66 363.33 125.32 363.66 126 364 C126.92876556 365.86042448 127.77030408 367.76494692 128.5625 369.6875 C128.99691406 370.72261719 129.43132812 371.75773438 129.87890625 372.82421875 C134.38343312 385.58442902 132.70580516 399.20362788 127.125 411.25 C122.02886489 420.75515088 114.01502311 426.34066463 104 430 C92.83944077 432.62062393 82.79011544 430.8008936 72.8125 425.375 C67.63889222 422.12115863 64.41846467 417.98715005 61 413 C60.005154 411.66281669 59.00671875 410.32826772 58 409 C55.42769333 416.66832739 52.92678558 424.35906624 50.4375 432.0546875 C50.11626663 433.04774084 50.11626663 433.04774084 49.7885437 434.06085587 C48.65629393 437.56170276 47.52471074 441.06276442 46.39355469 444.56396484 C45.46588239 447.43485106 44.536791 450.305272 43.60644531 453.17529297 C42.47253782 456.67330987 41.34113946 460.17212926 40.2114563 463.6715126 C39.7849712 464.99125735 39.35764845 466.31073174 38.92941284 467.62990952 C36.65324808 474.6440182 34.47528916 481.6584127 32.59197998 488.78897095 C31.67755214 492.20433396 30.56429204 495.55096128 29.453125 498.90625 C28.77561362 501.17640613 28.77561362 501.17640613 30 504 C31.18579147 503.98120789 31.18579147 503.98120789 32.39553833 503.96203613 C39.95275887 503.84258222 47.51000331 503.72482849 55.06727791 503.60884857 C58.94981449 503.54920776 62.83233976 503.48897524 66.71484375 503.42724609 C98.08471533 502.92924792 98.08471533 502.92924792 112.03579712 502.99645996 C117.84037237 503.0219967 123.63534557 502.91748884 129.4375 502.75 C130.2378215 502.72806076 131.03814301 502.70612152 131.86271667 502.68351746 C138.60510765 502.4421234 142.9033795 500.00343737 147.8125 495.3125 C152.07407522 488.85925752 152.30035904 481.60474066 152.15625 474.05078125 C152.14815308 473.19954178 152.14005615 472.34830231 152.13171387 471.4712677 C152.1004401 468.64717978 152.05184602 465.82378158 152 463 C151.98356445 462.00369568 151.96712891 461.00739136 151.95019531 459.980896 C151.80479997 451.27106344 151.61727816 442.56222405 151.42724609 433.85327148 C151.15875457 421.41955702 150.97100053 408.9968035 151.00854492 396.56008911 C151.03031692 384.53041161 150.71127713 372.50774667 150.42724609 360.48217773 C150.14111273 348.21250661 149.973776 335.95605825 150.00854492 323.68293762 C150.02493721 314.19858213 149.79031838 304.72918743 149.5 295.25 C149.1805868 284.72651422 148.96490251 274.21889563 148.99041748 263.69017029 C149.01073651 254.66333181 148.94611427 245.63960336 148.79248047 236.61401367 C148.76386302 234.72674224 148.74285725 232.83934185 148.72900391 230.9519043 C148.70750691 228.16135566 148.66096882 225.37216642 148.609375 222.58203125 C148.60814636 221.7506514 148.60691772 220.91927155 148.60565186 220.06269836 C148.42307765 212.69571718 146.28503086 206.75375514 141.5625 201.0625 C136.0676684 196.63983066 131.09900701 196.72636537 124.32421875 196.8046875 C123.3990596 196.8075174 122.47390045 196.81034729 121.52070618 196.81326294 C118.57617058 196.82442608 115.63194312 196.84952363 112.6875 196.875 C110.68685336 196.88503479 108.68620194 196.89415977 106.68554688 196.90234375 C101.7902465 196.92435278 96.89517543 196.95885609 92 197 Z M80.25 374.125 C76.42715783 382.91753699 76.25082112 391.75246335 79.25 400.75 C82.51751198 406.81823654 86.40690119 409.95386589 93 412 C97.35579757 412 99.29708672 411.57213872 102.6875 408.8125 C106.6564974 403.985341 109.511302 400.35307406 110 394 C110.06316406 393.2575 110.12632812 392.515 110.19140625 391.75 C110.57808251 383.76700614 108.64735435 377.17682522 103.5 371 C99.11773824 367.49419059 95.81721214 366.48899512 90.25 366.6171875 C85.55191328 367.41651475 83.19756627 370.54581238 80.25 374.125 Z " fill="#000000" transform="translate(559,157)"/>
<path d="M0 0 C1.50703592 0.00365782 3.01407215 0.00719013 4.52110863 0.01061344 C27.78560457 0.08239518 51.04951727 0.38521154 74.3124309 0.65018576 C79.31299942 0.70712763 84.31357632 0.76327702 89.31415939 0.81892586 C90.39735722 0.8309819 90.39735722 0.8309819 91.50243782 0.8432815 C92.97134228 0.85962809 94.44024675 0.87597335 95.90915124 0.8923173 C109.5771351 1.04448946 123.24509076 1.19908017 136.91303782 1.35451753 C148.51540823 1.48640332 160.11780164 1.61607683 171.72021484 1.74414062 C185.33022149 1.89436384 198.94020959 2.04613635 212.55017412 2.200131 C214.01682112 2.21672126 215.48346815 2.2333093 216.9501152 2.2498951 C217.67091318 2.25804671 218.39171116 2.26619833 219.1343515 2.27459697 C224.09307442 2.33057453 229.05180825 2.38550326 234.01054764 2.44000053 C248.26843072 2.59714629 262.5260768 2.76524453 276.7834872 2.96140701 C283.94481677 3.05865022 291.10600068 3.13593847 298.26772225 3.19753426 C302.77083106 3.23986878 307.27364484 3.29788557 311.7765224 3.35983098 C313.84192721 3.38502561 315.90742287 3.40382093 317.97294927 3.41533172 C333.31212043 3.50552984 347.3733527 5.11404199 361.50634766 11.60131836 C362.24739746 11.93969727 362.98844727 12.27807617 363.75195312 12.62670898 C395.60024886 27.81890598 413.40384713 56.46011933 429.99121094 86.2878418 C432.96402157 91.58940009 436.02316922 96.84140442 439.06884766 102.10131836 C443.63606194 110.00364509 448.17992722 117.91844584 452.69384766 125.85131836 C457.37974998 134.08373722 462.17183526 142.24980145 467.03027344 150.3815918 C470.20102757 155.70764962 473.21831643 161.0961722 476.16699219 166.5480957 C478.03989081 169.95923708 480.03631133 173.28371831 482.06884766 176.60131836 C485.18549302 181.7385888 488.13711878 186.92875779 490.97509766 192.22631836 C493.28830581 196.39916445 495.77335673 200.46366427 498.24584961 204.54345703 C501.02451861 209.14638009 503.63337574 213.81946027 506.17431641 218.55834961 C507.57654139 221.11534811 509.05476123 223.60913992 510.56884766 226.10131836 C512.60423719 229.45155901 514.52896585 232.83410078 516.38134766 236.28881836 C519.14317409 241.41378238 522.10567479 246.3969825 525.14624023 251.35986328 C527.91543379 255.91001363 530.47461921 260.55762192 533.01123047 265.2409668 C535.52037155 269.84866224 538.10724231 274.41179104 540.69384766 278.97631836 C541.25080322 279.96011475 541.80775879 280.94391113 542.3815918 281.95751953 C546.24763634 288.78133091 550.12170299 295.60057845 554.00634766 302.41381836 C554.47766113 303.24187988 554.94897461 304.06994141 555.43457031 304.9230957 C557.79637528 309.05771642 560.20070654 313.15902121 562.67041016 317.23022461 C565.13122233 321.31648367 567.40000527 325.44774059 569.50634766 329.72631836 C569.83989258 330.40162598 570.1734375 331.07693359 570.51708984 331.77270508 C577.8907331 346.84437609 585.09083726 362.01244674 585.56884766 379.10131836 C585.59736816 380.08503418 585.59736816 380.08503418 585.62646484 381.08862305 C586.10080351 410.43352043 573.92255355 436.29091347 559.56884766 461.10131836 C558.69482327 462.62587082 557.8211287 464.15061242 556.94775391 465.67553711 C550.47816845 476.93583168 543.85847831 488.10827516 537.23925781 499.28100586 C534.45016466 503.99009737 531.66570418 508.70192514 528.88134766 513.41381836 C528.33752441 514.33396729 527.79370117 515.25411621 527.23339844 516.20214844 C524.00565778 521.66489196 520.78392054 527.13111085 517.56884766 532.60131836 C513.80671623 539.00230531 510.03404115 545.39700349 506.25634766 551.78881836 C505.707771 552.71710449 505.15919434 553.64539063 504.59399414 554.60180664 C501.84522851 559.25245344 499.09493772 563.90218986 496.34228516 568.55053711 C490.05601321 579.1704544 483.80949357 589.81258198 477.59741211 600.47607422 C473.00600115 608.3568926 468.39001293 616.22285256 463.75878906 624.08032227 C462.52028346 626.18379977 461.28448728 628.28884986 460.04931641 630.39428711 C453.26968971 641.94721829 446.45210965 653.47369755 439.38134766 664.85131836 C437.06875173 668.58948712 434.87002086 672.33925543 432.81884766 676.22631836 C429.59867221 682.24664637 425.9137584 687.94998668 422.23828125 693.69824219 C418.83932417 699.03249815 415.59808482 704.43206701 412.44384766 709.91381836 C407.94095814 717.66964039 403.02201218 724.98317623 397.56884766 732.10131836 C397.13991211 732.66866699 396.71097656 733.23601563 396.26904297 733.82055664 C383.53801922 750.46337382 364.2766926 762.27851189 343.46316814 765.59639454 C324.95308743 767.99634613 306.00000693 767.26296193 287.36776888 767.27602017 C283.20623237 767.27998317 279.04470756 767.28955491 274.88317871 767.29823303 C264.88214175 767.31781101 254.88110405 767.32803074 244.88005278 767.33696082 C241.10362008 767.34048118 237.3271882 767.34462587 233.55075618 767.34880048 C216.86988818 767.36723426 200.18902012 767.38298665 183.50814342 767.39069843 C179.44480069 767.39260777 175.38145795 767.39452821 171.31811523 767.39648438 C169.80355268 767.39720999 169.80355268 767.39720999 168.25839291 767.39795025 C151.87462438 767.40626425 135.49092852 767.43163925 119.10719176 767.46406505 C102.23762312 767.49717775 85.36809145 767.51515021 68.49849015 767.51834267 C59.04590047 767.52050174 49.59341741 767.52916403 40.1408596 767.55480385 C32.10015561 767.5765669 24.05958428 767.58453302 16.01885416 767.57483707 C11.92355836 767.57031123 7.82853606 767.57207858 3.73327827 767.59159851 C-31.93768911 767.75205517 -58.27500978 759.60862638 -84.43115234 734.10131836 C-94.24975097 724.28271974 -100.21970581 712.17583227 -106.78857422 700.08764648 C-109.002795 696.06202987 -111.3250924 692.10756554 -113.68115234 688.16381836 C-117.39156574 681.9208887 -120.95971135 675.61085116 -124.47119141 669.25415039 C-132.13585245 655.38236068 -139.87807298 641.54767086 -148.00927734 627.94287109 C-150.72468953 623.38100261 -153.28241745 618.74448412 -155.81323242 614.07788086 C-158.69504259 608.77608071 -161.62687339 603.50199785 -164.55615234 598.22631836 C-165.04187714 597.35141251 -165.04187714 597.35141251 -165.53741455 596.45883179 C-170.86658622 586.86472537 -176.27771518 577.31962833 -181.73974609 567.80053711 C-184.49459955 562.998223 -187.21400856 558.17668436 -189.92211914 553.34790039 C-192.16149383 549.35594972 -194.40986557 545.36925023 -196.66552734 541.38647461 C-197.23601807 540.37891113 -197.80650879 539.37134766 -198.39428711 538.33325195 C-199.50868136 536.36574575 -200.62370896 534.39859807 -201.73950195 532.43188477 C-204.37515889 527.7769844 -206.97942752 523.10878307 -209.52880859 518.40600586 C-211.98340024 513.88886704 -214.54379609 509.45101303 -217.18115234 505.03881836 C-221.05817996 498.49821195 -224.80393835 491.89636982 -228.47802734 485.23999023 C-231.84071078 479.15094653 -235.25285694 473.09113959 -238.68115234 467.03881836 C-240.34915453 464.08980243 -242.01667995 461.14051738 -243.68408203 458.19116211 C-244.8769344 456.08150035 -246.0703172 453.97213846 -247.26416016 451.86303711 C-251.35548099 444.62867222 -255.41664446 437.37860824 -259.43115234 430.10131836 C-259.8365625 429.37025879 -260.24197266 428.63919922 -260.65966797 427.88598633 C-273.9086476 403.76775695 -274.89742265 374.30528634 -267.43115234 348.10131836 C-262.19360538 331.67446651 -252.99430569 316.94883149 -244.13916016 302.27050781 C-240.70089338 296.56835272 -237.31370027 290.83666725 -233.93115234 285.10131836 C-229.94339392 278.34197916 -225.94008857 271.59319288 -221.88867188 264.87182617 C-219.0731948 260.19258259 -216.30052996 255.48879143 -213.53100586 250.78222656 C-209.09733238 243.2484332 -204.63707477 235.76628598 -199.88427734 228.42944336 C-198.40058745 226.05234881 -197.06296922 223.63564194 -195.74365234 221.16381836 C-192.47246465 215.05413975 -188.89319924 209.14419964 -185.31396484 203.2121582 C-181.42112131 196.75867281 -177.57076244 190.2814879 -173.74365234 183.78881836 C-169.81682421 177.13018363 -165.87166421 170.48389749 -161.88354492 163.86181641 C-157.96380531 157.34312866 -154.10594137 150.78796592 -150.24121094 144.23657227 C-147.03414058 138.80349538 -143.81035931 133.38128614 -140.55615234 127.97631836 C-137.49390506 122.88862098 -134.48016224 117.77516486 -131.49755859 112.64038086 C-128.16472114 106.91767175 -124.78126121 101.22457741 -121.40966797 95.5246582 C-117.99052645 89.74332563 -114.58129957 83.95633721 -111.18115234 78.16381836 C-107.73643985 72.2996711 -104.27377635 66.44671512 -100.75 60.62963867 C-98.87275842 57.5281091 -97.03287098 54.41357323 -95.25537109 51.25366211 C-90.24122453 42.4353335 -84.55108737 35.30652207 -77.43115234 28.10131836 C-76.77630859 27.37428711 -76.12146484 26.64725586 -75.44677734 25.89819336 C-56.08049194 4.87666988 -27.17254322 -0.12767794 0 0 Z M-36.43115234 21.10131836 C-37.54419739 21.49976456 -38.65724243 21.89821075 -39.80401611 22.30873108 C-61.74790895 30.55802281 -73.98504458 46.56032617 -84.94677734 66.4284668 C-87.11985856 70.34144264 -89.39817212 74.1893061 -91.68115234 78.03881836 C-92.48868919 79.41237216 -93.29598593 80.78606716 -94.10302734 82.15991211 C-96.72122216 86.60234831 -99.37777077 91.02137504 -102.03759766 95.43896484 C-105.29964108 100.8640094 -108.50683509 106.3204971 -111.70947266 111.78076172 C-114.33896908 116.25890142 -116.99771133 120.71784028 -119.68115234 125.16381836 C-124.33283792 132.87691511 -128.85857232 140.66310508 -133.38330078 148.45117188 C-136.56581979 153.92457928 -139.78224359 159.37454526 -143.04858398 164.79833984 C-145.07645725 168.17621879 -147.0659731 171.57614773 -149.05615234 174.97631836 C-152.80962405 181.37454397 -156.60746864 187.74482657 -160.43115234 194.10131836 C-164.12958877 200.24971934 -167.80349004 206.41088817 -171.43115234 212.60131836 C-175.56204911 219.6504938 -179.75875444 226.65862641 -183.97021484 233.65991211 C-187.15323964 238.95679183 -190.30674737 244.26967246 -193.43115234 249.60131836 C-197.56204911 256.6504938 -201.75875444 263.65862641 -205.97021484 270.65991211 C-209.15323964 275.95679183 -212.30674737 281.26967246 -215.43115234 286.60131836 C-219.0588183 292.79175478 -222.73323278 298.95260231 -226.43115234 305.10131836 C-228.43237709 308.43391791 -230.43213242 311.76739588 -232.43115234 315.10131836 C-232.89618164 315.87604492 -233.36121094 316.65077148 -233.84033203 317.44897461 C-250.11071791 344.60898884 -259.95176285 371.38616287 -252.72851562 403.19555664 C-250.34099665 412.49945629 -246.43584255 420.36117976 -241.68115234 428.60131836 C-240.99491532 429.815405 -240.31001625 431.03024889 -239.62646484 432.24584961 C-237.92035011 435.27153051 -236.19715274 438.28701802 -234.46658325 441.29876709 C-232.74535572 444.29520156 -231.03209737 447.2961875 -229.31787109 450.29663086 C-228.98587204 450.87728302 -228.65387299 451.45793518 -228.31181335 452.05618286 C-225.18869153 457.51994511 -222.08781119 462.99611663 -218.99365234 468.47631836 C-218.43291016 469.46889648 -217.87216797 470.46147461 -217.29443359 471.48413086 C-214.16788335 477.02013266 -211.04617219 482.55882155 -207.93115234 488.10131836 C-199.83959071 502.49499743 -191.7161271 516.86985735 -183.51116943 531.19924927 C-176.87578813 542.7877829 -170.31494485 554.41595587 -163.80224609 566.07397461 C-156.43980585 579.24987416 -148.99662437 592.37999568 -141.49365234 605.47631836 C-136.5150494 614.16807098 -131.61013626 622.89974652 -126.72363281 631.64355469 C-122.16474472 639.79934634 -117.57590953 647.93779386 -112.97436523 656.06958008 C-109.9527005 661.40944341 -106.93658949 666.75230627 -103.93115234 672.10131836 C-103.22416552 673.35785377 -102.51713306 674.61436351 -101.81005859 675.87084961 C-100.50991263 678.18153022 -99.21149931 680.49315674 -97.91503906 682.8059082 C-94.59330804 688.73017157 -91.25485993 694.6443618 -87.88818359 700.54321289 C-87.00818317 702.08822704 -86.13201223 703.63544354 -85.26318359 705.18676758 C-73.9067733 725.42489147 -55.37827869 740.61751086 -33.34912109 748.15600586 C-21.59491829 751.39110755 -9.32101674 751.25020134 2.78125 751.23071289 C4.16779563 751.23204772 5.55434091 751.23380313 6.94088554 751.23593712 C10.71583453 751.240421 14.49075664 751.23860662 18.26570606 751.2355175 C21.51589495 751.23363106 24.76607814 751.23536011 28.01626682 751.23708034 C37.79453557 751.24221178 47.57278503 751.23764003 57.35105133 751.23029327 C62.94446275 751.22611116 68.53787413 751.22380164 74.13128662 751.22161865 C131.41505979 751.19701973 188.69850588 751.04903254 245.98159349 750.7675854 C252.74754312 750.73469234 259.51350232 750.70642368 266.27947998 750.67999268 C274.54284228 750.64750054 282.80613254 750.60771408 291.06941414 750.55872893 C295.28584329 750.53383809 299.50223068 750.51178361 303.71871185 750.49794006 C307.5921836 750.48506186 311.46549657 750.46297306 315.33887982 750.4339273 C317.38431271 750.42080184 319.42979897 750.41697517 321.47527122 750.4136219 C339.18971774 750.29332074 339.18971774 750.29332074 355.69384766 744.60131836 C356.35143066 744.25238525 357.00901367 743.90345215 357.68652344 743.54394531 C375.38505687 733.82748036 386.57329291 719.80908583 396.89453125 702.83764648 C399.27757152 698.94305398 401.71494455 695.0832947 404.14746094 691.21948242 C411.44852776 679.60828135 418.57860935 667.90193435 425.56884766 656.10131836 C425.98408691 655.40055176 426.39932617 654.69978516 426.82714844 653.9777832 C430.90069925 647.09353147 434.9398581 640.18970165 438.95166016 633.26928711 C444.59998307 623.53564606 450.27876075 613.84722685 456.30322266 604.34106445 C459.04359482 599.99871639 461.54837403 595.58150616 463.95947266 591.05053711 C467.23711117 585.04418498 470.7811601 579.18780184 474.26757812 573.30102539 C475.90878188 570.52668283 477.54197915 567.74768403 479.17456055 564.96826172 C483.39886387 557.77677629 487.63794159 550.59404501 491.88134766 543.41381836 C492.42968262 542.48593506 492.97801758 541.55805176 493.54296875 540.60205078 C496.29198911 535.95100335 499.04251581 531.30085515 501.79541016 526.65209961 C502.8658383 524.8435743 503.93615071 523.03498049 505.00634766 521.22631836 C505.53760254 520.32872803 506.06885742 519.4311377 506.61621094 518.50634766 C509.47844045 513.66326949 512.32338898 508.81078985 515.14697266 503.94506836 C520.7326459 494.31997857 526.34670319 484.74026712 532.30395508 475.33984375 C535.04297089 470.99978555 537.54950567 466.58732245 539.95166016 462.05444336 C541.6122602 459.02204327 543.36501664 456.06024954 545.14038086 453.09423828 C561.44435215 425.82119696 574.02309858 396.2144015 566.66650391 363.91381836 C563.09452121 351.50721653 557.4200851 340.63807321 550.58398438 329.75463867 C549.15034905 327.41972322 547.85630559 325.01931414 546.56884766 322.60131836 C543.84368741 317.51435256 540.88176075 312.59275658 537.8918457 307.65917969 C535.1131767 303.05625663 532.50431957 298.38317644 529.96337891 293.64428711 C528.56115392 291.08728861 527.08293408 288.5934968 525.56884766 286.10131836 C523.53345813 282.75107771 521.60872946 279.36853593 519.75634766 275.91381836 C517.32041832 271.39360302 514.7292314 266.99114467 512.06884766 262.60131836 C508.9546958 257.46248573 506.00065432 252.27402413 503.16259766 246.97631836 C500.8493895 242.80347227 498.36433859 238.73897245 495.8918457 234.65917969 C493.1131767 230.05625663 490.50431957 225.38317644 487.96337891 220.64428711 C486.12382757 217.28981114 484.13592726 214.03429352 482.14916992 210.765625 C480.62779877 208.20070559 479.18861983 205.60811436 477.77197266 202.98413086 C474.67618784 197.28307708 471.51249697 191.62303953 468.31884766 185.97631836 C467.75673584 184.98220947 467.19462402 183.98810059 466.61547852 182.96386719 C460.66310634 172.46389955 454.57139706 162.05029528 448.31884766 151.72631836 C446.37219928 148.49997913 444.53988555 145.23304556 442.75634766 141.91381836 C440.32041859 137.39360353 437.72924381 132.99113766 435.06884766 128.60131836 C431.88836918 123.35333083 428.86385323 118.05371167 425.96337891 112.64428711 C424.56115392 110.08728861 423.08293408 107.5934968 421.56884766 105.10131836 C419.55865268 101.79071375 417.65106212 98.45106046 415.81884766 95.03881836 C404.92509318 74.90533496 393.09172439 53.25073808 374.56884766 39.10131836 C373.83666016 38.5328418 373.10447266 37.96436523 372.35009766 37.37866211 C354.54432029 24.22666747 336.31072418 20.06864502 314.56573486 19.86717224 C313.5257021 19.85406716 312.48566934 19.84096208 311.41412044 19.82745987 C307.96215057 19.785019 304.51014504 19.74869317 301.05810547 19.71240234 C298.56547633 19.68305505 296.07285148 19.65334129 293.58023071 19.62329102 C287.51513294 19.55121452 281.45000233 19.48318393 275.3848367 19.41715746 C270.41153602 19.3629324 265.43825718 19.30699671 260.46498871 19.2498951 C259.75146633 19.2417045 259.03794395 19.23351391 258.30279969 19.22507511 C256.85151456 19.20840915 255.40022947 19.19173967 253.94894442 19.17506672 C240.32740184 19.01877958 226.7058042 18.86781777 213.08418187 18.71866686 C201.58683313 18.59265286 190.08954387 18.46209224 178.59228516 18.328125 C140.13392083 17.88056691 101.67545661 17.47176267 63.21596146 17.13379955 C59.68753367 17.10237538 56.15911938 17.06974134 52.63070679 17.03665924 C40.77681224 16.92631753 28.92318607 16.8353281 17.06887054 16.78630257 C13.74619369 16.77203412 10.42378787 16.74889956 7.10123444 16.71700859 C-15.01301211 16.25603908 -15.01301211 16.25603908 -36.43115234 21.10131836 Z " fill="#000000" transform="translate(337.43115234375,106.898681640625)"/>
<path d="M0 0 C1.3557798 0.43595459 2.71189903 0.87085505 4.06835938 1.3046875 C6.80400532 2.18084677 9.53768873 3.06279858 12.27026367 3.94848633 C16.07803068 5.17926539 19.89684672 6.37236505 23.71875 7.55859375 C30.66731923 9.71813974 37.59454843 11.94186574 44.51953125 14.17578125 C45.6187944 14.53004181 46.71805756 14.88430237 47.85063171 15.2492981 C52.40450452 16.71705139 56.95830938 18.1849893 61.51049805 19.65795898 C73.83504759 23.64413165 86.17308044 27.54224569 98.60546875 31.1796875 C112.78255417 35.33089988 126.82983323 39.86128074 140.87542725 44.43212891 C145.43409191 45.91563046 149.99332108 47.39737516 154.55407715 48.87443542 C156.957961 49.65328852 159.36109628 50.43445768 161.76330566 51.21846008 C167.77421395 53.16673391 173.78760529 54.97817226 179.90661621 56.55717468 C186.71255702 58.51708984 193.76323306 61.8045382 199.3125 66.25 C199.3125 66.91 199.3125 67.57 199.3125 68.25 C200.3025 68.58 201.2925 68.91 202.3125 69.25 C202.3125 69.91 202.3125 70.57 202.3125 71.25 C202.9725 71.25 203.6325 71.25 204.3125 71.25 C205.635144 73.78682516 206.94567361 76.32877651 208.25 78.875 C208.80977539 79.94427734 208.80977539 79.94427734 209.38085938 81.03515625 C215.13329378 92.33273013 214.08842542 103.45854695 210.3125 115.25 C209.96783691 116.36971191 209.62317383 117.48942383 209.26806641 118.64306641 C208.21749288 122.03929049 207.15119973 125.42996297 206.07922363 128.81945801 C204.93399066 132.44988847 203.80026012 136.0838943 202.66539001 139.71757507 C199.60367745 149.52023392 196.52649703 159.31795776 193.44140625 169.11328125 C190.91169162 177.14721969 188.39401147 185.18464615 185.90234375 193.23046875 C185.63169098 194.10430206 185.36103821 194.97813538 185.08218384 195.87844849 C184.5367851 197.63958149 183.99140544 199.4007204 183.44604492 201.16186523 C177.07075407 221.74364722 170.54081149 242.27494466 163.99298859 262.80228424 C158.5899995 279.7420458 153.19652785 296.68294935 148 313.6875 C147.66207428 314.79309265 147.66207428 314.79309265 147.31732178 315.92102051 C147.09256165 316.65639038 146.86780151 317.39176025 146.63623047 318.14941406 C137.7963483 347.06500117 128.72971527 375.91407105 119.4375 404.6875 C119.18629395 405.46853088 118.93508789 406.24956177 118.67626953 407.05426025 C117.9777631 409.22351722 117.27486525 411.39129418 116.5703125 413.55859375 C116.1798877 414.76314209 115.78946289 415.96769043 115.38720703 417.20874023 C114.51029975 419.69025637 113.56541729 421.94253805 112.3125 424.25 C111.6525 424.25 110.9925 424.25 110.3125 424.25 C109.9825 425.57 109.6525 426.89 109.3125 428.25 C108.6525 428.25 107.9925 428.25 107.3125 428.25 C106.92191406 429.14912109 106.92191406 429.14912109 106.5234375 430.06640625 C102.47306221 437.3701475 92.82947232 440.81259004 85.3125 443.25 C73.89572883 445.88595616 62.83300119 442.00265761 52.03125 438.44140625 C50.89651245 438.0740184 49.7617749 437.70663055 48.59265137 437.32810974 C44.99707563 436.16286141 41.40466166 434.98822635 37.8125 433.8125 C34.21984839 432.64192858 30.62654463 431.47342283 27.03234863 430.30760193 C24.80631987 429.5850158 22.5812366 428.85950766 20.3572998 428.13050842 C14.64223438 426.2696412 8.9164716 424.57807865 3.11019897 423.02760315 C-2.07843493 421.5854544 -7.18801451 419.89540516 -12.30859375 418.23046875 C-13.48857437 417.84941483 -14.66855499 417.4683609 -15.8842926 417.07575989 C-19.63196221 415.86536383 -23.37858946 414.65178702 -27.125 413.4375 C-41.80288746 408.68185294 -56.47759676 403.95062498 -71.27075195 399.56494141 C-78.10109913 397.53929933 -84.89463215 395.397368 -91.6875 393.25 C-92.57300537 392.97045471 -93.45851074 392.69090942 -94.37084961 392.40289307 C-100.50121985 390.46680337 -106.6291467 388.52314149 -112.75537109 386.57397461 C-114.89785425 385.89296282 -117.04076688 385.21330085 -119.18408203 384.53491211 C-122.3164362 383.54333973 -125.44741431 382.54752865 -128.578125 381.55078125 C-129.53535461 381.2486824 -130.49258423 380.94658356 -131.4788208 380.6353302 C-132.36785095 380.35130844 -133.2568811 380.06728668 -134.17285156 379.7746582 C-134.95065979 379.52770706 -135.72846802 379.28075592 -136.52984619 379.02632141 C-138.68378743 378.25133578 -140.66375458 377.31581888 -142.6875 376.25 C-142.6875 375.59 -142.6875 374.93 -142.6875 374.25 C-144.0075 373.92 -145.3275 373.59 -146.6875 373.25 C-146.6875 372.59 -146.6875 371.93 -146.6875 371.25 C-147.285625 370.9921875 -147.88375 370.734375 -148.5 370.46875 C-155.83553507 366.38180903 -159.00342496 356.93232121 -161.26171875 349.3125 C-163.20905321 339.87954044 -161.48518999 331.57084991 -158.73046875 322.5546875 C-158.42050461 321.51732452 -158.11054047 320.47996155 -157.79118347 319.41116333 C-154.03360929 306.92001673 -150.07930487 294.48910635 -146.1170311 282.06172562 C-145.06052051 278.74557004 -144.00755775 275.42828834 -142.9543457 272.11108398 C-141.28628582 266.85831237 -139.61689977 261.60596478 -137.94628906 256.35400391 C-135.08041709 247.34294044 -132.22367773 238.32901281 -129.375 229.3125 C-129.14258606 228.57730133 -128.91017212 227.84210266 -128.67071533 227.08462524 C-124.39731004 213.5615686 -120.19476106 200.0167635 -115.99377441 186.47106934 C-111.44479796 171.81088172 -106.80871001 157.18015452 -102.125 142.5625 C-97.7342304 128.85790442 -93.38718469 115.14214806 -89.14996338 101.38925171 C-87.57209215 96.27008668 -85.98725413 91.15307155 -84.40341187 86.03575134 C-82.75356643 80.70331085 -81.10861081 75.36939948 -79.46777344 70.03417969 C-77.67389894 64.20300961 -75.86867354 58.37544712 -74.05349064 52.55087471 C-73.05828398 49.35621898 -72.06917942 46.15998691 -71.0887146 42.96075439 C-69.98939763 39.37614212 -68.87348682 35.79707698 -67.75390625 32.21875 C-67.43243622 31.15695526 -67.11096619 30.09516052 -66.77975464 29.00119019 C-63.90489429 19.91532965 -59.98235078 11.6096135 -52.6875 5.25 C-51.965625 4.59 -51.24375 3.93 -50.5 3.25 C-33.84945209 -8.59038963 -18.29146659 -5.99550022 0 0 Z M-42.6875 21.25 C-42.6875 21.91 -42.6875 22.57 -42.6875 23.25 C-43.3475 23.25 -44.0075 23.25 -44.6875 23.25 C-46.34554483 28.17420496 -47.99941765 33.09978543 -49.6496582 38.02661133 C-50.21007361 39.69788172 -50.77157138 41.36878962 -51.33422852 43.03930664 C-55.46885454 55.23231204 -55.46885454 55.23231204 -58.95581055 67.62182617 C-59.80617585 70.67627478 -60.80895926 73.66271104 -61.82151794 76.66676331 C-64.68464091 85.20749952 -67.40251731 93.7978392 -70.16479492 102.37158203 C-70.96134319 104.84205471 -71.75916099 107.31211848 -72.55834961 109.78173828 C-76.73874678 122.70106928 -80.8442246 135.63076025 -84.65625 148.6640625 C-88.79296562 162.80122424 -93.31189907 176.80764408 -97.86962891 190.81292725 C-99.35313046 195.37159191 -100.83487516 199.93082108 -102.31193542 204.49157715 C-103.09078852 206.895461 -103.87195768 209.29859628 -104.65596008 211.70080566 C-106.27406138 216.69304975 -107.83459518 221.67891771 -109.1875 226.75 C-110.85503302 233.00040066 -112.84879839 239.13274541 -114.85546875 245.28125 C-115.46518528 247.1631039 -116.07489736 249.04495925 -116.68438435 250.92688751 C-118.16288207 255.48909501 -119.64701815 260.04947105 -121.13110352 264.60986328 C-122.37597027 268.43672368 -123.61744647 272.26466984 -124.85546875 276.09375 C-125.1610436 277.03877978 -125.1610436 277.03877978 -125.47279167 278.00290108 C-128.81719718 288.36590453 -131.98328301 298.77480804 -135.02922058 309.22924805 C-137.2323712 316.78872111 -139.57087162 324.29363144 -142.06915283 331.76092529 C-144.09201157 337.92542458 -144.39099995 344.38373165 -141.72851562 350.42651367 C-140.79185139 352.08038917 -139.74971036 353.67381689 -138.6875 355.25 C-138.0275 355.25 -137.3675 355.25 -136.6875 355.25 C-136.6875 355.91 -136.6875 356.57 -136.6875 357.25 C-131.82779652 361.21462638 -126.23115768 363.37446698 -120.296875 365.15234375 C-119.11983002 365.51991539 -119.11983002 365.51991539 -117.91900635 365.89491272 C-115.42833836 366.66982111 -112.93316128 367.4288481 -110.4375 368.1875 C-108.81218159 368.69103065 -107.18717901 369.19558195 -105.5625 369.70117188 C-99.03495611 371.72561409 -92.49768154 373.71644861 -85.94555664 375.65991211 C-70.57111919 380.22266235 -55.32055052 385.15333894 -40.06274414 390.09008789 C-36.59327084 391.21185479 -33.12284602 392.33064008 -29.65234375 393.44921875 C-28.09265114 393.95554085 -28.09265114 393.95554085 -26.50144958 394.47209167 C-21.79861039 395.98706596 -17.09876883 397.4338951 -12.32373047 398.70458984 C-6.30533815 400.31527519 -0.39239845 402.21737913 5.52976418 404.14884758 C7.51219358 404.7953326 9.49567193 405.43850866 11.47941589 406.08094788 C15.69553159 407.44696929 19.91035193 408.81695826 24.125 410.1875 C29.00828659 411.77536355 33.89212902 413.36147905 38.77725792 414.94366646 C40.70402647 415.56859782 42.62984003 416.19647123 44.55561829 416.82444763 C66.59658693 425.17199355 66.59658693 425.17199355 88.6875 421.625 C89.986875 420.944375 89.986875 420.944375 91.3125 420.25 C91.3125 419.59 91.3125 418.93 91.3125 418.25 C91.9725 418.25 92.6325 418.25 93.3125 418.25 C96.55558983 414.05436054 98.23056666 410.13303294 99.79296875 405.02734375 C100.0067215 404.33862686 100.22047424 403.64990997 100.44070435 402.94032288 C101.13619155 400.69205832 101.81799555 398.43988715 102.5 396.1875 C102.98951364 394.59800982 103.48000584 393.0088207 103.97143555 391.41992188 C105.20297558 387.43136422 106.42429144 383.43976955 107.64196777 379.44696045 C109.2909209 374.04425995 110.95681646 368.64678753 112.625 363.25 C113.14380737 361.56692749 113.14380737 361.56692749 113.6730957 359.84985352 C117.80448453 346.52765454 122.16699405 333.27954752 126.52856445 320.03125 C127.11018973 318.2578128 127.69181411 316.48437532 128.2734375 314.7109375 C128.66668968 313.52339371 128.66668968 313.52339371 129.06788635 312.31185913 C130.41376047 308.20195391 131.64702971 304.08454079 132.76489258 299.90649414 C134.35898345 293.96890687 136.21534374 288.13163052 138.11328125 282.28515625 C138.47213913 281.17176376 138.83099701 280.05837128 139.20072937 278.91123962 C140.33982428 275.37756975 141.48206281 271.84492883 142.625 268.3125 C147.20657052 254.14653985 151.74590071 239.97864056 155.98486328 225.70605469 C159.32186317 214.47309296 162.92499979 203.32574646 166.52734375 192.17578125 C167.09915878 190.40544022 167.09915878 190.40544022 167.68252563 188.59933472 C169.26782529 183.69264309 170.8531568 178.78597139 172.4440918 173.88110352 C176.60551499 161.04583958 180.69295487 148.213709 184.32777405 135.21836853 C186.5196781 127.4066097 189.06408228 119.72960299 191.76171875 112.078125 C194.34595165 104.35535949 195.52148765 97.21957554 193.5703125 89.19921875 C189.31513582 80.70353842 182.44432194 77.17322755 173.65893555 74.13867188 C171.59319244 73.4853869 169.52300404 72.84603815 167.44921875 72.21875 C166.32109772 71.86594467 165.19297668 71.51313934 164.03067017 71.14964294 C160.35748312 70.00409469 156.6789124 68.87701098 153 67.75 C150.41801904 66.95005675 147.83730601 66.14606013 145.2565918 65.34204102 C140.05335437 63.72292482 134.84766385 62.11198003 129.63964844 60.50830078 C123.23788908 58.53668351 116.84028654 56.55209707 110.4453125 54.55859375 C108.62150764 53.99021195 106.79769589 53.42185225 104.97387695 52.85351562 C103.64799057 52.44033081 103.64799057 52.44033081 102.2953186 52.01879883 C99.60384872 51.18091538 96.91177054 50.34501593 94.21948242 49.50976562 C80.72479724 45.32236579 67.2450999 41.08837682 53.7696228 36.83959961 C50.34388493 35.75989175 46.91774974 34.68145517 43.49145508 33.60351562 C42.37201004 33.25130951 41.252565 32.89910339 40.09919739 32.53622437 C37.8493586 31.82837226 35.59951121 31.12054746 33.34965515 30.41275024 C26.67660503 28.31234756 20.00648969 26.2029117 13.33837891 24.08688354 C9.15298716 22.76044661 4.96543826 21.44092217 0.77734375 20.12304688 C-1.18066452 19.50520368 -3.13771947 18.88433018 -5.09375 18.26025391 C-7.77883989 17.40391534 -10.46704918 16.55816769 -13.15625 15.71484375 C-13.93802612 15.46262558 -14.71980225 15.21040741 -15.52526855 14.95054626 C-25.4918762 11.85661767 -35.07905235 13.64155235 -42.6875 21.25 Z " fill="#000000" transform="translate(409.6875,319.75)"/>
<path d="M0 0 C1.80288734 0.00611046 1.80288734 0.00611046 3.64219666 0.01234436 C18.83951639 0.08038981 34.03589351 0.28455213 49.23174667 0.49760818 C51.67602545 0.53168913 54.12031355 0.56500823 56.56460571 0.59811401 C84.90614108 0.98276174 113.24450559 1.47750145 141.58203125 2.09375 C141.17185415 6.60569814 140.52159175 10.59030287 139.0390625 14.87890625 C138.76682861 15.67304932 138.49459473 16.46719238 138.21411133 17.28540039 C138.0055249 17.88215576 137.79693848 18.47891113 137.58203125 19.09375 C136.78911053 19.09098462 135.9961898 19.08821924 135.17924118 19.08537006 C115.84756794 19.01899341 96.51591757 18.9694127 77.18415451 18.93831348 C67.83529303 18.92287275 58.48650782 18.90183688 49.13769531 18.86743164 C40.98520773 18.83744349 32.83277541 18.81815471 24.68023419 18.81148452 C20.36720512 18.80758815 16.0543341 18.79848996 11.7413559 18.77655983 C7.67349519 18.75604558 3.60585613 18.74994605 -0.46205139 18.75442696 C-1.94702615 18.75360838 -3.4320091 18.74773228 -4.91693878 18.73613358 C-23.88800513 18.59534549 -39.61920453 23.62798763 -53.41796875 37.09375 C-59.63544882 44.13066731 -64.22470371 52.03220371 -68.70703125 60.2265625 C-72.11271413 66.41174762 -75.74447937 72.46468363 -79.35546875 78.53125 C-80.05946116 79.71521878 -80.76340016 80.89921931 -81.46728516 82.08325195 C-82.83072195 84.37650042 -84.19455631 86.66951093 -85.55859375 88.96240234 C-88.00452308 93.08155801 -90.43220388 97.21123535 -92.85546875 101.34375 C-96.87139622 108.18342761 -100.93945443 114.9904506 -105.02929688 121.78613281 C-114.9863691 138.33223806 -124.90980712 154.893571 -134.61328125 171.58984375 C-146.66162346 192.31182926 -159.02618813 212.83786991 -171.48120117 233.31713867 C-175.1905336 239.41714575 -178.88551042 245.52498734 -182.54296875 251.65625 C-184.99728566 255.76569393 -187.50893282 259.82276455 -190.10546875 263.84375 C-203.50904644 284.83133816 -209.77614546 305.65395423 -206.24609375 330.4296875 C-204.07771218 340.02375312 -200.53695558 348.34198697 -195.54296875 356.78125 C-194.38327007 358.78466763 -193.22444762 360.78859268 -192.06640625 362.79296875 C-191.46795898 363.82212402 -190.86951172 364.8512793 -190.25292969 365.91162109 C-186.5559739 372.32276022 -182.99060704 378.80846965 -179.40039062 385.27978516 C-176.86689307 389.82100061 -174.31585634 394.32751325 -171.53515625 398.72265625 C-171.10879883 399.40005859 -170.68244141 400.07746094 -170.24316406 400.77539062 C-169.14397509 402.49796016 -168.02043303 404.20492683 -166.89453125 405.91015625 C-163.62912897 412.95064 -165.78931501 419.52892082 -167.91796875 426.59375 C-168.15644531 427.41617187 -168.39492187 428.23859375 -168.640625 429.0859375 C-169.22358614 431.09132382 -169.81944026 433.09295475 -170.41796875 435.09375 C-173.85801005 431.98242375 -176.08201876 428.55833749 -178.29296875 424.53125 C-178.64101562 423.90992188 -178.9890625 423.28859375 -179.34765625 422.6484375 C-181.88851275 418.0991834 -184.37545199 413.52013966 -186.85546875 408.9375 C-188.67075672 405.63367589 -190.5402168 402.36228228 -192.41796875 399.09375 C-195.27058156 394.12692639 -198.05247539 389.12785586 -200.77734375 384.08984375 C-203.22610754 379.61793463 -205.7405038 375.1831494 -208.25952148 370.75048828 C-209.91411304 367.82641619 -211.5094917 364.90935154 -213.00390625 361.8984375 C-214.31131412 359.3052915 -215.76514829 356.95680507 -217.35546875 354.53125 C-227.70499715 337.53948696 -228.59169092 311.3676025 -223.98413086 292.19775391 C-221.5182428 283.69977695 -217.79900496 275.7703287 -213.41796875 268.09375 C-213.03979004 267.43020508 -212.66161133 266.76666016 -212.27197266 266.08300781 C-209.38190466 261.04959911 -206.41077076 256.06656739 -203.41796875 251.09375 C-202.65480346 249.82170124 -201.89177741 248.54956893 -201.12890625 247.27734375 C-200.02382321 245.43553868 -198.91817146 243.5940869 -197.81079102 241.75366211 C-192.87435664 233.54355819 -188.03948729 225.27333678 -183.19580078 217.00830078 C-178.45914162 208.92676985 -173.68915728 200.86767296 -168.85546875 192.84375 C-163.81012755 184.46556166 -158.85479589 176.03610605 -153.91796875 167.59375 C-147.63584849 156.85258535 -141.29254435 146.15123631 -134.86376953 135.49707031 C-133.31114341 132.91617678 -131.76802684 130.32976188 -130.2265625 127.7421875 C-129.69393799 126.84959229 -129.16131348 125.95699707 -128.61254883 125.03735352 C-127.60677206 123.35135939 -126.60255818 121.66443134 -125.6003418 119.97631836 C-122.77415372 115.24652647 -119.82051563 110.63725318 -116.7097168 106.08911133 C-115.52388244 104.25735472 -114.53704439 102.43917015 -113.60546875 100.46875 C-111.06836163 95.1752796 -107.94085857 90.2253138 -104.90234375 85.2109375 C-102.40764656 81.09174064 -99.9730522 76.93878279 -97.54296875 72.78125 C-93.99220339 66.7134423 -90.35479993 60.7047536 -86.66796875 54.71875 C-83.11732297 48.95211146 -79.69966417 43.15310719 -76.5390625 37.16015625 C-75.41796875 35.09375 -75.41796875 35.09375 -73.41796875 32.09375 C-72.75796875 32.09375 -72.09796875 32.09375 -71.41796875 32.09375 C-71.23234375 31.3925 -71.04671875 30.69125 -70.85546875 29.96875 C-69.16540217 26.58861683 -67.18834957 24.94200435 -64.26953125 22.62109375 C-62.34174433 21.08245281 -62.34174433 21.08245281 -60.45703125 19.1171875 C-44.09281369 2.87836624 -21.9511852 -0.14390651 0 0 Z " fill="#000000" transform="translate(364.41796875,175.90625)"/>
<path d="M0 0 C2.6665022 1.53449655 4.86786424 3.08753049 6.875 5.4375 C6.875 6.0975 6.875 6.7575 6.875 7.4375 C7.865 7.7675 8.855 8.0975 9.875 8.4375 C9.875 9.0975 9.875 9.7575 9.875 10.4375 C11.36 10.9325 11.36 10.9325 12.875 11.4375 C21.31196895 25.67085984 23.06059754 41.19258393 18.9921875 57.15625 C16.36049332 64.88570143 12.33615764 72.33715143 6.875 78.4375 C6.215 78.4375 5.555 78.4375 4.875 78.4375 C4.38 79.9225 4.38 79.9225 3.875 81.4375 C3.215 81.4375 2.555 81.4375 1.875 81.4375 C1.875 82.0975 1.875 82.7575 1.875 83.4375 C0.946875 83.870625 0.01875 84.30375 -0.9375 84.75 C-4.01009122 86.15715282 -4.01009122 86.15715282 -5.5078125 87.90625 C-11.80373047 93.86760228 -22.18588101 94.03452483 -30.38964844 93.98632812 C-39.46036209 93.64055759 -47.60279519 90.54821474 -55.125 85.4375 C-55.125 84.7775 -55.125 84.1175 -55.125 83.4375 C-55.99125 83.3446875 -55.99125 83.3446875 -56.875 83.25 C-60.04948483 82.10365826 -61.25348575 80.17793158 -63.125 77.4375 C-63.125 76.7775 -63.125 76.1175 -63.125 75.4375 C-63.785 75.4375 -64.445 75.4375 -65.125 75.4375 C-69.0258796 68.87469942 -72.05614046 63.02640276 -73.125 55.4375 C-73.3415625 54.33921875 -73.3415625 54.33921875 -73.5625 53.21875 C-75.74140909 39.60056821 -70.84658045 23.72163175 -62.9375 12.6875 C-61.45703125 10.765625 -61.45703125 10.765625 -60.125 9.4375 C-59.465 9.4375 -58.805 9.4375 -58.125 9.4375 C-57.856875 8.798125 -57.58875 8.15875 -57.3125 7.5 C-56.125 5.4375 -56.125 5.4375 -53.125 4.4375 C-52.795 3.4475 -52.465 2.4575 -52.125 1.4375 C-49.61328125 -0.09765625 -49.61328125 -0.09765625 -46.4375 -1.625 C-45.40238281 -2.13160156 -44.36726563 -2.63820313 -43.30078125 -3.16015625 C-28.78798843 -9.56863426 -13.77461036 -7.31984126 0 0 Z M-34.125 19.4375 C-34.125 20.0975 -34.125 20.7575 -34.125 21.4375 C-35.115 21.7675 -36.105 22.0975 -37.125 22.4375 C-37.125 23.0975 -37.125 23.7575 -37.125 24.4375 C-37.785 24.4375 -38.445 24.4375 -39.125 24.4375 C-39.455 25.7575 -39.785 27.0775 -40.125 28.4375 C-40.785 28.4375 -41.445 28.4375 -42.125 28.4375 C-46.36611695 39.7976347 -49.78736995 49.4458744 -44.5078125 61.16796875 C-41.63188606 65.8880627 -37.95509023 68.60644176 -32.6640625 70.16015625 C-27.35361985 71.00165716 -23.4689328 70.39762681 -18.8203125 67.6875 C-16.40201006 65.90441986 -14.72440227 63.96988692 -13.125 61.4375 C-13.125 60.7775 -13.125 60.1175 -13.125 59.4375 C-12.465 59.4375 -11.805 59.4375 -11.125 59.4375 C-5.07831357 44.22677417 -5.07831357 44.22677417 -7.125 28.4375 C-8.06663351 26.40936629 -9.04739692 24.39677833 -10.125 22.4375 C-10.785 22.4375 -11.445 22.4375 -12.125 22.4375 C-12.125 21.7775 -12.125 21.1175 -12.125 20.4375 C-20.29590386 15.73923028 -25.81864213 15.72930452 -34.125 19.4375 Z " fill="#000000" transform="translate(503.125,557.5625)"/>
<path d="M0 0 C0 0.66 0 1.32 0 2 C0.66 2 1.32 2 2 2 C3.75 3.9375 3.75 3.9375 6 7 C6.73669922 7.96486328 6.73669922 7.96486328 7.48828125 8.94921875 C15.07866058 19.44014006 17.21890935 32.40447922 15.1940918 45.08740234 C13.97584764 51.79203205 12.30571403 58.00301693 9 64 C8.62230469 64.6909375 8.24460937 65.381875 7.85546875 66.09375 C6.92902278 67.74367497 5.96845583 69.37437771 5 71 C4.34 71 3.68 71 3 71 C2.92136719 71.5878125 2.84273438 72.175625 2.76171875 72.78125 C1.75079129 75.72590025 0.30182802 76.66531938 -2.1875 78.5 C-3.00347656 79.10328125 -3.81945312 79.7065625 -4.66015625 80.328125 C-5.43230469 80.87984375 -6.20445312 81.4315625 -7 82 C-8.03125 82.7425 -9.0625 83.485 -10.125 84.25 C-20.18443673 90.3731354 -32.5152998 91.98234729 -44.06054688 89.56933594 C-50.64315571 87.73133477 -56.52336544 85.10542321 -62 81 C-62 80.34 -62 79.68 -62 79 C-62.639375 78.731875 -63.27875 78.46375 -63.9375 78.1875 C-66 77 -66 77 -67 74 C-67.66 74 -68.32 74 -69 74 C-77.20871643 59.85428169 -81.6176045 46.58068729 -78 30 C-76.82469049 26.59216478 -75.45837999 23.29562739 -74 20 C-73.68933594 19.29488281 -73.37867188 18.58976562 -73.05859375 17.86328125 C-70.7022404 12.84493876 -67.79095334 8.07256701 -64 4 C-63.34 4 -62.68 4 -62 4 C-62 3.34 -62 2.68 -62 2 C-43.47508429 -13.00861227 -19.29778943 -14.629449 0 0 Z M-43 19 C-47.59822237 25.13845823 -50.26410271 31.57492108 -52 39 C-52.28875 40.093125 -52.5775 41.18625 -52.875 42.3125 C-53.10257188 49.02587034 -52.44220351 56.00792916 -48.07421875 61.359375 C-42.35064655 66.14384641 -37.84524297 67.12113107 -30.5 66.9375 C-26.50940784 65.44102794 -23.10635312 62.90594324 -20 60 C-20 59.34 -20 58.68 -20 58 C-19.34 58 -18.68 58 -18 58 C-12.71764105 48.34255749 -8.55710637 37.7125166 -11.67578125 26.58984375 C-12.37956934 24.69862172 -13.18044131 22.84400705 -14 21 C-14.66 21 -15.32 21 -16 21 C-16.226875 20.401875 -16.45375 19.80375 -16.6875 19.1875 C-18.88109299 15.53151169 -21.80759087 14.34447375 -25.8125 13.1875 C-32.385125 12.800875 -38.00483158 14.65637528 -43 19 Z " fill="#000000" transform="translate(427,432)"/>
<path d="M0 0 C2.79623156 2.68032558 3.79256493 5.41340204 4.2890625 9.2109375 C4.2265262 12.87556482 3.71342658 15.15941174 1.3125 17.98828125 C-0.71885886 19.78495661 -2.8095773 21.40281678 -5 23 C-5.9075 23.78375 -6.815 24.5675 -7.75 25.375 C-9.95872982 26.97019376 -11.42344785 27.35586196 -14 28 C-14.33 28.99 -14.66 29.98 -15 31 C-16.99609375 32.60546875 -16.99609375 32.60546875 -19.4375 34.1875 C-20.24058594 34.71730469 -21.04367187 35.24710937 -21.87109375 35.79296875 C-24 37 -24 37 -26 37 C-26 37.66 -26 38.32 -26 39 C-28.85254222 41.12282212 -31.48002666 42.80356563 -34.8125 44.0625 C-35.534375 44.371875 -36.25625 44.68125 -37 45 C-37.33 45.99 -37.66 46.98 -38 48 C-40.1796875 49.5 -40.1796875 49.5 -42.875 51 C-46.03558602 52.76919101 -48.47891122 54.4188853 -51 57 C-51.70125 57.165 -52.4025 57.33 -53.125 57.5 C-54.053125 57.7475 -54.053125 57.7475 -55 58 C-55.33 58.99 -55.66 59.98 -56 61 C-58.0625 61.6875 -58.0625 61.6875 -60 62 C-60 62.66 -60 63.32 -60 64 C-61.72421427 65.21485385 -63.50634884 66.34818704 -65.3125 67.4375 C-68.59184857 69.42225606 -71.33080874 71.26550743 -74 74 C-74.70125 74.165 -75.4025 74.33 -76.125 74.5 C-76.74375 74.665 -77.3625 74.83 -78 75 C-78.495 76.485 -78.495 76.485 -79 78 C-80.97235467 79.42995714 -82.93460295 80.71714469 -85 82 C-86.56677192 83.01426461 -88.12909449 84.03542687 -89.6875 85.0625 C-90.43386719 85.54847656 -91.18023437 86.03445313 -91.94921875 86.53515625 C-94.01982713 87.92688444 -94.01982713 87.92688444 -95.63671875 89.65234375 C-97 91 -97 91 -99.125 91.5 C-99.74375 91.665 -100.3625 91.83 -101 92 C-101.495 93.485 -101.495 93.485 -102 95 C-103.99609375 96.60546875 -103.99609375 96.60546875 -106.4375 98.1875 C-107.24058594 98.71730469 -108.04367187 99.24710938 -108.87109375 99.79296875 C-111 101 -111 101 -113 101 C-113 101.66 -113 102.32 -113 103 C-115.85254222 105.12282212 -118.48002666 106.80356563 -121.8125 108.0625 C-122.534375 108.371875 -123.25625 108.68125 -124 109 C-124.495 110.485 -124.495 110.485 -125 112 C-126.99609375 113.60546875 -126.99609375 113.60546875 -129.4375 115.1875 C-130.24058594 115.71730469 -131.04367187 116.24710938 -131.87109375 116.79296875 C-134 118 -134 118 -136 118 C-136 118.66 -136 119.32 -136 120 C-138.85254222 122.12282212 -141.48002666 123.80356563 -144.8125 125.0625 C-145.534375 125.371875 -146.25625 125.68125 -147 126 C-147.33 126.99 -147.66 127.98 -148 129 C-150.1796875 130.5 -150.1796875 130.5 -152.875 132 C-156.03558602 133.76919101 -158.47891122 135.4188853 -161 138 C-161.70125 138.165 -162.4025 138.33 -163.125 138.5 C-163.74375 138.665 -164.3625 138.83 -165 139 C-165.33 139.99 -165.66 140.98 -166 142 C-168.75 144 -168.75 144 -172 146 C-172.825 146.556875 -173.65 147.11375 -174.5 147.6875 C-177.48087907 149.25246151 -179.62809269 149.86237113 -183 150 C-187.12415302 148.43282185 -190.38364097 146.58538089 -193 143 C-194.17081766 138.16062035 -194.46082859 136.12201744 -192.5625 131.5 C-192.046875 130.675 -191.53125 129.85 -191 129 C-190.34 129 -189.68 129 -189 129 C-189 128.34 -189 127.68 -189 127 C-187.5459375 126.5978125 -187.5459375 126.5978125 -186.0625 126.1875 C-184.5465625 125.5996875 -184.5465625 125.5996875 -183 125 C-182.67 124.01 -182.34 123.02 -182 122 C-180.66666667 121.66666667 -179.33333333 121.33333333 -178 121 C-177.505 119.515 -177.505 119.515 -177 118 C-175.00390625 116.39453125 -175.00390625 116.39453125 -172.5625 114.8125 C-171.75941406 114.28269531 -170.95632813 113.75289062 -170.12890625 113.20703125 C-168 112 -168 112 -166 112 C-166 111.34 -166 110.68 -166 110 C-163.14745778 107.87717788 -160.51997334 106.19643437 -157.1875 104.9375 C-156.465625 104.628125 -155.74375 104.31875 -155 104 C-154.505 102.515 -154.505 102.515 -154 101 C-152.00390625 99.39453125 -152.00390625 99.39453125 -149.5625 97.8125 C-148.75941406 97.28269531 -147.95632813 96.75289062 -147.12890625 96.20703125 C-145 95 -145 95 -143 95 C-143 94.34 -143 93.68 -143 93 C-141.5459375 92.5978125 -141.5459375 92.5978125 -140.0625 92.1875 C-138.5465625 91.5996875 -138.5465625 91.5996875 -137 91 C-136.505 89.515 -136.505 89.515 -136 88 C-134.66666667 87.66666667 -133.33333333 87.33333333 -132 87 C-131.505 85.515 -131.505 85.515 -131 84 C-128.63671875 82.28125 -128.63671875 82.28125 -125.6875 80.5 C-121.62968046 78.03522186 -121.62968046 78.03522186 -117.76953125 75.28125 C-116 74 -116 74 -114 74 C-113.505 72.515 -113.505 72.515 -113 71 C-111.02764533 69.57004286 -109.06539705 68.28285531 -107 67 C-105.43322808 65.98573539 -103.87090551 64.96457313 -102.3125 63.9375 C-101.56613281 63.45152344 -100.81976563 62.96554687 -100.05078125 62.46484375 C-97.98017287 61.07311556 -97.98017287 61.07311556 -96.36328125 59.34765625 C-95 58 -95 58 -92.875 57.5 C-92.25625 57.335 -91.6375 57.17 -91 57 C-90.67 56.01 -90.34 55.02 -90 54 C-86.50833145 51.38124858 -83.11336093 49.45177445 -79 48 C-79 47.34 -79 46.68 -79 46 C-76.14745778 43.87717788 -73.51997334 42.19643437 -70.1875 40.9375 C-69.465625 40.628125 -68.74375 40.31875 -68 40 C-67.67 39.01 -67.34 38.02 -67 37 C-63.50833145 34.38124858 -60.11336093 32.45177445 -56 31 C-56 30.34 -56 29.68 -56 29 C-55.030625 28.731875 -54.06125 28.46375 -53.0625 28.1875 C-52.051875 27.795625 -51.04125 27.40375 -50 27 C-49.67 26.01 -49.34 25.02 -49 24 C-47.66666667 23.66666667 -46.33333333 23.33333333 -45 23 C-44.67 22.01 -44.34 21.02 -44 20 C-42.00390625 18.39453125 -42.00390625 18.39453125 -39.5625 16.8125 C-38.75941406 16.28269531 -37.95632813 15.75289063 -37.12890625 15.20703125 C-35 14 -35 14 -33 14 C-33 13.34 -33 12.68 -33 12 C-32.030625 11.731875 -31.06125 11.46375 -30.0625 11.1875 C-28.5465625 10.5996875 -28.5465625 10.5996875 -27 10 C-26.67 9.01 -26.34 8.02 -26 7 C-24.04402816 5.60287726 -22.0340906 4.28072371 -20 3 C-18.22663596 1.6967303 -16.46459635 0.38043338 -14.7109375 -0.94921875 C-9.61058321 -4.08162812 -5.03783013 -2.67577058 0 0 Z " fill="#000000" transform="translate(531,463)"/>
<path d="M0 0 C-1.24055235 4.13718186 -2.73724754 7.46976549 -5.125 11.0625 C-7.8133311 15.17308096 -10.43853023 19.30895705 -13 23.5 C-13.67417969 24.593125 -14.34835937 25.68625 -15.04296875 26.8125 C-16.26627845 28.80495652 -17.47903558 30.80397581 -18.67578125 32.8125 C-30.62290244 52.42973002 -45.85762352 64.71133851 -67.46875 72.38671875 C-75.83990495 74.41491524 -84.4516262 74.13252325 -93.00390625 74.09765625 C-94.9824485 74.09553383 -94.9824485 74.09553383 -97.0009613 74.09336853 C-100.47789466 74.08958243 -103.95478507 74.07978636 -107.43170166 74.06866455 C-110.99157124 74.0583656 -114.55144788 74.05385288 -118.11132812 74.04882812 C-125.07423619 74.03815988 -132.03711603 74.02113145 -139 74 C-137.85700498 71.35290709 -136.71075628 68.70730948 -135.5625 66.0625 C-135.23701172 65.30775391 -134.91152344 64.55300781 -134.57617188 63.77539062 C-132.11328125 58.11328125 -132.11328125 58.11328125 -131 57 C-129.5451253 56.89315627 -128.08521205 56.85379834 -126.62646484 56.84228516 C-125.6939389 56.83202301 -124.76141296 56.82176086 -123.80062866 56.81118774 C-122.78103058 56.80388641 -121.7614325 56.79658508 -120.7109375 56.7890625 C-118.54947221 56.76094686 -116.388014 56.73228222 -114.2265625 56.703125 C-110.82162026 56.66220724 -107.41680365 56.62532773 -104.01171875 56.59863281 C-80.5673633 56.99604019 -80.5673633 56.99604019 -59 49 C-57.71029297 48.16662109 -57.71029297 48.16662109 -56.39453125 47.31640625 C-41.30133019 36.9697567 -32.23174775 21.81477711 -23.75 5.9375 C-21.73618832 2.60049218 -21.17654091 2.08052743 -17.4375 0.375 C-11.69949664 -0.4303338 -5.77784653 -0.15853847 0 0 Z " fill="#000000" transform="translate(721,738)"/>
<path d="M0 0 C7.03277002 0.69090263 13.62046816 2.8071135 20.375 4.8125 C21.7267513 5.21001926 23.07864339 5.60706002 24.43066406 6.00366211 C27.37016433 6.86662593 30.30885858 7.73226886 33.24707031 8.59960938 C38.23242643 10.07011943 43.22143273 11.52801359 48.2109375 12.984375 C67.48698085 18.61249464 86.75322985 24.27249848 106 30 C106 30.33 106 30.66 106 31 C98.38694764 31.07656573 90.77399596 31.128815 83.16064453 31.16479492 C80.5749948 31.17980712 77.98937022 31.20022313 75.40380859 31.22631836 C71.67018396 31.26303545 67.93689834 31.27980274 64.203125 31.29296875 C63.06200256 31.30845261 61.92088013 31.32393646 60.74517822 31.33988953 C50.04595097 31.34209303 40.27482552 29.11843592 30.625 24.5 C29.91311523 24.16323242 29.20123047 23.82646484 28.46777344 23.47949219 C20.81749074 19.6832905 14.46892277 14.51056384 8 9 C7.08347656 8.2884375 6.16695313 7.576875 5.22265625 6.84375 C2.76961198 4.80888726 1.47895878 2.80223769 0 0 Z " fill="#000000" transform="translate(291,781)"/>
<path d="M0 0 C1.89213369 2.38573379 3.02391783 4.07175348 4 7 C0.60085025 5.86695008 -0.05254451 4.87481525 -2 2 C-1.34 1.34 -0.68 0.68 0 0 Z " fill="#000000" transform="translate(547,248)"/>
<path d="" fill="#000000" transform="translate(0,0)"/>
<path d="" fill="#000000" transform="translate(0,0)"/>
<path d="" fill="#000000" transform="translate(0,0)"/>
<path d="" fill="#000000" transform="translate(0,0)"/>
<path d="" fill="#000000" transform="translate(0,0)"/>
<path d="" fill="#000000" transform="translate(0,0)"/>
<path d="" fill="#000000" transform="translate(0,0)"/>
<path d="" fill="#000000" transform="translate(0,0)"/>
<path d="" fill="#000000" transform="translate(0,0)"/>
<path d="" fill="#000000" transform="translate(0,0)"/>
<path d="" fill="#000000" transform="translate(0,0)"/>
<path d="" fill="#000000" transform="translate(0,0)"/>
<path d="" fill="#000000" transform="translate(0,0)"/>
<path d="" fill="#000000" transform="translate(0,0)"/>
<path d="" fill="#000000" transform="translate(0,0)"/>
<path d="" fill="#000000" transform="translate(0,0)"/>
<path d="" fill="#000000" transform="translate(0,0)"/>
<path d="" fill="#000000" transform="translate(0,0)"/>
<path d="" fill="#000000" transform="translate(0,0)"/>
<path d="" fill="#000000" transform="translate(0,0)"/>
<path d="" fill="#000000" transform="translate(0,0)"/>
<path d="" fill="#000000" transform="translate(0,0)"/>
<path d="" fill="#000000" transform="translate(0,0)"/>
<path d="" fill="#000000" transform="translate(0,0)"/>
<path d="" fill="#000000" transform="translate(0,0)"/>
<path d="" fill="#000000" transform="translate(0,0)"/>
<path d="" fill="#000000" transform="translate(0,0)"/>
<path d="" fill="#000000" transform="translate(0,0)"/>
<path d="" fill="#000000" transform="translate(0,0)"/>
<path d="" fill="#000000" transform="translate(0,0)"/>
<path d="" fill="#000000" transform="translate(0,0)"/>
<path d="" fill="#000000" transform="translate(0,0)"/>
<path d="" fill="#000000" transform="translate(0,0)"/>
<path d="" fill="#000000" transform="translate(0,0)"/>
<path d="" fill="#000000" transform="translate(0,0)"/>
<path d="" fill="#000000" transform="translate(0,0)"/>
<path d="" fill="#000000" transform="translate(0,0)"/>
<path d="" fill="#000000" transform="translate(0,0)"/>
<path d="" fill="#000000" transform="translate(0,0)"/>
<path d="" fill="#000000" transform="translate(0,0)"/>
<path d="" fill="#000000" transform="translate(0,0)"/>
<path d="" fill="#000000" transform="translate(0,0)"/>
<path d="" fill="#000000" transform="translate(0,0)"/>
<path d="" fill="#000000" transform="translate(0,0)"/>
<path d="" fill="#000000" transform="translate(0,0)"/>
<path d="" fill="#000000" transform="translate(0,0)"/>
<path d="" fill="#000000" transform="translate(0,0)"/>
<path d="" fill="#000000" transform="translate(0,0)"/>
<path d="" fill="#000000" transform="translate(0,0)"/>
<path d="" fill="#000000" transform="translate(0,0)"/>
<path d="" fill="#000000" transform="translate(0,0)"/>
<path d="" fill="#000000" transform="translate(0,0)"/>
<path d="" fill="#000000" transform="translate(0,0)"/>
<path d="" fill="#000000" transform="translate(0,0)"/>
<path d="" fill="#000000" transform="translate(0,0)"/>
<path d="" fill="#000000" transform="translate(0,0)"/>
<path d="" fill="#000000" transform="translate(0,0)"/>
<path d="" fill="#000000" transform="translate(0,0)"/>
<path d="" fill="#000000" transform="translate(0,0)"/>
<path d="" fill="#000000" transform="translate(0,0)"/>
<path d="" fill="#000000" transform="translate(0,0)"/>
<path d="" fill="#000000" transform="translate(0,0)"/>
<path d="" fill="#000000" transform="translate(0,0)"/>
<path d="" fill="#000000" transform="translate(0,0)"/>
<path d="" fill="#000000" transform="translate(0,0)"/>
<path d="" fill="#000000" transform="translate(0,0)"/>
<path d="" fill="#000000" transform="translate(0,0)"/>
<path d="" fill="#000000" transform="translate(0,0)"/>
<path d="" fill="#000000" transform="translate(0,0)"/>
<path d="" fill="#000000" transform="translate(0,0)"/>
<path d="" fill="#000000" transform="translate(0,0)"/>
<path d="" fill="#000000" transform="translate(0,0)"/>
<path d="" fill="#000000" transform="translate(0,0)"/>
<path d="" fill="#000000" transform="translate(0,0)"/>
</svg>
